<mxfile host="app.diagrams.net" modified="2021-04-12T02:08:07.113Z" agent="5.0 (Macintosh; Intel Mac OS X 10_15_7) AppleWebKit/605.1.15 (KHTML, like Gecko) Version/14.0.2 Safari/605.1.15" etag="m7TApy4TU2zIVcQCv5Xw" version="14.5.8" type="github">
  <diagram id="uRNCec0eDFzjLAmU4JYM" name="Page-1">
    <mxGraphModel dx="1594" dy="849" grid="1" gridSize="10" guides="1" tooltips="1" connect="1" arrows="1" fold="1" page="1" pageScale="1" pageWidth="827" pageHeight="1169" math="0" shadow="0">
      <root>
        <mxCell id="0" />
        <mxCell id="1" parent="0" />
        <mxCell id="-vzZBH9pDmQiQkNsos74-1" value="&lt;div style=&quot;text-align: justify&quot;&gt;&lt;/div&gt;" style="rounded=0;whiteSpace=wrap;html=1;" vertex="1" parent="1">
          <mxGeometry x="590" y="310" width="220" height="370" as="geometry" />
        </mxCell>
        <mxCell id="-vzZBH9pDmQiQkNsos74-2" value="&lt;div style=&quot;text-align: justify&quot;&gt;&lt;/div&gt;" style="rounded=0;whiteSpace=wrap;html=1;" vertex="1" parent="1">
          <mxGeometry x="160" y="310" width="420" height="370" as="geometry" />
        </mxCell>
        <mxCell id="-vzZBH9pDmQiQkNsos74-3" value="webhook" style="edgeStyle=orthogonalEdgeStyle;rounded=0;orthogonalLoop=1;jettySize=auto;html=1;exitX=0;exitY=0.5;exitDx=0;exitDy=0;entryX=0.5;entryY=0;entryDx=0;entryDy=0;" edge="1" parent="1" target="-vzZBH9pDmQiQkNsos74-8">
          <mxGeometry relative="1" as="geometry">
            <mxPoint x="394" y="363.5" as="sourcePoint" />
          </mxGeometry>
        </mxCell>
        <mxCell id="-vzZBH9pDmQiQkNsos74-5" style="edgeStyle=orthogonalEdgeStyle;rounded=0;orthogonalLoop=1;jettySize=auto;html=1;exitX=1;exitY=0.5;exitDx=0;exitDy=0;" edge="1" parent="1" source="-vzZBH9pDmQiQkNsos74-6" target="-vzZBH9pDmQiQkNsos74-22">
          <mxGeometry relative="1" as="geometry" />
        </mxCell>
        <mxCell id="-vzZBH9pDmQiQkNsos74-6" value="GitHub/GitLab(Manifest)" style="shape=image;verticalLabelPosition=bottom;labelBackgroundColor=#ffffff;verticalAlign=top;aspect=fixed;imageAspect=0;image=data:image/png,iVBORw0KGgoAAAANSUhEUgAAAEMAAABDCAYAAADHyrhzAAAIOElEQVR4Ae2aeUwVRxzH/Rsfl+KtBUWraDmKYDSoxXpweCDFWxG10XokhlZFqUcTm9g/1NrEox61CfYPtEasNYI00QIFsVajgAdiRMCoxAMUPEDUX/OddF7G93YfO7v7Xv/ZSV523r6dmd9+5nfNzOtAVrET6GCvWRWyYAhKYMGwYAgEhKqlGRYMgYBQtTTDgiEQEKqWZlgwBAJC1dKM/xtGc3Mz3bp1i0pKSig3N5d+P3GC8vLyqLS0lKqrq+nly5eCiJ6rekQz3r17RxXl5fTTgQOUOncuDY2MpD69elFAp07k5+NDvt7e5O/rS106d6bAPn1oWHQ0LVq4kH45dIgqb9zwGA23wmhtbaXfjh+nyRMnUo9u3cjHZmMv3tnfn7oGBFC3Ll2cPriP331tNvZ87549afq0afRHfj69efPGrWDcBuPUqVMUO3o0m3HMvtrLKwER76EdNAeA4uPiqLCw0G1ATIdR/+ABfbFkCTMBqL74YkbrgNq9a1davWoVPX361HQopsK4ePEijRg+nGxeXro1oT1g0BT0P2HcOKqsrDQViGkwzp45Q30DA5lZtPdCZvwO0xkcEkKYALOKKTAKCgoIjg52bcaLau0DZvhh//505fJlU3gYhlFeXk4hAwdSJz+/90Bg5rw7dmShU6/z5FDQHv6C98fv4+rv40PRQ4dSbW2tYSCGYDQ3NdHYMWOYtxcFhJP7bssW+mHHDpqalMScHsKqCAV15BXINaBRuOK74zNoB62bOWMG7dq5k77OzHTSQECanpJCr1+/NgTEEIxNGzey2RJB4MXgRN++fWsXDJnlgrQ0pjlwfn7e3tSze3caOGAARUZEUHRUFH0cHs5UHiChVXiuV48etGL58vfMoLGxkWki4InjAhpgGSm6YVy7do3NGGbTUaglixcrypR/+jStzcignGPHqKKigurr6wnahfS7qamJHty/T2VXrtCRw4dpzerVVFxcrNjP1ClTmNmI4wIO/Me9e/cU22i5qQsG0uu01FSWIYoCoQ6V3bB+vZaxdT/z+aJFTqbJx85Ys0Z3v7pglJeVMT8g2jeHAnX9Mj1dt0BaGs6eNYuZGh+TX6GlQYGBdOfOHS3dOD2jC8a3mzc7+QouEMLdp7Gxhp2Zk6T/3Xj27BlFhIUxh8vHFK/QzP379qk1d3lfGsbz58/ZqlItp4BmIB036tnVpMb4iBwItSIEXsdkJMTH61rUScOAU3P05FyQAH9/Ch0yhDlGtZcx435VVRXLdh2dN+SA6SIU37x5U3ooaRhQQagiByBeoRV7du+WFkJPg40bNig6cMgDOQ5nZ0t3Kw0jc+1aRRiYEeQON65flxZCT4O/z593StL4xGCyvt++XbpbaRjIBJEU8YH5FaYTHhrqlqW10lsh/cbCUMlUoBnpK1cqNXN5TwoG8ovxY8cqrkyxNhk9ciS1GUyJXUor/NjQ0MD8k5L/wmTNmT1beFpbVQoGIsSomBinRRm0AzBGxsQQtvo8UR4/fkxDQkIUnTkiTXJSkrQYUjDa2trok1GjFGFghhD/kQd4orgyE8BISU6WFkMKBswkIS5O0UzgQLGzXX37trQQehpgtx2LOqUsGGaSNn++dLdSMNA71iRKDhSmgkTsr6IiaSH0NMjJyVFNvBBN1mVkSHcrDcNVKg4vjtDriYItAbVJAYzdu3ZJiyENIysrSzHPgGYgzAX360c1NTXSgsg0wDYfzmGUTARywGecPHlSpkv2rDQM7EO4EgTagbWJuwqilau1CSakf3Cwrn0NaRiIKHHjxzs5UXGWsC+JPQ2zT8BevHhBK5YtUzUPaAVMB0eYeoo0DAyyb+9eJ1PB2SmAIN/AFULNmzOH7VzpEcyxDbYOJ0+apLoeAQgGw2ZjO2mO7bV81wWDxfigIOYjeLKFlSRO0xPj41kiBCCwXaxXUufNo6NHj1JtTQ1hCd5eYvbq1SvCST36PJSVxXIG9NfeCR2iWVhoKD158kTLuzs9owsGevlm0ya7diDeL1+6lJAil547xzZ/AQIzxbUE3/sFBdGwqCgqKytzEkS88efZsxQeFkYf9O7NNAxt0Q+ffbUr/NWPe/aIXUnVdcN4+PAhfTR4sH3bHrvZnyUnE+6fzstjmapj6EPIW7hgwXs750rSQnMmJia69A2OQKA12JWH5uktumFgQKgwhOCzBiAH9u+nu3fvUnZ2NkVFRjJTARTMGmY4Pz9fk6w/HzzYrn/gQDA+Pnm5uZr6VnvIEAx0imMBby8vpsKwWSzjYe//XLhAly5dIuxWYwWJcLtt61ZCRNBSioqK7FrHX1rtivEz163T0q3LZwzDaGxoYKEWMw9hccUuFEprSwvV1dUxMDhnuXr1quZwe760VHGvwhEItHHWzJkEp2u0GIYBAepqaylmxAi7WkNDcLaBl3cs4kmb42/idzhipb0KEQZ8UGJCAj169EhsqrtuCgyMjnCL/0xAQNgv/AQ2ZnEWCzPBX5FQxx/YtJRzJSWqMNA/xpmWksIctpb+tDxjGgwMhtAKjYBThXZAaOQhAMMjS5XGXWs1GOgPfX+Vnm76vwJNhcHp4199IYMGsdnje5QAw7bwNf7bxvFIAv1AG3BA/euRI3woU69ugQEJcQCMSILECS/Bs8frGnfPCwsKmDahHdoH9+1L2D7Adp+7ittgcIFhFtu3bWMONn7CBGZK/DdXV0QhOOUxsbHsLMbd2wKQxe0w+Au3tLRIhz/kJFgle6p4DIanXsjIOBYMgZ4Fw4IhEBCqlmZYMAQCQtXSDAuGQECoWpphwRAICFVLMywYAgGh+i9jnYRMBtxnoAAAAABJRU5ErkJggg==;" vertex="1" parent="1">
          <mxGeometry x="550" y="330" width="67" height="67" as="geometry" />
        </mxCell>
        <mxCell id="-vzZBH9pDmQiQkNsos74-7" style="edgeStyle=orthogonalEdgeStyle;rounded=0;orthogonalLoop=1;jettySize=auto;html=1;exitX=0.5;exitY=1;exitDx=0;exitDy=0;" edge="1" parent="1" source="-vzZBH9pDmQiQkNsos74-8" target="-vzZBH9pDmQiQkNsos74-10">
          <mxGeometry relative="1" as="geometry" />
        </mxCell>
        <mxCell id="-vzZBH9pDmQiQkNsos74-8" value="Tekton Trigger" style="shape=image;verticalLabelPosition=bottom;labelBackgroundColor=#ffffff;verticalAlign=top;aspect=fixed;imageAspect=0;image=data:image/png,iVBORw0KGgoAAAANSUhEUgAAAMgAAADICAYAAACtWK6eAAAAAXNSR0IArs4c6QAAAARnQU1BAACxjwv8YQUAAAAJcEhZcwAADsQAAA7EAZUrDhsAAG8wSURBVHhe7V0HYBVFE/7SE9IDISH03jsIIghYEFHBhlhQxIK9F4qCCiIggijY0V9EEDvY6E2q0nuvoYWE9F7gn9m9vfLyXvJe8hIJ+iV7N7OzOzu3u/Pu9squxwUC/sN/+A924antS4WC/PM4X3Be4/7DvxL0O3shL1+ESwklOoNwllN7z2LHov1IOp2qxRrw8vZEtcZVERRRCeHVQxAWFYxKYQHwDfDRUvyHCofz9COYmoaCuHjkx55A3p79yE84h9ztu9k3wJ3oAjy0PeDXvjVC+l0P/5ZNqZd5sIYKCZcdJDM5GwunrUZ2eo4W4wiy1lSVUUGCrtkqBrXb1UREzXD4B/vLpP/h4gM7xNl45G7aity1fyF3934Rza0prxW0lqWNmVfXEaK1KcK7ZjXEjB8Jz6BATVKx4JKDZCRn4ZfxyzSuKJBK+rd1DoZBX4CPjxca9WyEWu1rIzCiYlbgJQVyivyDR5C7eDlyly4XrXSeNtxiDMELSnMGITPxFHRekwnezw91vni3QjqJ0w7CyX4euxQ5JTxzSFrGC16LF1VPtH+QL5pd3xLV29SCt//Fcyl2gXpBfkYW8lIzkH0yHjmJqcg6cRYXcvKQuvsQLmTnascnKlOjL8DLzxfBzevB09cHlerEwDs0EH7Vq8InPAReAXTm9HTL8M8tOB+fgJw/FiFn3u9ajNbZuZlkC1k6vyEz8VoQLUwExzFUjfjWroFa740hccW63HLaQY5vP401szdrnCOQKvpXnaR452DaNh6o1rI6mlzfGsHRoay0XMHOkBEbj+RdR5C4YQ9yySGM4xAVptG0dzmeYyTvWzkMoV3boVLTevCjyxCvoEosLD+QXXnbdiLz85k4f/KUbi/D7BzSchm4pczOYZUTrcczpEw5D29qvjMKAY3qMVdhQO3Hh1U8fp/8J1LPpmmcPZAaUqVOxrYdg2nBa/GS1uKFCRynVauWJqhqCNrd2xUhNSJYaZmAzxAZsXFI3HoIpxdtwPn8fJPtooI0mu20dxwsMqdRtP281jRGvIevNyL69EBgu2b0a1sdHmV1hikoQM6fa5H56Qwgl64GTPZKi0QUW2TwZrqQTONFvAx8RJazygXJh1zZCTEvPsoxFQbUVnxoRYNv4X77ynyNswdSISpa6wSCltUjO4M1XtJaxxDFa2l0WqWR8QFhAWg3uCdCa1chzg0gvWnHz+LMiq2IX7dbK0crW6elPUa8Zi/zWrykC8c7yitpO/FmfQROE9KzE0J6XQlfOru45bKEHCN75VpkfPwFPIg2l8vgrQjUmXVaBBNPGwuv5CLexJvlJn2MpvO+cM/xlBOoLfjwikby6TTMf+9PjbPFBVw+oC398hZgww9bRE1wlYhqEQ0geUmreC2NKFqLZ1KnVbwwUI8PokuuNvf3RFC1cE7sMvIzcxC3dheO/rxadBiLLYLW9gQuV9K0F2nOU2BWxsv0hfOa08i8WpxOq3iZ16qP99Z4Tx8fhN91EwK7d4Ynj11cBenJ2bgV6VM+BLJztLJkvCiHSRVK4RyeEWGo+vyjSF2yCqkr1kq5HX2Nv5oC77AQ4ioGqM34EIvGwb+OY8PPOzTODMpK2Qe8dSM8vTyQn5uPNTP+wtn9Z4VMNLZQL6tWBmZpb44XFihaxdvkNcVHtqiFFgOvhE8lP+KKR3ZCKg7/8CcStx0iFZo+Cvxv0CqeoNGiPDvxMr29vPbiJW/VaY1zlFaWKR2T+Uqd2yHs7pvhFVmZJcUi/1gsUt96FxfOnbPRKWlBquDIOWhzgS73+FK0kJxlRIfdcxvCb79R3HjI3ncIx18e41BfnTdfQlCrpkRVDFD782EWjT+/2oiTu+M0ToEOmbKGRYeg93PdtTiJY5vIoeZsNHVqmZbpup3qodG1zRC3+xQOLt2N7KQMitc6gSU9kTZ5bdM0uqUzavZoSdfrotkLIfNMIvZ/tQRpR04Xysv/Qreg5d5xPGcrLo0pXi+Hy+Srb9v0BEs+La1OqzSGc5h1BrRtgZDBA+Bd1f4l54WsbKRN/Qy5f28Sea06JS1IFex0Zp8WTRDY/2Z4V4tG4qQPkLP3oEXO5niEBCNm3CvwqUGXgRrOU9kHBjxmSqul5z1tqt7dD1F39SOuYoDqXdR8kfhmmHH7T4IOWWS7gFa9mqDZ1Y1ktAnpCelYMXUZcjPotK6lFY1NdL2uDdHy1vYiXXZqFo6v248D87draVi31lkErfLKeIOW8b5BAWjzeB8E14pkoUBOSgYOzl6GxO1HiOP0slx7eozOw7Qs1xIv8gG+oUEIblYHgXWrwzu4EvxrRAkdfBs3ec0WnP15mUhf69mB8K8ehfN5eXQZdx45J+NQkJqO7MOxyNi4Axdyci22GOVzlKJVvGaPnt56HP4d2iD0sUHG8wWSZa9Yg7QPPpf5KFh1qnoVpAwm5/AID0XQ4IHw69gWHv50OUf2x7/ypl3n8GvaENGjh8KDjt8W+255UIxb9fS8pw3vA5s3Rv3xQzlZhQDVt6hxhyjIK8B3IxdoHEGrcHXoPYdcgar17f+S5WXnYek7C5FFZwlOa+6Yja5ujiY3tBbpGBeoQs/uOYld361Dbkomx4jOoJdFO4NW5RsdpnLzWmjYvxtOr96JE4s3m9LIvAYtGBNtJ42XJ6r2aIfQ5vUQUCsK3kGVRJwjJK/dhpOffi/01R/3DPxiqmqSwrhAY5+C5DTkxJ5C9o79SF1MYzs6drMtso6LsVGPp043oB8CLu+IlHc+wPnjJyjG8XhJRKugOYd3y2YIemAgvGvXpEQiZyHn0M+DxATfcA0qPzSQLqm0tDY4Pe1/SFr0J+WT+jmP2Gt8m18/52QVAlTPoqYdgl8tmTd+KVHyKLVDFg3E9I3Dr0Ol8ACR1h7O55/H6g+XIeloAnEyj2rctvd0QY0ONvfFSZR0JA47Z69G1tlkEWHrHAYtM0idZlqTm+P1fFKXNc0FBFSPRMwNXRDcuBZ8Qlx74pu8ditOffI9UewgzxbpIPZQkJyKrG27kfrbMuSfOEUxbJdoHI1mGzmlYa/9NPbj+V/sRYwM58k5fDt3ROAD99CYxuYHjvImjBpPDrxHphWRpIGY4BuvReWHyTmKQNq6zTg+bposizZir1nAofUPH8HTz5eoix/F3mzPpbOAOCz6V4fIla8q3C+w6AP19PZEtyevRkTtyiKPysth29drkHjIZmxDrRteLwrdXr0NHZ7qA78Q+vUWZZnLZVraI+K4FZjWeIMmUqWhPYPHBCqNL+mue9/1aDvlWbR4/UFEdGzqsnMY0MrUOFfgFRaCoO6dETNxBGp8OgER9/eHl7hs0nQK0/mswLT5+DSaj0+P52M0p1HtxjHsGHTGaN8W4Z9OQcjQZwo7ByF5+kzhHOwYyjk4X3C/3sU6B8OvdnVRFpsh9poFKhTQOKWioFgHEQ8H6ajUIYrGMNFevl4iXVHgQXTXp65BUJVgU16pc/3UBchO5oF6YUQ0rIbuY+5Cy8FXw4t02OblFuC96BQiXpNraZSNRj556RHeqh5avTYYbSc+iciureAdWLqXJqUNsqzSwjM4EEHX9UAMOUrU+Ffg34zHd9Lu4o9PBiONpBnc0T2qxyDsvQkIeeVFu47ByFj6J9J+XyLSy5yac/Bl1QN3iZji4BUarDuHdGtJs1V85ipIs9/eFyOKdRC+RLI0gE7LjuEs2EmufOF6+Ab6mfJKnWve/kU8R7ELuiaOalcP3Sc9gFpXtzZs0PaSJhu5RTRep1Vaja5yWVO0ffsxNHryNnFJRUK3QHVeWZabQMftU6cGKo96HlHTxsG/YxuKlGU4dA7OpmgKCue9vRE0/AWEvf82vGrV0GILI+/YCSROna40UhVL5wi8sjOqDLlXJnIC/LyG80u3Zl3SUVgXI/9ScpCsVD4dapWuqo52TEfUcO2BnbefN3qO6Ku9p2fozEvPwqaPF4k0juDp7YUGt1yOy9+8D4ExESKfsMdBxzDbG9GqPtqRYzR46Eb4hgUJeUmRuOwv7HnkDaSs3aLFELT6EIQJSb8ux5GHhiNj004tpmTg5x7hLz6OyA8mwLd5E4rRjlUrU9KaDXq8tMbn2qsQ/vV0+HZsRwlkh7WHC9nZiHv5daVRPwP4NWmAyOceEWmcBb8mIy/NpA7xE8uEoIGcs+ckUwFQrIOkxafZaQwZgiJdv17nh3tXvHijoVPsqTPtP4Xjf+6WiYqAf3gQ6lzXXtpgssXcMVS8X0QwWo8ahMZP3FJqx2AUZGbj9Fe/iDd4eVB+PpfHZwxVN5Jj5NPAO/HbX3E+Owdxkz/HhfzSf2knHOW1lxAx7lV4hgRTDJfJx2rfOTgE3NPf7q1YW8SPnoTzObmsUXcOfs4RPfrlEr8Xxs6gnIP1ycs25pmrGCj2yC9ol1giFGqMkiEkJhwt7uxSqIPv+34NshPTtVT2EbtoM/Z8sUDkldVtOIRh4wXUvfMqtHvrYVTiSyk3gZ956GV50ZiIzmoKtpecnv5+so4oeNG4wsOz+LGas/BuUA+Vp09BpQG36Mct20OWL2uGozyQeP8T4ol6UUj7dSGyd++TmlgVxXGoMXk0PP2ce1vBFoYzGPoMCysOnPppEJ1RNIDZOUp3uDUvb4So1rWlTpO+De/MFa812MPB7/7EkblrpD0ivWabsoX+A6tXRoeJjyK6Z1sSltSF7YMdotH7wxHzSH80mDLc8ssqy2dbJNhB6kx7HVUfvwc1J79CEe61ha9TK/W/GWEfThbvQam24K0I5BxyfwGJzw5HzvoNLC6EgoRzSPp8FqWl9JRB5Y965Tl4R5b8LWpbfVoL6aGioFgHUYeld0YKHCc7ZunQ6v6eYtCuqo9/hXNT03HgxzUygQZ2mJ0f/Y5TK7ZZHMJKk9Pd0BmtRt5Xilu1xcM7NBihXdrCO8Tmkk2rF7ZHwYufTF/RAZ6VHD8nKi08oyIR+sl78KWxhird/HRcBg8kTXgfWSus9cpfEJ4Z/qaQc1Wq9IFXXIbAy/imQMlh1meuGdFkFQjFOghPwCA7oHGoZro08PTyRMdnbjDplPc9Tq7YgYxTiSINO8eOab8gccfhQg4haIrzCQygscZ9qNmXLtvcfNZwBuLHQ7PrHwGfTR57EEEjXrTrHGJPm6QpHyPT5CSpvyxEfnyipTN7hISIt3JLC6VPL58Dbf7BWioRinWQsJhQ0Rn5sEQwddL4fWdkolIgMDoc9frwe1msUztLEb3t/Xk4n1dAZ47fkLz3uKVcs3ME149B+/FDaKxh/75++UDZJQz7x+DToS3CPpokBtdGbdGeNopPnPIJMshJCpJSkPTlHItzsLz6m0MtY6uSQunTddNG8R5e7huPlTWKdRCfABqYqiEXHaXoCIIGctKyZKJSom7vdvAPo4Gs6GBSP38Dvualz5C066gl3uwcUVe0QIsXB8DTp3wrvPDcT9Ie3tuivOeJ8oqOQsRHk+FRpbKwhs3SB8xiDySQk5x8lM82Sibl4Xf0Fd+OlxZ8x85cHpdj5v2rufYqzj+JYh1EzWWlnEMcKu1EZ6XgaEDtCviyqN0zfaVOLodrlGD75qtO075ajzaof18v8QCyPHH6/Zk4+MAwnPlwthajwDZyvWggG+PefB+x9z2D5Bn8nlb5wYPGPFU+nATvxg2FA8jWks6g+ILsXI2WlvNt4/A73fMaurxdzHq5GlRP0XiivfwrxntYjGIdJLCy/GVXh6icQ9IXUOCmX8iAyFDUvLqN0C0vteR4RJUjnYPjLyDmmvaoe9dVgi9PFKRnIn0D3ygAMtZuFA7MkI6h2ajZmR+XgJxd+4Qsff5yPW15wcPHG1XGvgrfJtJJOGg1KJ5oS5rj5fVBtZHPue3SJ+vEGaGfXyvhvQrygQH96IaX/2QcJUXxZ5BKfrLxOXBH1Q5X0dkp7rnMYtTt1wlefLlk86GQLJ94oqtd1RZ1+ls/0CoveNEvs3cQ/WBQU/MLhuYHcMYPh4RXZIR8/kE2+/AkDE48rHM7vDwRKZykgahB/jU3nIOPQloc2Kkt/N0420jGsVPCORisXzqoxlMEP0+qKHBuDMJHJTqqtdPy4aedShLp3AF+KOnND+OIFvq1chRdrUdr1B3QUyb+J0CXc3WmjkLNt4ei9nsjyUjZ6Gyeqg8F/jWO+fAtRE8ahahxw4205Q3+tmXMCPEUXlnINarOKBwKMoub68w1JK6Tr+EYZy557MI5qR4uKQfhW7H8xq7otLqjaIHohH38/YJ7sHPaPOSly4+rrM4BhDSsLp6O/9PgOzy+MVGWyxFhI9vK9WOCh7c3vKtHUyUWW81lCr7cinlvrHZ3S1mrBfqlz9i+B4m/FP0unNOgOkj8e4fJAWV56sxVpXPpnq+UN5xquRpta2mNr3VapkUHBk5tOCTSlBYnl25B6sGTQifrF+VwldK/X3ggmj/fnwT/0K+wE1A2X6zgh5XVJ74mLNSDaYxwZvo3yI2LJ6p0yE1O1c8aqkZEd9H4sNaNRbqKAqccJLp5ddpqh8hHK2jZKc7TID2vlKdoNeuIfpbSy5I+0XrkoBK/MFcuYDv1url44RMdiWqjnmdzLc4hgweODBtPwz/u3iVH2oFjQpeulzZmPqxFA9pWHDjV60Krh5s6gDxcM516ouSvL/Nt4m2Tvneov/nzd5T6gya3gOzhO1H5icnIO3kGuUdikbl+MzJWbUDmOmMGl4xFK5G56i9krd+E/GMnkH/yNM6npJX7XSxHCGzfCmF9ryNL2VoVuMbp1z8hCWfn/EpUyRG3aI2hlzZKtwqVXPwc+Z8Gtato2SLBSf547mumtM4rfzEFT7LoNnXQ+oGSjQ/40urIDyuFTqVP6gZirm2P2rf3EHR5gl9R51cwco+fQubO/cjevhcFySlcEfL42T5Bm88cGq/T1niV16tKZfi1bAqfls3gXa82PGnw7OFbzs8F6Cxx+OmRyKbjk1YJ8+Se+KZfTIRvCV5U5LPPnzdpU/4IfZpuLfhWDkf3meOIqjigNhStWCw2fbECcduPUQarcyj62ikPuvzQLi8tC3+9/InQadVH446wQLQd90i5PAjkp905x04iY+sepCxYRQ6SLeyw18GFfYK2dQ6mRUKbeFun4TTaTU9Np2dYGPyv7Qmf9q3hVa8OUA6vYuQnpWDfoOeodGGG3AtrAP/a1dFk2mhO5hLS9h/FpmfHWXQZwQP1B96E+nf3Ia7iwOkL+9pdG4uGVodtpYHkQ66/l3Vg5iKtw9jqO4/mL95Zps7B0+9k7jqI2HGf4MADwxH7xlQkzV1i1zmUbSreTMs0TAutNvG2zsG09ozHpOdCUhKyv/sRaUNHIan/fUgbPQF5O/eIX/qygnd4KKIfvVd3DvVMhEPmsVNI2cDzlLmGU7+vNA3QpS4ZiCci+ko5F1pFgtMOEla7Ch0mQza0qgLuGEwfnr9JSJ1FxskEJG0/TJStvguocVMX+EWGiXTuRt65ZJz9+lfsHzwCJ8Z/iuzdB0XZzndwe/FEFkrjiC6cl/cM3vLt0JwtO5Aycizib7sP6TO+QUGi+541mVH5+h7wrVVdnc9k+USzDUfe/UL8iDgL/rry5OK1RMmjMQLxRDBdKcZ9H6+VF5x2EG8/H4TUoME6Ha2qAjOdvP+kS3ez9n0mZ2u01ecTFIDqfS4XMnci59RZHBv9IQ4/Nw5Ji1bblCubVQQtXtFCbqELd3D1+1s4Xsbp8WZa45lm8FY+K5CdlX+JOWTM/QPxDz6NxLGTkO+G27AWeHigzqtPCVKUz1ZJc8R3OfFLbL4fKQIJf/MZx3gAqZ9JxDEBNW/sfnHfiXQAlyxu3LejaFg+atHYIlbRF3By9S4RUxwyjp9F1plEPZ9ZR/0H+qCoWQxdRT419InJM3Bk2GRkHzwm4qzlGs1aOF7yHC/itLySVvHy99caT6QmN/QxbYoX6SWEMxCrUqtOpixjWdaGrYh75AWcG/8ezqe7b1YQv2pVEXFtN3EUbJJRvgeOTPva6W/pD/A3+rRX+UXtEaPi6vT7B9+AKAVc6onhDaLpaGUzisbWGlp1giPz1ju1HPS+L/7Q84mg0QHREQhr4aZ3gkjnuYWrceCpsUinwbe0UXZkZa+ktea0xIvmNaXR9hT0OEVreSVtk4b2Bi11GvEs0ToQEUZqFTS31WWSz1i/CbEDH0faH0ul0A2o/vCdWjkqSFvOU+TZJXzZVDTSDsUiiy5dVV4+UnZq1RN8QkMQWL1i3d5VcMlB+LWT2j1biCrgGpXNRjXBtOCBuL/2stQheHmz7NN09jDn1aq1wRD3vG5dkJGFwyOn4uzs3+10VLO9HG/rHHZosbd2cJ2mINJqPEPPp9JwHPN6PEu0IB7YqdQcTDxtrDKNJyLhk69wavhYnM8q/cuivGZi9ftvM/SLPQXaHPpwtpg3uSjsojO0npcIeTZksFN7oPFgateL+C2IouDytUztni1FzXE1iqrUaQLRB+asLPIscvjrxXbyXkClGpEilBbZsWfEWSMn9rRNR7V2Up22pGGaYYrX4uzm1eJFWgqMwvo0Xo9niRbsPM02ZDa8kot4GbL2HMSR+55B7onTxJUO0f2ulfqJFkGUQx2c2jKxiDta6UdOII2CrW0ir0bHdO9A24oJlx3EPzwQEY2qyarUGt1Mg65ZT6+0X6G5yelIP8prddjmBeoNvkFLVXKkbdmDI6++L+6+WDtq0R1c0Bov08s09jq4QdvqdOQczKp4lmihlM6h5Odzc3H0ieHI2rWPuJKDX2isfndfqVuUY5R/4MNvOIldbB/HMzHat41DXRp7VKQPpGxRotFw4/5X0NHLahBVQf+K5o5x+PuV4os1W5xZullPY84bEB2OSjVLd4167o9VODFlpkW/aCpFW8rkfeEOLr5DUTztRX5OV2xeK22kZxWSFqQKjpyDNiIo3iwX8SbeLCd9x4aPR8ZW526SOEK1W+gsQgqt+j2QQ+ML/sbDFvEbdiL9RFyRtjUaWPofvn8SJXKQwGoRCKnJz0WoCuif9yJwTWn0gRnW16f5natTi/62pFEdqeYdV8tEJcS5+atx9tv5pI9O6ppOoVvQznZw7W4U8xQvbZR5JS3jjfRm2qgDa7y2Fxq0UJRzmHmzXJdpvKI53qTv2Kh3xLojJQWPRSJ7dTX0m2yL/WkxJ9HBqwFvf+szx7ZRqN7jMviU9/LWbkaJHITR9P6rqcMYHcPakajTbjmAtKPG0/W0AycKdTYG07xQTUmRtmkXzs7hwbgc91htcbaD8774vOZ4Iy/nEzdJNT3meNqIXFpwt3PYSX/giVfFtKclRc07rtd1iT1teH9q8TrTVKt02fXlPOTTVYJMa0qvAh1ryycHEFWxUWIHCYyOQOVWdUS1WDsSS2Xc3qk/63dATv7OtwtlvEwvO1DMTV1L/EoJPxU/8f7XUifxVltkRzbsssaLOArcAxRtP72ZLqxTOoetTmkLQ6bmOzsyxggaTxs5mDXkOq/LDLngiWDekJl4YvY/MQoXHM2WXwx4xhFf9fUhbXRbaJ+86yAnQTpdbh390VgioZBtdKzNH71dzFdW0VFiB2E0uY/PIkYV6TTtmc9PzxB3rc7n5CF1L7/oqKpS61AUqnQ1lmFzBdwBjr42zaTTKNdii4W218HtxRNpSlM0XTgv7xm8Fc8DqMPovNjLFJyNeZWDaZ3XZTK9LqN4xWss0RqvyXJT03Bk/IccUyLUfeBWu7YdmvWHXO576Lum8gvbxt/f17+5Yj4YtEWpHMS7kj/q3d5NdBDZSWRn0Zpf0AlrtmPvlO8KxTPtGx4E34iSrZl96uM5YnFMW52Sls0qAsXLZnNES5uNeCKpuQun53gZ5zivpBm8lc8DpHPonUiklDLFK5nMSbwu472UCxk5mu4MzApa6uONWZby11Ykr9moca4hon0LTY/Up8pP2n0QG195H9kpcoJxWb6UmW27csqLHHNJoFQOwojp0Rpe2kx8ovOI6pKdRf1uph+k8YesRornapfpql7dUcS5ipzjp5H2945COmW5ZlqWIzuyUa7RqTle0RxPZJHxMjhOIyFjVSqDlxYQTRsLL4LQaCMz5NwBdVrszTKD11jBHxz3sbgN7Cq86dIoIKaqpkcGZdu57fslbSnfoGtd0wmh9Uo/+dzFglI7CL831fTJfqKzqGqSNEPR5niNJzqsPS8G4yIo34l3Z2g6qXyLftl0qizeMwzaiLffweXvceF4Gec4r6QZvLV3WaUsM585lIz3DPOZwyLT4g2Z8csuZZLXWMmLjMDx6d9JwkXUvPlqoVOqkfqsZZjLl4EnAGz1RMUfmJtRagdhhDWphcpt6hMlO4tseltadgnBczz1H78qrr/SnrJqE/LP8evf9vRzMxnxIhAt4iw0pS0Uz93KNp5ITc68ThfKKyE6CrEs0XlBaR1ayEw8BaGJL08sMnUkvJG8lHEes0zyhkzjtQjm4/5YiezTZ2WEC4i8op2m13nbLn/rSXgHlGw9kYsVbnEQRsOHbhR3LVR1WTsVV63Ga/FVr7mMImVHchYX8vJwZrpcblnpFPqETm42x+XqnVpLL2hzvJbXiCdSkxv6mNZ0Mi3SS4hOQ6xKrXci4g2ZlCuZSGu6PLHKKIgOaPCqM0qZwTNkOtan0kqesf+tj8TeFfiFh8DD20d3jqJsY1Tr1g5V25bgiuAih9schCeQbv7SnYK2dirZRQSvxXMIbev69C8JP/LDKqXTqo9RuFxFa+nEXsYLmoKQa3klbYoX6c20tVwGb0VH4Wg9taK1TqTLbOQi3sTrNAWL43DQeNrYlqWcwZ4+lqUfPoGMQ8eJcg01b+ph0aUHG9t8w4LRcej9RF16cJuDMAKqVUa9Qb1FdYpALSadgyBorarpP6B2tMjjLHgihcQ/Vhid1qKP9iqe4+zRYm/t4CIwTUFPK2jpMLY6zHkZUspRulQLJpo2VpnGi3gTb5YX5Rxm3izXZRqvaBHvgX1vTyfONURd0daqi4Md23pOGyoWWb0U4VYHYURe0QqR3VpxTYqqLewcF+Dl70PBtWvVxN+UcxBs9Fk6vkrDci0do1LHNgjsdhkqde0I31oxhfKa0xq0EW8uV5AqOOrMQmbDK7mIN/FmuY0+/7q1ENqjM0J7Xo7gzjwucEGfiJd8xokzSD9U9FqFtgiuE2Po4mDnWK9483EEVHFtteOKBGp/rkb3QiyZNmwa8s6lCJ6rVVQtFcUdLbJXZ8TceZ2QOQN+KHhg8DCRlzusbBoKOs07LU7Q8qxVqUMrhA28Bd5VC6+JzuOZnK27kPbxlzifmqblZRtt7VU6tTgmVXDnLz0HTR8vRVDt6QcQ1LaFeMvWAlLAnw+fmD4HyRt3ONYn4s36PRDUoDbavTeCOOfxx01Po4DX+7BzrA1vvwYtH7qZk12ycPsZhMGvjuQnyfeBuFpFR6bAHY354GZ1hcxZZOyQywg4cg6mRRzRwjm8PBE1+gVUeWEIvKMKOwfDw8dHLM5f5ZNJCOh5hcjP/1KPslfp1OKYVKGMnCPsxmvQ8KspCL6sTWHnYHh4wK96FOq/9gwajX3RpMOkjzZW/ZJOPXAMuVq7OIuYnh0dHis/L7nUUSYOcj6XfnHoLMLVaO3INGQk3r9GlEjnLM5981uRzqE3Gen3pI5f/f3R8GvonBPyZNQhjz+AgN5XS91Cj1aOiWbIkjhKxhhB42lj4c1yXabxiuZ4TV/le25B9JB7nJ7cILhVE7T8ZGxhfZbyNVrEA6cWrKat84hs19Sky6rv7FZ+aHhpo0wcJC85VVSj8cvONN9Pkb/Q3qHOL+qfn5KGPLqkMPQYzWRLs8NEj30JXhHW5ysXsrKRvXEb0r6dh8wFy5Afe1KTGAh6cCB8WzUTLa/K4n+xJ8iSWCxjjKDxtLHwFIq7uyTjJR9ydVdEDuhLlAmUIPPAUcT/uhSnZ81FyoZtYvUmM/zpbNL8neFSt7DNXL5G00bGeeDIt/NlhJMIrV9T16frpg3v4/5zkJIhJy5Jdw5RrYKWnc2LLhtcWckoa/chyqd1NU2nCKxap2U5YbddD5+aMSzQkbFgBc7c/zSS356GjB9/RdoXs5H4/CgkvvQaLmRav+cOfvkZXT//iz1BaqcOZ3IOvfPznjZmnmkOQoMus8qZYF7Qvr6o9sQgpnTwK+u7H3gZ+58fgxOfzsbpOb/hwBtTsfm2x5H811YtlURQk3o0ruumlaHKFxeHhWwryM1DdkKykDkD/yphml7zLWupX+i7SOYcLiuUjYOcPadVH1Ur1aiZDunQVKRxFqmL5SWBVY/svCJo8dwdgm+2DvzTZv2E1P/NFmlEPi090wVHjiPxyaHi7KLg4e+HwIfv1/UzeMsPy1x/dYQ6lC6TpTMteBGvOQch5pkHxVoiCnzW3HX/C8hNSNR0Sl0M3u0b8wHiF1vnrKr78B1aWlkWw55tHM5t3s2RTsGb6kS3lZTI4zDqIiux5N+eVASUiYNkHTpBW9kZVUdTdIALL7LxZMjZ++X66FIP61TNbdLPew7mThZ7Cum/LBDxIq2W15zvQmoK0iZM4Ugdvt140jqRUHYoVk+pdV5QWmcXMhNPQectMikXPDka81LGeTwQfLlpSk6y7eCIt8V3NFInpdUSK55x8L0vkXvOOBPw14CyDMM5jPJlXsWfWv63oJwCqeNvfzizOg6GskW92XupokwcJPOw/HpQdQODvuDSrOHidXZTXru02HM7XkDuwSOcTdwWTpryqUgj0or0QlJIR/6O3Sg4E8dCAY/ASvCqVVN2KFavpTZ3MEMm5Uom0rID2JVREM5h8MI5OrcVNwoUeMzBs67LdKxPpZU8Q9AUuX/idPEjwji3fptMz3Itj7V8w7aEba6NHSKaNxC2sh6G2ba0k26e7fEiQ5k4SG6cvMQSHZdqUdIUiPaNdP6hUkFiisjHLSH1MBStxWu6mU54ZTxOD3oKZ+55DAViIK7JSWbJp9OaY/1pnRzNuyddz7NKPbWuSe+cirfIRbyJ12kK1DktvCYPucL6yn/i8nWWDmib3lx+8o79WH3To1hz+zPYOeZDmU6TqfQyFNblytghvFFtPa+tbUlHSj/l0MUMtzsIXxrozUO1KGhRm0zTpQD9QjuLvDNnDR0cwc84TDqNeEVTOTSmEOWpNII2HFWP5zjmic7ftFmkUfCszJ+cqtQih0FzFotM40W8iTfLHTgH5+GlBsyIX7BCyklWKD0HEW/W54F8Omb7Mo0X8Sae9gU5xvflxcE3NNCanwjFZ2oPgy9VlIGDFMgmoH/e652Vtnyr19OVOZLoekDoEPrY8ezpNKfR4rQ0Is6URuQplJ4G7Ad4lnkDvKiNTC1L0WnOYuaVXMSbeLO8COfgPbysDwPP5593rE/Em/UVJdN4EW/iNbog2/mJxkNrVzPyE6F0MJ8c6/qr9BUJ7ncQniyAao+bwujITPPJmeJdmOGbzzaiSUmPI+cw9BtpZHojjaQpmOJVGkFyME3hmbPubxmnpaCkWsfQeD0QL+JNvFlejHMwn2aay4qXQHOoT8Sb9Zl0FZJpvIg38Sa5T3AgbZ2Dp5eXzE8ZDR1SX8J+198Srkhwu4Pkp8llnG07L0PQ9l6fcADfujVIBeuwdQ7HtExfFM1JtTiRS4akJ19C9pKVSJ/+FTLnzRcphYyzijQarwfidZnGm+VOOAfvT3z6DU5+/h1dWq3E7qff0GSm9BxoY9VvX5cRiNdlGm+Se3j5wNuFM7mXn49jfby5hOF2BwGPQUStyWpk2trBnYdXWAj86tUy5VU6WapoFW89W/C/QZvjtb3IpQXqzOcTk5H2wWfI/H2RSmnqFBqvB+J1mcYrmuOddA4VzsxdhGPTZiIvNb2wnDbW9EXrErwu03hFczzZ1uJx15bU9gvl9dUd6CP+Uob7HcRUjarDCl6nXUPky4+ZnID1cKx2I8ASb03D95tEeVq5kpZOw+CtCC50ZmfvLhkyEy9kJt4s12Uar2hhm8FrR2RXV1G2iSDiPRBctzpq9+5CMa6BdejlczDZxlMBXaooAwfRfrmpRWT1Ea/RnnSqdhVe9OsVNWmUrlM2k9Qpm5zjOaWirWlEHAX+F3uRUgZnXx1RcqFBlxlyISOCeUNm4oWM0xn6hIzLt8gMudk2JWeUxDZZhgf8IkLQbfILJVrpSS+faVvbynAtxX8abncQc8cUvE5fEE97SwKf6tGI/mCc+E7CoXNwOXp84TTKHt7ywzJXXh1RvCGTmnWZiJe8ZJnWeJIpXmOljAkTr9O0sbVNyUtqG/NV2jTGtV+9WapJFYROe7apg7kEUWZnENEsJueQtGpC1+FVORzRH09A8O03Eif16k5gW46KN6VhyAaWEp0XlMwtZZJXMp3XZRxPPF3DV2rbAsE9r0DYzb0R8/zD4iOniH7XIaRHZwS2bioyiLR6PskLk0w8g6Ps2abzQsZwwjbaC547s68vOo1+HF3GP12qz2KFTs05jPIlfymD+o9qLvcg99RZHBn2DinmpuOW42qUwTMwAHU/GaulLDnOZ2QgY85cZC1YKh1CdAfaC9paroJsYNmoMrUMqsNJma2caC3er1kjBF/bHQEtmsArLFRMr+kMeOK2vIQkpO/cj7jflorXcMz6RRqmRTlW23ReyEy8ovV4huEYHPhOVcsn70DNazqX+ntxnqT6q5te1nXLYNj28B9vw8vJ+qhoKBMHOTqUHISrj1Tz3qCBerPelQndAH4TN2fNX8ic/T0upPA3KIWdg7cicLQWK4OJLiSTvE+Nagi//y74t2rmtEMUB/6eI3nDdhz77DvknEuSZTkov0iZiDfxGh1crwaaD7kNlVs2KvGk4LZgB5lhcRCzbcAjCyeJ5fkuRZSJgxwbOlHUHlejqEpBy85bd5b17Vm3gPTzbdq8jZuRM38xzh+XkxOIRhRiowPJYOJpY+EpeNephcjnH4VPLQdvHlOmgoxM5CeliOXPzO81sT6v4ED4RkXCp0p4keMunopn/8TPkBkbZyq/aNsEL+INPrh+TTQYcB2qtG1SJutxsIN8qTuIZo9ugwceXzKZk12ScLuD5MUn4uhzb4lqFFVJ6s2/7HVnvycTliEuZGej4Fgs8rZsQ/biFSgg55GNKRtUp9kkM0+hyvBnUKmT6fVzhfPnkbl7P5L/WIbU1RtMebT8tLHwJnnlXt1QhUJQo7pUETa/6pTxzPw/ceCDWda8tLGni+MDa8cgunsHRHZoLm7blvWUO2mnEzDnvjcNe2ij20P7J/5zEOfBlxCHHxwuq45U8150CY2u9cVEeLo45U9pwTOYnI8/h7yjx5C39yCyVq9HvnAarcEpeIQEI+aDCfAMLvw5cOa2XTj55ntiGQeVXgYtP20svFmuy/iWdQgajXgMwc0bEmdF9pkEbH5+HHJT0rU8UldAjWhEXdkeoY3rIqhODPzCafxTxg5hi3OHTuLHR9+RxyFsM+wLrhaB+2a+yskuSbj9wtGTP6nl6tMcQpw9dPoCcg+X/7s7PIOJV0w0/Lt0QvDgu/lkoFkjG1s4x8fv2HWOxB9+w4lRE0vtHMznpaRh59C3cW5V4WUJ/KOr4LJPRlMFesq8FKdC/YE3oUrHFvCPjCh352DsX7xR2kIbaZNhX0yrBrS9dOH+kRU1sF/NakRwNUrnUFXK9NkxU5D48UzkHT9J0SwrX+QdOoqC5BS9gTlEjR8Jz0qFp7C5kJuLhK9+IDPtdH7e08bCm+W6TOMVTZu94z/VV94yw5vGLq3HPmfKxxO+xSGTxnXlDX4d/siq7fjugXHY/uMK7Xj4OMzH6oF6V7QQ6S9VlMmth7B+11DVFXYOSdMly4p1iHv5TZy69ymk/fA7Cs4lUmz5IHPVOq1x5e1V/y4d4UNnF3vIO5ugWa86hDoa2tPGwpvlukzjFS0cTePz82lbGOGtGqFSrRjtlq3UdXpFyRbCcRX8deLZ3UewcMQn+PzGl7F49P+QFHvW5By8V0HaFtPCtTnOKhrKxEEC2zZ36BzmeOTlI+37eTj7+DDEPfQ8Mn5ZiIKz8STmNGWDjMUruWTRAckahPbrIyh74DGD7KgqWJ+ZiId+Zhk7gCaTR2jIbV/PKOplwQaDebZCqYvLO7PWOouJO1FAbXB21xGsemc2vrjuefzyzHs4tmGvkEm71bFovNhL2yIb1YR/iPOvzVdElImDePj5IqR3d9lFRGeXe7Nz8DcGsotJp7mQmor0r7/DuSeG4exdDyPjq2+Rd+CQGGC7E/mZWaKRuQNy4/OzDkfwojGJf33+3JQdQzoHMTqvsVLGhInnvaBpY/t6RkTntvAs4rlKpepVdedgpIhJMNyHnNQMxK7fifkvTsWMPi/it2ffw/6Ff4vy1HF5+nprxySPRco0XrPtmhf6i5hLGdQ3Ra91O3g29hODX5DVS0UIR9BpCn4+iJr6FvLPxCPjp9+Qu2W75kDCKJmW0xHtXbsm/K7uDp82LeAVHUU9t2QD1Qv0a3m8/wNEyQ7NJdT97lOyxfFdtQJyqANDhiEvNU1kUJ2fwXvBaxHcaeSRajLaKF7KyCFDg9Hpf+OLfHEzLz0TS/q/IGhV3o3zS74oZ256FpIOn8QJcoo9v6wWc2MJezTHVbbxfGVt7roGDa/pgISDp7BozAxdxsFcb5ENquOeT54XsZcyysxBGOkLVyDpf9+JLiKaWev4iua5ccNfekImLihA3sGjyF6xCjmLV1CEdA7bvAyedcSnZzd4NW0M75hqYiYSZ75v4Ov+Y7c9KLRITR6agxT98RA7yeERE5B5KFbLZzgD157SJ63VZCJeWqxCWOumaPH6k0WePRi5qelYOuBlS+e8yUkH4VfPea6qZHKIM1v2Yf9va5BPPwy2tijn4O/Nm/e7EvWuaoeQmCpUjR7ISk7Hl7ePspRvPlbGA7NfRUjUpTuru0KZOgjX6OknX8V5HoQTzU0kmknQsuOHPHY/Anp2lekVSF4QF4/cDZuQS2OG8yeMRUB5K4LNNb13wwbwadEEPsJpouFVJQIevnRmsPGbI/0GaXlk/rpfTxOXUs4gY/cBHP/gK2QdPyXzkwJVvtIngog3+KAGddDwmXsRVK8mccUjPfYMVg4ZbdLngb4LPhAyBZ77OD8zm5whRThD3Lb9OEVniExyjiJtoxDVogGa3twN0S3rIyA8mGIM8Jhk5l2jkUFOYslPhOI7DeyFLoOdn52/IqNsHYSQn5CIuCdGiCYSzUTFKeeQ9AVETBoD71rW2T3MuJCTI56M52/djuwlK1AQL2ccNILQJgNtzLxX1Srwbd4Efk0bwSs8DHHj3sf5gvO6vPqbQ1GppWuzPebTL3z63kNIXrcF51ZtEK9iKH1cvk9EGCp3bY+wds0R0rQ+vF18/SN24Vpsm/K1ps8DAdGV0ez+vsiIS0TKsdM4tXYb8rJUmaZjVzwRZr4qOULtK9sgpl1jhFSPdPg9CDvd3Oem4tSuo5b8Zn2VIkLw8JyRl+y7V7YocwdhZMxfjtQvv6Eals0pftR1moK3Nyp/NgUeQc7dEeFLpfNnE5B/6Aiy/t6M7HUbxGwqsiFZo2xMGawNbCsP7NQe1Uc8RVTpcJ5+eRn8oLS0WEFnjzQ6i9ieJXXbaWPhTXL/8BDU6t4O0W0bI7x+dVSqHOL0B1LLJ32L3fP/suizrbuHvqFLq6quL75aUVEuDsJIHDMZuTt2UxWLQmmrNS/9894zJAjhH00udjzgCPxQjxfCyT8dh9yjscjZvR+Zf28R1+SyNL1EI2gdsMH/JsO78sVxPZ165CRWPj62WOfw9PVF9W5tENGoNsLqxSAoJhL+YcElfi9r/fTfsGnOMmt5WlmKv+7lO9H8ug7E/XtQbg7Cd5ASHn0RF/hukKx+Kpwl2o1FMsOnTi2ETJSvW7gL4sySm4eCc0nIT04Rl3xnv/wW+eJanS0BApo2RJ3xw6k2bAYsLiB5215xFyi0ReH3rJwFP11fct8ryDpn2BZUIwqN77oeAVXD4UfjhYDKYWKWkZJ8NusI+5dsxOLxs7UyCzsG75v37ojrXrq01kB3BuXmIIyCxCSce0Te+jXOItYzinfjhgh+c6RbncQWmdt34/irE0XDq5LDb7gKMY8MFHJXwXOBrbvjGXjRWKPTjAklczSqg79e+whxf+8y2QX0nDYMYQ2cG9yXBM44RxU6Qw38+Nl/zbjDjHI9Yq+IcIS/MdShc/AZpWDvfqS/MlpcMpUVKrVqhoCWTUTjq05w7rdlOPXxLPG6has4+tXP4puQ7HMpiF9jncbUGfBl4LoRUws5R3TnVv+4c/iHBuLO9x7/VzoHo9yP2qdZYwQ99oBwDKtzqKYBcvcdQPJjLxRa4MadqDnyGRr3aK+SULFccvzvy7D3qdeQe/acSOMM4lf8jRM/LlIXitj11qfIjnM+f9rRU1hy7wjEb9knbFDBJzQIl43gh5plA+Uc8lmHfedg2d3TnoZvpZJNtnEpgPql6Jnljsz/zULObwuoNVRzSBgd1kO8hh424XX59LwMkHs2AfuHDMP5gguiXIbsGB6I6N4J1QffDl9Hg3cy8uTcpTg0/TthqxYl9PBYpO2EFxDWrL6ILwRKmH4yHrun/4i49TtEfnP5HjQAv37mGPi5sFSdK1j7yS/Y/D1Pks2QzmGUL21h2aDPXkBkPcev4vwb8I85CCNz+gzk/rFI0GyECLRRLiODB8JeeR5+HdoS537knUvGvqdfR35qmijP9tWRgDo1UP3uvgioWU0MjHkOqOQtexD77R/ISZYP5URaYTfD6GCVakSjRp8rEVSrmni1JCsuEQnbDyB28To5l9QFIy2DdfnQJU2vz1+Dbxl8OsvPfxaPnYkDf/JaIgzj1RGG2Tluf3sI6rRvJOL/zfhHHYSR9dkMZM/n6T6pYRzd2qQQcG0PhD06uEwG7+dz83Bk/EdiMgXpoEb5Qs60iDfxImj2CRnD6GAy3rC/aBnr9EDMFa1x2fAHyuQT2qykdHz/xGSknlWfH1P5RJjLV/bc+taDqNfJtYenlyr+cQdhZLCT/LFYbyAZjAZTndMzIgyRb70K7+iqFOt+pO3Yh0PjP0ZuCp9NCpev8yJovCOZiDfxZrnND4F/RCg6jRqCiCZ1iHM/Dq/ejvmvf2kq07F9d777OGq0qkfUf2BcFA7CyJr3O9K//MbaYLSx8FoIuetWhPXvWza3gqnQ5I07cezz75B5gp9m25ZvogvJNF7Em3iz3OQcQTWj0eqx/qjatjG1hDw7uRM56VlY+Mb/ELvloMkG+/Zx+fd/8RIq1yqbH5+KiovGQRg56zciecJ7suFoY25AI8gG5gF81KvPwb+xg4GwG3Dsy59w4vsF1rIVTRtHtll4s9zkHA1vvwbNH7qFKPeD36na+csarJr2k7V8B/YF0LiHnaNSWNncFKjIuKgchJF/+gzODR2NAjFotulgdhrYr1FdRL34OHyiIinGPeDVl/aO+QDJW/daytJp2jhjm0FTsLmsYnmVVg3R5Y1HSzVfrgVkQOymfVgybhayUjIKlWfPvpgWddB/ItngW/p3yJxBXk4e0pMzkJmejbhj8SjI55GZtMnL2xPRtasiODwQgSGVBP9P46JzEIaYLOGNicjZJZ8NyCosogPSxq9+HUQ9NRj+9WpTTMlRkJmNTQ+NQB5Pv0O8pSzaWHizXJdpvFluxzlkPH+PEYQ+M94onZOQopPbDmL5hNlIi7dOZyTLMfMGffl9vdDlvmupat1/eaeQkZKJY7tjsf3PXfh7wRYUFFww2aLZQ4SF1+jqdauiS592aHtlU1SpFkZmlp2djnBROohC2m8LkTh9FlGyEqWjGJUoeCLMlepdpTKiH78PQe1alOh9pV3DJiGZButKn9LtWzkM0b26IqxlQ/hVCYcfDax5DCTmpLXTcPzVHhvNT9ezEpJxbudBHJm/BpmiAwuRrr/aZc3RbcyjIp8r4CfwR9bswJoPfkJmonNnXN7z0/Fbxz2E6MZl85Q+PSkdG+Zvxqof1yE5IdVyrIYtGq/LNN4sN4/XQiuh7+Ae6NanDfwruemM6wQuagdh8KyIZ0aNR06sXG6YK1HdLuWN4jVW8Gpf9e5+qHxdd3iHU2d2ArmJKdhw70tafqkjqlcX1B10K3zDrB8WlRQ5yWnYPO1bnFi1VehXZd3y/Xj4OTkBQvrZJOyauwrbvl8u89PGrEsG4kW8iad9wytb4frhd7v9koq70b6/9uPXD35H3HHTbDC6Dc7Zp4cizrrX3NYJtz/cA4HBhadqcjcuegcRIBNT5i9D/Ccz9Qqz95CNaeOsYsT51YhG9F39ENy2uZh7yhFSdh7AjqHyJUZ+LhDZ/TI0e/lBKXQzlr3wLuJ3HtbsBG747BWE1LI//RAjKykNR1Ztw9bZi5B+jt+I1o6RNubOJX8siBfxKniIs8bNYx9Etaa1RAp3gbvPlsVb8eu0P5BO4x69fCEzyjds0XhdpvGKFvF20usyg+9z1+W485Gr4e1TdpPpVQwH0XA+Kwunxr6PjO3G4JlhfsjFG65A81nF/HTcJzICUf2uRVinNvCLqmy5DEvdfRBbX3pb5GdEduuAZsMeFrS7sVR3ELKVbLtx+giEmhyEX31Pjo3D8dXbsfuX1cgkB5E/CNI2cVzimOSxS5nGE2Ecvwe6DrkB7W/v7vYXDg9sOIBvxnynO4ZePtO0EXvF60HaZ+EVLeLtpNdlJl4L3t7eGDbpbrToUDbzc1UoB2Hw3a0DA582VZJRYbxRzqKxktci7HWwkJaNEXnV5Qhp3gD5GVnY/Nw4IVevYDR76UFE97xMxLkLR5duwPq3v7LY1nvai+JrxDNbD+AoXX6dYeehsyRDdT5lu7LNnnMYMpk+vEZV3D/jZS3GPUij8c6Xw7/Cib0nC5fPO80G1TYijiB4imB+4NCb0eGqFjSMM5yWX79Jik/DicNx2LhyD9Yv2Sn1CH3WHz2lS9LAZT2a4bnRt5DDuPdsUuEchBH36dc499tSWUnEGxUleYZsNFmJZl6nRZ7CHVDshYwhGyXy8jZo/NgA+NPgvDTgb8o3f/i9mH7Hnm3SBi3YcQ4ZL3llm5Rpcl3G+WT6ez9+DlUbOv7e3xVwV1n741r8MvU34uyUL9LQRtEU2l/TGhuW8LtflJ4iOO7JifeiRefi3/Pi8s7EnsPvs9di2a9bZBwFPjYmmNZ5QjAN5N/58mFUiQoRvDtQIR2EV23aO+AJnNe/Q+dgNIrO6zKNV7SIt5O+KBkRvOxAaKM64i1drwA/BNElEU+Ax7dqvbR1x/MyssW8Vmxb6vEzyM/KQcLuI0jYdRgpJ85a9Fn06zSFIgaoFt4s12UaT/voRjVxz0fPEFV6ZKVl4bPnPsPJA2dM5RhliUAb5qvEROCuYbeibouaSI5Pxcg7JutprrixPe6ls4eryMnKxW9z1uG76SuFItalflgYyll5bPrWx4PQrLV77tBVSAdhZGzfg8OvqK8C7XeYmkPuRNaJM4j7Q043KgJtrOkLN7Ah03gRb+LNcjd1Zj04oa9F3ysQHB2B1Z/+KuW6TMoVPcRNEywc2XoEnzz7qWPbONCmWecmuO25G1G5mnGmXfbdWnw/db6efuK8lxESUfIn9tnkKCMf/RJHhKMWdg5Fv/BaP/To3ZJjS4UK6yCMfUOGIft0vFb5KhgdJqBuTTSfMpLP+Mg8Eov4ZX/h5Nwl1rSKpo2FV3IRb+LN8nJ0jlb9e6Bxr8sQUTtK8HMemYyEo6cd6usy6Dr5ELCUWD5zORZ+vsixbRTCIkMx5O1BqFav8Hc7U579H/ZukjcjfOksO3VxydcSiT18Fl9MXoAdm3laIht77Nj34mt90bOUTlJhHaQgPQM77zIP1mWl2HaY0HbN0eQNuszQHubxLIlHZ87DyV+0ZwgcRB47HUDEm3iz3J3OIeLt62t5a3d0GNRb/6qPm+uXYZ/i2Kb9DvXFNK+Du957olRPnnnA/N3Y77B1KY0fijjW25/viy79LnNY1qPdRurpO/VqjQdH3iYFLiAvNx/vjfoJf/2p7l7a2FOEfSPG3YZuPZsQVzL88y+7lBAJv5s6uAhUKURYeNonbd6FI5/MIUrCq1IA6j9yJ6744X3UH3IHPLy89bSWvERYeLO8jJ3D08cHXZ/pjwd+HY8uj91s+eT1z2k/49hGs3NwXrM+D/R7Y1DpnKPgPD556pNinWP0vOG44uZORZZlti20iusPWzMzcvDYzVPsOwdtimuLN4f/hKOHSr6+SoU8g/DECttuHkKVwO/1yLsjIp4Cf67K02dKmaooGjh2vwyNXnwQhVZ+pQSp+47i0KzfkLCJJ02gChZ5VLBpgDJ0jjpdW6PVgKsQ2bhWoU7Hb+guGj8b+5ZuNvLblqXZ1vvF/mjVp2S3pvPp15oH48d2HS/yWDvf2AEDXi7+beQh3Ubp+a+9owsGPNVbxDsDdo6n+09FSnKmpfwrrm6Ofnd3Rs268gVVPsMs+mUrPv9Am9eLNub0/CDxhwXPolKg66+oVEgHydhzCPtffkvc3lPWywqhTvb0/cIZDrwzHefW8uschiy4aQO0Gve8w9kPeXbE5D2HcWr5BsQuWE15TB2ENoU6pOKFzMSb5bpM4xUt4j3Q+IbL0eDay1ClUU14ObCLHf7nFz/CqZ02U4LqNAVTZ+bX1p/68TVqXWJcADvHew++h/jYBIs+GTSeNrzvNegq9HnwaqKKxsPKQUhfp16tMGSUc5dYfBZ78vb3ER+n5gijy+XwIIz7bDCiYuzfeFi+YAfefv0XPb3cS7pew6r45KsHXD6zVkgHOfT6FCRv2ikai8F3Lrg3MNvxpw/ErIOMzOOnsH/i50g7HCucieEdEoT2770C/6oRgncIUs7vTaUcpMH95j04tWoLMhOsq+WKcolRvCEjm6hDMJSM0wZUCUWdbm1QrV1jVGlYU04cXUyDpZ1NwrePvYvMZPPr6x4Ir1UVrfp2wbJpc+125sdmDUNYtWKO0QRxWfX0J4XOHKpuffx9kJdTgAI6e7P+5l0aY8j4e4W0KEyiQfrujdKx+Qfgs+UjpaAYzJy2GL/MVquB0Q9JixoY/eF9xT4IXPjrVkwe+4eWT+ZVTv3Ys1ej/12unVkrnIPwJG2bb3lEP2gZZCeL6NoeDYcVfis28/hpHJ7xMxLWbdMbvMGQ/qjV76piO6gZfGlXkJ2LrHMpyE3NQEbcOWEHI/VEnDgzBUZVlhGkN7hGVfEae6XKofD293Xp7WJulm0/rcKqj+aJMqTdQOW6Mbhu6J36w78Pbx8tnmwzVF1w2u6De6HrvdeI+OLAA/JPn/oUR3YeI046B+uQh+aBSqGBeOWb5zHn7bnYslw+3Wb5+ytGW56E28OiOWsxZ9pCzTZg6m9DERxW9IQU586m4lEad4jOTTw/APzk56fhR07qDD6YtAhzv+eFRw3nkMEDP89/CuERzq+K5fU6QaMrBDIPHEX8wlWWg+Y9o94z94tX0W3Bi9ZU7d4RNW6+GgHVo5F66DjOrNqEk4vXIaJNY/iFO/fklU/P7AQ8HU+lquEIrVsdYfVkiGrTCFVbNtD5MOrI7Bj+/BCR8rhyaj93+DS+e2IKDqwkh+aDo7yd7r0WvYffg453XYXAyoa9rPvw33IAq56e8yb+6FlcPqA7c8Xi2ze/xZ71+4gq7ByhVcMwYtZz8A/0R0CQP/5aJC9bGXVb1EJkde0HwQGCyBmW/KAmxKYzkZ83mrYr+r2pj976FcePJgia842hM0fVas4/z+nQuR5WLd+HpMRMcSwM1U/27YtD7xucv/Vb4e5iiZlHaK8qXNHckYIaFj3pgXdgJcT06oKuM8ahx5x30Pjh/tj78fdY99zbSKezzD+NpGNx+PHp9zF7yERxyXPZoOswaMYwPL14Ii6/vzeC7Tz0a9y9legEZudgPi0pHVmpmRxTJJZ9tQxblmwjSp55rM4RimEzn4Wf9v1FvVa8HB2Db4x44Ku3fqazj4xxhKrVI8hJgnT7fv5iJTLSHE8IyA8C1y7fI2hO37J9XTRoGiN4Z+Hp6YG3p94ljoXB/UQd16aNx3D4YLyIdwYV7gxy4HVe34NnbDecg0+jla/siCrdnJ953MvPV8xXVf3ay1Gj1+W4kFeA9Ng4sQ45fwTl6mCupOAB+IlN+8Q35NlpmWh+Q2d0e6wfOtx9NWq0ri8WySzKFl+6hFs/ZyUKyKGMywlZN/U6NEJ4jONxyP6/9+P7CT/q6Y28Hgikyyo+c/gFGLPte1HdZKXn4PAuudIWd2a+g9S0Y9HzAnC6vVuPaZeKHjiw8wR8fL2EDtZvfl1999bjWLlgu96hh0+4A2ElePIeUMkXgXzGW39E6GHwnh179+7T6HdLGxlZDCrUGKQgKxub+j9JB2p1DubbTB2JQCdXcLpYkJ8jFyj1LmK9Qmew8n8LseorfnlT1oWqm863dUXvJ2/iJIXA45Y3bxmnpzXn5QH5Gz8NE5dVtuBvyp/pNUacOVT6B0behs69WssEGo4fOIPlv2zE0p/lEtZ8olHpBU+BeY6oXicSdwzpgQ5dG+HTt+dj8W9bZDrqzD+teUWcEUoC/tG4pc9UJCdnFSr/518eQ1R08ZfWFeoSS75WYnQA5RxMV6rt2mn4YgA7Rmmdg1H/Mp6Im+vBVDdEb/xtg5DboiC/AO89NM2U1qhHDi998bRd52D4kL1PTBhoST99zI/4aCR/F5KJ7ev247mb38HIwR8L5xBnDQrm9Mo55BmFnOloPCaO+AF39hiHFYt4KlZO4IFWHeuW2DkYXl6eeGnE9XbLn/fLdk5SLCqUg2QckKdLEUwHHdy8oZgP99+KyjUjjXoRQXa+nOxc8WzDFj+98zNSz8mpVvX0vKfNE+89hCo0bigKzTs3Qq+7uxr5qTNvWL4LT90wAZNfmoXEBG3CC9rINEbn1HldpvG0L6CenEv2sj7uxA2blf5Hr0vXBrp+c3lffLGOymGuaFQoB0ndeUAeIFWg+aArd3buevJSRUBwJb0ubDtfunYLWOHgpoNiQgVLet7Thvf1Wzv3Zd5tj/XCLUOu0dpC6Sqsz9xOOq/LNF7RHG/S547vOvgsMvihLppO1i318+wqcXHWurGHCuUg51ZvFIMsVYEceNAX1MC931lXONBVSK3W9WTjU6UY9eOBc6cSRRIGf1Px2Yv/s8jFnjaKTz6bTJRz6HPvlajZIFrLa1+fIdN4Xabxihbx1vQfvLMQyYkZRJUO1/VuYdVNG+Y3bDgu5EWhwjgITzCdn1sgaD5IPgWzczD8Ip1/YnypokazWnY73+Gth1ksMOOVmdrg2pDbdubv3v2VtsWD8309+XccO6g+oLKvj2dPufuJazDx68fw1dLhmLVyBGYtH4EvF7yEN6bdS+MMcmyRR8uvB7rMIlsfG/ipPrlcSVG9RpihlzaqrA2bLiEHyYmXv4TSMeRBCp6O1JfnqPqXI6peNb0TqGcOHHavls8U+NLqwKZDet0JOW147+PvJ/Ys27F2H9b+vomoojHr3d+x9Ke/pR6LPqY9xO3b58cPwIxlI3DT3VegZt2q4km4j483fP28ERQSgBbt6uD19+7B9LnPoF6jKJMuQ19SYhbmfLWGuJKDB/qNGsvvaHTdFBYu5oejRaPCOEjm0ZNa4xoHKe9O0HUmT972L0flmlVE/aizqqqfU4fOICczB58P40kiGNa663VfT7w6+zlNJut25vi5RToJnzmkc/Bg2ujMTLOeq25uj+mLhqFDtyZOPU/iscbkLx/GDbd3lLo40Ea184xPV4k3e0uDZs34B8RwDg452hVJUagwDpJx/JR2YEaDSJoaoJwe6jFOb92Pb+98FYuGfYi8rMKNxrORfNbnJXx912iknTGu/8sa/MBQ1AVBOApXklZX0x7/WNwdYt6QAcERwej9wFXiO417ht5C8SQX9Qp8NX4ePhg2C4lxKTKxhvmz1wjnUM7AUM7B+cZMfwgPvnSjy7dnuQkffeE6dL6ykWaDtTPP/aH4s1pRsFxmiUD6iSjuTlaFcZD0QyfkQRFt/nUpz8srdoiFL38gpvk8sWk/dn6/TJNI8Oshc5+dKm6t8hy53z/xbrEN4C4EhskX8LjTyiI1Z6Bw6kiczitzuEM/+f6D1JFlF7j8hvbo2f9yWb9a2q1r9mHo7ZPw8JVvYNJzX2HKy7Pw7YdyPUZ1VNyZmec5tybPeRL1m5ZuBpWXXu9HW6lf2CuCBz7/+M9iX2spCmvWykn6pE7NOYgu7gxXYRwkYYN8gGR2Dg7hrRuzuFwQK6brYRtk+Smn5At1Osg4aZfsYJkpGUg4eFKIyho+dJmpHECVr2zReV3mgctv7ICoWtYZ8fs/3Qf3Db9VyycDn1X4FfedGw5h69r9Ir+Q0cb8Sz9x9hOIrln0i4vOwJ/GLgPuv1zYyxD2clm02bE1Vot1DdnZediwkT95YJC9rI+odm1riJiiUGEc5Hw+P0AyGsQI5Xd5tX32YrLBKD+ysXUmeV46rVqr+ibbaHC8eieLyhyiPGGbuX5MNG0U70G/9rc/eyNRhdGlT1tMnPsSmrSvazlWGTSeNmZ+4qzHEV3DfXcSbxkgv9lgR5ZOKPH+5CUa5RomT1mhO4dwNqJYZ78bW4jYolAhHOR8Tq6lgY0g+fIAX14lHrXOCRVNzmCLRtd2MKXxwKY5dBnGTDnAKFeWrdO0MfODRvanM47jyatDKwfjhSmDMXneS7j72T5aPi2/0GXwwybfI96lcifCwgPRoCkNqvWypLMcOHAWRw7bnLWLwe9/7MJ3P24lynA2Dsxf3bOBoIpChXAQeVCmBle8YsoBCfuPFyo/pFrhS4qoJvKVcGVffn4BMpKKf2LrDphtE3vayE5m1F1olRC07Vn8LycjtHKQGFtY9PFe4+8YchVadSq+k5UET794nVaWUR6HZ5+YQ3WqLsAcg8d+n/9vPV55bT7RZufgKw4P9LmuCUJCil//vUI4SPbZc3oFqYM0Gqt8cHydNv4QQTaYT0DhCg6JjpBySqDSntlb/AMpd8Bsm21nVuGRCQOduvXKSE5Iw4xJv8u8tJE6pL4WHerh5kHdOFmZoEmzagivHKiXp2xIOJeBwfd9ibNn7f/osGPs2nUat/X/AlM/XG2ym4M8br7D9vorvQRdHC5qB+EFYg7NmIv1j7whDlBeO5o7H6N8xiC7f1mjlSkbrFor+uW0U7QP327V7ZNpdy6w/1atu6F3JpvyVajRMAY1KTgDnkVl9COfy7y0kTqkPv4E9uVJd3OyMgM78ag3b9bKZRu4bFn+wYPx6HvjRxjy8CzMnbsd8+fvwh8Uxr61CJddPhkD7/8ah48lWfoJ51X4/KP+qFTJuWdnF62DpB08jjX3DsXRbxcIx1CDLD5oNchSFVbWyEnLRH6e6SMt2sS0bSiFdlCvi/XdnwNreIKJsrdU2SbLNcpX/O1P9SHKOSz4dh0S4pLt6hv92UNun0XdHtq0q4Uu3RqQDYWPhfdbt53E2LELMHLUHyL8+PM25POHYyynBOb0CuNG90HH9s5/N3RROsjphWuw4em3kJuSrjsDO4e6A8Hgg2Y6O6Xsr++TY9Wk0xRow2VHNnR8i7BGG37F2uTI1MCZSeksKlPYdmbLDwkRU57/Evs2H6GYopFyLg3ffMDTjcr86rkHh4FPXYeo6qWb5d4VvDn+VlSvaX7Ip9lCG9UWhkzjRbzBK7z7dl/c1KepxjmHi85BDk7/AXvemyka19zB1CBLOIoIkj+345CILUuc3KQtJipskA0SWt3xnZsq9WOEfQxhO+3jj56REWWEtCT1fYe0Ty+f64oimOez4ORn/oefPlkshQ4w6aXZeufjumawzloNotFnQCfBlxe8vT3x9ZyH0LJVdf3YDAdwzjnq1auM5QsexbVXOT7rO8JF5SDHf1qMYz8tEY1pHLC5EgzHEIFk+bxYZhnj0CptdhGtQdiGoCqOn+CHavNRKedgHN5Q/ItxpQG/6azqR5UpeDJYmC5kUj7/61WY/e7vItYW29btx5F9p/W0DKnTA8Mn3+P0AN+d8PHxwsefDcSrI68X5Yu2J3vkXgXuK1a+amQgPnrvVsz79n5EVnF+qh8zLhoHSdq+Hwem8wQC9g84qktbXPX1W4bc7Dh03VlW4MFqwmGe8cTofFymt58xmYEtAngWD5Nz8H7vyh2SKSPw2uPKNnk56oFBr96ON755FtXqVDXJyB6SLfnxb3w7baEWI8G3pN979XtKK+uWIfN54N6neiGscsmXLSgt2C9vvKklVq95AdM+GIAePRoKG5V9qq/w2eL5Z7rjj58fxLL5j6LbFXVF3pLionAQXvpsy/B3xQHKYHWOtq8+gnYjh8C/snYtanYOCvyUvayQncozGsrOrsqLqFON+6BD8HfbnI6hGjDpTJKYeK6skMgDatoLW4lgmp9hVK1RGaNmPIlrBsiv6tg5ZDo6k8xZi+3rDhAlseTHDcjJztflynae8rPPHeV7aeUIfMnV6bLaeGfizdi84SWsX/UchWfw1+pnsG3Di5j73WAMvrcjatG4xR24KBxk19tfUMOZPuQhQjVSt09eQ/QVxie1YQ3VgzgVPJBDg/myAr+Ra1teVSfWF49qWN34deM9bTJTip+nqqQ4dYhvJFjrjs8cDJ6w+44ne+Oe52/SZTJ44J2XZiErI1tMzTPzfWMGRCVnfUMn3lmqyRPKEv7+3hR8RCiLq79/3EHSDsUiXr2IaNPAnd5+XixzZgbPZaXkqvPlJJedgyQcVq/Za+UREdOi+O+2o8iJlH3qmFLikoSsLHD2BE84reyUtlYKsa4j3vOWjug1wHhjV+xp8/GYufhx+got3sjPsnZdGqK+ixO3XUr4xx1kxwTtYZTWIKqBGtx9IyJaFr7rEN5C3kI1N3BqLL/OXTY4tVPNpGLYF1bEHSyFmq3q6vZJWz2QEOv8jH6uYttqeadNBlk3gTYOwhjw5HWo2UD7kRG2ARtX7cPvc9RE0Vp+Tfbw0Bto++/FP+og6cdOI+OEXGtONQgHn9AQNLjnepHGFoExPMWN7AAqT/zOsrvVG7vloCxPK4uDeW5cR4ioQXaKPJqtFI5uM74Pdyd4nis567q1PF87c27xXaAXJw00HY+RXuc12dU3tUXlyNLPLFKR8Y86CN/SNTeIaqA2Qwc7nAmdZ08X1/Z6Hvpl3lU2HY8LSDtr+zTZwykHCQoP1tKrvHQ22n+KRW5HRmqWVoZRXu0mjj9c4pcQr73tMkt6PT8Rir/vaefeV7qU8Y85CN+aPbl4rWgQOZiVDcQzsVdp4/gjKL+wYJGY06vbkcl0JiqLO0T5/Jo97ZVtinZmNsSAUPNcVTJ/WTnIuTN8B8vU2WnTpG3R46RbH+pppBfB6hy9b7+sRCsyXWr4xxwkI5YurbQGYagGrnvbNfKmtwN4iVuonFamkQ3qgRw7M5nz+0+ZCSk4s+2gCMfW7MBp2vN65TxpdHHIycjW9cs9gWxz5mEZO5HKI/ITwXS+E+XaIjszB1np2SLYe6fr5OE4oyxRjgdqNaomZI7As4rUbsRzWsm6VPYpvu9dnWXCfzn+scmrj/64BHum/0iU0fn4HHDt12+J5x1FYfVrn+Ck+vyV8vN9/x5jHkH1Ts2Rn52LQ0v+xoaP54qn7LbPTGQH0GjatBvYC23694SvnbloE4/HYcZgtRa7DA2vaIl+owexuFi83nMo5TF3PuC1BWPE5NCOkEmOvmPVbqz9ZQOO7TF9h68Hqa9u85q47anrUY/2n4/5EesX8YKbmpzSjZ39FKrVqkKUY2xesx8TXp5jsk/mrdMwGpNmPCzS/NtR7meQYz8vxZnVm3FmzRbBc4OwY4gLJGL8nZiEoUor9TKgdA7Gzm8WYcOHP2J235ew/v3vnXIO5jd+vRif9RuBldN+QlaKdRa/zERtjlkVSF9AuPNPk+u1b2TqfBw89NWgzOBJHnav3Yt3HpiKV28aizkTfi7SObiuDu2KxYRHP8NrA6fi76U79ONRacOdWFG2XpMYk31GXn5iPufzP5EQl8rJ/tUodwfZ9+U8bBn7GZL2HJYdnOK4UXg276jLWxd5eaVQpVk9kZcbl8E6zu4+it1z/9Qb2fzEWPCmDiCfNJt4CtvnrsFnt47Cyg/lmYeRRpdnyj7lbNVbOjd3LSMoggfqqgyZ33yJxc4yb+pvGHrtKHw+fKaYw8q2w+rla8fLPIN5pk8dixczDyqe08LTA/7aojdFITSCP0gybFNh07pD+Gb6nzgVW37TFl2sKFcH4YF5geh83JimRqHOx41btaNzn4Ly2n+qI8lOIfMzRBzp02kRTDxvtLKlTOMpguktP67CBze+goNrdiJVe7Cn7OM8ASHOv/QW07iGVoZRftq5NGQkZ2DW69/gjVvG4c8f1lKsZg9teK+OR9qm8SSw8IoWtpl4ott3b6ZxRYPHUrUbyrGKKJ/32g8B06dPlt2DzYqCcnUQMTOJ1piyIxgNwuHEyk1IOnBcvCBYFPyCbGYzF7GyUZVzCJoCy4Miw9Dg6vZocFV78R05p1c2CGclgnkGp+ePbuaO+hKrvpgv9Bky/qTW+W8h/IMDhD6GsIcUzHp9Dt7oNxZblmvrYHD5moxhrp9aTWqgw7Vt0PrKZmKOW5nWsEfZpmXVZR2ccJC01CysXrxLLJgpyudIk3Pwfte2kk2zcymhXAfpmacTsPwBY2F5s3PIoDq7B5rc3Rv1+nRBgJ1FORkr35gu7kpZ8puco929vdGodycEVgkT7yJZQImz0zJwZs9xrP38D5w9JG+/cgczdPHe6nzMD/nyRVSpJd9xKg7blm7DnDE0CCZa1rLRoWXQytNkrbu3QPc7uqB6/Sh9XUAz+IHgiUNxWDB7NY07dpn0GLoYk79/FlXsLHrJl2LbNxzG1x8swdHDvBiRkZ+dw2wb29O5e2O8Ov52wf1bUa4Okn78DFY8Mlo2ggPnkB3T4EPrxqDjs3chonFty+3Vw0s3YtWEmaY8Mn2L23uiwwM3OFyU3x7Saayx6tPfsXuptm6GSZ8RJP/kN8MRGuXcWeTQ5kP47Pnpjo+VA21uevQ6dL2ls2U9wOKQkpiOT17/Abs386swmj7a8P6rP0eJN3kVeNHMhT9uxDefLtfKtbHHgX08idtPy14i6t+LcneQ5ewgTjqHETzgGxKETs/diRqdWoiJzzLOJuH7ga9reYz0g+ZNgI8TA1R74KfmP4/8H84cML+gaNJPmy5390SDTk3E2uEcx887PMlxuRp5QUve52blIuFEAg6Sg2z4fZNJj0kXBT5j3DX8Npccw4xDO09g9KPkgESrumvUqjZGfTRYyOPPJGMWnS3WLt2tl2mpW9pYeLNcyIAF61+h7b8X5e4gy4aMMTWGbJDu774A/7BgHFv6N3Z/s0hcSpjlqrE4ePr4oNNTd6BWt9aYdbP2nEFPC9ww8QnEtHH900odpGTTz6uxeNo8Tae5w9jpTCLexJvlDn4I+C7T45MfQIO29ZgrMX76bBnmzvjTZIMHBr/QB606N8SX787HprUHHNtHm7oNo3H/U9egUfPq+PDt+Vi2UE2taqRfuH4EUf9elKuDpBVyENlg1376KkK019rZnKT9x7Hti1/FTOqOGpjf1WJeLH9skvO4o8cLdxJXOsQfOYPPh0wxLa9sp7OLeBNvljtwDl4znNcet30V3VVw2Q9eNYbOWurHROr39fcRc9E6ss/Lxwv3PnY1evZphWCTDe+8Pk86iJ7HA8GhAfhh4XMywb8U5XoXyyeQ7+pYG4wbxAweZ/B4o+eEJ3Hrt2+h2R3XiHTWATQ7xgWTc7BMyvfO/8st72VF1o0WC/fLDmMqWwTiRbyJN8uLuIRs3aN5qZ2DwTOP2DoHB0fOEVOrMka+eze+XT4cfe/sZHEOxonYRNOxSn0dLi96/fN/A8rXQYKUg2h3TESDAKnH+JvvwvCnX9u2D/XFPb9PxuXPDhCL/Bf1AFA1cNIx93wfElU/RujT9VO4/ql+uHXEAHTs2xmtrm1LoR1a076NKVz/aG/cNfIOPDTxfiO/sA0IDC/+Cbcz+Hu5GldY7RM8EYpv2KwGJs98BFPnPI62neo7/DJw3y4ed1l1hYVXYtG/GuV6icX4sfeTovJ5ww3CjtLivj5o7uD7DzN4/Y3DyzdhzZTvkSvetJWNLRpU08d0+3uuRafBxesrDnPfmoPti+Wi9jJ44NX5o+Hj79ygmhfdH9pL3UiQ+Qe+ejs69ir9qrxP9XsXiQmpJtsomH482nZphIee742qMcV/m803F2668m2rLrJ1xJh+uOpa5x46Xqoo1zMII5JfZacWMD/wiv1TvpdVHPjWZYNrOuK+Xyfg6lfvFzOLiId8FJRzcNgwewl1FqZKB6WPgzhTEcHLmTkL4RgcmNbscwdSzqXjnMU52Dapv22Xhvjgh6cx4p07nXIORmIiT0zBx2jWBzRqbP3c+d+IcneQWld1lJ1N47lReFmB8y68Bs7jlHrd22DwvHHo+uStHKM3sGhkYs7RILu08PL11vTSmYoIprPTs4XMWXAe7nDKNg+P0lf5uqVyzRFlGx9vvaYxeO/bJzH8nbucdgyFzX8fEbYxhK2kj/nomP8WRy13B4nu0EzrNFpn1ho4fvcRFrsEfh7S4uZuCK1pnvdJNvDWH/8UXGlQo2lt0QFZsbKXZ19xFnyJpZxD5Yqw84TbFXDxc2eslrZotlWuGoJxnz+EajVLtojN97PWiz3rk2djoFXbWuUy/+7FjnJ3EP+IEPiLz1G5IaRzML1t5nwhLwk6DlJrSRgNvHPB3059FFUU+AzCymRnlPqzUrOEzBmkpxSezK1ScOnuYJ2JPYfkZDlXl7Kt331dpbAEOBuXithjicI5VFtwuO+BK4T8345ydxBGy8F9RQObG+TM9kPi6XhJULsTn5Ws+rjBj27cL+QlBS+MqTq40E97ngDOWRj2GI5b0qfmCr/OWittIWXKti5XNxeykuDzj3h5Mmvdsf7WbZ2fAf1Sxj/iIFGtGxZqEN6vm/o9i10GL4Hc8MrWhfSt/Pg3FpcYofwcROiS+jjwF3/O4vSRwpO5BYaU/NZpbk4+lv62xaKPF+jnB3olQfzZVCxZsKtQW3Tr0Qhe3v9I17joUG61kJ+Vg8ML1uG3h8Zi7n1yQRzVIIqOXb+LziQHiXIdVz6hFlsx9J2LPYukk66taWdGQLDNxAt0iXR87wkWOYWs9KxCnY+fZJcU6/gNXht9Ax+/WshKgrEj5xXSx/uVK/ajW6cJePbJb7Fxw7FSLb9c0VHmDsJPtXd/sxDf3/wi1r/7DVKOmyYYMHVm2VAeWDDiE7sL9BcHnoqn3uW8cI1V35/TSz628QvkxfmVPmkrf/XnLA5uN69rKPN7md6ydQV823rmtMWF9LXq6PwXjmb8/N1GbN/Kn/UqXea2kPzffx/FU0/MQc/u72LtmjKaWukiR5k6CJ81Fj3xNrZ9+ZtsAKp9vRHsNAjT+Tl5mD/s4xLN2N5lsDZYN+nbs3K7mJ2kJFCTUCvn4OCKg8QeOK3lk/kbty9ZZ2bs2xGLlORMi74b+l9W5Gq1jnDowFlMnaSczTg2EUzHKoMHsunS7tnnfsCbby4gOcf+e1BmDsLrC/7+0BgkHj4p7t4YzsG3PY1GsPfqyJndR7Hgtc9dbozIejF0Jgm16OPy1nxdsvW1GaGR4YX08e1bZxB7UJs1kmgONeoXPRVPUfhkHP/IyPKVvpJMzXPieCIeHmia7lXstWDHOWS8DHPn7SAnsS6ZcKmjzBxk7dgvkJmQKhyAwRXNnV+dFwRvkUm54o+u340Fo75w7cVDyn7Ns7fKRhVBNvC6OX+KbzRKgvrt6xXSl5pQ/LJvOVSepQPSpk6Tkk0CfexgHGKP8Uq/hr76jashMtq1B3nHScegAZ9qOky2cSjKOUz8z7/swNJlxpIJlzrKxEFSjp7C8bU7xK1Nhur8Git5apCAiBDUv6YD2g68Dpc93BeNe3cSi2PKfB44sm4Xfnp2qkvPM+p1bKw3KJejGnjt7OUsdhl1WtWRekwdJu548ZNQJ8XLb71VHs4fU8+5T3VtMXXML1KPClR3Twy/kUVOY/uW4xh0x6diwM228KyJ1/RujtvuaI9nX+iFm29rg67d5aI05mPlvfmMz+HlEb8ij64Q/g0ok5cVl748FWe2yl8ZS+ei4OnjjcufvgO1u7aCb6Dj25O8smz8oZPY+etanNh6CHd/9hIqRTh+E5Yve3Yt2oQlH/5CdL4olwvkMlUDD/99NHxd/Nowdu8JTHnkI6mHN4Tr7r8K1z9Q9N2jDUt34NPXvxedTJU/bf4wBLr4oPDogTi8MEj+6stjkrrqNKiKAQ9eicu6Niz2ifdPczZg1ldrccfdndDpigaoUTPcYR7uDidOJGPatBXiTMFtJ+IpiPL5WIiZ8NaN6N2riYi5lOF2B8lOTsOPd7wiKlQGwzmqd2yKq19/SDiJK+DxzMnth8Xsh7zuhi02z12Lxe//LMrQz1S0sfCEOm0b4N6JD1q+1y4O/NzjlZvGik7B4OOJqlsVI2Y8LSMc4Mtxc7H69y2iU6nyv1j1uniPzFlkpGXjyTs+QHKKHJzbzjrCndXT2xNDx9yKK3oUns+Yl1RbuWQvWrSpgSgXL8cYvCD/gw9/gxyxBDZDOgeXHxERiBULH6PjEYJLFm6/xDqy+G9RmTIYzlG3RztcO/ZRl52D4Um/djXbNZSL0pjGJOzbv745G4vIOTjW7BxmngPzh7Ycwtu3jkXs7uPEOYcAnrpHKJU3F1jPqSNnxWfBRWHdou0irSq/Ues6TjsHH9eKP7bjvusmWpxDHpPUJ+2hM2feeYwZ9gPGj5pb6HmFB/1dTZdRJXEORvPm1TDv54eM8ohQ5Z9LzMTBQyV/xlRR4F4HoYbd+tUfogLNzuEfHoIrh97LKUoN87IICyf9gF3L1PcaWnm0kY1olK/LieD3oz5+/EN8NeIrp+5Gcaeu37qu3jGUrmQaYzhCVkYOdVzrd/Vtuzmesd6M5HPpePaej/H+m/OMMjXnMOsTPDGKX7ZoN14fan0TwR1Pw6OiQvDZRwOEc6iy2FkY3/6wTewvZbjVQbISU8VzDK5EWZkUaNNz5GDx5q07cXTzAWz9g89WXJbhHLJc6pA3XIa73rofT3z5Ap6kMGDU3YiqZ8xmvmftHky4YwLSnVjgv1V34w1kkZ+Ibav3CJk9HN+vnn9o6WnfqHVtFhWJA7tO4sGb3kXs0QQ9f5sO9TD6/XvwwTeP4kMKfDnVun0dy7GqtGtXHcS8HzcR5V507FALDRtUEWWZMeeHrWQHl3zpwq1jkMOLN2D1xK/1BmPNHl5eGDR/kkvX3sWBvyycfOOrYjBuLosbsF3fTuj9ZF+H82Lxy4a/TJmHPev3UR4PBIYGYuicF+1O1KZw5uhZvHnf+0K/6pjRdSLx2kz745CZk37D0p83yPTEc57pS0fAr4gvEU/HJuLJAR/I9BT4IeDdQ3o4XKODZ0Z8Y+gP2L4lVs+j7Ptt+QuoVKl0L0Xa4u+NsXjg0e80zgAv0F/SNcgrAtz6s36KZyGhvQi04QZrctMVbnUOxvFth+w6R4/B1+KG524tctK48OhwDBp/PwZP4O/FqaPRJdeXr3wthQ5Qtab89VTOweEU/crzyk624HGArXPE1I4s0jl48okRQ/4n0geHVsIH3z6Bh567rsgFbHjShYkfDkT7ztpzGh7AE8H0T99uFGnciebNojTKij17y259yIsBbnWQ2HXaVKCioWQHqdK4+EsLV7Fm5lKjHK2sao1roNt918gETqBxp8Z45Ydh4gyyf/NhxMc6HnDyXa8mHerLMkWQx7b4W5542ood6+WtUZFO2AZcfUsHIXOEVQt3IoUG441b1MCnPz+NGCc/fOIfntET+xPBUyAZtn35+RpRtjsR6OCMFHsiWaMuTbjVQXLSs8QDQL2DaMGd4ImteTFM1fm4LB6w3v7GQCF3BaGRIRj2zQvCSVZ+X7izm9Fr4JV6eeq4fpuxUqzTce5MChLOJOPkkXhMG/W9lNNGpe90VdHfa3z98TLhHGM/GkRnmuKXdzPDx4cuYR/qqpfF+9y8AnEJVh7Yu6/sVu69GOBWB7ngIR8+cSNxp+XbonG7j4o4d0Gs3aF1PnXblRHm5Hy5tvAP9MeL/3sKa3/doMXYR8M2dcSlm+yIFIQNHhj7yHS8ePtkCu9ixL0fIIfnpdLsY3mdxjFi0UxH4GcdfCZ488NBLj2fMaPLlY1EWbptFBKTnP9uxRlkZtq/41flEh5/MNw6SF/y2nQcW7tTdFpuMAbfHmx4tbzEMDcgFS33tLHGS1jjtLQEXqdv/7o9xBtxvCTBc98M07iSIXbfSUTVripmJnSELav24MMR3+jOoZxT2ql1UCGTzst474enEVnNsfPG0lmHvykvzYKZ/Nls/74fanawDR5o3qo6YmL4xU1ph5KZ61LGGTwTMq4w9h2Ix4GDhS9DJ751A66/hJ+ou/cu1ootWDp2hl7pqrNwo0inUYHkukx2JiVjqDd8BU1Bb0TamHkVeL2QEb++RlTpwANsRxOrMbiqnrjmTfH6t7CH47RjE7Swz7C9deeGGDrpbo2zj+LKdAYnTyThrts+EeWa607wZI+gibHwgmZQel0meVewbP4jqBrp/LJ0FQ1uvcSq2bk5VbTWebVKVx1I0pI3ZLLBdBltVANLGe8NfRZeDx7ISssSY5PSoriOypdCV/btIMplsO2yUyn7pG0Mjr/m1qIH54zSOgcjPj5NlGv7w2J2DjMvaQal12WSdwX16la+pJ2D4VYH4RkHewy9R1Q6N5S9zmzINF7RIt5Oel1m4lXgDqHJTu0/SduyRy1e+JL2FmcgwtY52Nbo6iWbhsdVLFm4x+5ZV9DCNhMvaAY5ty6TvKv4ZCrPSXZpw60Owmh0TQd0evgm0SBc8UYwOrPOK1rE20lvkZnlRJvONMz/NOknosoHZtu4k5ltU52RZeUBnsjh55+2Fi6fadrIeI0XNAWqO7PMVefgs95PcwahWnSIFnPpwu0Owmg74CoMmvMaOgy8FkFV+Ys82WFkg8hG0WkRb+IFrfGFZBov4k087U8dOI1N893/moUt+OGgKFe3wbF92SX8SMsVTHp7UeHyeU8bC69omx8WV9CsaRRGvHwVNqx6Go0aFL0G+6WCMvkepCyREpeMdwaMNxpc7LVAjX/DE33QpFNj+Af5i1u4ruD8+fPIzswVb+rm5xWIV1psK2f6+F9wYId6vcOmfNEBDb737Zeht804hON54gZvHy/xTUZgkPXuFcuLQ3JylljmYNZX6/H7b9qiN2ZbaNOgYVV8M/t+Tv4fSoEK5yCMmcO+xF5+l4poo1PY6awi3oY3y3WZxpvl7tQn4kujz0bmyDYhk/zXX9+HJo3tvx7yH5xHmVxilTVuefl2o0NwuKScg3VxsCej4IRzdOhY6z/ncBMqpIMERQThrtfu1jqFgw5DGwtvlusyjVc0x5dAX8duTRBW2TTfsJLRxpqeabM+E6/kIt7E6zSFomzjQHxoWAAmT7qFYv+DO1AhHYTRsmdL9Hqwl+gg+t0Zc4cx82a5LtN4RYt4O+l1mYk3yYNDKuHpN27B2E8HW+WiM5vTm2U2vJKLeBNvljvhuOwcc2jcUamU8//+BwMVcgxiBi+1PH0Yfx2ovf5u6jC8Z+dhqA5o4cWeAm2YN2QmuZBxPnnHR5cRUaNOJMZ89oD+msjJY+cw4tEvkUKDaJlOlWeUxbdXzbwMUp9d2ziQcxRnW0e6rJr8zi1u/w7k344K7yAMvtt0dOdxbF+1G1uW7USytvqSucOp+/46r2iKND/ks5WZeW9fb1SNiUCjVjXRrXcrNKG97bcuBfnn8ffq/Vi/ch+2bDyK1JQs8fmtUb4syynbONg4h+6oxDSicUb37g1x/fXNUKNG6dYd+Q/2cUk4iCPwrVruSbaTGZjBHZwXfeKVnzw8Pdzy6ocrYNtkkG7Ar8w4spZt8/T0hPd/M6+XGy5pB/kP/6F0AP4PIr3XgcKpLlAAAAAASUVORK5CYII=;" vertex="1" parent="1">
          <mxGeometry x="220" y="400" width="40" height="40" as="geometry" />
        </mxCell>
        <mxCell id="-vzZBH9pDmQiQkNsos74-9" style="edgeStyle=orthogonalEdgeStyle;rounded=0;orthogonalLoop=1;jettySize=auto;html=1;exitX=0.5;exitY=1;exitDx=0;exitDy=0;entryX=0;entryY=0.5;entryDx=0;entryDy=0;" edge="1" parent="1" source="-vzZBH9pDmQiQkNsos74-10" target="-vzZBH9pDmQiQkNsos74-15">
          <mxGeometry relative="1" as="geometry" />
        </mxCell>
        <mxCell id="-vzZBH9pDmQiQkNsos74-10" value="Tekton Pipeline" style="shape=image;verticalLabelPosition=bottom;labelBackgroundColor=#ffffff;verticalAlign=top;aspect=fixed;imageAspect=0;image=data:image/png,iVBORw0KGgoAAAANSUhEUgAAAMgAAADICAYAAACtWK6eAAAAAXNSR0IArs4c6QAAAARnQU1BAACxjwv8YQUAAAAJcEhZcwAADsQAAA7EAZUrDhsAAG8wSURBVHhe7V0HYBVFE/7SE9IDISH03jsIIghYEFHBhlhQxIK9F4qCCiIggijY0V9EEDvY6E2q0nuvoYWE9F7gn9m9vfLyXvJe8hIJ+iV7N7OzOzu3u/Pu9squxwUC/sN/+A924antS4WC/PM4X3Be4/7DvxL0O3shL1+ESwklOoNwllN7z2LHov1IOp2qxRrw8vZEtcZVERRRCeHVQxAWFYxKYQHwDfDRUvyHCofz9COYmoaCuHjkx55A3p79yE84h9ztu9k3wJ3oAjy0PeDXvjVC+l0P/5ZNqZd5sIYKCZcdJDM5GwunrUZ2eo4W4wiy1lSVUUGCrtkqBrXb1UREzXD4B/vLpP/h4gM7xNl45G7aity1fyF3934Rza0prxW0lqWNmVfXEaK1KcK7ZjXEjB8Jz6BATVKx4JKDZCRn4ZfxyzSuKJBK+rd1DoZBX4CPjxca9WyEWu1rIzCiYlbgJQVyivyDR5C7eDlyly4XrXSeNtxiDMELSnMGITPxFHRekwnezw91vni3QjqJ0w7CyX4euxQ5JTxzSFrGC16LF1VPtH+QL5pd3xLV29SCt//Fcyl2gXpBfkYW8lIzkH0yHjmJqcg6cRYXcvKQuvsQLmTnascnKlOjL8DLzxfBzevB09cHlerEwDs0EH7Vq8InPAReAXTm9HTL8M8tOB+fgJw/FiFn3u9ajNbZuZlkC1k6vyEz8VoQLUwExzFUjfjWroFa740hccW63HLaQY5vP401szdrnCOQKvpXnaR452DaNh6o1rI6mlzfGsHRoay0XMHOkBEbj+RdR5C4YQ9yySGM4xAVptG0dzmeYyTvWzkMoV3boVLTevCjyxCvoEosLD+QXXnbdiLz85k4f/KUbi/D7BzSchm4pczOYZUTrcczpEw5D29qvjMKAY3qMVdhQO3Hh1U8fp/8J1LPpmmcPZAaUqVOxrYdg2nBa/GS1uKFCRynVauWJqhqCNrd2xUhNSJYaZmAzxAZsXFI3HoIpxdtwPn8fJPtooI0mu20dxwsMqdRtP281jRGvIevNyL69EBgu2b0a1sdHmV1hikoQM6fa5H56Qwgl64GTPZKi0QUW2TwZrqQTONFvAx8RJazygXJh1zZCTEvPsoxFQbUVnxoRYNv4X77ynyNswdSISpa6wSCltUjO4M1XtJaxxDFa2l0WqWR8QFhAWg3uCdCa1chzg0gvWnHz+LMiq2IX7dbK0crW6elPUa8Zi/zWrykC8c7yitpO/FmfQROE9KzE0J6XQlfOru45bKEHCN75VpkfPwFPIg2l8vgrQjUmXVaBBNPGwuv5CLexJvlJn2MpvO+cM/xlBOoLfjwikby6TTMf+9PjbPFBVw+oC398hZgww9bRE1wlYhqEQ0geUmreC2NKFqLZ1KnVbwwUI8PokuuNvf3RFC1cE7sMvIzcxC3dheO/rxadBiLLYLW9gQuV9K0F2nOU2BWxsv0hfOa08i8WpxOq3iZ16qP99Z4Tx8fhN91EwK7d4Ynj11cBenJ2bgV6VM+BLJztLJkvCiHSRVK4RyeEWGo+vyjSF2yCqkr1kq5HX2Nv5oC77AQ4ioGqM34EIvGwb+OY8PPOzTODMpK2Qe8dSM8vTyQn5uPNTP+wtn9Z4VMNLZQL6tWBmZpb44XFihaxdvkNcVHtqiFFgOvhE8lP+KKR3ZCKg7/8CcStx0iFZo+Cvxv0CqeoNGiPDvxMr29vPbiJW/VaY1zlFaWKR2T+Uqd2yHs7pvhFVmZJcUi/1gsUt96FxfOnbPRKWlBquDIOWhzgS73+FK0kJxlRIfdcxvCb79R3HjI3ncIx18e41BfnTdfQlCrpkRVDFD782EWjT+/2oiTu+M0ToEOmbKGRYeg93PdtTiJY5vIoeZsNHVqmZbpup3qodG1zRC3+xQOLt2N7KQMitc6gSU9kTZ5bdM0uqUzavZoSdfrotkLIfNMIvZ/tQRpR04Xysv/Qreg5d5xPGcrLo0pXi+Hy+Srb9v0BEs+La1OqzSGc5h1BrRtgZDBA+Bd1f4l54WsbKRN/Qy5f28Sea06JS1IFex0Zp8WTRDY/2Z4V4tG4qQPkLP3oEXO5niEBCNm3CvwqUGXgRrOU9kHBjxmSqul5z1tqt7dD1F39SOuYoDqXdR8kfhmmHH7T4IOWWS7gFa9mqDZ1Y1ktAnpCelYMXUZcjPotK6lFY1NdL2uDdHy1vYiXXZqFo6v248D87draVi31lkErfLKeIOW8b5BAWjzeB8E14pkoUBOSgYOzl6GxO1HiOP0slx7eozOw7Qs1xIv8gG+oUEIblYHgXWrwzu4EvxrRAkdfBs3ec0WnP15mUhf69mB8K8ehfN5eXQZdx45J+NQkJqO7MOxyNi4Axdyci22GOVzlKJVvGaPnt56HP4d2iD0sUHG8wWSZa9Yg7QPPpf5KFh1qnoVpAwm5/AID0XQ4IHw69gWHv50OUf2x7/ypl3n8GvaENGjh8KDjt8W+255UIxb9fS8pw3vA5s3Rv3xQzlZhQDVt6hxhyjIK8B3IxdoHEGrcHXoPYdcgar17f+S5WXnYek7C5FFZwlOa+6Yja5ujiY3tBbpGBeoQs/uOYld361Dbkomx4jOoJdFO4NW5RsdpnLzWmjYvxtOr96JE4s3m9LIvAYtGBNtJ42XJ6r2aIfQ5vUQUCsK3kGVRJwjJK/dhpOffi/01R/3DPxiqmqSwrhAY5+C5DTkxJ5C9o79SF1MYzs6drMtso6LsVGPp043oB8CLu+IlHc+wPnjJyjG8XhJRKugOYd3y2YIemAgvGvXpEQiZyHn0M+DxATfcA0qPzSQLqm0tDY4Pe1/SFr0J+WT+jmP2Gt8m18/52QVAlTPoqYdgl8tmTd+KVHyKLVDFg3E9I3Dr0Ol8ACR1h7O55/H6g+XIeloAnEyj2rctvd0QY0ONvfFSZR0JA47Z69G1tlkEWHrHAYtM0idZlqTm+P1fFKXNc0FBFSPRMwNXRDcuBZ8Qlx74pu8ditOffI9UewgzxbpIPZQkJyKrG27kfrbMuSfOEUxbJdoHI1mGzmlYa/9NPbj+V/sRYwM58k5fDt3ROAD99CYxuYHjvImjBpPDrxHphWRpIGY4BuvReWHyTmKQNq6zTg+bposizZir1nAofUPH8HTz5eoix/F3mzPpbOAOCz6V4fIla8q3C+w6AP19PZEtyevRkTtyiKPysth29drkHjIZmxDrRteLwrdXr0NHZ7qA78Q+vUWZZnLZVraI+K4FZjWeIMmUqWhPYPHBCqNL+mue9/1aDvlWbR4/UFEdGzqsnMY0MrUOFfgFRaCoO6dETNxBGp8OgER9/eHl7hs0nQK0/mswLT5+DSaj0+P52M0p1HtxjHsGHTGaN8W4Z9OQcjQZwo7ByF5+kzhHOwYyjk4X3C/3sU6B8OvdnVRFpsh9poFKhTQOKWioFgHEQ8H6ajUIYrGMNFevl4iXVHgQXTXp65BUJVgU16pc/3UBchO5oF6YUQ0rIbuY+5Cy8FXw4t02OblFuC96BQiXpNraZSNRj556RHeqh5avTYYbSc+iciureAdWLqXJqUNsqzSwjM4EEHX9UAMOUrU+Ffg34zHd9Lu4o9PBiONpBnc0T2qxyDsvQkIeeVFu47ByFj6J9J+XyLSy5yac/Bl1QN3iZji4BUarDuHdGtJs1V85ipIs9/eFyOKdRC+RLI0gE7LjuEs2EmufOF6+Ab6mfJKnWve/kU8R7ELuiaOalcP3Sc9gFpXtzZs0PaSJhu5RTRep1Vaja5yWVO0ffsxNHryNnFJRUK3QHVeWZabQMftU6cGKo96HlHTxsG/YxuKlGU4dA7OpmgKCue9vRE0/AWEvf82vGrV0GILI+/YCSROna40UhVL5wi8sjOqDLlXJnIC/LyG80u3Zl3SUVgXI/9ScpCsVD4dapWuqo52TEfUcO2BnbefN3qO6Ku9p2fozEvPwqaPF4k0juDp7YUGt1yOy9+8D4ExESKfsMdBxzDbG9GqPtqRYzR46Eb4hgUJeUmRuOwv7HnkDaSs3aLFELT6EIQJSb8ux5GHhiNj004tpmTg5x7hLz6OyA8mwLd5E4rRjlUrU9KaDXq8tMbn2qsQ/vV0+HZsRwlkh7WHC9nZiHv5daVRPwP4NWmAyOceEWmcBb8mIy/NpA7xE8uEoIGcs+ckUwFQrIOkxafZaQwZgiJdv17nh3tXvHijoVPsqTPtP4Xjf+6WiYqAf3gQ6lzXXtpgssXcMVS8X0QwWo8ahMZP3FJqx2AUZGbj9Fe/iDd4eVB+PpfHZwxVN5Jj5NPAO/HbX3E+Owdxkz/HhfzSf2knHOW1lxAx7lV4hgRTDJfJx2rfOTgE3NPf7q1YW8SPnoTzObmsUXcOfs4RPfrlEr8Xxs6gnIP1ycs25pmrGCj2yC9ol1giFGqMkiEkJhwt7uxSqIPv+34NshPTtVT2EbtoM/Z8sUDkldVtOIRh4wXUvfMqtHvrYVTiSyk3gZ956GV50ZiIzmoKtpecnv5+so4oeNG4wsOz+LGas/BuUA+Vp09BpQG36Mct20OWL2uGozyQeP8T4ol6UUj7dSGyd++TmlgVxXGoMXk0PP2ce1vBFoYzGPoMCysOnPppEJ1RNIDZOUp3uDUvb4So1rWlTpO+De/MFa812MPB7/7EkblrpD0ivWabsoX+A6tXRoeJjyK6Z1sSltSF7YMdotH7wxHzSH80mDLc8ssqy2dbJNhB6kx7HVUfvwc1J79CEe61ha9TK/W/GWEfThbvQam24K0I5BxyfwGJzw5HzvoNLC6EgoRzSPp8FqWl9JRB5Y965Tl4R5b8LWpbfVoL6aGioFgHUYeld0YKHCc7ZunQ6v6eYtCuqo9/hXNT03HgxzUygQZ2mJ0f/Y5TK7ZZHMJKk9Pd0BmtRt5Xilu1xcM7NBihXdrCO8Tmkk2rF7ZHwYufTF/RAZ6VHD8nKi08oyIR+sl78KWxhird/HRcBg8kTXgfWSus9cpfEJ4Z/qaQc1Wq9IFXXIbAy/imQMlh1meuGdFkFQjFOghPwCA7oHGoZro08PTyRMdnbjDplPc9Tq7YgYxTiSINO8eOab8gccfhQg4haIrzCQygscZ9qNmXLtvcfNZwBuLHQ7PrHwGfTR57EEEjXrTrHGJPm6QpHyPT5CSpvyxEfnyipTN7hISIt3JLC6VPL58Dbf7BWioRinWQsJhQ0Rn5sEQwddL4fWdkolIgMDoc9frwe1msUztLEb3t/Xk4n1dAZ47fkLz3uKVcs3ME149B+/FDaKxh/75++UDZJQz7x+DToS3CPpokBtdGbdGeNopPnPIJMshJCpJSkPTlHItzsLz6m0MtY6uSQunTddNG8R5e7huPlTWKdRCfABqYqiEXHaXoCIIGctKyZKJSom7vdvAPo4Gs6GBSP38Dvualz5C066gl3uwcUVe0QIsXB8DTp3wrvPDcT9Ie3tuivOeJ8oqOQsRHk+FRpbKwhs3SB8xiDySQk5x8lM82Sibl4Xf0Fd+OlxZ8x85cHpdj5v2rufYqzj+JYh1EzWWlnEMcKu1EZ6XgaEDtCviyqN0zfaVOLodrlGD75qtO075ajzaof18v8QCyPHH6/Zk4+MAwnPlwthajwDZyvWggG+PefB+x9z2D5Bn8nlb5wYPGPFU+nATvxg2FA8jWks6g+ILsXI2WlvNt4/A73fMaurxdzHq5GlRP0XiivfwrxntYjGIdJLCy/GVXh6icQ9IXUOCmX8iAyFDUvLqN0C0vteR4RJUjnYPjLyDmmvaoe9dVgi9PFKRnIn0D3ygAMtZuFA7MkI6h2ajZmR+XgJxd+4Qsff5yPW15wcPHG1XGvgrfJtJJOGg1KJ5oS5rj5fVBtZHPue3SJ+vEGaGfXyvhvQrygQH96IaX/2QcJUXxZ5BKfrLxOXBH1Q5X0dkp7rnMYtTt1wlefLlk86GQLJ94oqtd1RZ1+ls/0CoveNEvs3cQ/WBQU/MLhuYHcMYPh4RXZIR8/kE2+/AkDE48rHM7vDwRKZykgahB/jU3nIOPQloc2Kkt/N0420jGsVPCORisXzqoxlMEP0+qKHBuDMJHJTqqtdPy4aedShLp3AF+KOnND+OIFvq1chRdrUdr1B3QUyb+J0CXc3WmjkLNt4ei9nsjyUjZ6Gyeqg8F/jWO+fAtRE8ahahxw4205Q3+tmXMCPEUXlnINarOKBwKMoub68w1JK6Tr+EYZy557MI5qR4uKQfhW7H8xq7otLqjaIHohH38/YJ7sHPaPOSly4+rrM4BhDSsLp6O/9PgOzy+MVGWyxFhI9vK9WOCh7c3vKtHUyUWW81lCr7cinlvrHZ3S1mrBfqlz9i+B4m/FP0unNOgOkj8e4fJAWV56sxVpXPpnq+UN5xquRpta2mNr3VapkUHBk5tOCTSlBYnl25B6sGTQifrF+VwldK/X3ggmj/fnwT/0K+wE1A2X6zgh5XVJ74mLNSDaYxwZvo3yI2LJ6p0yE1O1c8aqkZEd9H4sNaNRbqKAqccJLp5ddpqh8hHK2jZKc7TID2vlKdoNeuIfpbSy5I+0XrkoBK/MFcuYDv1url44RMdiWqjnmdzLc4hgweODBtPwz/u3iVH2oFjQpeulzZmPqxFA9pWHDjV60Krh5s6gDxcM516ouSvL/Nt4m2Tvneov/nzd5T6gya3gOzhO1H5icnIO3kGuUdikbl+MzJWbUDmOmMGl4xFK5G56i9krd+E/GMnkH/yNM6npJX7XSxHCGzfCmF9ryNL2VoVuMbp1z8hCWfn/EpUyRG3aI2hlzZKtwqVXPwc+Z8Gtato2SLBSf547mumtM4rfzEFT7LoNnXQ+oGSjQ/40urIDyuFTqVP6gZirm2P2rf3EHR5gl9R51cwco+fQubO/cjevhcFySlcEfL42T5Bm88cGq/T1niV16tKZfi1bAqfls3gXa82PGnw7OFbzs8F6Cxx+OmRyKbjk1YJ8+Se+KZfTIRvCV5U5LPPnzdpU/4IfZpuLfhWDkf3meOIqjigNhStWCw2fbECcduPUQarcyj62ikPuvzQLi8tC3+9/InQadVH446wQLQd90i5PAjkp905x04iY+sepCxYRQ6SLeyw18GFfYK2dQ6mRUKbeFun4TTaTU9Np2dYGPyv7Qmf9q3hVa8OUA6vYuQnpWDfoOeodGGG3AtrAP/a1dFk2mhO5hLS9h/FpmfHWXQZwQP1B96E+nf3Ia7iwOkL+9pdG4uGVodtpYHkQ66/l3Vg5iKtw9jqO4/mL95Zps7B0+9k7jqI2HGf4MADwxH7xlQkzV1i1zmUbSreTMs0TAutNvG2zsG09ozHpOdCUhKyv/sRaUNHIan/fUgbPQF5O/eIX/qygnd4KKIfvVd3DvVMhEPmsVNI2cDzlLmGU7+vNA3QpS4ZiCci+ko5F1pFgtMOEla7Ch0mQza0qgLuGEwfnr9JSJ1FxskEJG0/TJStvguocVMX+EWGiXTuRt65ZJz9+lfsHzwCJ8Z/iuzdB0XZzndwe/FEFkrjiC6cl/cM3vLt0JwtO5Aycizib7sP6TO+QUGi+541mVH5+h7wrVVdnc9k+USzDUfe/UL8iDgL/rry5OK1RMmjMQLxRDBdKcZ9H6+VF5x2EG8/H4TUoME6Ha2qAjOdvP+kS3ez9n0mZ2u01ecTFIDqfS4XMnci59RZHBv9IQ4/Nw5Ji1bblCubVQQtXtFCbqELd3D1+1s4Xsbp8WZa45lm8FY+K5CdlX+JOWTM/QPxDz6NxLGTkO+G27AWeHigzqtPCVKUz1ZJc8R3OfFLbL4fKQIJf/MZx3gAqZ9JxDEBNW/sfnHfiXQAlyxu3LejaFg+atHYIlbRF3By9S4RUxwyjp9F1plEPZ9ZR/0H+qCoWQxdRT419InJM3Bk2GRkHzwm4qzlGs1aOF7yHC/itLySVvHy99caT6QmN/QxbYoX6SWEMxCrUqtOpixjWdaGrYh75AWcG/8ezqe7b1YQv2pVEXFtN3EUbJJRvgeOTPva6W/pD/A3+rRX+UXtEaPi6vT7B9+AKAVc6onhDaLpaGUzisbWGlp1giPz1ju1HPS+L/7Q84mg0QHREQhr4aZ3gkjnuYWrceCpsUinwbe0UXZkZa+ktea0xIvmNaXR9hT0OEVreSVtk4b2Bi11GvEs0ToQEUZqFTS31WWSz1i/CbEDH0faH0ul0A2o/vCdWjkqSFvOU+TZJXzZVDTSDsUiiy5dVV4+UnZq1RN8QkMQWL1i3d5VcMlB+LWT2j1biCrgGpXNRjXBtOCBuL/2stQheHmz7NN09jDn1aq1wRD3vG5dkJGFwyOn4uzs3+10VLO9HG/rHHZosbd2cJ2mINJqPEPPp9JwHPN6PEu0IB7YqdQcTDxtrDKNJyLhk69wavhYnM8q/cuivGZi9ftvM/SLPQXaHPpwtpg3uSjsojO0npcIeTZksFN7oPFgateL+C2IouDytUztni1FzXE1iqrUaQLRB+asLPIscvjrxXbyXkClGpEilBbZsWfEWSMn9rRNR7V2Up22pGGaYYrX4uzm1eJFWgqMwvo0Xo9niRbsPM02ZDa8kot4GbL2HMSR+55B7onTxJUO0f2ulfqJFkGUQx2c2jKxiDta6UdOII2CrW0ir0bHdO9A24oJlx3EPzwQEY2qyarUGt1Mg65ZT6+0X6G5yelIP8prddjmBeoNvkFLVXKkbdmDI6++L+6+WDtq0R1c0Bov08s09jq4QdvqdOQczKp4lmihlM6h5Odzc3H0ieHI2rWPuJKDX2isfndfqVuUY5R/4MNvOIldbB/HMzHat41DXRp7VKQPpGxRotFw4/5X0NHLahBVQf+K5o5x+PuV4os1W5xZullPY84bEB2OSjVLd4167o9VODFlpkW/aCpFW8rkfeEOLr5DUTztRX5OV2xeK22kZxWSFqQKjpyDNiIo3iwX8SbeLCd9x4aPR8ZW526SOEK1W+gsQgqt+j2QQ+ML/sbDFvEbdiL9RFyRtjUaWPofvn8SJXKQwGoRCKnJz0WoCuif9yJwTWn0gRnW16f5natTi/62pFEdqeYdV8tEJcS5+atx9tv5pI9O6ppOoVvQznZw7W4U8xQvbZR5JS3jjfRm2qgDa7y2Fxq0UJRzmHmzXJdpvKI53qTv2Kh3xLojJQWPRSJ7dTX0m2yL/WkxJ9HBqwFvf+szx7ZRqN7jMviU9/LWbkaJHITR9P6rqcMYHcPakajTbjmAtKPG0/W0AycKdTYG07xQTUmRtmkXzs7hwbgc91htcbaD8774vOZ4Iy/nEzdJNT3meNqIXFpwt3PYSX/giVfFtKclRc07rtd1iT1teH9q8TrTVKt02fXlPOTTVYJMa0qvAh1ryycHEFWxUWIHCYyOQOVWdUS1WDsSS2Xc3qk/63dATv7OtwtlvEwvO1DMTV1L/EoJPxU/8f7XUifxVltkRzbsssaLOArcAxRtP72ZLqxTOoetTmkLQ6bmOzsyxggaTxs5mDXkOq/LDLngiWDekJl4YvY/MQoXHM2WXwx4xhFf9fUhbXRbaJ+86yAnQTpdbh390VgioZBtdKzNH71dzFdW0VFiB2E0uY/PIkYV6TTtmc9PzxB3rc7n5CF1L7/oqKpS61AUqnQ1lmFzBdwBjr42zaTTKNdii4W218HtxRNpSlM0XTgv7xm8Fc8DqMPovNjLFJyNeZWDaZ3XZTK9LqN4xWss0RqvyXJT03Bk/IccUyLUfeBWu7YdmvWHXO576Lum8gvbxt/f17+5Yj4YtEWpHMS7kj/q3d5NdBDZSWRn0Zpf0AlrtmPvlO8KxTPtGx4E34iSrZl96uM5YnFMW52Sls0qAsXLZnNES5uNeCKpuQun53gZ5zivpBm8lc8DpHPonUiklDLFK5nMSbwu472UCxk5mu4MzApa6uONWZby11Ykr9moca4hon0LTY/Up8pP2n0QG195H9kpcoJxWb6UmW27csqLHHNJoFQOwojp0Rpe2kx8ovOI6pKdRf1uph+k8YesRornapfpql7dUcS5ipzjp5H2945COmW5ZlqWIzuyUa7RqTle0RxPZJHxMjhOIyFjVSqDlxYQTRsLL4LQaCMz5NwBdVrszTKD11jBHxz3sbgN7Cq86dIoIKaqpkcGZdu57fslbSnfoGtd0wmh9Uo/+dzFglI7CL831fTJfqKzqGqSNEPR5niNJzqsPS8G4yIo34l3Z2g6qXyLftl0qizeMwzaiLffweXvceF4Gec4r6QZvLV3WaUsM585lIz3DPOZwyLT4g2Z8csuZZLXWMmLjMDx6d9JwkXUvPlqoVOqkfqsZZjLl4EnAGz1RMUfmJtRagdhhDWphcpt6hMlO4tseltadgnBczz1H78qrr/SnrJqE/LP8evf9vRzMxnxIhAt4iw0pS0Uz93KNp5ITc68ThfKKyE6CrEs0XlBaR1ayEw8BaGJL08sMnUkvJG8lHEes0zyhkzjtQjm4/5YiezTZ2WEC4i8op2m13nbLn/rSXgHlGw9kYsVbnEQRsOHbhR3LVR1WTsVV63Ga/FVr7mMImVHchYX8vJwZrpcblnpFPqETm42x+XqnVpLL2hzvJbXiCdSkxv6mNZ0Mi3SS4hOQ6xKrXci4g2ZlCuZSGu6PLHKKIgOaPCqM0qZwTNkOtan0kqesf+tj8TeFfiFh8DD20d3jqJsY1Tr1g5V25bgiuAih9schCeQbv7SnYK2dirZRQSvxXMIbev69C8JP/LDKqXTqo9RuFxFa+nEXsYLmoKQa3klbYoX6c20tVwGb0VH4Wg9taK1TqTLbOQi3sTrNAWL43DQeNrYlqWcwZ4+lqUfPoGMQ8eJcg01b+ph0aUHG9t8w4LRcej9RF16cJuDMAKqVUa9Qb1FdYpALSadgyBorarpP6B2tMjjLHgihcQ/Vhid1qKP9iqe4+zRYm/t4CIwTUFPK2jpMLY6zHkZUspRulQLJpo2VpnGi3gTb5YX5Rxm3izXZRqvaBHvgX1vTyfONURd0daqi4Md23pOGyoWWb0U4VYHYURe0QqR3VpxTYqqLewcF+Dl70PBtWvVxN+UcxBs9Fk6vkrDci0do1LHNgjsdhkqde0I31oxhfKa0xq0EW8uV5AqOOrMQmbDK7mIN/FmuY0+/7q1ENqjM0J7Xo7gzjwucEGfiJd8xokzSD9U9FqFtgiuE2Po4mDnWK9483EEVHFtteOKBGp/rkb3QiyZNmwa8s6lCJ6rVVQtFcUdLbJXZ8TceZ2QOQN+KHhg8DCRlzusbBoKOs07LU7Q8qxVqUMrhA28Bd5VC6+JzuOZnK27kPbxlzifmqblZRtt7VU6tTgmVXDnLz0HTR8vRVDt6QcQ1LaFeMvWAlLAnw+fmD4HyRt3ONYn4s36PRDUoDbavTeCOOfxx01Po4DX+7BzrA1vvwYtH7qZk12ycPsZhMGvjuQnyfeBuFpFR6bAHY354GZ1hcxZZOyQywg4cg6mRRzRwjm8PBE1+gVUeWEIvKMKOwfDw8dHLM5f5ZNJCOh5hcjP/1KPslfp1OKYVKGMnCPsxmvQ8KspCL6sTWHnYHh4wK96FOq/9gwajX3RpMOkjzZW/ZJOPXAMuVq7OIuYnh0dHis/L7nUUSYOcj6XfnHoLMLVaO3INGQk3r9GlEjnLM5981uRzqE3Gen3pI5f/f3R8GvonBPyZNQhjz+AgN5XS91Cj1aOiWbIkjhKxhhB42lj4c1yXabxiuZ4TV/le25B9JB7nJ7cILhVE7T8ZGxhfZbyNVrEA6cWrKat84hs19Sky6rv7FZ+aHhpo0wcJC85VVSj8cvONN9Pkb/Q3qHOL+qfn5KGPLqkMPQYzWRLs8NEj30JXhHW5ysXsrKRvXEb0r6dh8wFy5Afe1KTGAh6cCB8WzUTLa/K4n+xJ8iSWCxjjKDxtLHwFIq7uyTjJR9ydVdEDuhLlAmUIPPAUcT/uhSnZ81FyoZtYvUmM/zpbNL8neFSt7DNXL5G00bGeeDIt/NlhJMIrV9T16frpg3v4/5zkJIhJy5Jdw5RrYKWnc2LLhtcWckoa/chyqd1NU2nCKxap2U5YbddD5+aMSzQkbFgBc7c/zSS356GjB9/RdoXs5H4/CgkvvQaLmRav+cOfvkZXT//iz1BaqcOZ3IOvfPznjZmnmkOQoMus8qZYF7Qvr6o9sQgpnTwK+u7H3gZ+58fgxOfzsbpOb/hwBtTsfm2x5H811YtlURQk3o0ruumlaHKFxeHhWwryM1DdkKykDkD/yphml7zLWupX+i7SOYcLiuUjYOcPadVH1Ur1aiZDunQVKRxFqmL5SWBVY/svCJo8dwdgm+2DvzTZv2E1P/NFmlEPi090wVHjiPxyaHi7KLg4e+HwIfv1/UzeMsPy1x/dYQ6lC6TpTMteBGvOQch5pkHxVoiCnzW3HX/C8hNSNR0Sl0M3u0b8wHiF1vnrKr78B1aWlkWw55tHM5t3s2RTsGb6kS3lZTI4zDqIiux5N+eVASUiYNkHTpBW9kZVUdTdIALL7LxZMjZ++X66FIP61TNbdLPew7mThZ7Cum/LBDxIq2W15zvQmoK0iZM4Ugdvt140jqRUHYoVk+pdV5QWmcXMhNPQectMikXPDka81LGeTwQfLlpSk6y7eCIt8V3NFInpdUSK55x8L0vkXvOOBPw14CyDMM5jPJlXsWfWv63oJwCqeNvfzizOg6GskW92XupokwcJPOw/HpQdQODvuDSrOHidXZTXru02HM7XkDuwSOcTdwWTpryqUgj0or0QlJIR/6O3Sg4E8dCAY/ASvCqVVN2KFavpTZ3MEMm5Uom0rID2JVREM5h8MI5OrcVNwoUeMzBs67LdKxPpZU8Q9AUuX/idPEjwji3fptMz3Itj7V8w7aEba6NHSKaNxC2sh6G2ba0k26e7fEiQ5k4SG6cvMQSHZdqUdIUiPaNdP6hUkFiisjHLSH1MBStxWu6mU54ZTxOD3oKZ+55DAViIK7JSWbJp9OaY/1pnRzNuyddz7NKPbWuSe+cirfIRbyJ12kK1DktvCYPucL6yn/i8nWWDmib3lx+8o79WH3To1hz+zPYOeZDmU6TqfQyFNblytghvFFtPa+tbUlHSj/l0MUMtzsIXxrozUO1KGhRm0zTpQD9QjuLvDNnDR0cwc84TDqNeEVTOTSmEOWpNII2HFWP5zjmic7ftFmkUfCszJ+cqtQih0FzFotM40W8iTfLHTgH5+GlBsyIX7BCyklWKD0HEW/W54F8Omb7Mo0X8Sae9gU5xvflxcE3NNCanwjFZ2oPgy9VlIGDFMgmoH/e652Vtnyr19OVOZLoekDoEPrY8ezpNKfR4rQ0Is6URuQplJ4G7Ad4lnkDvKiNTC1L0WnOYuaVXMSbeLO8COfgPbysDwPP5593rE/Em/UVJdN4EW/iNbog2/mJxkNrVzPyE6F0MJ8c6/qr9BUJ7ncQniyAao+bwujITPPJmeJdmOGbzzaiSUmPI+cw9BtpZHojjaQpmOJVGkFyME3hmbPubxmnpaCkWsfQeD0QL+JNvFlejHMwn2aay4qXQHOoT8Sb9Zl0FZJpvIg38Sa5T3AgbZ2Dp5eXzE8ZDR1SX8J+198Srkhwu4Pkp8llnG07L0PQ9l6fcADfujVIBeuwdQ7HtExfFM1JtTiRS4akJ19C9pKVSJ/+FTLnzRcphYyzijQarwfidZnGm+VOOAfvT3z6DU5+/h1dWq3E7qff0GSm9BxoY9VvX5cRiNdlGm+Se3j5wNuFM7mXn49jfby5hOF2BwGPQUStyWpk2trBnYdXWAj86tUy5VU6WapoFW89W/C/QZvjtb3IpQXqzOcTk5H2wWfI/H2RSmnqFBqvB+J1mcYrmuOddA4VzsxdhGPTZiIvNb2wnDbW9EXrErwu03hFczzZ1uJx15bU9gvl9dUd6CP+Uob7HcRUjarDCl6nXUPky4+ZnID1cKx2I8ASb03D95tEeVq5kpZOw+CtCC50ZmfvLhkyEy9kJt4s12Uar2hhm8FrR2RXV1G2iSDiPRBctzpq9+5CMa6BdejlczDZxlMBXaooAwfRfrmpRWT1Ea/RnnSqdhVe9OsVNWmUrlM2k9Qpm5zjOaWirWlEHAX+F3uRUgZnXx1RcqFBlxlyISOCeUNm4oWM0xn6hIzLt8gMudk2JWeUxDZZhgf8IkLQbfILJVrpSS+faVvbynAtxX8abncQc8cUvE5fEE97SwKf6tGI/mCc+E7CoXNwOXp84TTKHt7ywzJXXh1RvCGTmnWZiJe8ZJnWeJIpXmOljAkTr9O0sbVNyUtqG/NV2jTGtV+9WapJFYROe7apg7kEUWZnENEsJueQtGpC1+FVORzRH09A8O03Eif16k5gW46KN6VhyAaWEp0XlMwtZZJXMp3XZRxPPF3DV2rbAsE9r0DYzb0R8/zD4iOniH7XIaRHZwS2bioyiLR6PskLk0w8g6Ps2abzQsZwwjbaC547s68vOo1+HF3GP12qz2KFTs05jPIlfymD+o9qLvcg99RZHBn2DinmpuOW42qUwTMwAHU/GaulLDnOZ2QgY85cZC1YKh1CdAfaC9paroJsYNmoMrUMqsNJma2caC3er1kjBF/bHQEtmsArLFRMr+kMeOK2vIQkpO/cj7jflorXcMz6RRqmRTlW23ReyEy8ovV4huEYHPhOVcsn70DNazqX+ntxnqT6q5te1nXLYNj28B9vw8vJ+qhoKBMHOTqUHISrj1Tz3qCBerPelQndAH4TN2fNX8ic/T0upPA3KIWdg7cicLQWK4OJLiSTvE+Nagi//y74t2rmtEMUB/6eI3nDdhz77DvknEuSZTkov0iZiDfxGh1crwaaD7kNlVs2KvGk4LZgB5lhcRCzbcAjCyeJ5fkuRZSJgxwbOlHUHlejqEpBy85bd5b17Vm3gPTzbdq8jZuRM38xzh+XkxOIRhRiowPJYOJpY+EpeNephcjnH4VPLQdvHlOmgoxM5CeliOXPzO81sT6v4ED4RkXCp0p4keMunopn/8TPkBkbZyq/aNsEL+INPrh+TTQYcB2qtG1SJutxsIN8qTuIZo9ugwceXzKZk12ScLuD5MUn4uhzb4lqFFVJ6s2/7HVnvycTliEuZGej4Fgs8rZsQ/biFSgg55GNKRtUp9kkM0+hyvBnUKmT6fVzhfPnkbl7P5L/WIbU1RtMebT8tLHwJnnlXt1QhUJQo7pUETa/6pTxzPw/ceCDWda8tLGni+MDa8cgunsHRHZoLm7blvWUO2mnEzDnvjcNe2ij20P7J/5zEOfBlxCHHxwuq45U8150CY2u9cVEeLo45U9pwTOYnI8/h7yjx5C39yCyVq9HvnAarcEpeIQEI+aDCfAMLvw5cOa2XTj55ntiGQeVXgYtP20svFmuy/iWdQgajXgMwc0bEmdF9pkEbH5+HHJT0rU8UldAjWhEXdkeoY3rIqhODPzCafxTxg5hi3OHTuLHR9+RxyFsM+wLrhaB+2a+yskuSbj9wtGTP6nl6tMcQpw9dPoCcg+X/7s7PIOJV0w0/Lt0QvDgu/lkoFkjG1s4x8fv2HWOxB9+w4lRE0vtHMznpaRh59C3cW5V4WUJ/KOr4LJPRlMFesq8FKdC/YE3oUrHFvCPjCh352DsX7xR2kIbaZNhX0yrBrS9dOH+kRU1sF/NakRwNUrnUFXK9NkxU5D48UzkHT9J0SwrX+QdOoqC5BS9gTlEjR8Jz0qFp7C5kJuLhK9+IDPtdH7e08bCm+W6TOMVTZu94z/VV94yw5vGLq3HPmfKxxO+xSGTxnXlDX4d/siq7fjugXHY/uMK7Xj4OMzH6oF6V7QQ6S9VlMmth7B+11DVFXYOSdMly4p1iHv5TZy69ymk/fA7Cs4lUmz5IHPVOq1x5e1V/y4d4UNnF3vIO5ugWa86hDoa2tPGwpvlukzjFS0cTePz82lbGOGtGqFSrRjtlq3UdXpFyRbCcRX8deLZ3UewcMQn+PzGl7F49P+QFHvW5By8V0HaFtPCtTnOKhrKxEEC2zZ36BzmeOTlI+37eTj7+DDEPfQ8Mn5ZiIKz8STmNGWDjMUruWTRAckahPbrIyh74DGD7KgqWJ+ZiId+Zhk7gCaTR2jIbV/PKOplwQaDebZCqYvLO7PWOouJO1FAbXB21xGsemc2vrjuefzyzHs4tmGvkEm71bFovNhL2yIb1YR/iPOvzVdElImDePj5IqR3d9lFRGeXe7Nz8DcGsotJp7mQmor0r7/DuSeG4exdDyPjq2+Rd+CQGGC7E/mZWaKRuQNy4/OzDkfwojGJf33+3JQdQzoHMTqvsVLGhInnvaBpY/t6RkTntvAs4rlKpepVdedgpIhJMNyHnNQMxK7fifkvTsWMPi/it2ffw/6Ff4vy1HF5+nprxySPRco0XrPtmhf6i5hLGdQ3Ra91O3g29hODX5DVS0UIR9BpCn4+iJr6FvLPxCPjp9+Qu2W75kDCKJmW0xHtXbsm/K7uDp82LeAVHUU9t2QD1Qv0a3m8/wNEyQ7NJdT97lOyxfFdtQJyqANDhiEvNU1kUJ2fwXvBaxHcaeSRajLaKF7KyCFDg9Hpf+OLfHEzLz0TS/q/IGhV3o3zS74oZ256FpIOn8QJcoo9v6wWc2MJezTHVbbxfGVt7roGDa/pgISDp7BozAxdxsFcb5ENquOeT54XsZcyysxBGOkLVyDpf9+JLiKaWev4iua5ccNfekImLihA3sGjyF6xCjmLV1CEdA7bvAyedcSnZzd4NW0M75hqYiYSZ75v4Ov+Y7c9KLRITR6agxT98RA7yeERE5B5KFbLZzgD157SJ63VZCJeWqxCWOumaPH6k0WePRi5qelYOuBlS+e8yUkH4VfPea6qZHKIM1v2Yf9va5BPPwy2tijn4O/Nm/e7EvWuaoeQmCpUjR7ISk7Hl7ePspRvPlbGA7NfRUjUpTuru0KZOgjX6OknX8V5HoQTzU0kmknQsuOHPHY/Anp2lekVSF4QF4/cDZuQS2OG8yeMRUB5K4LNNb13wwbwadEEPsJpouFVJQIevnRmsPGbI/0GaXlk/rpfTxOXUs4gY/cBHP/gK2QdPyXzkwJVvtIngog3+KAGddDwmXsRVK8mccUjPfYMVg4ZbdLngb4LPhAyBZ77OD8zm5whRThD3Lb9OEVniExyjiJtoxDVogGa3twN0S3rIyA8mGIM8Jhk5l2jkUFOYslPhOI7DeyFLoOdn52/IqNsHYSQn5CIuCdGiCYSzUTFKeeQ9AVETBoD71rW2T3MuJCTI56M52/djuwlK1AQL2ccNILQJgNtzLxX1Srwbd4Efk0bwSs8DHHj3sf5gvO6vPqbQ1GppWuzPebTL3z63kNIXrcF51ZtEK9iKH1cvk9EGCp3bY+wds0R0rQ+vF18/SN24Vpsm/K1ps8DAdGV0ez+vsiIS0TKsdM4tXYb8rJUmaZjVzwRZr4qOULtK9sgpl1jhFSPdPg9CDvd3Oem4tSuo5b8Zn2VIkLw8JyRl+y7V7YocwdhZMxfjtQvv6Eals0pftR1moK3Nyp/NgUeQc7dEeFLpfNnE5B/6Aiy/t6M7HUbxGwqsiFZo2xMGawNbCsP7NQe1Uc8RVTpcJ5+eRn8oLS0WEFnjzQ6i9ieJXXbaWPhTXL/8BDU6t4O0W0bI7x+dVSqHOL0B1LLJ32L3fP/suizrbuHvqFLq6quL75aUVEuDsJIHDMZuTt2UxWLQmmrNS/9894zJAjhH00udjzgCPxQjxfCyT8dh9yjscjZvR+Zf28R1+SyNL1EI2gdsMH/JsO78sVxPZ165CRWPj62WOfw9PVF9W5tENGoNsLqxSAoJhL+YcElfi9r/fTfsGnOMmt5WlmKv+7lO9H8ug7E/XtQbg7Cd5ASHn0RF/hukKx+Kpwl2o1FMsOnTi2ETJSvW7gL4sySm4eCc0nIT04Rl3xnv/wW+eJanS0BApo2RJ3xw6k2bAYsLiB5215xFyi0ReH3rJwFP11fct8ryDpn2BZUIwqN77oeAVXD4UfjhYDKYWKWkZJ8NusI+5dsxOLxs7UyCzsG75v37ojrXrq01kB3BuXmIIyCxCSce0Te+jXOItYzinfjhgh+c6RbncQWmdt34/irE0XDq5LDb7gKMY8MFHJXwXOBrbvjGXjRWKPTjAklczSqg79e+whxf+8y2QX0nDYMYQ2cG9yXBM44RxU6Qw38+Nl/zbjDjHI9Yq+IcIS/MdShc/AZpWDvfqS/MlpcMpUVKrVqhoCWTUTjq05w7rdlOPXxLPG6has4+tXP4puQ7HMpiF9jncbUGfBl4LoRUws5R3TnVv+4c/iHBuLO9x7/VzoHo9yP2qdZYwQ99oBwDKtzqKYBcvcdQPJjLxRa4MadqDnyGRr3aK+SULFccvzvy7D3qdeQe/acSOMM4lf8jRM/LlIXitj11qfIjnM+f9rRU1hy7wjEb9knbFDBJzQIl43gh5plA+Uc8lmHfedg2d3TnoZvpZJNtnEpgPql6Jnljsz/zULObwuoNVRzSBgd1kO8hh424XX59LwMkHs2AfuHDMP5gguiXIbsGB6I6N4J1QffDl9Hg3cy8uTcpTg0/TthqxYl9PBYpO2EFxDWrL6ILwRKmH4yHrun/4i49TtEfnP5HjQAv37mGPi5sFSdK1j7yS/Y/D1Pks2QzmGUL21h2aDPXkBkPcev4vwb8I85CCNz+gzk/rFI0GyECLRRLiODB8JeeR5+HdoS537knUvGvqdfR35qmijP9tWRgDo1UP3uvgioWU0MjHkOqOQtexD77R/ISZYP5URaYTfD6GCVakSjRp8rEVSrmni1JCsuEQnbDyB28To5l9QFIy2DdfnQJU2vz1+Dbxl8OsvPfxaPnYkDf/JaIgzj1RGG2Tluf3sI6rRvJOL/zfhHHYSR9dkMZM/n6T6pYRzd2qQQcG0PhD06uEwG7+dz83Bk/EdiMgXpoEb5Qs60iDfxImj2CRnD6GAy3rC/aBnr9EDMFa1x2fAHyuQT2qykdHz/xGSknlWfH1P5RJjLV/bc+taDqNfJtYenlyr+cQdhZLCT/LFYbyAZjAZTndMzIgyRb70K7+iqFOt+pO3Yh0PjP0ZuCp9NCpev8yJovCOZiDfxZrnND4F/RCg6jRqCiCZ1iHM/Dq/ejvmvf2kq07F9d777OGq0qkfUf2BcFA7CyJr3O9K//MbaYLSx8FoIuetWhPXvWza3gqnQ5I07cezz75B5gp9m25ZvogvJNF7Em3iz3OQcQTWj0eqx/qjatjG1hDw7uRM56VlY+Mb/ELvloMkG+/Zx+fd/8RIq1yqbH5+KiovGQRg56zciecJ7suFoY25AI8gG5gF81KvPwb+xg4GwG3Dsy59w4vsF1rIVTRtHtll4s9zkHA1vvwbNH7qFKPeD36na+csarJr2k7V8B/YF0LiHnaNSWNncFKjIuKgchJF/+gzODR2NAjFotulgdhrYr1FdRL34OHyiIinGPeDVl/aO+QDJW/daytJp2jhjm0FTsLmsYnmVVg3R5Y1HSzVfrgVkQOymfVgybhayUjIKlWfPvpgWddB/ItngW/p3yJxBXk4e0pMzkJmejbhj8SjI55GZtMnL2xPRtasiODwQgSGVBP9P46JzEIaYLOGNicjZJZ8NyCosogPSxq9+HUQ9NRj+9WpTTMlRkJmNTQ+NQB5Pv0O8pSzaWHizXJdpvFluxzlkPH+PEYQ+M94onZOQopPbDmL5hNlIi7dOZyTLMfMGffl9vdDlvmupat1/eaeQkZKJY7tjsf3PXfh7wRYUFFww2aLZQ4SF1+jqdauiS592aHtlU1SpFkZmlp2djnBROohC2m8LkTh9FlGyEqWjGJUoeCLMlepdpTKiH78PQe1alOh9pV3DJiGZButKn9LtWzkM0b26IqxlQ/hVCYcfDax5DCTmpLXTcPzVHhvNT9ezEpJxbudBHJm/BpmiAwuRrr/aZc3RbcyjIp8r4CfwR9bswJoPfkJmonNnXN7z0/Fbxz2E6MZl85Q+PSkdG+Zvxqof1yE5IdVyrIYtGq/LNN4sN4/XQiuh7+Ae6NanDfwruemM6wQuagdh8KyIZ0aNR06sXG6YK1HdLuWN4jVW8Gpf9e5+qHxdd3iHU2d2ArmJKdhw70tafqkjqlcX1B10K3zDrB8WlRQ5yWnYPO1bnFi1VehXZd3y/Xj4OTkBQvrZJOyauwrbvl8u89PGrEsG4kW8iad9wytb4frhd7v9koq70b6/9uPXD35H3HHTbDC6Dc7Zp4cizrrX3NYJtz/cA4HBhadqcjcuegcRIBNT5i9D/Ccz9Qqz95CNaeOsYsT51YhG9F39ENy2uZh7yhFSdh7AjqHyJUZ+LhDZ/TI0e/lBKXQzlr3wLuJ3HtbsBG747BWE1LI//RAjKykNR1Ztw9bZi5B+jt+I1o6RNubOJX8siBfxKniIs8bNYx9Etaa1RAp3gbvPlsVb8eu0P5BO4x69fCEzyjds0XhdpvGKFvF20usyg+9z1+W485Gr4e1TdpPpVQwH0XA+Kwunxr6PjO3G4JlhfsjFG65A81nF/HTcJzICUf2uRVinNvCLqmy5DEvdfRBbX3pb5GdEduuAZsMeFrS7sVR3ELKVbLtx+giEmhyEX31Pjo3D8dXbsfuX1cgkB5E/CNI2cVzimOSxS5nGE2Ecvwe6DrkB7W/v7vYXDg9sOIBvxnynO4ZePtO0EXvF60HaZ+EVLeLtpNdlJl4L3t7eGDbpbrToUDbzc1UoB2Hw3a0DA582VZJRYbxRzqKxktci7HWwkJaNEXnV5Qhp3gD5GVnY/Nw4IVevYDR76UFE97xMxLkLR5duwPq3v7LY1nvai+JrxDNbD+AoXX6dYeehsyRDdT5lu7LNnnMYMpk+vEZV3D/jZS3GPUij8c6Xw7/Cib0nC5fPO80G1TYijiB4imB+4NCb0eGqFjSMM5yWX79Jik/DicNx2LhyD9Yv2Sn1CH3WHz2lS9LAZT2a4bnRt5DDuPdsUuEchBH36dc499tSWUnEGxUleYZsNFmJZl6nRZ7CHVDshYwhGyXy8jZo/NgA+NPgvDTgb8o3f/i9mH7Hnm3SBi3YcQ4ZL3llm5Rpcl3G+WT6ez9+DlUbOv7e3xVwV1n741r8MvU34uyUL9LQRtEU2l/TGhuW8LtflJ4iOO7JifeiRefi3/Pi8s7EnsPvs9di2a9bZBwFPjYmmNZ5QjAN5N/58mFUiQoRvDtQIR2EV23aO+AJnNe/Q+dgNIrO6zKNV7SIt5O+KBkRvOxAaKM64i1drwA/BNElEU+Ax7dqvbR1x/MyssW8Vmxb6vEzyM/KQcLuI0jYdRgpJ85a9Fn06zSFIgaoFt4s12UaT/voRjVxz0fPEFV6ZKVl4bPnPsPJA2dM5RhliUAb5qvEROCuYbeibouaSI5Pxcg7JutprrixPe6ls4eryMnKxW9z1uG76SuFItalflgYyll5bPrWx4PQrLV77tBVSAdhZGzfg8OvqK8C7XeYmkPuRNaJM4j7Q043KgJtrOkLN7Ah03gRb+LNcjd1Zj04oa9F3ysQHB2B1Z/+KuW6TMoVPcRNEywc2XoEnzz7qWPbONCmWecmuO25G1G5mnGmXfbdWnw/db6efuK8lxESUfIn9tnkKCMf/RJHhKMWdg5Fv/BaP/To3ZJjS4UK6yCMfUOGIft0vFb5KhgdJqBuTTSfMpLP+Mg8Eov4ZX/h5Nwl1rSKpo2FV3IRb+LN8nJ0jlb9e6Bxr8sQUTtK8HMemYyEo6cd6usy6Dr5ELCUWD5zORZ+vsixbRTCIkMx5O1BqFav8Hc7U579H/ZukjcjfOksO3VxydcSiT18Fl9MXoAdm3laIht77Nj34mt90bOUTlJhHaQgPQM77zIP1mWl2HaY0HbN0eQNuszQHubxLIlHZ87DyV+0ZwgcRB47HUDEm3iz3J3OIeLt62t5a3d0GNRb/6qPm+uXYZ/i2Kb9DvXFNK+Du957olRPnnnA/N3Y77B1KY0fijjW25/viy79LnNY1qPdRurpO/VqjQdH3iYFLiAvNx/vjfoJf/2p7l7a2FOEfSPG3YZuPZsQVzL88y+7lBAJv5s6uAhUKURYeNonbd6FI5/MIUrCq1IA6j9yJ6744X3UH3IHPLy89bSWvERYeLO8jJ3D08cHXZ/pjwd+HY8uj91s+eT1z2k/49hGs3NwXrM+D/R7Y1DpnKPgPD556pNinWP0vOG44uZORZZlti20iusPWzMzcvDYzVPsOwdtimuLN4f/hKOHSr6+SoU8g/DECttuHkKVwO/1yLsjIp4Cf67K02dKmaooGjh2vwyNXnwQhVZ+pQSp+47i0KzfkLCJJ02gChZ5VLBpgDJ0jjpdW6PVgKsQ2bhWoU7Hb+guGj8b+5ZuNvLblqXZ1vvF/mjVp2S3pvPp15oH48d2HS/yWDvf2AEDXi7+beQh3Ubp+a+9owsGPNVbxDsDdo6n+09FSnKmpfwrrm6Ofnd3Rs268gVVPsMs+mUrPv9Am9eLNub0/CDxhwXPolKg66+oVEgHydhzCPtffkvc3lPWywqhTvb0/cIZDrwzHefW8uschiy4aQO0Gve8w9kPeXbE5D2HcWr5BsQuWE15TB2ENoU6pOKFzMSb5bpM4xUt4j3Q+IbL0eDay1ClUU14ObCLHf7nFz/CqZ02U4LqNAVTZ+bX1p/68TVqXWJcADvHew++h/jYBIs+GTSeNrzvNegq9HnwaqKKxsPKQUhfp16tMGSUc5dYfBZ78vb3ER+n5gijy+XwIIz7bDCiYuzfeFi+YAfefv0XPb3cS7pew6r45KsHXD6zVkgHOfT6FCRv2ikai8F3Lrg3MNvxpw/ErIOMzOOnsH/i50g7HCucieEdEoT2770C/6oRgncIUs7vTaUcpMH95j04tWoLMhOsq+WKcolRvCEjm6hDMJSM0wZUCUWdbm1QrV1jVGlYU04cXUyDpZ1NwrePvYvMZPPr6x4Ir1UVrfp2wbJpc+125sdmDUNYtWKO0QRxWfX0J4XOHKpuffx9kJdTgAI6e7P+5l0aY8j4e4W0KEyiQfrujdKx+Qfgs+UjpaAYzJy2GL/MVquB0Q9JixoY/eF9xT4IXPjrVkwe+4eWT+ZVTv3Ys1ej/12unVkrnIPwJG2bb3lEP2gZZCeL6NoeDYcVfis28/hpHJ7xMxLWbdMbvMGQ/qjV76piO6gZfGlXkJ2LrHMpyE3NQEbcOWEHI/VEnDgzBUZVlhGkN7hGVfEae6XKofD293Xp7WJulm0/rcKqj+aJMqTdQOW6Mbhu6J36w78Pbx8tnmwzVF1w2u6De6HrvdeI+OLAA/JPn/oUR3YeI046B+uQh+aBSqGBeOWb5zHn7bnYslw+3Wb5+ytGW56E28OiOWsxZ9pCzTZg6m9DERxW9IQU586m4lEad4jOTTw/APzk56fhR07qDD6YtAhzv+eFRw3nkMEDP89/CuERzq+K5fU6QaMrBDIPHEX8wlWWg+Y9o94z94tX0W3Bi9ZU7d4RNW6+GgHVo5F66DjOrNqEk4vXIaJNY/iFO/fklU/P7AQ8HU+lquEIrVsdYfVkiGrTCFVbNtD5MOrI7Bj+/BCR8rhyaj93+DS+e2IKDqwkh+aDo7yd7r0WvYffg453XYXAyoa9rPvw33IAq56e8yb+6FlcPqA7c8Xi2ze/xZ71+4gq7ByhVcMwYtZz8A/0R0CQP/5aJC9bGXVb1EJkde0HwQGCyBmW/KAmxKYzkZ83mrYr+r2pj976FcePJgia842hM0fVas4/z+nQuR5WLd+HpMRMcSwM1U/27YtD7xucv/Vb4e5iiZlHaK8qXNHckYIaFj3pgXdgJcT06oKuM8ahx5x30Pjh/tj78fdY99zbSKezzD+NpGNx+PHp9zF7yERxyXPZoOswaMYwPL14Ii6/vzeC7Tz0a9y9legEZudgPi0pHVmpmRxTJJZ9tQxblmwjSp55rM4RimEzn4Wf9v1FvVa8HB2Db4x44Ku3fqazj4xxhKrVI8hJgnT7fv5iJTLSHE8IyA8C1y7fI2hO37J9XTRoGiN4Z+Hp6YG3p94ljoXB/UQd16aNx3D4YLyIdwYV7gxy4HVe34NnbDecg0+jla/siCrdnJ953MvPV8xXVf3ay1Gj1+W4kFeA9Ng4sQ45fwTl6mCupOAB+IlN+8Q35NlpmWh+Q2d0e6wfOtx9NWq0ri8WySzKFl+6hFs/ZyUKyKGMywlZN/U6NEJ4jONxyP6/9+P7CT/q6Y28Hgikyyo+c/gFGLPte1HdZKXn4PAuudIWd2a+g9S0Y9HzAnC6vVuPaZeKHjiw8wR8fL2EDtZvfl1999bjWLlgu96hh0+4A2ElePIeUMkXgXzGW39E6GHwnh179+7T6HdLGxlZDCrUGKQgKxub+j9JB2p1DubbTB2JQCdXcLpYkJ8jFyj1LmK9Qmew8n8LseorfnlT1oWqm863dUXvJ2/iJIXA45Y3bxmnpzXn5QH5Gz8NE5dVtuBvyp/pNUacOVT6B0behs69WssEGo4fOIPlv2zE0p/lEtZ8olHpBU+BeY6oXicSdwzpgQ5dG+HTt+dj8W9bZDrqzD+teUWcEUoC/tG4pc9UJCdnFSr/518eQ1R08ZfWFeoSS75WYnQA5RxMV6rt2mn4YgA7Rmmdg1H/Mp6Im+vBVDdEb/xtg5DboiC/AO89NM2U1qhHDi998bRd52D4kL1PTBhoST99zI/4aCR/F5KJ7ev247mb38HIwR8L5xBnDQrm9Mo55BmFnOloPCaO+AF39hiHFYt4KlZO4IFWHeuW2DkYXl6eeGnE9XbLn/fLdk5SLCqUg2QckKdLEUwHHdy8oZgP99+KyjUjjXoRQXa+nOxc8WzDFj+98zNSz8mpVvX0vKfNE+89hCo0bigKzTs3Qq+7uxr5qTNvWL4LT90wAZNfmoXEBG3CC9rINEbn1HldpvG0L6CenEv2sj7uxA2blf5Hr0vXBrp+c3lffLGOymGuaFQoB0ndeUAeIFWg+aArd3buevJSRUBwJb0ubDtfunYLWOHgpoNiQgVLet7Thvf1Wzv3Zd5tj/XCLUOu0dpC6Sqsz9xOOq/LNF7RHG/S547vOvgsMvihLppO1i318+wqcXHWurGHCuUg51ZvFIMsVYEceNAX1MC931lXONBVSK3W9WTjU6UY9eOBc6cSRRIGf1Px2Yv/s8jFnjaKTz6bTJRz6HPvlajZIFrLa1+fIdN4Xabxihbx1vQfvLMQyYkZRJUO1/VuYdVNG+Y3bDgu5EWhwjgITzCdn1sgaD5IPgWzczD8Ip1/YnypokazWnY73+Gth1ksMOOVmdrg2pDbdubv3v2VtsWD8309+XccO6g+oLKvj2dPufuJazDx68fw1dLhmLVyBGYtH4EvF7yEN6bdS+MMcmyRR8uvB7rMIlsfG/ipPrlcSVG9RpihlzaqrA2bLiEHyYmXv4TSMeRBCp6O1JfnqPqXI6peNb0TqGcOHHavls8U+NLqwKZDet0JOW147+PvJ/Ys27F2H9b+vomoojHr3d+x9Ke/pR6LPqY9xO3b58cPwIxlI3DT3VegZt2q4km4j483fP28ERQSgBbt6uD19+7B9LnPoF6jKJMuQ19SYhbmfLWGuJKDB/qNGsvvaHTdFBYu5oejRaPCOEjm0ZNa4xoHKe9O0HUmT972L0flmlVE/aizqqqfU4fOICczB58P40kiGNa663VfT7w6+zlNJut25vi5RToJnzmkc/Bg2ujMTLOeq25uj+mLhqFDtyZOPU/iscbkLx/GDbd3lLo40Ea184xPV4k3e0uDZs34B8RwDg452hVJUagwDpJx/JR2YEaDSJoaoJwe6jFOb92Pb+98FYuGfYi8rMKNxrORfNbnJXx912iknTGu/8sa/MBQ1AVBOApXklZX0x7/WNwdYt6QAcERwej9wFXiO417ht5C8SQX9Qp8NX4ePhg2C4lxKTKxhvmz1wjnUM7AUM7B+cZMfwgPvnSjy7dnuQkffeE6dL6ykWaDtTPP/aH4s1pRsFxmiUD6iSjuTlaFcZD0QyfkQRFt/nUpz8srdoiFL38gpvk8sWk/dn6/TJNI8Oshc5+dKm6t8hy53z/xbrEN4C4EhskX8LjTyiI1Z6Bw6kiczitzuEM/+f6D1JFlF7j8hvbo2f9yWb9a2q1r9mHo7ZPw8JVvYNJzX2HKy7Pw7YdyPUZ1VNyZmec5tybPeRL1m5ZuBpWXXu9HW6lf2CuCBz7/+M9iX2spCmvWykn6pE7NOYgu7gxXYRwkYYN8gGR2Dg7hrRuzuFwQK6brYRtk+Smn5At1Osg4aZfsYJkpGUg4eFKIyho+dJmpHECVr2zReV3mgctv7ICoWtYZ8fs/3Qf3Db9VyycDn1X4FfedGw5h69r9Ir+Q0cb8Sz9x9hOIrln0i4vOwJ/GLgPuv1zYyxD2clm02bE1Vot1DdnZediwkT95YJC9rI+odm1riJiiUGEc5Hw+P0AyGsQI5Xd5tX32YrLBKD+ysXUmeV46rVqr+ibbaHC8eieLyhyiPGGbuX5MNG0U70G/9rc/eyNRhdGlT1tMnPsSmrSvazlWGTSeNmZ+4qzHEV3DfXcSbxkgv9lgR5ZOKPH+5CUa5RomT1mhO4dwNqJYZ78bW4jYolAhHOR8Tq6lgY0g+fIAX14lHrXOCRVNzmCLRtd2MKXxwKY5dBnGTDnAKFeWrdO0MfODRvanM47jyatDKwfjhSmDMXneS7j72T5aPi2/0GXwwybfI96lcifCwgPRoCkNqvWypLMcOHAWRw7bnLWLwe9/7MJ3P24lynA2Dsxf3bOBoIpChXAQeVCmBle8YsoBCfuPFyo/pFrhS4qoJvKVcGVffn4BMpKKf2LrDphtE3vayE5m1F1olRC07Vn8LycjtHKQGFtY9PFe4+8YchVadSq+k5UET794nVaWUR6HZ5+YQ3WqLsAcg8d+n/9vPV55bT7RZufgKw4P9LmuCUJCil//vUI4SPbZc3oFqYM0Gqt8cHydNv4QQTaYT0DhCg6JjpBySqDSntlb/AMpd8Bsm21nVuGRCQOduvXKSE5Iw4xJv8u8tJE6pL4WHerh5kHdOFmZoEmzagivHKiXp2xIOJeBwfd9ibNn7f/osGPs2nUat/X/AlM/XG2ym4M8br7D9vorvQRdHC5qB+EFYg7NmIv1j7whDlBeO5o7H6N8xiC7f1mjlSkbrFor+uW0U7QP327V7ZNpdy6w/1atu6F3JpvyVajRMAY1KTgDnkVl9COfy7y0kTqkPv4E9uVJd3OyMgM78ag3b9bKZRu4bFn+wYPx6HvjRxjy8CzMnbsd8+fvwh8Uxr61CJddPhkD7/8ah48lWfoJ51X4/KP+qFTJuWdnF62DpB08jjX3DsXRbxcIx1CDLD5oNchSFVbWyEnLRH6e6SMt2sS0bSiFdlCvi/XdnwNreIKJsrdU2SbLNcpX/O1P9SHKOSz4dh0S4pLt6hv92UNun0XdHtq0q4Uu3RqQDYWPhfdbt53E2LELMHLUHyL8+PM25POHYyynBOb0CuNG90HH9s5/N3RROsjphWuw4em3kJuSrjsDO4e6A8Hgg2Y6O6Xsr++TY9Wk0xRow2VHNnR8i7BGG37F2uTI1MCZSeksKlPYdmbLDwkRU57/Evs2H6GYopFyLg3ffMDTjcr86rkHh4FPXYeo6qWb5d4VvDn+VlSvaX7Ip9lCG9UWhkzjRbzBK7z7dl/c1KepxjmHi85BDk7/AXvemyka19zB1CBLOIoIkj+345CILUuc3KQtJipskA0SWt3xnZsq9WOEfQxhO+3jj56REWWEtCT1fYe0Ty+f64oimOez4ORn/oefPlkshQ4w6aXZeufjumawzloNotFnQCfBlxe8vT3x9ZyH0LJVdf3YDAdwzjnq1auM5QsexbVXOT7rO8JF5SDHf1qMYz8tEY1pHLC5EgzHEIFk+bxYZhnj0CptdhGtQdiGoCqOn+CHavNRKedgHN5Q/ItxpQG/6azqR5UpeDJYmC5kUj7/61WY/e7vItYW29btx5F9p/W0DKnTA8Mn3+P0AN+d8PHxwsefDcSrI68X5Yu2J3vkXgXuK1a+amQgPnrvVsz79n5EVnF+qh8zLhoHSdq+Hwem8wQC9g84qktbXPX1W4bc7Dh03VlW4MFqwmGe8cTofFymt58xmYEtAngWD5Nz8H7vyh2SKSPw2uPKNnk56oFBr96ON755FtXqVDXJyB6SLfnxb3w7baEWI8G3pN979XtKK+uWIfN54N6neiGscsmXLSgt2C9vvKklVq95AdM+GIAePRoKG5V9qq/w2eL5Z7rjj58fxLL5j6LbFXVF3pLionAQXvpsy/B3xQHKYHWOtq8+gnYjh8C/snYtanYOCvyUvayQncozGsrOrsqLqFON+6BD8HfbnI6hGjDpTJKYeK6skMgDatoLW4lgmp9hVK1RGaNmPIlrBsiv6tg5ZDo6k8xZi+3rDhAlseTHDcjJztflynae8rPPHeV7aeUIfMnV6bLaeGfizdi84SWsX/UchWfw1+pnsG3Di5j73WAMvrcjatG4xR24KBxk19tfUMOZPuQhQjVSt09eQ/QVxie1YQ3VgzgVPJBDg/myAr+Ra1teVSfWF49qWN34deM9bTJTip+nqqQ4dYhvJFjrjs8cDJ6w+44ne+Oe52/SZTJ44J2XZiErI1tMzTPzfWMGRCVnfUMn3lmqyRPKEv7+3hR8RCiLq79/3EHSDsUiXr2IaNPAnd5+XixzZgbPZaXkqvPlJJedgyQcVq/Za+UREdOi+O+2o8iJlH3qmFLikoSsLHD2BE84reyUtlYKsa4j3vOWjug1wHhjV+xp8/GYufhx+got3sjPsnZdGqK+ixO3XUr4xx1kxwTtYZTWIKqBGtx9IyJaFr7rEN5C3kI1N3BqLL/OXTY4tVPNpGLYF1bEHSyFmq3q6vZJWz2QEOv8jH6uYttqeadNBlk3gTYOwhjw5HWo2UD7kRG2ARtX7cPvc9RE0Vp+Tfbw0Bto++/FP+og6cdOI+OEXGtONQgHn9AQNLjnepHGFoExPMWN7AAqT/zOsrvVG7vloCxPK4uDeW5cR4ioQXaKPJqtFI5uM74Pdyd4nis567q1PF87c27xXaAXJw00HY+RXuc12dU3tUXlyNLPLFKR8Y86CN/SNTeIaqA2Qwc7nAmdZ08X1/Z6Hvpl3lU2HY8LSDtr+zTZwykHCQoP1tKrvHQ22n+KRW5HRmqWVoZRXu0mjj9c4pcQr73tMkt6PT8Rir/vaefeV7qU8Y85CN+aPbl4rWgQOZiVDcQzsVdp4/gjKL+wYJGY06vbkcl0JiqLO0T5/Jo97ZVtinZmNsSAUPNcVTJ/WTnIuTN8B8vU2WnTpG3R46RbH+pppBfB6hy9b7+sRCsyXWr4xxwkI5YurbQGYagGrnvbNfKmtwN4iVuonFamkQ3qgRw7M5nz+0+ZCSk4s+2gCMfW7MBp2vN65TxpdHHIycjW9cs9gWxz5mEZO5HKI/ITwXS+E+XaIjszB1np2SLYe6fr5OE4oyxRjgdqNaomZI7As4rUbsRzWsm6VPYpvu9dnWXCfzn+scmrj/64BHum/0iU0fn4HHDt12+J5x1FYfVrn+Ck+vyV8vN9/x5jHkH1Ts2Rn52LQ0v+xoaP54qn7LbPTGQH0GjatBvYC23694SvnbloE4/HYcZgtRa7DA2vaIl+owexuFi83nMo5TF3PuC1BWPE5NCOkEmOvmPVbqz9ZQOO7TF9h68Hqa9u85q47anrUY/2n4/5EesX8YKbmpzSjZ39FKrVqkKUY2xesx8TXp5jsk/mrdMwGpNmPCzS/NtR7meQYz8vxZnVm3FmzRbBc4OwY4gLJGL8nZiEoUor9TKgdA7Gzm8WYcOHP2J235ew/v3vnXIO5jd+vRif9RuBldN+QlaKdRa/zERtjlkVSF9AuPNPk+u1b2TqfBw89NWgzOBJHnav3Yt3HpiKV28aizkTfi7SObiuDu2KxYRHP8NrA6fi76U79ONRacOdWFG2XpMYk31GXn5iPufzP5EQl8rJ/tUodwfZ9+U8bBn7GZL2HJYdnOK4UXg276jLWxd5eaVQpVk9kZcbl8E6zu4+it1z/9Qb2fzEWPCmDiCfNJt4CtvnrsFnt47Cyg/lmYeRRpdnyj7lbNVbOjd3LSMoggfqqgyZ33yJxc4yb+pvGHrtKHw+fKaYw8q2w+rla8fLPIN5pk8dixczDyqe08LTA/7aojdFITSCP0gybFNh07pD+Gb6nzgVW37TFl2sKFcH4YF5geh83JimRqHOx41btaNzn4Ly2n+qI8lOIfMzRBzp02kRTDxvtLKlTOMpguktP67CBze+goNrdiJVe7Cn7OM8ASHOv/QW07iGVoZRftq5NGQkZ2DW69/gjVvG4c8f1lKsZg9teK+OR9qm8SSw8IoWtpl4ott3b6ZxRYPHUrUbyrGKKJ/32g8B06dPlt2DzYqCcnUQMTOJ1piyIxgNwuHEyk1IOnBcvCBYFPyCbGYzF7GyUZVzCJoCy4Miw9Dg6vZocFV78R05p1c2CGclgnkGp+ePbuaO+hKrvpgv9Bky/qTW+W8h/IMDhD6GsIcUzHp9Dt7oNxZblmvrYHD5moxhrp9aTWqgw7Vt0PrKZmKOW5nWsEfZpmXVZR2ccJC01CysXrxLLJgpyudIk3Pwfte2kk2zcymhXAfpmacTsPwBY2F5s3PIoDq7B5rc3Rv1+nRBgJ1FORkr35gu7kpZ8puco929vdGodycEVgkT7yJZQImz0zJwZs9xrP38D5w9JG+/cgczdPHe6nzMD/nyRVSpJd9xKg7blm7DnDE0CCZa1rLRoWXQytNkrbu3QPc7uqB6/Sh9XUAz+IHgiUNxWDB7NY07dpn0GLoYk79/FlXsLHrJl2LbNxzG1x8swdHDvBiRkZ+dw2wb29O5e2O8Ov52wf1bUa4Okn78DFY8Mlo2ggPnkB3T4EPrxqDjs3chonFty+3Vw0s3YtWEmaY8Mn2L23uiwwM3OFyU3x7Saayx6tPfsXuptm6GSZ8RJP/kN8MRGuXcWeTQ5kP47Pnpjo+VA21uevQ6dL2ls2U9wOKQkpiOT17/Abs386swmj7a8P6rP0eJN3kVeNHMhT9uxDefLtfKtbHHgX08idtPy14i6t+LcneQ5ewgTjqHETzgGxKETs/diRqdWoiJzzLOJuH7ga9reYz0g+ZNgI8TA1R74KfmP4/8H84cML+gaNJPmy5390SDTk3E2uEcx887PMlxuRp5QUve52blIuFEAg6Sg2z4fZNJj0kXBT5j3DX8Npccw4xDO09g9KPkgESrumvUqjZGfTRYyOPPJGMWnS3WLt2tl2mpW9pYeLNcyIAF61+h7b8X5e4gy4aMMTWGbJDu774A/7BgHFv6N3Z/s0hcSpjlqrE4ePr4oNNTd6BWt9aYdbP2nEFPC9ww8QnEtHH900odpGTTz6uxeNo8Tae5w9jpTCLexJvlDn4I+C7T45MfQIO29ZgrMX76bBnmzvjTZIMHBr/QB606N8SX787HprUHHNtHm7oNo3H/U9egUfPq+PDt+Vi2UE2taqRfuH4EUf9elKuDpBVyENlg1376KkK019rZnKT9x7Hti1/FTOqOGpjf1WJeLH9skvO4o8cLdxJXOsQfOYPPh0wxLa9sp7OLeBNvljtwDl4znNcet30V3VVw2Q9eNYbOWurHROr39fcRc9E6ss/Lxwv3PnY1evZphWCTDe+8Pk86iJ7HA8GhAfhh4XMywb8U5XoXyyeQ7+pYG4wbxAweZ/B4o+eEJ3Hrt2+h2R3XiHTWATQ7xgWTc7BMyvfO/8st72VF1o0WC/fLDmMqWwTiRbyJN8uLuIRs3aN5qZ2DwTOP2DoHB0fOEVOrMka+eze+XT4cfe/sZHEOxonYRNOxSn0dLi96/fN/A8rXQYKUg2h3TESDAKnH+JvvwvCnX9u2D/XFPb9PxuXPDhCL/Bf1AFA1cNIx93wfElU/RujT9VO4/ql+uHXEAHTs2xmtrm1LoR1a076NKVz/aG/cNfIOPDTxfiO/sA0IDC/+Cbcz+Hu5GldY7RM8EYpv2KwGJs98BFPnPI62neo7/DJw3y4ed1l1hYVXYtG/GuV6icX4sfeTovJ5ww3CjtLivj5o7uD7DzN4/Y3DyzdhzZTvkSvetJWNLRpU08d0+3uuRafBxesrDnPfmoPti+Wi9jJ44NX5o+Hj79ygmhfdH9pL3UiQ+Qe+ejs69ir9qrxP9XsXiQmpJtsomH482nZphIee742qMcV/m803F2668m2rLrJ1xJh+uOpa5x46Xqoo1zMII5JfZacWMD/wiv1TvpdVHPjWZYNrOuK+Xyfg6lfvFzOLiId8FJRzcNgwewl1FqZKB6WPgzhTEcHLmTkL4RgcmNbscwdSzqXjnMU52Dapv22Xhvjgh6cx4p07nXIORmIiT0zBx2jWBzRqbP3c+d+IcneQWld1lJ1N47lReFmB8y68Bs7jlHrd22DwvHHo+uStHKM3sGhkYs7RILu08PL11vTSmYoIprPTs4XMWXAe7nDKNg+P0lf5uqVyzRFlGx9vvaYxeO/bJzH8nbucdgyFzX8fEbYxhK2kj/nomP8WRy13B4nu0EzrNFpn1ho4fvcRFrsEfh7S4uZuCK1pnvdJNvDWH/8UXGlQo2lt0QFZsbKXZ19xFnyJpZxD5Yqw84TbFXDxc2eslrZotlWuGoJxnz+EajVLtojN97PWiz3rk2djoFXbWuUy/+7FjnJ3EP+IEPiLz1G5IaRzML1t5nwhLwk6DlJrSRgNvHPB3059FFUU+AzCymRnlPqzUrOEzBmkpxSezK1ScOnuYJ2JPYfkZDlXl7Kt331dpbAEOBuXithjicI5VFtwuO+BK4T8345ydxBGy8F9RQObG+TM9kPi6XhJULsTn5Ws+rjBj27cL+QlBS+MqTq40E97ngDOWRj2GI5b0qfmCr/OWittIWXKti5XNxeykuDzj3h5Mmvdsf7WbZ2fAf1Sxj/iIFGtGxZqEN6vm/o9i10GL4Hc8MrWhfSt/Pg3FpcYofwcROiS+jjwF3/O4vSRwpO5BYaU/NZpbk4+lv62xaKPF+jnB3olQfzZVCxZsKtQW3Tr0Qhe3v9I17joUG61kJ+Vg8ML1uG3h8Zi7n1yQRzVIIqOXb+LziQHiXIdVz6hFlsx9J2LPYukk66taWdGQLDNxAt0iXR87wkWOYWs9KxCnY+fZJcU6/gNXht9Ax+/WshKgrEj5xXSx/uVK/ajW6cJePbJb7Fxw7FSLb9c0VHmDsJPtXd/sxDf3/wi1r/7DVKOmyYYMHVm2VAeWDDiE7sL9BcHnoqn3uW8cI1V35/TSz628QvkxfmVPmkrf/XnLA5uN69rKPN7md6ydQV823rmtMWF9LXq6PwXjmb8/N1GbN/Kn/UqXea2kPzffx/FU0/MQc/u72LtmjKaWukiR5k6CJ81Fj3xNrZ9+ZtsAKp9vRHsNAjT+Tl5mD/s4xLN2N5lsDZYN+nbs3K7mJ2kJFCTUCvn4OCKg8QeOK3lk/kbty9ZZ2bs2xGLlORMi74b+l9W5Gq1jnDowFlMnaSczTg2EUzHKoMHsunS7tnnfsCbby4gOcf+e1BmDsLrC/7+0BgkHj4p7t4YzsG3PY1GsPfqyJndR7Hgtc9dbozIejF0Jgm16OPy1nxdsvW1GaGR4YX08e1bZxB7UJs1kmgONeoXPRVPUfhkHP/IyPKVvpJMzXPieCIeHmia7lXstWDHOWS8DHPn7SAnsS6ZcKmjzBxk7dgvkJmQKhyAwRXNnV+dFwRvkUm54o+u340Fo75w7cVDyn7Ns7fKRhVBNvC6OX+KbzRKgvrt6xXSl5pQ/LJvOVSepQPSpk6Tkk0CfexgHGKP8Uq/hr76jashMtq1B3nHScegAZ9qOky2cSjKOUz8z7/swNJlxpIJlzrKxEFSjp7C8bU7xK1Nhur8Git5apCAiBDUv6YD2g68Dpc93BeNe3cSi2PKfB44sm4Xfnp2qkvPM+p1bKw3KJejGnjt7OUsdhl1WtWRekwdJu548ZNQJ8XLb71VHs4fU8+5T3VtMXXML1KPClR3Twy/kUVOY/uW4xh0x6diwM228KyJ1/RujtvuaI9nX+iFm29rg67d5aI05mPlvfmMz+HlEb8ij64Q/g0ok5cVl748FWe2yl8ZS+ei4OnjjcufvgO1u7aCb6Dj25O8smz8oZPY+etanNh6CHd/9hIqRTh+E5Yve3Yt2oQlH/5CdL4olwvkMlUDD/99NHxd/Nowdu8JTHnkI6mHN4Tr7r8K1z9Q9N2jDUt34NPXvxedTJU/bf4wBLr4oPDogTi8MEj+6stjkrrqNKiKAQ9eicu6Niz2ifdPczZg1ldrccfdndDpigaoUTPcYR7uDidOJGPatBXiTMFtJ+IpiPL5WIiZ8NaN6N2riYi5lOF2B8lOTsOPd7wiKlQGwzmqd2yKq19/SDiJK+DxzMnth8Xsh7zuhi02z12Lxe//LMrQz1S0sfCEOm0b4N6JD1q+1y4O/NzjlZvGik7B4OOJqlsVI2Y8LSMc4Mtxc7H69y2iU6nyv1j1uniPzFlkpGXjyTs+QHKKHJzbzjrCndXT2xNDx9yKK3oUns+Yl1RbuWQvWrSpgSgXL8cYvCD/gw9/gxyxBDZDOgeXHxERiBULH6PjEYJLFm6/xDqy+G9RmTIYzlG3RztcO/ZRl52D4Um/djXbNZSL0pjGJOzbv745G4vIOTjW7BxmngPzh7Ycwtu3jkXs7uPEOYcAnrpHKJU3F1jPqSNnxWfBRWHdou0irSq/Ues6TjsHH9eKP7bjvusmWpxDHpPUJ+2hM2feeYwZ9gPGj5pb6HmFB/1dTZdRJXEORvPm1TDv54eM8ohQ5Z9LzMTBQyV/xlRR4F4HoYbd+tUfogLNzuEfHoIrh97LKUoN87IICyf9gF3L1PcaWnm0kY1olK/LieD3oz5+/EN8NeIrp+5Gcaeu37qu3jGUrmQaYzhCVkYOdVzrd/Vtuzmesd6M5HPpePaej/H+m/OMMjXnMOsTPDGKX7ZoN14fan0TwR1Pw6OiQvDZRwOEc6iy2FkY3/6wTewvZbjVQbISU8VzDK5EWZkUaNNz5GDx5q07cXTzAWz9g89WXJbhHLJc6pA3XIa73rofT3z5Ap6kMGDU3YiqZ8xmvmftHky4YwLSnVjgv1V34w1kkZ+Ibav3CJk9HN+vnn9o6WnfqHVtFhWJA7tO4sGb3kXs0QQ9f5sO9TD6/XvwwTeP4kMKfDnVun0dy7GqtGtXHcS8HzcR5V507FALDRtUEWWZMeeHrWQHl3zpwq1jkMOLN2D1xK/1BmPNHl5eGDR/kkvX3sWBvyycfOOrYjBuLosbsF3fTuj9ZF+H82Lxy4a/TJmHPev3UR4PBIYGYuicF+1O1KZw5uhZvHnf+0K/6pjRdSLx2kz745CZk37D0p83yPTEc57pS0fAr4gvEU/HJuLJAR/I9BT4IeDdQ3o4XKODZ0Z8Y+gP2L4lVs+j7Ptt+QuoVKl0L0Xa4u+NsXjg0e80zgAv0F/SNcgrAtz6s36KZyGhvQi04QZrctMVbnUOxvFth+w6R4/B1+KG524tctK48OhwDBp/PwZP4O/FqaPRJdeXr3wthQ5Qtab89VTOweEU/crzyk624HGArXPE1I4s0jl48okRQ/4n0geHVsIH3z6Bh567rsgFbHjShYkfDkT7ztpzGh7AE8H0T99uFGnciebNojTKij17y259yIsBbnWQ2HXaVKCioWQHqdK4+EsLV7Fm5lKjHK2sao1roNt918gETqBxp8Z45Ydh4gyyf/NhxMc6HnDyXa8mHerLMkWQx7b4W5542ood6+WtUZFO2AZcfUsHIXOEVQt3IoUG441b1MCnPz+NGCc/fOIfntET+xPBUyAZtn35+RpRtjsR6OCMFHsiWaMuTbjVQXLSs8QDQL2DaMGd4ImteTFM1fm4LB6w3v7GQCF3BaGRIRj2zQvCSVZ+X7izm9Fr4JV6eeq4fpuxUqzTce5MChLOJOPkkXhMG/W9lNNGpe90VdHfa3z98TLhHGM/GkRnmuKXdzPDx4cuYR/qqpfF+9y8AnEJVh7Yu6/sVu69GOBWB7ngIR8+cSNxp+XbonG7j4o4d0Gs3aF1PnXblRHm5Hy5tvAP9MeL/3sKa3/doMXYR8M2dcSlm+yIFIQNHhj7yHS8ePtkCu9ixL0fIIfnpdLsY3mdxjFi0UxH4GcdfCZ488NBLj2fMaPLlY1EWbptFBKTnP9uxRlkZtq/41flEh5/MNw6SF/y2nQcW7tTdFpuMAbfHmx4tbzEMDcgFS33tLHGS1jjtLQEXqdv/7o9xBtxvCTBc98M07iSIXbfSUTVripmJnSELav24MMR3+jOoZxT2ql1UCGTzst474enEVnNsfPG0lmHvykvzYKZ/Nls/74fanawDR5o3qo6YmL4xU1ph5KZ61LGGTwTMq4w9h2Ix4GDhS9DJ751A66/hJ+ou/cu1ootWDp2hl7pqrNwo0inUYHkukx2JiVjqDd8BU1Bb0TamHkVeL2QEb++RlTpwANsRxOrMbiqnrjmTfH6t7CH47RjE7Swz7C9deeGGDrpbo2zj+LKdAYnTyThrts+EeWa607wZI+gibHwgmZQel0meVewbP4jqBrp/LJ0FQ1uvcSq2bk5VbTWebVKVx1I0pI3ZLLBdBltVANLGe8NfRZeDx7ISssSY5PSoriOypdCV/btIMplsO2yUyn7pG0Mjr/m1qIH54zSOgcjPj5NlGv7w2J2DjMvaQal12WSdwX16la+pJ2D4VYH4RkHewy9R1Q6N5S9zmzINF7RIt5Oel1m4lXgDqHJTu0/SduyRy1e+JL2FmcgwtY52Nbo6iWbhsdVLFm4x+5ZV9DCNhMvaAY5ty6TvKv4ZCrPSXZpw60Owmh0TQd0evgm0SBc8UYwOrPOK1rE20lvkZnlRJvONMz/NOknosoHZtu4k5ltU52RZeUBnsjh55+2Fi6fadrIeI0XNAWqO7PMVefgs95PcwahWnSIFnPpwu0Owmg74CoMmvMaOgy8FkFV+Ys82WFkg8hG0WkRb+IFrfGFZBov4k087U8dOI1N893/moUt+OGgKFe3wbF92SX8SMsVTHp7UeHyeU8bC69omx8WV9CsaRRGvHwVNqx6Go0aFL0G+6WCMvkepCyREpeMdwaMNxpc7LVAjX/DE33QpFNj+Af5i1u4ruD8+fPIzswVb+rm5xWIV1psK2f6+F9wYId6vcOmfNEBDb737Zeht804hON54gZvHy/xTUZgkPXuFcuLQ3JylljmYNZX6/H7b9qiN2ZbaNOgYVV8M/t+Tv4fSoEK5yCMmcO+xF5+l4poo1PY6awi3oY3y3WZxpvl7tQn4kujz0bmyDYhk/zXX9+HJo3tvx7yH5xHmVxilTVuefl2o0NwuKScg3VxsCej4IRzdOhY6z/ncBMqpIMERQThrtfu1jqFgw5DGwtvlusyjVc0x5dAX8duTRBW2TTfsJLRxpqeabM+E6/kIt7E6zSFomzjQHxoWAAmT7qFYv+DO1AhHYTRsmdL9Hqwl+gg+t0Zc4cx82a5LtN4RYt4O+l1mYk3yYNDKuHpN27B2E8HW+WiM5vTm2U2vJKLeBNvljvhuOwcc2jcUamU8//+BwMVcgxiBi+1PH0Yfx2ovf5u6jC8Z+dhqA5o4cWeAm2YN2QmuZBxPnnHR5cRUaNOJMZ89oD+msjJY+cw4tEvkUKDaJlOlWeUxbdXzbwMUp9d2ziQcxRnW0e6rJr8zi1u/w7k344K7yAMvtt0dOdxbF+1G1uW7USytvqSucOp+/46r2iKND/ks5WZeW9fb1SNiUCjVjXRrXcrNKG97bcuBfnn8ffq/Vi/ch+2bDyK1JQs8fmtUb4syynbONg4h+6oxDSicUb37g1x/fXNUKNG6dYd+Q/2cUk4iCPwrVruSbaTGZjBHZwXfeKVnzw8Pdzy6ocrYNtkkG7Ar8w4spZt8/T0hPd/M6+XGy5pB/kP/6F0AP4PIr3XgcKpLlAAAAAASUVORK5CYII=;" vertex="1" parent="1">
          <mxGeometry x="220" y="510" width="40" height="40" as="geometry" />
        </mxCell>
        <mxCell id="-vzZBH9pDmQiQkNsos74-11" value="CI" style="text;html=1;strokeColor=none;fillColor=none;align=center;verticalAlign=middle;whiteSpace=wrap;rounded=0;" vertex="1" parent="1">
          <mxGeometry x="340" y="660" width="40" height="20" as="geometry" />
        </mxCell>
        <mxCell id="-vzZBH9pDmQiQkNsos74-12" value="CD" style="text;html=1;strokeColor=none;fillColor=none;align=center;verticalAlign=middle;whiteSpace=wrap;rounded=0;" vertex="1" parent="1">
          <mxGeometry x="680" y="660" width="40" height="20" as="geometry" />
        </mxCell>
        <mxCell id="-vzZBH9pDmQiQkNsos74-13" value="push" style="edgeStyle=orthogonalEdgeStyle;rounded=0;orthogonalLoop=1;jettySize=auto;html=1;exitX=0.5;exitY=0;exitDx=0;exitDy=0;" edge="1" parent="1" source="-vzZBH9pDmQiQkNsos74-15" target="-vzZBH9pDmQiQkNsos74-16">
          <mxGeometry relative="1" as="geometry" />
        </mxCell>
        <mxCell id="-vzZBH9pDmQiQkNsos74-14" value="push" style="edgeStyle=orthogonalEdgeStyle;rounded=0;orthogonalLoop=1;jettySize=auto;html=1;exitX=1;exitY=0.5;exitDx=0;exitDy=0;entryX=0;entryY=0.5;entryDx=0;entryDy=0;" edge="1" parent="1" source="-vzZBH9pDmQiQkNsos74-15" target="-vzZBH9pDmQiQkNsos74-6">
          <mxGeometry relative="1" as="geometry">
            <Array as="points">
              <mxPoint x="510" y="620" />
              <mxPoint x="510" y="364" />
            </Array>
          </mxGeometry>
        </mxCell>
        <mxCell id="-vzZBH9pDmQiQkNsos74-15" value="ビルド&lt;br&gt;(maven/kaniko)" style="rounded=0;whiteSpace=wrap;html=1;" vertex="1" parent="1">
          <mxGeometry x="320" y="590" width="120" height="60" as="geometry" />
        </mxCell>
        <mxCell id="-vzZBH9pDmQiQkNsos74-16" value="ICCR" style="shape=image;verticalLabelPosition=bottom;labelBackgroundColor=#ffffff;verticalAlign=top;aspect=fixed;imageAspect=0;image=data:image/png,iVBORw0KGgoAAAANSUhEUgAAABwAAAAcCAYAAAByDd+UAAAFx0lEQVRIDZWWaWxUVRTHf2+bzpQptgzQUkqLhbRQli5QBFmUAIJIEAJiYjQBgRi/qDFGUQPRuHwgJiIJ+o1ElAT0g4LRILK1IMUia6UFBGlalJZlWko7nZn33jxz7+uUGTtAfcnMPe8u53+W/7nnKY7jOPyP505XN8fOXOTbPb9yrO4Sy+ZM5fWVi8nwe/ulRekPYEdniEPHz7H7wG8crP2Dts4wOODELBTdIDcrkw0vr2DFwmkPBL0nYDgS5fCJBr7ff0yCtATvAAqObQqkZMWqhqoZzJlSwvqXljCheHTyesJbEqBl29ScvsCuA7X8cvQ0za1toKgQs3BidsKxuKjg4NBtdkpjhg7Mp3J4Ja+8sJDHFwyOb0oadfF2uekaX+46xJ4jJ7nU1Aqqdh8QoVtF0XRiMZsBhkFpdiVl2Y8wJjCRYQP9RM5BaxFk5IZJ9ybnVvmz8R9n3tr3uR0ywTZlXpJMir8oCopqgKKQ7lGZUTGWp+dMpiK/jIbdmXhU6IxAc0cL9TdPcT50jGD4JktmT+eNVYsJZPmlJmXl25ucXdVncMxwXPXdUYLo0iNDdZhWVsyixyYzf0Y5I3J6QtYJWz5qp671JKeu1XCprYGOSDs+TwaG7sNSHIZn+dn46moWzS1Dv9zcArZ1F6RHUjRD5m3KhFE8NWsyT86sYHR+Tu++m+132F9zhu/2HqfqeD23Qq2oKGiqhqJoct+wwV4mF5aRZ02n5XABp/UYuseQaexVJAQBVlqUzydvrmRSyajeNVEeoix2H6jlYG0d7V1Rmceo2YmCrBQyvYMpz53Kc8tLWbq4hPA1H9U7IGpDYx2kQFPJ9PvYvvE1cocGJFht3UW27apiX81prrd1ieqAWAxUFYcYGZ6HKA5MoDxHEKeUvCw/j1aCzwstndBtudvT9BSAiqpTVlzQC/ZT9QmeX7dZMtexoiiqCmj4vAYzJxXx2PgpOBfKCXgzpR0RG7qicCcErrm9ARJ8S+GhCKlYkU44fPDFTslMx+xG0TwUj8zhxaVzWDCzQhLH7oBvPnW9iF+Sxl2MPlLfkIpc9JwUt82N4G1JHlESpUUj+OHzd/Gn+3oVtXWA+Z+Lp3cxhSDic99HUwX3pNusW7MsCUxOP1BDsvp+bleklzlDMpNPAx1BSDNEVPospZzoJ6B71rKTYxfqgLMHwU51zaaEuwdp7rGXgT3XYlsLNDXAxd/B6oZwVPLqXseS5lOSJr7DK2IlGp/sCRYnjzg0V0HzFRjghUgUolZfMM29aOJqkkY9zsj4rCgJrceMW9dFW9KxRXtybJrqskgb5Nog6kw8bgH1yApkpIOpQHaBOyfL1hXlvx6OmkkmRs0Q7Tfg6E44Xw/RMFh2VN6RoXA73ZEAsQSCiJL16OAx3ND6h0DFAvC5zYHbt0BTIZ5+ddWSuaiqDuKHCFGY0G0PwUbREt2el2CgFIVXAkB4I8AGBGBUJcxfDfPXwJA890SwBc7XuIaIGdHD9TXPzGNUXi4btuygvvFvFLtbetQVFlaZCVgOhp4mQYiANwPyimHEGMgemRQkWq9A4zn46ww4FpgWZGbAoJwels6eNo59Fe+xaduPfLx1O5rhRU1MDqAqBml+m2ElUF4MwwrdD4O4RTeaoakerl6EriAYhuznMpxZGeB4YNLchLJIS9N4a+1iFswcz9avT+JogolpUp+iqDLss1ZYTJoQh4DgNWhugOYL0N4KXo/rjSCKsFfkLTAcRo6DkRPdvPYpi9IxhXz2YSFX6m0i4RhKtYlheSVLfV6HziA01rtAwqt0L5i2SwxhimVDVg7kj3XDLeTEpw9gfPHhElFMGmuXP8Gm7T8TMbs4uFMl23FDKRTHe7f4ahwwCPLHwIixMLiHNHFdiWPSZ2LiQqK898hZ3tn8Fc8Wrqcoc6Ds3iJcHr/rhSROgftFmXguldwvQHEwGjWpqWrHvDqEQcMhvwQCuf0DSQT+F6qjKWmpMAQlAAAAAElFTkSuQmCC;" vertex="1" parent="1">
          <mxGeometry x="366" y="490" width="28" height="28" as="geometry" />
        </mxCell>
        <mxCell id="-vzZBH9pDmQiQkNsos74-17" value="" style="rounded=0;whiteSpace=wrap;html=1;" vertex="1" parent="1">
          <mxGeometry x="160" y="200" width="650" height="90" as="geometry" />
        </mxCell>
        <mxCell id="-vzZBH9pDmQiQkNsos74-18" value="push" style="edgeStyle=orthogonalEdgeStyle;rounded=0;orthogonalLoop=1;jettySize=auto;html=1;exitX=0.5;exitY=1;exitDx=0;exitDy=0;entryX=0.5;entryY=0;entryDx=0;entryDy=0;" edge="1" parent="1" source="-vzZBH9pDmQiQkNsos74-19">
          <mxGeometry relative="1" as="geometry">
            <mxPoint x="427.5" y="330" as="targetPoint" />
          </mxGeometry>
        </mxCell>
        <mxCell id="-vzZBH9pDmQiQkNsos74-19" value="開発担当者" style="shape=image;verticalLabelPosition=top;labelBackgroundColor=#ffffff;verticalAlign=bottom;aspect=fixed;imageAspect=0;image=data:image/png,iVBORw0KGgoAAAANSUhEUgAAAC8AAAAvCAYAAABzJ5OsAAABv0lEQVRoBe2Yvy8FQRDHP4hEIvwHOp1SqLQqCo3Gn0ClFwqtTkToFEqJWkhUopFQKDWIhIbGj4iEzNmVfS93e3u37nLvZSaZ3L3b25nvft7uZm9ATQkoASWgBJRABxAYASZq8DGgr43HEDAemFt0ttgK8F2jnwMDRoEAey6YW/Qm1gO8Fuz8HwOdNfn3TO4r4DTAv4xe0U2/I/wTOKrQ75xcC0b8oXk2bX7nXV7M+6K7RfxTXs/I9q1uFb8GzAW4neKNIl90HTVK/AmwH+CyLmWgjRKvCzZyQ/F29+02m8BigL81cdp09IJV8d5JG9nom/NKPhKut7uS78qt8h3YrdCvPUfiUgu2F/hwghYNUvZ9Of6K2Y+RonGSg5kE2K5Z/A0w/Ks9XrzEmQLmA3w9Y6DHAX0l/gwg1QJrWeQ3gCXgMSPfH3kbKOQqR9e0v1jWShlLE3/mBFrOyNdY8bfAoBnAToz41bZqwkVGsPu296QKkZQnHIppt2nk5Z99AC4zckl7EPkDT4C06eM+k50sz2zdxu2Xdy8f4SFgqFr8ZEzFLI/MaGANMa3OmRfbtkfVKm0QvSoBJaAElIASaAyBH3vKcy7wXEObAAAAAElFTkSuQmCC;labelPosition=center;align=center;" vertex="1" parent="1">
          <mxGeometry x="404" y="223.5" width="47" height="47" as="geometry" />
        </mxCell>
        <mxCell id="-vzZBH9pDmQiQkNsos74-20" value="デプロイ" style="edgeStyle=orthogonalEdgeStyle;rounded=0;orthogonalLoop=1;jettySize=auto;html=1;exitX=0.5;exitY=1;exitDx=0;exitDy=0;" edge="1" parent="1" source="-vzZBH9pDmQiQkNsos74-22" target="-vzZBH9pDmQiQkNsos74-23">
          <mxGeometry relative="1" as="geometry" />
        </mxCell>
        <mxCell id="-vzZBH9pDmQiQkNsos74-21" value="完了通知" style="edgeStyle=orthogonalEdgeStyle;rounded=0;orthogonalLoop=1;jettySize=auto;html=1;exitX=1;exitY=0.5;exitDx=0;exitDy=0;" edge="1" parent="1" source="-vzZBH9pDmQiQkNsos74-22" target="-vzZBH9pDmQiQkNsos74-24">
          <mxGeometry relative="1" as="geometry" />
        </mxCell>
        <mxCell id="-vzZBH9pDmQiQkNsos74-22" value="" style="shape=image;verticalLabelPosition=bottom;labelBackgroundColor=#ffffff;verticalAlign=top;aspect=fixed;imageAspect=0;image=data:image/png,iVBORw0KGgoAAAANSUhEUgAAAggAAAIICAYAAAAL/BZjAAAgAElEQVR4Xuy9CXck13kleF8suWcisdVGskhqoUSRWkhZlqzF8tLtrW23u+2Z6TOn/9+c7pk5Pva0rZm2u71IMm2LFklRtLiIFNdiVWHLTOQa25tzvxcBZKFQlZkACgUCX5wDAgQiI+PdF5Xvvu+73/2MtdZCD0VAEVAEFAFFQBFQBKYQMEoQ9HlQBBQBRUARUAQUgYMIKEHQZ0IRUAQUAUVAEVAE7kJACYI+FIqAIqAIKAKKgCKgBEGfAUVAEVAEFAFFQBGYjYBGEGZjpGcoAoqAIqAIKAIXDgElCBduynXAioAioAgoAorAbASUIMzGSM9QBBQBRUARUAQuHAJKEC7clOuAFQFFQBFQBBSB2QgoQZiNkZ6hCCgCioAioAhcOASUIFy4KdcBKwKKgCKgCCgCsxFQgjAbIz1DEVAEFAFFQBG4cAgoQbhwU64DVgQUAUVAEVAEZiOgBGE2RnqGIqAIKAKKgCJw4RBQgnDhplwHrAgoAoqAIqAIzEZACcJsjPQMRUARUAQUAUXgwiGgBOHCTbkOWBFQBBQBRUARmI2AEoTZGOkZioAioAgoAorAhUNACcKFm3IdsCKgCCgCioAiMBsBJQizMdIzFAFFQBFQBBSBC4eAEoQLN+U6YEVAEVAEFAFFYDYCShBmY6RnKAKKgCKgCCgCFw4BJQgXbsp1wIqAIqAIKAKKwGwElCDMxkjPUAQUAUVAEVAELhwCShAu3JTrgBUBRUARUAQUgdkIKEGYjZGeoQgoAoqAIqAIXDgElCBcuCnXASsCioAioAgoArMRUIIwGyM9QxFQBBQBRUARuHAIKEG4cFOuA1YEFAFFQBFQBGYjoARhNkZ6hiKgCCgCioAicOEQUIJw4aZcB6wIKAKKgCKgCMxGQAnCbIz0DEVAEVAEFAFF4MIhoAThwk25DlgRUAQUAUVAEZiNgBKE2RjpGYqAIqAIKAKKwIVDQAnChZtyHbAioAgoAoqAIjAbASUIszHSMxQBRUARUAQUgQuHgBKECzflOmBFQBFQBBQBRWA2AkoQZmOkZygCioAioAgoAhcOASUIF27KdcCKgCKgCCgCisBsBJQgzMZIz1AEFAFFQBFQBC4cAkoQLtyU64AVAUVAEVAEFIHZCChBmI2RnqEIKAKKgCKgCFw4BJQgXLgp1wErAoqAIqAIKAKzEVCCMBsjPUMRUAQUAUVAEbhwCChBuHBTrgNWBBQBRUARUARmI6AEYTZGeoYioAgoAoqAInDhEFCCcOGmXAesCCgCioAioAjMRkAJwmyM9AxFQBFQBBQBReDCIaAE4cJNuQ5YEVAEFAFFQBGYjYAShNkY6RmKgCKgCCgCisCFQ0AJwoWbch2wIqAIKAKKgCIwGwElCLMx0jMUAUVAEVAEFIELh4AShAs35TpgRUARUAQUAUVgNgJKEGZjpGcoAoqAIqAIKAIXDgElCBduynXAioAioAgoAorAbASUIMzGSM9QBBQBRUARUAQuHAJKEC7clOuAFQFFQBFQBBSB2QgoQZiNkZ6hCCgCioAioAhcOASUIFy4KdcBKwKKgCKgCCgCsxFQgjAbIz1DEVAEFAFFQBG4cAgoQbhwU64DVgQUAUVAEVAEZiOgBGE2RnqGIqAIKAKKgCJw4RBQgnDhplwHrAgoAoqAIqAIzEZACcJsjPQMRUARUAQUAUXgwiGgBOHCTbkOWBFQBBQBRUARmI2AEoTZGOkZioAioAgoAorAhUNACcKFm3IdsCKgCCgCioAiMBsBJQizMdIzFAFFQBFQBBSBC4eAEoQLN+U6YEVAEVAEFAFFYDYCShBmY6RnKAKKgCKgCCgCFw4BJQgXbsp1wIqAIqAIKAKKwGwElCDMxkjPUAQUgUURsADMoi/S8xUBReAsIaAE4SzNht6LInACCHBtBizMKa7QygdOYOL0EorAGUNACcIZmxC9HUXg+Ai45TrL3JUya5FaIM3c9yzLkMHAWn45OnHYIQTDAB7JhjGwJoMHA883CIyjHz5PyX82xp2nhyKgCJwPBJQgnI951FEoArA2RZqSBBjEKZCmBom1IE+IEiBKM0xSiyhOkVlHIEgYeBxc1gvaQAJAQsC/c+0PAqAS+gh9wIdBaCw8Y+B7QOh5KJUMAk+zC/o4KgLnAQElCOdhFnUMFwoBLuxc+KPEIuHPmZUoQZZkiFKLOLVIhByQBGRIMyDODCaJxSRLESfWkYPMSiLCHYdHEgwsAs8XcgBjEfoGYeih5DGKAPnyPQPPQP5WLgEl35PIgufxb578vRxYIRCeN/0+Gm24UA+uDvYTh4AShE/clOkNXyQEuJwWWQCSgEnsiAEX+0EMDCYZoiR1KYQEiNMsJwyQyMHea0kImHawmaQV3O+ZPODBM717pBmyPG3g0hYkChIxcNmHvfQCyQP/5hsjBIHkIAz45aEaAo2Sj3oA+TkISCg8d92cI0xTBdUzXKQnXMd6lhFQgnCWZ0fv7QIhMLWzthky6+W7fqYFMiQJMEkyTCJImoA/j2KLUWQldSBEInMLvmXYH1YWa1m0GfL3+DNTBTbf2c+3e+dZvGYm2gVGKtz/22z//12qIoPNXNpCiAOjBwVBCIBaSKJgUGEkgRoG30fAaERgUA08lAP+7gJNtw5VEfgEIKAE4RMwSXqLFwMB7uqZEohIBBKgzwhBZNGfpBiOHRFIU7dAp0wpiPjQyOpNnYAPD75PzQBD/1ZC+74swgz3e5IGIEUISgZhrhNgkuFwxYAjLCJOtIxMAEnitAv8/5SpC/5OtA5O/Jjwu6Q3GLlwEYUi4iDphjzCwCvzHku+Qa3sY6lqsFQ2aJQ9hCFHUUQnLsa86ygVgbOKgBKEszozel/nAgG3UN57t84FmhoBRgPGcYZRlCKKLIb8/8RgEGcYxhmiiUVimedniN5DGFAbwIXek926R02Az7+78P7egsyFWX7n7sEjcaBGQCIKbiG/31EQBKmASBnZcNdhNIH/z3t3lRF5lQQJQh5dENIgegeSBqd7oEaCr+HveA+VkkGr7KFZBurlANUySQ01DkApMKiFFEBO6yTmi3yci4dHB6EIPGQElCA85AnQt794CBS6Aq7N1BMMJxk6Y/fVHyeIYi6iLpyfymLsAv2MBlRCD5USUCmxYsBzgkBGA/JUAvUBxc69iADIkjq1rkqqwVCHwC/3B3OAJ+S/lvMcSThQElmkGoRgMHHBtIOLRxQEgCQgpmYiy+R7nBhMSHb4OxIGkic4PYNEOnygHHgoyRgtGqGHdtWXyALJguH5QhZUpXDx/tXoiB8GAkoQHgbq+p4XCIFiMcsXUstoQSapg3FsMYz4c4r+mKkEi0lkkcLl6UsBJCoQ+B7KoY9SYFEOGT1wQj8upCQHTB84BpAbH8jPuV2SfDt81821fZ4Iwr0DIC6N4I7pXb4n1y0qKBg5YOUE0xLUUpAUMV3Cn/l7SamQQKQuBUKiUAkNaiWDeslDs+KhUfFQK3moSnpEowgX6B+QDvUhIqAE4SGCr299cRBgNIChdxKCziDFzijD7jgVssBcvkQLqPwDBXuehNoZJeBiGZYMqqEnHgQuNVBECYpIwJ0L5qxFv0DdnTdrsZ3f/OhgKmX/PlzVBOMFRdSCKYeEZZmJxWjCyEmKyQSIsjSPapg9oWU5JwkrNR/LdQ/NksNCaJEaM12cf0Q60lNHQAnCqUOub3ieEThMczCYWPTGCQYRXKRgnKI34a6Zi2Yq0YAyw+v0F+AuOaSfACMFTmQoJkS+LwJECfXDlSpKmeJeyeLZRNWlOxyRmS6llPtmFMEy9QCMx44ssDqDKYixRFhYtZHBeJ5EFBhJaFZ81MsQcWODvyv7ElFxx73LNc8mOnpXisDZRkAJwtmeH727TygCriwQGMQWO4MEt7spuuMMY1YCiD8BF38IMahWfFQlfA5Uqr4I9FzaYH+HLJmCQwSF80UBHiaI80UgWKjJAEocp0KcBiOLwTgTfQZTD/LH3H+BaZd6mfqEAGsNVkFQu+DMnDT78DDnWt/7vCGgBOG8zaiO51QROCxIz0WtN0lFU8CIwe44Q4/kIEoBz6JW8lErU1dgJJVQKgWSVgjoERD4Umkg++FcGCi7bSEIpzq0U3kzWdSpPKDDIsWQLJ1kqWde1RFFmWg1RK8xZvmnS8lQo9EsG7SqjCjwZ09+5ncKNWdmTk5ldPomisAnGwElCJ/s+dO7PyMIcBGnnTHLFXcGKTZ3M2wPY9EYyALI3a9vRWRXrwSoVakxoPDQhd9dwMBFDfZz98zZM94wSydwRkBY+Db2Gc++lmC/SsEJHSlkdJGE4TiV76OJq4Jg1QTLNylabNV8rDcCrNZd1YOYNAnROq/YLQy2vkARWBgBJQgLQ6YvUASmEWC5nhHBIcsUu8MMvVGGzjDFMEolVVAnKagyamBQKVNjwFI+py+gh0FBCoqSwxnWBOce/kK3wEiKuDiy3wR7TOSRhDFFjaME3bHFZOL0GMS0WfXQqvhoMpJQMVipGonS5LZL5x43HaAicNIIKEE4aUT1ehcGAdb7U1g3iDJsDlLc7ifoj7njZaEipKshUwlcsOo1XxYrEgP2IShIgZgVyf9cGNjmG+iBLEFRrCDeConF7ihDb5Bid5SKcyMyT8ooGYkhEVuuebja8NGukyT40jRKD0VAEVgMASUIi+GlZysCspqzZLEzyrAzTCVi0B3SyyBDnAGlEKhXXE68VqHJDyMGztHQLXT7boQK52wECuMnl4ZwpZJMO4wnrHZIMY6B4TgR0sDqB6YdGLVZrnpYqnlYqQdYqvqosPWkQK+ph9mo6xmKAA3U5i2aVrQUAUVA/AoYNaDw8OPdBJv9BCxjzFILX8oVmU4I0KwbNKq+NCEq+h1c9NTBSTw+Bb8qIgqMGkRS9ZCi288wmNCJ0ogTJSsaaK601gix1vDQrrFckt4SShBOYi70GucfASUI53+OdYQnhADD26xG2Oyn2B5m6IwSDCMu/65nQKvuo07xIbsTlukIyNC2oWuBCOqKTogqmzvehBRGUaxWIPpFrwdqEwZjYHfIaEIilQ8UiNKNsVVzBGG17mG5yrlhNKFwoDze/eirFYHzioAShPM6szquE0WAqnn2SbjdS/FxJ0F3ZMF+BaWSM+1hOqHdCMTsiJ0KDwbm5o0eHJQiuC4HSikOTuadBor0WvDEJ0KiOxSKDhKJKowS1ygqMB5qZUgk4VKDGoWS9LTwjPaYPtF/KHqxc4WAEoRzNZ06mAeBAPsEMGJwu5dgo5+I3oDLNnUGS3UfzXqARsW5HzL/XdgJc2e76HGQWJyOlfAnm4SIl4K0rzYSpYmlKyaNllLsDlL0BvRPYAqI1Q4G7bKPtaaPS0shmiWz1+ly0bnS8xWB846AEoTzPsM6viMjELENc5RiZ2hFa7DRizCMjFgjs3mQlNXVPNRrgTRV4sGSPB7zRgyKmyt6InKnWxTm8VK0Ij7y8i2aPOcrcDfxcDbNixz7ZGX/juTuFrvMIm+5+LnipuhSD+MJowhAb8jvtHF2+hEfVtINj7RDrDXZCCpAmHfEXPwN9RWKwPlFQAnC+Z1bHdmREXDeBpv9GBvUGwxc/4TRBAhKBisND8sNH9Uy+yV4zs9A2ieTINy5nEsZ4xwLKE8JjUE5AMrGNSqK2PkxZQMjd4G5Eg3y9sUbuqZOhx9Gui06kuADpugEea+zuUu/+2JubPn7Mecy100eeWIOvNClFpyZlENov/eDI2sUMbKygemGziBDf5BgTJLgM5LgYb3pYa0VYoWCUvFM0EMRUAQKBJQg6LOgCOwh4HbakxToj4APuxNs9FL0uVID0l1RyuZaIRo112pZmicdqWHSnUSCYsaqB1R9g3Jess+SyVGWYUSjoMy9z/QxvfgLOcn/XpzlLJqdiPIuFwBrpK30vFEEP3eDdO+fIWMDJrmyc4mcJjDcwU+3gZ73PU7uQcz7P5Bo5W6KkzhDr8+S1ASDYYb+JAMyI66Ll5YCrItngmsKxWrI/fbZ6p9wcvOiV/qkIaAE4ZM2Y3q/J4fAHWu0ePZJydztfoqPexm2Bonksrnw0uxopRmIEJHmR9I7AJ7swnnMEyU47Ma5eAbGoBpY1AMfPm2X82043yGxwDizGKYGsc1cz6IpQsP1zxoXDeC5xaLPpVt20GwNJTv7u8MYsnDb+RZAN96pI7+mD+ouxJ3A2UnDLbB0kOQ4CnLA00/bf8BFE1juSG0C20sDQ+mPkaDTz9AduAhKjZ4JNR+rDQ+rrUA0Cixy0EMRuOgIKEG46E+Ajl8WLkbxqTfY7if4qJtia8h8NVDygVrFCDFYaviolN1unC6KLrp+ZIWAvJ4LVMnz0A4NKvcQ1DOSMKAxUGacJiHXJaT5Alz0LEgsSYJreSx0x1qk/H9GOQ4seFIdkf+SCztbSM887rqIhW9cc6Tc+kmqBfglpCEnDPyemYx9qvbOde/pSMdRydXM+506oUg98L0mUYxu32JnN0VnmIlnAltG033xcivElVaARsnb05Us8j56riJwnhBQgnCeZlPHsjACskhnFrsTi41ego+7sTgkMqRfKVssVQO0GvQ3CFAKXbCem/H0BFY1RxCAkmfQDuCc/g45SEaGVOanFhNGFVKLxDg3R+bYi0XWtZF25ZcSHCikAXa+lsuLgMf32UstyE7dBSn4O3EXMO7vRaMqXpspGeorAp+tmekO4YSSJwDldGgj/7nA0kV6GB1yUQ0XVZlMDDrDBNu9RCod4jRDJWQfB+oSAlxtOgdGMh8NJizyZOi55wkBJQjnaTZ1LAsj4MyPrJQwftRNpBMjF1rmptsNH0uNAI2qq1xwi+7dWoB531QIgWgI9xdX7vIpTmwFFrWAVsx3L0dsb9yLUgwSizFthrnIMVqQct/PBXb/NfL6Q9IJ897jsc47gA1JAiMMbkxWTKM4VnE8zssSC23DaWkWikgCcY8iiKFSZ5fahBQsZ2U0hJ4Wl1seriz5WCqz42ZBMo6Fjr5YEfjEIaAE4RM3ZXrDR0bgQDaAaQX693/cJTmIpRMjT2H/hOW6h6Um/Q18CT8zUp/OUY2wyL0VKQYumg3foua73P1BkjBKMmxPUvRii5gtkCVC4LQRd+YOcnHgQyUIEs/Yg6HoVikRhLzoUnblOVEoe560a95vUfHg9+tFbwfOf5Y698XtXoztQYrJxCLwjegS6JXwSLuE9YaLPGgfh0Webj33PCCgBOE8zKKOYUEEMmSZQX9scbOX4MNOLE2XuGhRjLhU99CsMa3g53lo2vkezdOQokGG2akKYBWdxz2/NUjAKgJ3Te6oyzaV7o+B58PkC6aID20mkYOdSYoBIwaMPkyVFR5upMRY/4KQHPd04QSHv+m+vsG1riy0B4HngQQh8PIqizzi4DM1MVVS+SCqIPYEjB6QJga7wxRbvRSdfiJlkaSKJIdXl3xcWwrQrvjSiVMPReAiIaAE4SLNto5VEOAiuzu2uNWNRZDIXDQXY6lUaHmiO6ArImvlXY29Sy8cRYVfBKfLxqJqMgTsBAkPI4rlLOlCvqxmmVv4RfTnPAf42ijNwAjCOKXg0C21rsrBkQCpYrhrYT4jBGE6kiHphwJDF2HYFzE6csFKCaYkqMngF4nCnfGIk3qAXShpr0tk3p2Tpkpb3Qg7uxlGcQLfsBsnRJPwaDvEpaYoKk7qJvQ6isCZR0AJwpmfIr3B4yEwnVdwKoDBOMNH3QwfdWJ0BwzZZ1iqB1hp+mjVA1Rov+s2u3vOiIvcA1/HyAFD6hTmVTyLMgxIEjyTiQnTMPUwzDUFCYWHXPkzCgyZYmC+3r0/CQL7QBSL60PVGCwCwhznyphEP+HGR40CF22mHELP+UwQw4Iw0cvpYCHFHG8z8xRGbOiXkKYG/WGCnX6KnX4ixlgZMnHNfHQpxNXlEO0yRZbTJOHoVSwzb0xPUAQeMgJKEB7yBOjbP0AEDnx2c+8exwY3ugne3U7EIZEf9c2awQrr3+s+yiUq7PNSwjlWo3stDwyji7+B775cesERFKYYJkmG3RjoJgmG1vkdHOZIUJQpFjtut/U+YTHEA5yCWZfeM0HMT6RmoUjJeCyZ9IDQ90TcSAHhgzhcd0gnHKVodTS22OzG2OqyW2eGIKCttsHlVoArS4G4LqpPwoOYCb3mWUNACcJZmxG9nweAgFtQWSq41UnwXifC5oC7Q2eAtNYKpOmSa7bkogaLlt7tCw6dpoCLGf39y4FBac8nYD9JQbvf3iTDdpRiKCZHmYTXDzvu0hmcF4JwLwOnfedkIVnUKpSEZLm0A7+cnPQkjjvTDUwrsTqkP8yEILDCYRQ7fcpSLcCVlodLfF4q7p70UATOMwJKEM7z7OrY9hCILXCzE+PdjRgbg0Q+8BtV+vA7ckABmuvEWJCD+UPHxVLFCEHJZKgxhy5CO7Z+vjtrzWoICg57Eb8SjFIGsl0ZoJga3cVOXOh9z3vgnBKEaW8FJ/3YLwcN4CH0gbLnC/EiICe3PBdzzR4NvDjTDZBU1BYFrLspxnEGz/fQok9CK8AjLV/cFw9pT6H/6hSBc4OAEoRzM5U6kEMRoBgwZbtmiw+2ItzoWsRJJFUKay2KEp0g0dUZLGbaU0QN+L7c5Vb8DCX2bOAu1+fi5qwRp6kGnRBHCdBLLPpxhknK6IFLaexFCk6KABQpkjxlwnvZMzc6IG6k/LFwU2YZ5cHjjm4OB++vYEh73kT5D8cdR37/rOQgHZBIgsfv1HbkaZt8hV404nPPfy159IfBnDSxGIiZEht2uRbSTEWsNgI8vsJogo+KeFfovz1F4HwioAThfM6rjipfmpnb3+pn+GA7xc3eBJPEoFoClilKXApQr7BaYZG0wt2RBa5RFd9D3aMromtgJEf+zSkPRIOIfmyxG6fyfWJd5OBuH+Rjhs8P004Ui/V9dBXuT7mXwkFxQP5Euf4Nhd9CPsz8dqcvLT0j5mvzcO9n9UA0xVk6M9LiSiMZ4meZpDtcU6qjFaNO34IbjPOjcJGE4TATl00SBaYb6mUPV2nJ3PaxWgtQDvWfmyJwPhFQgnA+51VHlVcGdEeJiBI/6riWzRV67jNy0AwkisD1ZdqWeBZwe0u3tfCt0xmU2KLZ5+52v9FScR2SAjZbGmeMFhiM00yqF6I0lcgByUWxOz/pFALH5U1trW2x2847MIrhEqMcnr+X0S92w3zZnn1yypqMFCazTh/J0L9UXOxbIh3uxzALzRl/zwlCce0i9UKiwKGIdbMXiABUzJZIcCRNtFgk6M672CdnTDn5HiNOHjq9BLd32cMhRZYCjQpFiyGuLfliyRzco4/GMRHQlysCDxUBJQgPFX598weFABfm7jjDx71EtAe7k0xC/u0aJK3QqvkIQ9fxcNHwNPepvs3AjWPZM1IWKSV6eS+EYkFjD4WRtegnwG6cYJywxwMXZbcICSE4rHbhuKF52U+TeeQLP1MMJAX52uf23LyRvJGT78GawP3ukMOkCXzxYGD83ZdWzzlTcGERjqMwcMrTGUxXFITkyHN8V7RjP5ch3RVYDgqSNIN6EAhhmCY4R37fqaSQl+ddJhGwM4jR6WYg6WRkoVXxcLXN5k4h2jWDUEWLR4dcX3kmEVCCcCanRW/qOAhwKRvGHjZ6Md7vxNKhsVChr7Y88ToImTuWroz3D+dzMS/MiLigs16+bIBS3mSJ13EL052JaJKDQQrsUmvAUsY0k4ZAPEu+pLRuSnh4hAHzvooUhTg0isiRi71xP/sBMh+w/MoAPzX0FkYQJ/DSBCYeg4u/l7MkkyWy0At58TxYv5KTAZcFsaUyslIFSRgio8YiJyImsfCpvExjF+KXltQ5ruIGmUcdcp3HkXP2csl9nOV/2S47N1aSuRALZ1cSeVIOjIwkZFmKKPbQ7U+w1bfYHWRiXMVqhmvtANdXfDT5YEheRUUJR3ic9SVnEAElCGdwUvSWjodAxHLGQYYPOyk2+ol4DtA2d7XtYbUVoBT4Uu++SOTArXGsUrCoeRYVGvmwQmEvB75/z9Q9sKSyG2fopymixDVY2lszC7FgvtteODw/JT4sWjlzL100DPAkMpAW/ahhbApDZ8DJQL7CyQBePEEQjWCiMUw8AcmBR4LA+DkMMi9EFlSQ+SEVmMiCEGmpiqS6hKTeQhrWkDGuHoTIGKnwGGPnwpiJj4FERwhw3m2SP1spEMgdFQ0jOgsupAcIgoPUKQ8oMSVRo1V11Sdpc7EZZ+u84PscePwKW2YaXEURG3pZ7PQSdAapjPNSPcATaz6uLJVQCkj8jvd+x3v69dWKwMkhoATh5LDUKz10BJwckE2X3t1K8VGHYX2LatlIOeNKyxdRIg/u8OchCPtBbRc5qBiLCtdFkoNDdot0PtxNaIBEu94Mk4x9H/ZD365RUUEWuM+mMn4x4CSSwYU2t2bO/AApxRBcFFOLYBIh7O8gHHbhDzsoD7fhD3YQ7G7DG+3CS0ZCCrwkhpfGbuefpfCydC+CwPREyigCCZDPn33YUgVp2EBaXUZWaSFqLiNZWkfcuoyouYq4Wkda8mWAtLP2E4MgiZDZ1C3WEjI5RoXDIQSB4R3nyJg3gKKxEns8+LRrdhSBC/Y8c32/WeCtu6tlGEys+GlsdlMhgpXQw+WmwSPtAOvNEGW6O+mhCJwDBJQgnINJ1CE4BLhwRkmGj3civLOVYXuYic6AXvrr7RC1Kr0JGG53TZDut7MsiAGvyb1xaDJUPaB6WOQgD/Un1qAbp9iJnBCRLoiiqxfFXxFCyMV08r9HWywluE8tAPPjFBnSppiLfTJBONqF39tAdfsGyp2bqHRvo9q9Bb+/AdPfhhnTIWqcs6O8gkJEhw5DoR1cDSXCwmiCg0nG4QWACZAFTdjKEqKldUzWrmGy/hjGK49g3L6KpN5GUm4grZQBE0qqQyIaFDgyOiHllUeIHuxFYO5kU+J6SSiFhDlHRKYZSBIqeSkHpgwAACAASURBVElk0W76uJEEphqYueEz1qMd826KziCWyphKCFxtB3hytYzlmktf6aEIfNIRUILwSZ9BvX9HDgBMEotbuxFubCfY2E3B5a1dD7DGbnwNH0HAxdrZ6c46itJEyvxK7LZIghC4WnwXOcgP0eilojHoxc7fYJTQ1Dkvlzu4UsgCubfuHr5mHXQYLKLkRUUkd/dhABsCXgoE/QHqGx+gvPUeqjsfItz6AEHvFoJBD0E0RjjuA5MBkIyBmMkOEQkIP5FAvIgs8jHlpY6iwuNXcb+yBS+iJkw7VGCrdSSNBtJGE1G1jri+grh1BZPVJzG5dB2T1esYt5aQ+R5MCvhRBCPpj6JEYtYsHPL3w6ZuCmOJrlBEavIySD/vFsmIywms2kW0J04suv0EGx2mGjjbLkr15ApFiz7KoZKEI8yuvuSMIaAE4YxNiN7O0RDgmr8jqYUJPt5JEGXsseA0B+1GiHLJrcWLlDRydWSDpYph5ICaP/ZpmBLJUZdnncagGyfYji1GFAIWIkT5YTYZuWvERfpgL8aRiw4Z8s9ljiaJ4Me7KO3uorz5Plo33kL91lsob70Lr/cx7HjgKgt8DrzQB0y90115jQOrJwFlHkZqIQ+MQbhCXslgWAIZw9oYNigjq11GtP5pjK5+BoNHPofhpccRtVaRlWqwPsWNvBcLT3I8meMmuaDw2L4JU6SNo3EkgekGRxJOgB/IOxStqEfjDBvs2dBJXSqrZHC5GUiL6LWmr1bMR/unrK86QwgoQThDk6G3cjQEuGscRha3eine3Y7QGWYiFltb8oUg1Cpu1z9vfbzzI2DUwJGDis/Igc0FiflO2wJxajFIUjE+2k0thtKS2XVwFMsBLrJH9OLdq/mXcj4nErTUGWQW4WCI6q1foP7RT1G59TrKOzdQ7vcQDrqiMUC060SKXHEDhvqpCwi4suUCiEOWyoO/YsqBRKD4zu03F/U9wyVGF0ggYiCbwCYRDIWKfgNZo4W4tYRJaxnxymMYr30G42skC08gaq0gCTx4rHyImepwqQFWY5yEuK8oHXUVJ/RKYM8EelQ4bQJvn90bj1Ph4FINVuDYHTLVkGBb7JgtaqHB1aUQjy0HaLOpk/ojHO0ftb7qTCCgBOFMTIPexNERoO4AuN1PcYPCsd0YrLijzwFTC826jzBYzO+A5Wtci+vGos41j+uqF+zp4bmhTujVH6foRBl6WQr2erhTMO923Udd9JxuYV8kyPi4n4xR2t1G+fZ7aP7iFTR/8c8o3/wZvHEfhkTALzsVgZPd7zs6yo3s/WcxqBnNyAwMlZZcEQ/sw63oLPIGFhKioSYiAuxENBKWYsbVJzF4/Evu69pnEbXWkFbq0kpZohyplVLLIsux2A0eODtPz+wJF8mRjCdeCYwk0FTpqHNSvFMhMuXiz+eAJOHWdoyt3URSWCsND48uh7jK56+sgsVjzae++KEioAThocKvb35cBJj/5wf0+zssa0wwjiGVCmvLPpYbIULq6nIVOxez/ePwgLPbNFvx/G96jiBwxynNmvM8PPPPjBx0aZucpJi4gvx8Uc5V85kLHhwl702XQh4pSwiDQNwQS/0d1G/+As0Pf4rKRz9D+dbPEW7fgDfuuRRAWAaCkggJpfRSxIs5a2GJ4QGyckfvh1mTwDQDBR2ScnBRESEGe6SDyk+uvA5fm05g0rHTMFDYWK4jWl7BePURjK89i8ETz6F3/YsYt1tCLrwoFV+GveMYlYmFvEHuI0+NSKcNY6S6oEyfBN+TvhNHmZu9ezQsqXSC08E4xcZOgo1ugnGUSsvwdZKENvs1lNRlcdbzpX8/swgoQTizU6M3NhuBTKIHN7sTvLeVYrNvpfxwrR1ive2jxnpELvhSiz9/BpqLScW3qPlUwt95F2lqsRs5j4NekiLK0/NusczFd7Nv/M4zDooSpVLAGR55USTVCI0br6P1i5fR+uBVBNvvA6MerPFgwopbhOWYf4wL32KWwXANP6yT0x0Xy0mYWDE790bLqgkvcsZNy09g9/Evo/PZr6N//VmMl9eRhWV4lCTEsThUHrnK4ZBBFSkHV93gCAJJY8nzRcx49LbRdq9fgxMsZtjZjdEb0Ebbol4GHmmXcH3FQ7McLFzKuuj86PmKwINAQAnCg0BVr3kqCCSpxdYwxYc7EW71EkSph6W6h/WlEK26QYkGP1LSOFsoWJzhGyvVCjRCYt7aSepc6j2z9FUANieOIESijHdOi8cS2O2Fxd22lo6FlpKBSYzazXfQfPtHWHr7H1G5/XMEgy7bDLqSQQoQGTXww9zg6AHDThyZS9krRCgISZFfKd6/0Gnk3xlNyEay8KNSQ1xfRrT6BPqfeg7dz38Tw2tPISmVXK+HOBbDJme8dEJH0dOB6Qb2zwhcuWrgH48kTOs8k8Si009xeydGd0TykIlg8YmVEtYbAUohiZOmG05oRvUyp4SAEoRTAlrf5uQR6E8sPujG+HArwjDKUC1Rd+CjTbMalpnlVsb35gculk0CwTQEhWcMOtR9/67IAUPr49RiJ4qxnZcy8rp0U5TYQf4mC+e38/S9XIP2zxIN8BBMOqjffA/1t14UclD+6Kfwxl0grMnX/vscIx6/yJQ4MKdSDfeLWGQu4yCigiKtw7RHKlbPUm7pB4gvPYmdL3wHnc99E8OrTyGtNpAaT8yVJJVxlAqQw8Z0IJdAwWno+XmDrX1fijl45KGIFWaag1GKjW6KzU6MOAWaFYOrrQDX2mW0666qQg9F4JOEgBKET9Js6b3uIZCkqXjiv7MV4dYuTX0s1lo+Li2HaNQ82auJpu6+hzPqlYWe1QqBQS0wUr1QhJ+LanY6JG5PEmxNUowkY+FaGTJ07TQOx1Dh5wsY9QZJ6KPe2cHq+6+g+dYLKL33MkpbH8BMBk7E51enShcPG+ApEAbqEUS0uG8fvZ/dKBbBfWLg/BZy3QISgNULqYENfMRrl7H7xJex+/Svo3/9Kxi1l8VcKYgZppjSJcyaynv9XUpGp4yZ8v+ncJFRojK9LahJYCXFHP4Yh72NNOoyFMtadAcptruJVNLYzKJd8XF91cfV5TKqRSboqGPR1ykCp4yAEoRTBlzf7vgIcOnpj1zVwoc7MfoxUCv7WF/ypZUzoweuDcD9UwuMHLjWwQYUm5McUHNwcJ9Hu2Ra6t6aZBjE1N67fPZRd7jTZELaJvs+Ej8U4VzY30T7/dew/vr3Uf3Fj2A6N2BpgcwKhaB0p86gECFOj3OvlPH4ON/zCgIuGdg9G0De46VTFlEsw6R5kzdB3L6M4ae/gc7T30X3U19FtLSGjKWiCZtKkcRlYDKAjgsnsQkX10WWPcJDOTR57wamoxbTqhSDdEUjjiROYovObiyRBLYXL/kGjyyHeGIlQLsWHLXq9QFOpl5aEbg3AkoQ9On4xCEwSS1u9lJ8sB1JU6bAt1hbCrHWCqXvgtTVz9GMiesqIwds7sNqhdBzhGH/YK27QSfOsB2n6EeZLFJi9JNHEI6iC5wmCNItOaQloodwdwftN1/E8us/RPPDl2F6N6XbIm2VrV9yPgN5D0W5R1YniDOhu2NJOxRfD3pWuZYWJGGvOmSeELqLcAgGWQybjmGQIF1aw+6nn0f3md9G74mvYNxel6F6CUshE9FmOBvo4w8s73INbuhZ/lgLghNo1UzdgXPq7A8T3Nph2aOzql6tBXhsJcR6y0M9T30dfxR6BUXgwSOgBOHBY6zvcMII7I5TvLcd44PtFIMow3Ldw+XVEpYbvngWuEZMs0PtKQzobtAMDRoBewbcuUGXls2JxWaUoBeneymL4wgSXZ47byFNZ8QwJN1Aqd9F892fYPUnf4X6Oz9CMNhydZI+OyUGU54GucOhXMaF6U0QOKbDBZuF+SQV3A0zJSHNJyTGf7IHrykkIU81zNU1sUg7iGFC3ofRwMY9GBsJSeh95uvoPfOb6H7qa5i0V2QyPZZLsopCWNDxhlFUNTAK5CyZ4VINdFuUBlxHN1EqgjfjiM2cImz2MozjFGXfF8HiIyuBlD/eSUKPNx59tSLwIBFQgvAg0dVrnzgCFH9t9RP8YivGzW4iH+hrbR+X2wGaNWdmxFLEeQ6exVr2JoWJbNM79SJegmmFnSiV/grjvG0x19y94MERaukLgiAaB7ZQDn2Eg10svfMTrLz2N6i//U8IOx85n4HcnviONbHwiuZNsIqhWgeqVVduwXDEcAw76sPEY7cE+070uN8BYh5k5jxHHKOsGCpKe4eZ8f+i2qEQL5K8EETXUdLaMdKlVew+9SvofOn30HvieST1hguQsBkVBY4z3+P+9857LfwphESyqoFlrYFBlZ4TjAII+ZrvGXLv5pilEAQAlE/0Bym2eqn0a2AZZLvuSxThsbZLgemhCHwSEFCC8EmYJb1HQYDrH6MHN7opPtqOMIgs6lUf660QSy2XT56nGZOUPZqiLbBF1aP2YJ8gJBaYZEB3QjMkdmbkwuQWgUXXpyKdsJdWcI5FSFmxYEL4kx4aN97G8iv/A0tv/ABh50O32lJvkDsjym5bQvL5AlsKYWtNmFoTKFchjSZ8Oh5amNEY6HeB4S4wGe01W3KLd041pt2EjvNsHVmLkC+rhukD5/woTo20iEaKaO0q+k99E50v/ht0n3gOSbUOn8wwS2QEe7bMs4NEM0dXFEvQmrvmu/4JDqXFQxV3ahEydHYzbHZj9EaZEJBrKwGeXA7QrAbQjtAzp0ZPOAMIKEE4A5OgtzAPAs5S+eMehYkJtvopGFl32gMflfK+2+E8ZY1Unld9gwb7LDDXXaydgPRUYNSgFyUYxRmSzMJjLPqgodE8tz3Viti5BllYL0Ra8uFPJmh+9AaWXv8h2q9/H+Htt5yjYInmR+Gd5gpOdelSBkvLwPpl2FYThj0WpJwiX9SSBBiPgN4O0O0Aw2HuaFj0YXDpl9m7/TkHd4cWYZFdN+EsmjW5HglIWd5Iu+IR4pUr6D3zXWw/9+8xvPpppH5FyIOYNUp7auoRji4ULUZXPCsBGzuRKBbdH5lqmBOC/dMcrkWEaXdAXwRW27hqjNUaLZgDXKoH4va5KNlc+Hb0BYrAMRFQgnBMAPXlp4MAP8jpYPjeViwEgc2ZWjUPV1cCLDcZGnbr5/0iw8WGky2Hyz53jE7Bvv9BbZFZgx2KEqMU/TgD+zIURkhHWVg9a/aEjWytnDGE7dMOGahs3cbKq3+F5Z/+NUofvy69FljGKLbJ0wdJBaMDvgdbr8OsrAtByGpV6YpIu2m36XUhexE27vaB7U1gZweIJkd3eZw1vQQ1FysKPgutqtNVA7npFMsXJtuwvkV05TPoPPPb6DzzbQyufhZpuQQTO5Mopmiks+Vib3jf0VDpwbLHiu9L2sG5LC4eSSD55MtGLIvtWmzvRhhFVqII601fHBbX2H5cMw2zni79+0NGQAnCQ54Affv5EIiTTCoW3t1KcKtLpz2D1aaPyys+GjUWwVGfd/8P9KKssQLaKANlNmI60G4vzixuTVJsT1KMU5bXuQ/7I+/2iqiD9DCghbLb8ZcGXbTe+TGWX/4LNN5+Ad5wF6bcAoLwbkAo0uPRqAGrl4HlVaDaYI5ERHyuYZK7SXF25M/jMWynC7O5CQx2Ybk75wJeuPrMB/t8Z0lr6NyG+Qi5e8cwpCuDW+8TEpqJuCnGlz+Nza/+Hra+8jsYr16Cl6QwCWtJ8nEekyAUokXhV2zv7fmoBmwPPY+m4nB4ilRDmrJPCAlCjO2+RZpmWKoGeHzFx6PLJZTVF2G+50vPemgIKEF4aNDrG89GoHA6zLA7Yc+FFB91I3SHdE1kO+cSVqk9oImBPczopiAMeWld/obs0tgK2aWR4eBiG2eRZAa7icXWJEGXVQv0O2B5nfQUcL0FFt2xMoLAxUz0cEGIpOwhGMdo/eIVrL7y/6L58x8g3LklLQ68ypL7fnAXzogA75Oq/quPwC61JSciefsDh+TzGWmIU5hOD9jaBnrbsPHIaRhY5nFSxx68JAiOJIjHwJHZFG+M+/ZAqhow6sLW6ug++5u4/Y0/weD600jCKkyWOMFi0U77iKkfIQWcl9xNU4pGmGqgk6ZvpASyMJDch2x2VGEvzWAtothisxdLMyc6f7IdNI2TPrVWQb10XKxOaiL1OorAPciuPU5jdEVVEXhACEx/DFMjeKvvTJE2+yw3tFhu+lhtldCo0gmPm2PniHjncfDD3ML36HlgRXsw7WXAtaYfW+zEKXbjDBPuzHM+cIdT4qI71rwPABcfRg+ywEd5+xbWX/xzrL30lwg235NFW4yQfOoOckvj6YEUBGF5FfbRx4BWW/4qqYTDCALLJ7nT7pIgdIDuJhAP3YIqBGHxsPl9p1n0A67c8XgEIe8GSYKQ0XGR1tI+Jo88jZ0v/BZ2nv4WhleeRBoG8BNWPqSOjByDIEipaGEHLV4Ljjgy9VRhJEFSDUc5XDMnPqs0Trq5nWCnn0jJ49W2j8dXQ6zUXCtyPRSBs4qARhDO6sxc8Pua3vNTwE7fA+oPOqMMNUYPlgOpXiiJa6JjBrOi2/Tgr/o+qGcs+a4O3r0wldK0nQkNkSyGGW1y85T+wR3xggRB7s14sNzVGx+lYQ+t93+K1R/9KVpv/L0TFNaXAI8uifdYiuJY/BCwsgb76OMwjCBQd0BB4qEEwbhau14eQehsATErGh4cQbD0KSjSDEd+dvcbGknaJBvD+kBarmDyyBew9eXfRefp72DSXpUW0chiFhe6d1twXvZuccqKufCcIucoex5qgZdHEY62iLvslYfeIMHtToTtbipT0K4bXFsOpRV0U6MIR35a9IUPHgElCA8eY32HYyDABXaUAG9vRHh/I8YwybDc8HBFxIklESe6FP29Q7+F9oBuiY3QAzs27pGDvB00qxU2o1QEimxYKDqzYnc6ff9HWoh8pBWWNE5Q/+BnWP3Z99F64wcobfzC7bwrVUCqEe5BEEgEKG5cXoG5dl1SDIY3WGgTppiRpBj4N5Z8dLoANQi7HSCduOqFk+ySmOOyJ07kTl5IwkJKxUOeDkZvnB7BZhEQ95C2V9B99rew/fwfYHDtKVi/LDv/vfc+0rzkFR05yZBIQh6NCA3JgQeWP5IsHBbYufdjXfgiuKLM8STDziBBp0tjLyP6BlbePLoc4nLdk4iFHorAWURACcJZnBW9pz0EWGLI9rnvbET4eCdFZlKsNwOsr5TQrLtFdRZBYCUCuy42PCPag31ywL4KRkoZqTnoRBlGeQ8HnnMUx0Qx4hFLYC5wXPDZa6GEpBQgHOxg7ZW/wfpLf4Hw5s/hp7ETFnr+ft5eVsUDC4akEgzQaMKuX4VhqqFSdmIFsVu28GzmriNiRU8iE3ZzC2bzNjDq74dXjqUPmPFgUkAhWgSyhBPSOrDscdIFKmVMHn8OO1/8HXSe+jqGa1ckXeORCDHacNyGWVNkp3CepAaBFQ0ULYq50hzunAVC0902nX9Viq1ugu1eCgY/GEVgK+jHlk/C5lk/MBSBB4OAEoQHg6te9QQQ4AfyOLa43Uvx/k6M7ihDqQSst0poNz2USxLDndmUifs5phfqJAm0VJ7KwTNHTLfEzciKIVKxGXcVg0fzCyjSE7LQcOfP6ICxqN56F2sv/hlWX/lLeL0NmErd+R3MOor6zbAE21wWsaJpt2TRZDVHsXmWWgaWQ5J49HdhNzdhOjuw8WS/T8Os9zrO30kQeK/JfqrgOJdz7SsTF/3wfKRLl9D/1PPY/Mq/Re8zv4S4WoY/juGnrqrlpI6iBxZ3+pXAz5s5OQvmvHZigbeiFgGIYmCzl+D2dozdsUWzbPDEaohPrZdQCU/u3he4MT1VEZiJgBKEmRDpCQ8LAa41nXGKjzqJ2CqznW6r4eFSu4Ramda2hW/+/T5gXTqh4qWohj4qYmTjzmeeO80ybEwsbk8sory+vogcHJUgFGFqqdOnKNAaBLRTfvcVLL/839B484fwx7tAdRkQK+Q8VH6P3b3bucrVYMMKTL3lSh2XWs5mmSpNpli4VR2Pgd0esMPqhR1gkqcWTqOJE99f+kFwPPs4H+v5sYzyePAoWjQZJlefxO1f/iNsPv+7iFtNeKMUQZZIJEjwOWKqYfoeC4JAzlELfPHL8D0/90VYdDQuekX7753dBDe3EnQGmbh+Prrk48n1EloVT87RQxE4awgoQThrM6L3s4cA0ws3d9PcOTGRMO/6Uoh1Cct6EMtkt9TfW5lvLGg7xMoF8T3w9ovPsyyVfgubUYZOYkEPBIku0EvgOKH4XPjGJku2FMCLU9Q/egsr//p3aL75A1RuvyO7YhPWpFPjdJ+E+5ISlvaJR3QZttmGabeBFv0QQhftYLnHaAR0toHOjkszFIToOOOZ95k8YYIgQkWG9pmuSCOYuIdkZR1bz/0Btr72xxhdui4GUmwE7XpBcId/zEPKHt2UcOdPXwQ2cwr9o5YkkiD4oIhzd5TiVl7NwOzQSsP5Iaw1jLQrV4pwzLnTl584AkoQThxSveBJIUBzpPd2Ury3NZEa8nrZw+WVElaWfKlXTyjwu8/HaiFOrHlWGjK5bn15btxaDBJqD5z+YMKigOnM+RE/rYs2B7Lr90IkFR/hcIyVf/0+1l78C9Q++im8aOBS9H5p/pC1rFqutbP4MdBtsVyBqbIPQxFBYKegWOyV7WQMQ3wYwTgNcuBCMk6keJIRhDx2wooGRF1k9Tr6n/sOtr/8B9IWOmqwAsTASxLRfAg2xzyKhlpMRnGa2OmRzpsllqMyarWgCNNnBYulWJGmSYkYJ40joBoCl5ohHllmyaPTOdyX7B5zXPpyRWBRBJQgLIqYnn9qCIyjDG9vJnh/O0KUAct1H5eWQzRrrETwkBQ76nvckTTiMYweGCyJa+L+4sFFgHbKmxPXjMkF8U9gLc1V8K66MUBS9lHZ3sTav/w51l/8MwRb7wNME7AT46KL2d722IkT93swFBGUaY+D/OQTEu/NNekPlCBEsOkQKIWILj2J3ae+g61nfwO9x56GLXkIRvG9q0Dmuvm7TxKNKfUrYstNXwQ/FysudkGmwjhXdPrsDzNs9RKpaiDRWG2E4olwrelrmmExWPXsU0BACcIpgKxvsTgC3IHvjjK8vRHjoy7V/q4x0+oSG93k1sriJHjvHeMeQQgNWnlTpuJOuHzeHme4PY7FUlmW1hMQuu03SnTNfmizU7/5Llb/5U+x/PL34O9uwlbbMIwAzDJuuBdsYsvomjfZLBWLYIcDRZGe+zoNzcHB+3sgBKEYG12Y3FdWLmN8/Yu49fU/xtazv4606iPcjWDZzGlR0nXXGPaJYuGLwCAMW0HXPCORq4NFJvM83UUDp8nESofH290EJMDtmodPrZVxfSWUNIYeisBZQkAJwlmaDb0XQYBLAtMLG/0M72/Txz5BueQJOaCDYkk+SW1evXD/kDJL1ao+ey/QFc8BLNfPgM1Jio1xgkmWSUSCOezjHkUFQ+bRDTBFedhD872fov3q99B84wfwxj2g0nKtnBkSP2qlBF+XD8YtWO7eXZmj++nUjwdGEDg214iK2g2kI0RXn8DNb/3v2PzaHyJu1BD24xMkCLkGJXfBZOCJ9st0V+TzdFRoGUmIqHnpJvh4O8ZwnKFVoVAxlIoGrWY49SdW33AGAkoQ9BE5cwhw598bZRI5uNlJMEot2o0A60sealXqD+g0wPX1/hEE9jKqBgZV41o6F7s4koNhCuyMY3Ti1LVzztv0HvXDfw/EXCNgwxAmSVC//R7ab7yA1ut/i+qNnwHxGKZcB8xJbhddCPtMHImFTdnG+YR8EPbGlUdIkhEw6SJbu4Rb3/hfsfH1P0HSXpfeE0Wlx/RcHGs+8z4anCk+c+z0WPIW78Io9MawEsIiTi02OyQIiTgs1ss+rq8EeHItQLMy5YdxJiZTb+KiI6AE4aI/AWdw/Fz3b/UzvLc9kdpxdiC8tBSIvXKZq77o4VwDpMMOltixJI5Rg2bApjt3bvoGidMf7CauY2OWslb96DvDu+7BekhqAcwkQ/udl7D28n9H450XEezegmGYPKD+YH8cxw6Ln6U5TOwJixSnPRUMwJbYUQfp8go6X/532Hr+DzC8/Flk9IggmaBJU97RMne5PhF0WGPAypmqVDRMNe+a6+qMSNAxkcaZFtu9RKoZuoMUYQBcawdimrRMbY2WO86FqJ50OggoQTgdnPVdFkCA4vsPOjHe3WJ6IUW5ZHB1OcSl5QBB4ElN+b1d7XIzG4oTA6DFvPGUtoCcYmeS4tY4lciE65VwzLLGqbG59sE+omaIYBhj7dX/gcsv/J+o3HhTUg5S1lhoBBbA5BNz6okThAMjp2lS2oNtNND/zLew88XfQ/fJryBqrYuzpBcx1VC4IpxQpiVPNZAg1EIPFenyeFhzsHvNktNRsNiE5HV3kEiaYafvjLlWGz4eWy5hvUkh5ENIDX1iHi690dNGQAnCaSOu73cHAlxQM7Zqpl2whGEh5YvvbSd4dzsWU5lqxRGE9fY0Qbj3h7G43eUEoSnixP0PXTYT3hzFuDW2GNkMbMfM9ToPSyxeWXDgNgqCkDRLKO32sfKjP8O1H/4fCG6/BzC1EJSPnMP+RDw6D5wgsIvjELZWw/iRL6D7uV/H9rPfxnD9cWQsZZ3ErqWks006EaxFrGitRBBqJV+iCIv1ZnAzR4LA6NgkStHZzbC1G4OixVrFw7WlAJdbgWgSisdVyx4/EU/8ub5JJQjnenrP7uDoYMiyr0lqEGfOEZEmRaUgE/HhhzsZPthJMIhStGoeriyXsdxyIdhErHx5HLbbcqkHViQwgrBHEES0YJGmKTYmGW5FGcbs0cB+gPkn8kk58RkESCoBgs4WLv3Tf8WVf/gv8Dofw9SWgLCeL2AFJzm56MWZmO0HTBCsTWGySBwlk5XH0Pvs13H7ud/E8PoXkDJaNInzHhisWtbmUAAAIABJREFU7SC2J4MKSUIgglcfFQkC5ZqI+5l03UmFhYgygsDnd3eQYmM3Rn9AIyVgpR7iSjNAixqbXHdRDp3joktBnZSm42Tw0KtcDASUIFyMeT5Do+QCbmTh7w5TMUCiaJC/42duNTTS4HB7GGOrn4rNbqvu4VIrQKPhuzwuGwLdV31mERqDagCxyS0iCNIZMk6wNbHYSaxUL1D1XxAExzmOKfbLLYazIEB582Osv/hfsfKj/xth5zZsbQWGEYTzfDxQgmDFO8DpOAJk9RXsfup53P7q76L71HOwQQhvHElpqZtKliQecz55oTzFQILgqmKcUHEx7YgjgvxihGwwykRf09lNRCTbKPuiQWiU2BbcPSC1wMr/N6okzsGC73eeHzId22khoAThtJDW98kRyJAmmYgQ399J0BvRHzCDaPpZTibxfoNxkoriuxR4aDd9LDcD1KsMvzIK4D6cnQ5h/yhoQ4AMVWm0w+vtK8NpttSLE3QmmbgoRnnUQvSCxafyEReUvXJFVljk161ufoCVH/1fWHnpzxB0N4UgMMVwQpvas/lEPWCC4MpXnEmULdcwfPxZ3P7l38f257+JtFJxEYSTJghSMeN0pSGoE2C5IyMK0vPTiSPnOvajRcNJJt0dSRImkUWZ1wwg1yX/5RBDY4U0XFnysC5GSrQJP9dPz1wo6kmnh4AShNPDWt8pb5BEg5gPdxL8fDNGb2zFfKYQEjovArf483fcPdH7oF0PUKZffU4QDrOkpY6BxKFMa2VDH31qAmmi787up1bIQS/OMMnSvVS1RHCPSBCmrZX53hkXDWvgxxEaH/8cyy//Kdqv/nf4u9tAZdlVMJzn40EThLyCxUjzJh/j60/j1jf+I7af/XUk9ep+BEHkBycUQSjmi1Eu0MyRQkUPpbw0dl56IBxYimUMoiSVcsfbHRomkWy4R7DQ5KQifDBoVw0eXw3wWNtHpaRRhPP8T+csjk0JwlmclXN8T2maCSn4cCeSPgvcSZEIMA3AnZj7kHQflIweLNU8tCneqnnywewMkoq6/zt3UwVBqHoGzQAoS+rWncMPcfZdoLVyP05RfAAXrRmOTBDynaWrhvCQBSUY3vugg+a7/4rlV/8CrTf/Dt6wB5RbQBCeGcuCB/KYPVCCUMwkyxlj8VuIHv0sbn3rf8Hml35bCMK+BiGXKZ7Qhpu8lf4cnOcydQihK3l0bcEXQzIIDOLEYqMTY2M7wTCiUZcjM9LmIX8vRhLqJYPrKz4ebYd510fVIiyGtp59HASUIBwHPX3twgiw4eDOMMWNDi2UE9BCn7qC6eouKgMo5ApDg5Wmh9Wmj3o1yIVh7kP6sFCrC/MDVd+glYeB9zZ/LG+MMilvHCaJ7M72yMHCo5hKa+T9HoomShktlGFR7m5i6e0fY/nV76Hxzj/BG/WBchPwQ/fiaW8jx3sckXHNJPO/FytPHgI5xn2e2kvvSxAOrqQH///Aai6kkU9DgU8hDGRDqDFsMkJ89dP4+Fv/G3ae/31EjcZeioEYytWPSxCmpyCTxtxCEOixURUhwrwEwU0qn08ntLWSXtjcjjGI8i6iHGuuqiSM1OKwodMjSwGutUMs13zX2VsPReCUEFCCcEpA69s4BOYhCBQsRqlTcK+1Q6wvMbxaGAtNL/l3fvrLR7ChMJHVCy5PPH329iTFx+MEo4TSxwdDENKwLBGESvcWlt96Ee3X/j/U33kRZpwTBKYYDm4589DywWfEOSbfTQ6Oas98Ks/gPQiCIz6zxKUH73DaJGl/JqWFdTwG4j6iK4/h9q/8J2x99Q8RNVcltSPLeJ5iOLbodIq1MepPgkDb5ToJAk2N2N1xrgjCAYKQWuz0mGaIMRg7UeX0vCpBOJWnVd9kBgJKEPQROVUE7iIIkasPn44gkCDEaYZKyUj3xrUl56DIFML+h/Hdiw1/w4oE9l4QB8WpGjeWVdIg6eNJ5pozFdbKxxz9XnOmPYtlF0GobN9A+60fof2vf4X6ey/BTAauxNFjioExZCPdm/e2uAc7ABUXLrbCsnm2oIOxRD72xJRnLLpwP4LgkkiQQRSVqnPivzeVgoMB4iEQdxBdegwbJAjP/xGipXV4SW6UdJIahKJDp3Tbph8CIwiummH+FMPdEYTOIMVON0F/nIrw9i6CkALs5q0RhDkfEj3txBFQgnDikOoF74fAQYJQCLQKsyJ+/tM4Kc5SMaUpCEIYOpOZ++3W7iAIUxEEfvCmSYqNmO2dDcZZ+uAiCOWyJKvrWx9h+c1/xtJrf43aBz8BJkOYoAJrAhi2DYgLVVqeaxBdhXHCyby23niF0U8u3AwsTGABfhWdnefavZ7iM3mfFANz7MJrMrphkdjME/93+Mga7WWwAUUfBiYaAEkX0aVHsfHN/4yt5/8DoqVVeHkEwW3Ji3zNMcc/TRAMySxLaJ0GwfkhzHPcSRBYqtsbkiCk6I0SSTk4Tuiux2eddh8VJQjzgKvnPCAElCA8IGD1socjIARhlOLGjtMgkCDQffhgBIFmSeWywaV2IGmGEv0RxBp5fwE9+A7yEcw6dVYx+B7yrIT43w+TDDt0sItTTDKuryeTYuBO2K0fGawXIGHSmGmOjQ2svv4DtF75n6i/+xNgNIQJKwAC2Mw4ksCddLFIFlEFt7Ltr2/Fjpm/9a0skhCdI3PzLNOwsmi6qMJUNcbDegDzZk0SGxH/AAND8rNHZBg54Rd9h4ubzBP5e2ttTpr2/p4r9/ycGJE4pQMg3kF07XHc/PZ/xuYv/UckjSaCSSIEzRrXMMqVILoLLeZbMAXgASJDTsBy3HJOQiUaJRGk2aCLBsGj14fFYJRiezcV0yRW9ogXSJ4WI8+iM/ceQVgOsVxVDcJshPWMk0RACcJJoqnXmonAIgShUja4vMIUQ0hfnLkIAj9gax7QmEox0P9gVwhCgkGcgv/PxWLuzd/9RpVnOiTyYTykpRJMlqF+612s/PQFNF/9Pmq/eB1mNAJKVVgqMimmpFyd0YL89UVkxJn7OJKwp0Eo3p83LH0cuBjli57vCANCC3ABfdiHRBDyiAfHmbKwnx7DjgSIu2GRXpBuiRI3OeBpUbgHFuPJu21xzK5OEMiGgO0gunoNt7/5n7D9lX+PyfI6gpTlq7webbRdBGafgx3RtfLAys/75SJPglBmBY6Uts5PEDiFjBCw3XOnn6LbjzGc0ATKCRh5KEF42A+yvr8j+QfdZhQXReABIjAvQeAtVMsG68sBVlvswTA7gsD9orR4FpMkb89BkZbKO7FFN7IYJYkYNYmr3QlUjLl/Ph7Y3jnzPQTJBOXN22i9/QqaP/sR6r94DcHmpiMEHo1u8hI9tn1OE4h1sCx6gayhxS6X58vfirlg9QO/KHLkdcS3lwb/XFWSnCTwZ75PvojOs6U97lwXUhARUzIubmAnzllIdvCZB5P5zmiIWFGaT50AfQyyRMhUnldxdYTTjbVkjhheysfu04Q4kCgRsjGQ9ZAur2L3C99B77l/i94Tz2LUaLmmTbTnlMR+7qrIioi8JHXhIR/E0dC7w0PJh/ghhAsShKKPA3sydAcZdnZT9EcsvaVREs2/M8QaQVh4mvQFJ4+AEoSTx1SveB8EZhGEQqhFQ6Raxcc6y7ua7MFQdHF0u+vp+jUJItN7gKF9z6LKNcVnQx1SBmCcWfRiK2WOozQ9UYLAHX/m0yDJRzAZo7xxC+03f4z6Gy+i9v6/wu/29nayEjGQrSYXRS5ezDPwdz7gl/KFkKH3DDZLYViOmUZuuBI5YPqCxCBvRsRFjxEJ7sr5zc9gy4wo8P+FbZzis2gADofkgPoKWZf5vSjqz8Ml+YK9jwN/78bjeifkDplCfrhYBnuZCDcaXzIz0ofJTmDDANn6dYw+9zx2vvB1bD3+NKLWsosQpRnEUEnErUeMHsjjdrD8MicIJKKSZpg/gsAb9zzntslS3u4www4tl4euB0lgPHjGKkE4xSdX3+reCChB0KfjVBG4H0FwmWd++mcIfINGzWBFTJIC+B6rGFz52kGCUBgkVYxFyzdOe1C05AUwSoFObNGPnAeCa+VwtAWjWJs9myIzPrJSGeB79nZRe/c1NN96CY2fv4rKjffgD7ZhErb0tTARF/oUttoA2uswy+uwzSYMk8zcIdM/oVSVKAEjCR5D5dEAZjSAnYxhhgPYXg9mZwu234OJJ0CpBFSaUhnhRHzcgsawNI8MGNVwwr65499HeRJy3YNNOEYDG1FfkZdacLLiRMZhI+74M9hKA3Z5FV57HV69DlB9KvcawPhlR5qSGIhixxsmE9jeNszOBtDddgZJQQgT1gCez5A8ScLSMoaPfgZbn/sKOk/9EiZXrsMGvqQz/CSGl6cdTiKvJC6fxpPmTXX6bQhJ2/eyuD+M7FrqtBFsVrY7TLHVS9Hrp0iyTK5JTYNGEI7yMOprThoBJQgnjahe774IzCIIrGBg9CAMDJo1H8stH62aLx+qswgCLZbbAUO/+zs+coFhwugBowgZxlly9FBzUavOlIJo7Tx4YQB/NET9569h+V/+J5qvv4hw52NR07NeXxYxpgpSdiAswaw9Ajz+FOwTTwGXr8G0WvTuFYJgSzVpQiQSSkYP4hFsfxdm0AE2NoCP3gfe/zlw+32g33X1/n4JxrjSSln8ivQC1f5lC9DZWXbcD1CfkDKtYGAmrE7IKw5EhJnX92eRNFjKghDZyjXgkU/DXH8S/tploFqHLZdgavV8QbdANAGo2ZhMgP4u7I33YN57A/bWe8Cg68bihTBkQsInXTSGWPQfeQJbz/8GOl/8JqIrT8AXa2uSjgQ+W4ufQFClCILwOasHvjh+LkQQ8giCVDJQqNilDiFFYjWCoB+fZwsBJQhnaz7O/d3MSxBKASMIPlZaPhpVL48gHF7FsBdB8DwsBTSymSIIFhjQYjnKsBuzQRMXk6PrD6QRE3V4ZWoBPJQ6O2i+/RLar7yA5psvIbx9A6CJT5qIqQ5bPBsuhJevwK5fg7nyGOzlx2AuPwa014B6xWkL8jIEMQGS3ajUA7rd9HAIdDvAzm3g9kewmx/BfPwRcON9YPMWsmHfEagwhCfX4sLJaEIGlJhyIHGQ0o2F/Qfu+0DyFlMjaQWb+DBSukiSMAHGPVe212wDlx+FvXwNWFlDunoVWL0Gb/2y+1u5AsMoAiMxtAkUHQOjDpFEXex4CLO9Adx6H9i+DbuzBbN1C7h1E9i4BTvuwjCCwohREiMtV9F/7DPoffHr6H/5Oxg/9hSyShWIGclJ4VHzcMyDWRNmisgL6mEgepdFCELR1THLMvRHbNqUYrsfI44NQp8RBE0xHHOK9OUnhIAShBMCUi8zHwKLEISmpBhCNGqu3nzfB+FODcIdBIFrzbSDogV6SYaNSYpBbCWMu9e98QidG50m0YcthQhGAyEFl174Hupv/Bhev+da8ZEacJGsVGAuPQZ8/nngc1+BfeKzMMursiiSFFA/4JpT3amWvHN0+U6cIXKK+qIYdtCHufEu7Osvw7z+Y9gb77sUBIWB7ItJYZ/vuUVzL5JAgjCn1H6eqWQIJTZAxO85UZBSTbKnCDaLgHoN5rHPA194DnjqS7BXHwMaTeloCZ8phTwVIZbKB1yRJeDhtBgSIYgZUYmAzg7Me28Cr78CvPEvjiTxoWK6BYEYKPEWJteuo/u130TvuV/F4JHPIA4r8Oh/wcjMMQ8ROxr2D7GoHZkguJsYTTLc3mFXR0cQGI1QkeIxJ0hffmIIKEE4MSj1QvMgcC+CwE0uC/vYzIl6PFort+pFm2cupEUTJ9leTy0nbHDjPO6pKF9ii+cpv3quWd00w8Y4w67UmvPT3XXUW8SGlwp8kdOFJVimMUYjtN99Hcs//lvUX/5b+Lc+lIXZ0ASIi357BXjy87BPfRHmM88Aj31acu8UTh73kNGPBsCH78F++Cbw1mswv3gTuPk+MBy4CALTFQSSVQ5lLqCZrJ9HbU6w387awW/ZTHHMBTmvySOeJEWMePgl2CuXgU8/A/PZLyP71OfhXXtc0gnH6Y3gpCMZsL0JfPAO7NuvwbzxKuy7r4s+wZgSrGfFtZI6hfH1p9B77rvY+ep3MbzyKRGSmjiSuXdlqXkp6YITUqQYGPCoBy6CIFKMObM4JIVisGSBUZTh9naCjZwghNSPGIuE4lf1QVhwZvT0k0ZACcJJI6rXuy8C9ycIrFRIZYdfK3toNQIsNzypZrg/QXA78XsTBIvNUSpeCAzryjIppYVzfqLnnER0ByXXa6H14du48qO/QuMnP4THhZn5clohUz+wtAL79JdhvvprsJ97FmZ5DSCxMFxI7torH+GJEb2/6BRsNIR5923gJ/8M+9MXgPffhpmMgMAJHiWSEKYwJAiFHmHeov173VmRVpiwhJE+B5ns7hk1MEwVXLkOfOlXYL/8VZjHPwfUWxIxOA45cLeSj1tsBiNkO5vw3vgJ8OIPgDdege1tOQLGr3gCGwQYPfF57Hz9t9B79psYrV6FZf6fYkAKJo/YDvr+BGH2/Mqjl/NIGiTd2o6lcVMkKQYnnlUfhCP8s9CXnDgCShBOHFK94P0QmJcg1CskCD7adf+hEwSupykbRuTOheWdLay89o9Yf+EvUXrnNVmMJMzNxX/9MvDML8F+9dvA556HWVl1O/oTIQYFsgWxyenGaAj74TswL/0D8Mo/wX74Fsx47PwSSkxn5CWQFVZK5oZKR/VIyMkB0ws2YXlfAJuOYditkiToU0/BPP8d4NmvwT72KaDacKWLjtKc0D+OfBGmnmRrC3j7NeClHwA/+Sdg67YrB6XDJElLrYHhU19G52u/ie1nv4Ux5yNJEU6iO3wnFrmx4xIEIahM/8BiPJViUIKwyCzouaeBgBKE00BZ32MPgaMShMJ97u4yR6YYHmwEgaZFCXssGINSt4ulN3+MpR//DZpv/Ag+BXPOhACm2YR99nmYb/828PnngOZy/rc8BHFiC+T09fLFkiTlnbeAl38IvPIPEkkARX5lphqY72eqAUCJ6jqXZjnSQZ+DiQ8kjByQOTmvBhFXPvIE8I3vAl/7DeDq444wHDmpcb+727+q6C5Gfdi3fgL88K+Bn/wjTKeXR4eYC7GwjRZ6X/wWbv7aH6P36c/BeiH8ScRalH235wXAOAmCIBkuYzGOLDaoQejGGkFYYA701NNBQAnC6eCs75IjMI8GQVIMFQ9LDR/LdR/Vh5liELdeK+p4Lka1d3+GS9//cyy98gOEO7dhWJLHY/Uy7Oe/AvO1X4X98jdgltaPvgjP+bS4XbnsR91CNxrAvP8O8M9/A7z0Q9hbN3K7ZidaZDWDLTHdQJIw55tMnyauU577on0yicGwB8Nk/JNPwX7tV2G++qvAo592xk9FUkAMm06eKuzHUQDLss83Xwb++W+Bl1+A2bwJa1gC6oyYxk98AZvf+Q/Y+dKvIKIHBdM9NFIqzKoWgOPECAK5Vuw0CBQpugiC87fSFMMCE6KnPjAElCA8MGj1wochcD+CQLEhNQIkCEwxLNV9tBuOIJxqBGGqC6DYBAes7ffhjftov/JDXPrr/4LaWy9J6kDcGhku/tyXgV/7Q+BL34BdvZTbOB91m36EZ6dYfydD2J+9AvOPfwO89iLACAdz9mwUxXI8phgoWmQ0YdGDZYxjVi54sKmFiWOAbaxX14Bv/Rbwa7+fkwNaIjvh3qkcxdjHfeCnPwL+6k9hX/1nV/FBN0abIl2+jN4zv4Lu87+OzlPPIWrUxcTKT6mynHZLLDpo3vvOj08QXE8JRhAmE4vbnekIgpY5nsozo28yFwJKEOaCSU86KQTmJQhFBKHQIDwsgsAOjbRSDsYxajfewfJLf4v2P34PpY9+DgQVoFoDltZgv/ot4Df/CLj+WZEquD39/BULrBIgORKCZAx8LmwLWSXTvjlvakTHwddegv3BXwJcKOmjUGN5YeB6NQhBoMXg/N0fudE2JAaRBxPRITE3guJC+9kvAt/5HeBL34StVo9EDIqxi8+EtFFm2mg2xXDcILee5jvf/hD4/veAf/o74OYHwGTsEgnlCqIrj6H7lV/H7W/8DoaPPCr9GjxGgEQBm7/XHMLV4xMEl3dRgnBSnyp6nQeFgBKEB4WsXvdQBObRILAagJULS1NVDKdCECRmfedCQfe/NPRR2drGyqs/RPvlv0f97Z/CbH/s7JzXrgGf/RLwS98FvvIrQGtpoZkfjUbY2trCxsYGer0eoihCqVRCu93G2toaVldXUamwTfR9jqnoffGjpBf+9v+B/cH3YG5/7CIIrCRgK4eKdVUNwezd8t670vNgFEAsleMMdrILU6kDTz0D/PK/AZ79JeDy9Ts50ez1Hf1+f2/8/DlJEoRhKONfX1+X8Zep/5j3GA2l7BP/8vewL/8QhiRBGJuPrFZB/5lv4uPf+BPsfuYZMViia+MeJ5iDHEiwIfdaOrzMcZ5UiqtUIC8RkaJGEOadXT3vlBFQgnDKgF/0t5uXIFTpg9AIsNIMUK9yR+ki5Q9cpHhgJym+B76H2gfv4coP/xuWfvL38Lc3YJjz5gL42WeAX/0D4LlvA+vrbhGe85hMJnj55Zfxwgsv4NVXXxWSwDJPRg+4OH7pS1/Ct7/9bTz99NOo1f5/9t6Ex44qyxpdJ4Y735uj0/NsDMaAbQw2MxRjFTV3QVV1fV2vpX7Sk75P6t/R6k9qtdRPLfXr1nutnqtrHqgqCgqqmDEYg40BY+MJPOV85ymG87T2uTczbWc6b9qZiQ0RUuLp3ogT+wRx1tl77bVSHZ2Vag10UUSzBr3vVaiXn4b+6CBUpWoMoHg/MQXlGmMnabCY6Wi3Q5LrRynlqiNWyqzd60YFqrcfuPNB6Ae+AbV8NTStruVcHSADAJVKBW+//TZef/11HDhwAPl8XjIovP+BgQFs374dd911F6677jpkMpnpRynaTy3nSPIN6HtRKkPvfx3quZ8Chw7ImGnKoBCgtnEHhh74FsZv2g0/1wtFx0cxdDKZm06OKwUI0ubIS1GEsqExSICQb7Y4CFGJoZM5iD6zOBGIAMLixDm6SisClwYIhpxFMZy4Sw6Cg+62FwPNmti7Lrv8C4WSOutiKHrGPXFS9GcGHYQpHATtxEQyOf3RAaz8/Q+Re+81qJoxHhL1vh13Ao9/W9QStVj1XvpolxK4GB46dAjPPvssnnvuOezfvx+lUmniy9lsFtu2bcPDDz+Mhx56SH7Pv+v4oKXyqRNQb78C7H0ROP4BtOdDsdRAtEUZ5gTvgb4Gl5BgZsDZsdCgPCGFkQzpT9sKatUG4P4vAnc9BtBmeda7N6NnloDZgg8++AC//e1v8fvf/16AErMp7SOXy+G2226buP+tW7ciTXOnjg4NHD0E/cyPod56zfhWhNSDDlBfuQmFnY8iv+NeVFZuRBB3JCNiBw1CK7mH2XDClQGEVvag5Y9RrWsM532MTpAUI4DQ0RRHH1qUCEQAYVHCHF2kHYHZAIJumTU5jkJXy6wpe0mp5dnbHPN+iBEqKYoe/yQoaO/ipp2dViaB+geqXkHm/T1Y/twPkHv/TdDiGalu8RbA7fcb7sHKNR0vkNw5v/zyy/jNb36DF154AUePHpUFs72DbY+Ru+a1a9fikUcewZ/92Z9hx44dUpvv6CBpoN6APvKu2Um/+aL4GiDTa1LrTgAkfUNWbDcZTHdiKhOzrZElBloM0pWSY+hfAtx4G/QdD0Ft2d6SOu5oZFJSYOaAwIjggECBMbnw6OrqkuzBN77xDfnZvHmzlB9mOwQ+jgxCv/Y81N4XgE+OAqUxATZ+7zJUr7sN4zsfwPiNu9DIZWH5ARwSGjsN7RWVGNp2z8beuVTTGC34yNOsKYjcHGeb2+jfFzcCEUBY3Hh/7q92KS8GBmcqQMgmLfTkHHQRINjMIExn1jQ7QKAXw2g9QNHXCGZRUpxYK9mdwHYKprzHh5B992UsefHn4r0gan19K4H1W4Db74He9QBU30DHAOHs2bP4l3/5F/zbv/2bZBFE3dFSZvHT7M4PELZtopXCzp078Zd/+Zd4/PHHpTbPFHynhz77MdTv/hv6hV9DFcaBVA+0cqDo9MgMAsmKl0p70GuBbY2+Be0HRhCJnIBNW6F3fQFq226AHgsUZerwOHz4MH7wgx/gl7/8pYCDarUq4Ihz3N6+B3xQtBY+xmOPPYY///M/x3333SechE5AkvhVfLgfeOsF4J3XoQc/gVI2dLYHzeXrMXbrfRi+/RHUli6F1fw0AEJk99zh4xJ97FOMQAQQPsXgfx4v3SlA4BrIVsfeLlfUFG2bLZCXARAAlGn3XA9R8GnWFKBt7jSt1HLLqS90bYQ2WxubyJw+jtyBF9Hz5jOIn3jPfG3lJmDbndAkJ265xcgJdwARmB3govj3f//3+Pd//3chJvKwXQeqtcganyIfAQ2KAKxbtw7f//73ZRd9ww03zM5HmKjA0IgiD/zh58AfngIGT0FbRvBJJewWWbGlrDjTwzgFIIS+J9wLxc4Ndm08+DVg8w4gNQM/YIZzvvrqq/jbv/1bKS8wcyCqguxcsNkeafBKQBlpSjgDUl554okn8OUvfxksNRA0zHRM3Dq/f/YE1FsvQL/4O+DkYSiaWCVSCLuWYuTWezFy3zdQWrkalq9hsyRD/sJs9YUrJilOXsMPNErVAKPFAPky75fdK7rl5mhFXgyfxxfkVXbPEUC4yibksz6c2UsMkzXaTMJGX7cjAIElhyBoA4Tzo9Re8ONKIevSk4F1ZLMt5oJR84HxZoAC7Z6DQAQAp/ViaHUxsC2OZj8ECbFSBbkjb6PnnZeR+eBNOKcPQ7F3fuNW4O7HgFvvB1atM3bFHRye5+HNN9/EP/zDP+DHP/6x1N3paujEEghJlpMFklkE6hCxbq6xatUqPProo/j6178upMXe3t5ZrzSxUFZKwOvPQ7/8NNTJD8UzQlM2cxQrAAAgAElEQVR5MuECCbb/zQAQ2qmUNkDwmEUIgPIYNB0Z73oI6tEnoddfb0oWHR7kH/zu6afxv//6f+PFl18SMGAn4pI5EUMsIfAp6MATgMTfr1+/XrgIf/InfyL3f0kuQsuwkudCcRR4+yXgmZ8CH74LKMdkP9IZjN9yH4a+8ASK668TRUgChE6P8zkIbsusafpn88JztgmKHJ7nhShUQ4wXfRRqpuTg0JlbKanmRGZNnc5I9LmFikAEEBYqstF5p43A7BmECwBCl4PujAXHoZHTpQFCQmlkLI04CXSSrTY70noA5D2Ngheg4QfwqKDHXfSFNWfp+mNXvYZ2YwhdC/GxMfTtfxXd+15A+sRBqJHTsrvXW3ZAPfwNYOf90N39Hbs01ut16Vr4p3/6J/zsZz8D/2w5NiwnZpwmp+gntAHC0qVLJb1OgMCFkn+e7Zhod6zXoJhi3/M81OED0PkxKJY0UnEDEEhSpDbChQdjQ04nuQdVmh/RqSoEKuNArhu4/3Hgi9+FXr6mQ2qiuQAB0VNPPYW/+Zu/wZ49e+Tv3ERcHDnpRk2AIEcrg8J5WrFiBe6//358+9vfFsLmjB0NU+5B7t+vSzcDnvov4OBeAV4crE4kUbj5bgw9/G2UNt4sMtEWAcIUcuql4tsGCK6tkHJsAQhyzMB5nXquqQCh3ghQqIQYL3ko1c2z7YpHg6F7RABhtqc8+veFjkAEEBY6wtH5z4tAJwDBMMmVlBj6uhz05Gy4HWUQNDIqFIDAkgR7+PjObmiN8aZGoRl2DBDY3hjGLKSGR9H/1h/Qu++PiNEEafSUWQlu2gV88TsATZmSnXcXsLXxrbfekhLDD3/4Q2H0M4NgOY5pTxR2u/hRw2/UJYOwbNkyISp+85vfnKjDX3IBm1rqoMvkIdbiXwQOvgEMnTbui6mkAQfkIUxHaWgDhCZX9ZatMwFCvQj0DAAPPA489iTQt2xOKsoECL/+9a/x13/919i7d6/chhNzjVJlCyBcmEFYs2aNAIMnn3xS7r/Tlk8BNO/vA379H6btUXgd1H+wUbzpTgw//B2UN21H4MbEU0JKRx1oIfAUdGt2bIWMbSPmmIxPpwCh3bJbq7O0EKBQ9g1AIFiKAEL0xryKIhABhKtoMj4PQ5kNIMh7lh5AWiMdt9Hf46Av58B1prY5nh+pdokhxgyCCpEQgNCy/WUGQWvkfaDQCFH3fMkgCNHtwsVgQihJI3CNQFJmZBTL33pOFBQtqicOnzYXv+UO4MvfA3bcbRwTOzxISDxy5Aj+7u/+ToiKUoOXbIaCZbki2yy1cPFBYokBwuRnDf5rX/uaaCN0vEByTDRsOvaBcXpky+Pp4wDbPdNJQ1CUEgO1hC5gKnIA3M63AIJuatC0CkEdWLIcuP/LwMPfBLpmL3dMDQ11Hp5//nn81V/9Ff74xz/KvcpcWDYsZU2UGEK/KRwEEjLJQeC9k4Nw8803z0E4SRtw9Nv/FpdL1GvQjKmlUNq6C6MPfhvF63ciiCfM4i56CbOnAThmR1mQDIJtwaViEk2hZv+qcDDbAKFaJzgwAKHc4OV1BBA6/P8o+tjiRCACCIsT5+gqrQh0BhCMJ0MiZmEJAUKXI7s0vkAnX8KTWgjt97KjNFhmSNpAfIpUsac1yl6AfCNEIdDw/elLDGZtEKkhtDMI6eERrHz7efS89Ufgk4+A0TPST6+33Qn15e8DO+7qmH/QfghGRkbwn//5n/jXf/1XvP/++4aHwLp7iyQ3tRXTcRypu//FX/wFHnzwQckmdNLFMBEdSiKfOCJ6CHrfiwDNnKiGmE4AsQAgtpkNIFQdgPLKEh0fatlq4L7HgQe+DGS75/xs857/+Z//WboYjh07JlmUmQ6CIXYxkKS5a9euju/fnE+Ly6N6+scASw2VKtCsSpamtPU2jD3wJEo37EQzkTUCS8JfmGaVb7W8tueFpSkChBg5jzZ/tWXuLg0QzIxcCBDyRfIQfNQa5CBAMl9RiWHOj1T0hQWKQAQQFiiw0Wmnj0CnACHQIRKuhf5uAgQbcbeTlzBNCzVSdIN0LLgieM93f4i6H2K8GWKkGaDBFDFf1tP1vfNF3wIIQcxCZngIK/c+h+63/gh1+hgwds5o7W7fDXzl/5BOhk4Jiu2IsMywb98+SbVTC+G9994TBUVpd2wd3FUTHGzYsEHaG//0T/9Usgf8u06Y9u3zaK8JHD/cyiC8BHxyzAgmpVOzAISWeFLDAmrMJNCwyhgM6RVroe77EvS9X4TKzE1amuNi5wbLLAQIv/rVr3Dy5MmWCJZZnI0MsZJ73bhxo9z79773PSFrXqqD4eInTgO0gSZAeHuPuF1SYVIAwo23YezBJ1G84TZ48bRkEEhs7BQg2MpCogVEWRYQOHLJDMJUgGA6ctjBkC8FKFYDNASAmfhGACF6e14tEYgAwtUyE5+TccwFIMQcSJtjX84GpZfbu+yZGvflFWspJC2NHFO/EwAgROBrjDYDDDZD1APjNTgdQDC7RJNBMABhGANvPiscBIfp+QmAcAfwle8D2+8CWMOew0EgMD4+LsCAYkEkLQ4ODmJsbExIi1wEe3p6sHr1apEbZgZh9+7d4s0w10NT2Oj4Iah9r0C//RLUqY9JnwcylwcQKDaEZaug7v8KcP+XgMsACIxxoVAQDgIJi1RRHBoakpgwm5BMJkXvgORElhfIv7jzzjtn96S4KDga+HA/9G9/KFoIqt4ASFy0FMo37cbwg0+idP1O+LEUVGg4CJ0ChJhSiNkW4paC3ZF41cUAoVAJMF4IUKr50iDS1gDhbUR2z3N90qPPL0QEIoCwEFGNzjljBDoFCOwRp24Q7Z77sjbSKRuObbVSuZPlhakXOg8gOIDbYq1LqlkrjDZ8nK37HQMEkhSTw6Po3fc8et/6I5KnjgAjZ4x74PY7gMf/DHrH3VAdtjieN1aWPcplHD9+XMoMFEyioiIlmMnSZ+aA9fabbrpJgAL/rlOHw/OuQzOiwweBfS8B+1+DPnuKWsezZxDa8ssNmjTZIAdBDr8ONbDCWDs/+HUg13NZT3sbJJCPcfDgQYnBiRMnBCCxjXPTpk2ieUAfCmYOeP9zyZyYQWngg3eAp/7TcBCYTQl8cbUs3HIXhh/5DkqbtiO0XfaUtkiK09zOBSUG21JIWJZ0LwgXtgPthDaTkx9lGcH3NfIVH2P5AOUatTkigHBZD1L0pQWNQAQQFjS80ckvjMCFAKHmsSwQSk1XXumyg7fAEgN5hpRZ7sm66EpbiDElwG47sVS4GCSQo2BZJI4pZG01kUGQ+rBSGG9onGt4qHqBEOKYzjXXNJ0D8me+8EMIsz2IKyRGx9HzzivoeZttju/DGjphugy27gS+9G1gx73QmVyHi8TFzwOzCZQe5uJ46tQp8WNg3Z27Z6bXaVrU2QI0/bOmG3Wog28Be/4IHHoLGB4SDoXpYmhzEEQY4vwTtAFCU0HXFLTPVkAgrOVhUTXy/q8Cj33LdDFMPx0dPfzMGJw7d064CFSYZPmFEssERdQ/YCZlrsfEk8FS0Lv7oH/1b1AHXpPSkA5pVOVgfMf9OPfod1HZdLNRnvAIENSMGQQyU+RQFqgZSe6BkGE7yh5M3oFwEJQFPwwxVgwwkveEf9B+9ttzzQwCVT+Tro2VXRZW9MTQkyRInms0os9HEbj8CEQA4fJjF33zMiIwXQbBsVpdBa3zcUH3SdiyFDIJC91ZW7QQEnFb1jEa8E13SC+9CpG0LeScSYDAz/IVXGwagFBpUl7YKOq0BZMIEtprpAEIrrQ5uoUiuj54C33vvIT0h2/BOfMR8xFQ120DHvgqcOt9wNLl0LYzJz2AC8fPhZFWz1wwSUKk7HLb5vlKAAKqVWPW9MozwLH3aaFoxp+IGTdHISlOUzyfAhAotaw9C4rKjtRBIDHx3kehv/RdqJUbO/VomvFpIUhq3z/nnvfPMkvb5rlThcOLLuA1gHdeNW2O7+4VXQwwWxBPCEAYfPR7KG24DirArACBz4sATSg4imUs6h/wGe3QwKE1uPYz1vQ1xoo+RvM+6uwQIfdgCkgjHcUXHk4EEC7jNRN9ZZ4iEAGEeQpkdJrOItBZiUEba2cLSMcsKTN0t2yfZwUI0Eg66iKAwCWw6AFjXohS07Q6yoZQlGumLJDMDugQoeNCuwpuuYrcyQ+R2/8KcvtfgHvykCkxrN8K7HoQeue9UOs2A4nOWx07i9Q8fao4Bv3ib4EXfgt15qRoQ8gRt6ATIVScW9pJcuTEVQUg0JzJankx2NAsTVCdkNmHOx+GfuQ7UBu3QGpBV9khegelUeCtl4BnfwJ1iEqKNlWZxI9h9LYvYPAL30Jl3XpYXKBZimmRWme6FZ6SjwcBgggkSWvqbP6dk2czIkmmQ4dZg5FCICqKTSo5Tslo8RvCQWAnTwQQrrIn6/M1nAggfL7m+1O/2wsBQrWppZRgSgxcqAzPIOBeTQEJujqmjRZCJs0Mgr5EBoHpWyO1nGMXw6T3j9x3LQAKnkaxGaAS+KLM2FZUlAyCgQymPY5mTRZgez6SI2eRffdV9L3+a8Q/OmAY7yvWAzfuFKEkfcsuqMto91v4ydDA0Bngdz8CXvgNMD4CJHPGWKktkkQtBCoUters54+JesA2UOeKZQPNALqSh6I0MnUg7vsKsPVWw0PoqA6/KHds5pHZA+pWvPki8NqzwImPZE5Vqgte/0oM3/YFjN79FdRWLIfVDGGRzCkAYeZWBAIEqmyyhZZZKpYYCBA60T/gQ9PuzmCbLXkHI6UAhRJdHE1pjMRZ8/8A4IemzJZ0FVZ1u1jR40QlhoV/fKIrXBCBCCBEj8SiRoCLcr4W4HTex8fjTVQagEMmONleTOGGygjStdq9XJuEewcD9GTIssXPKP4aWeLzd2/t2jP3s2kLiLV4COxs4NEMNWrNAONegIIPeNJWaHrTZX2bSmsQNUPzEysXkTv4Ovpf+AmSH+wxkr3dA9Cr1kNRSfGex4x40FVztG6EhLyTR4Cnfwi8+jugXIbmYm65UAyS2D23FsQZ1kXtA4pERQIFCizVKiJDrdZuFqMqdevd0GvWTxhNMQSSiG+pQS52SCamsFwCDr5uMgjvvgkMnxWFIp3tQ23VDRjbeR/GbnsQtf4+2M0AyvPM0zRDQsA8bqb7hW2NScdG3CaPZbb2RhORCWlvDTSaIYrsYCixgyFEk6gZlggoteApwsCCr32kYzZW9zpY1RVDd8oy/59ERxSBRYpABBAWKdDRZUwExEOnHuBsIcAn402RmOVhUrVawAJfwKEO4RMshBrJhIWBHgf9ORf2JSSX24sDN8QUTIrbQNLhi7fdp67R9H2MNEKMekA9DMUYp23rdF6t36AUaNeFCprIfvAOlv7+v5B9b48hQTguFE2LuEA++gTUhhuEwHa1HFK3z48B7+0FXvq1LJK6Xgcy3VBEXXYAJEO2erRXpemHThBFH6OmAzSoW900UoC5LmDzNuCuR4wmRCx5xVyE+YsdMyfngJeeBva9CH3qOEAXSqXh969G+cbdyO+4D/kbtqOZycGiLgSdKmW1nx4kECBwem202htthdhEeaGzRZsOpXz+a/UQ+bInGgiVpgG8fA4JQEQVlBk0zVJQgFzSwepuByu6HOHjXCWJmvmbquhMV3UEIoBwVU/PZ3Nwnq8xUvExVAyRr7HtkICA4ECjK25JWpW7+3xNoVQPEHMUlva4Ipokkst+KF0JMx1cHGWD7ChkHDLNW5/lizcMMVwPMdQIUCMhrgUQZjqdjsURUsL5+EcY+ONP0X3gVVilMSgK7rDt8sYdUI88AX3T7VDZrqsHJNB86KP3xMkR7+4Bzp02boyJJLRLYKChmD2gfWA7ezJtQDU07S/rFlTdgaYKJdtI2AlBRUVqIfCne+CqeFgle8EV99gHwO9+COyjgmKJxhbQOkB97Y0Yv+urGN92Fxr9KxDQKCsIoNoOTJcACHyMYpaFuJSvlDw7cznaAKFUCYSgSB8GL4Q878mYjSDUaIRanm9mChKuQm/SxkDGRleKng9zu95cxhZ9NorAdBGIAEL0XCx6BLiA18kFqDOb4KHsacleU7q2P2UhE7dQ9UKcyYcYLpGNoEVueaA7hphrWiHJJp/pdcl3PDOxVLpjNwNJZe2D32UGYbDho0YOQqt7oZ0qnvrO525PXB1theTIMHr3vYied15A4uMPoMYGzY5zzUZg5wPAbfcBm7bMyZdhQQNfzAOvPwe8/LSRVw6E1QFF58G4Dx3TUI422YBWR8e042mXxetGDwGBBQQedK0AZLNQtz8AfOGrwKabWvf+KS9inLQCbZ5fBp77BXD43ZaJkpZOk8KW2zHyyJ+iuOVWBG4CNrUROnBZEo8nSyFO/QNbiSbHXA+aOxFrFUoehsZ95Cts5dXoz7joS5vsQNlj5oxS4UAubqEraSMTs8QYao54ZK7Diz4fReCiCEQAIXooPpUIcKEmKKAEMlncXqgkg5CLWbJTKjUCAQin8x7qXoiuLAGCi1S8VfflqGeqmzNNK3oIQFdLzGbqTeb9ECN1jYoXSCuZ6PC3TZLOAxOAtl2EJL/X68h+/BG633keXW8+D5eiSdTgz/VCrVwPfceDQtpTPXNXO5yfCZiy9a3XgE+OAi88BbzxPDA+BtBvwGJpgXbHnmlvZC1mIn0ww8LeRk71VjcDAQK9E+pFaNtGuGYzwtvvg7XrC7BXbzCAY7Zzzs8NX3AWcy+a9tbvvwn92nNQB14HRoaElEmgF2R7ML7tHgw/+C2U1l8nug42HTPbty5EzYsfKvkbJluEe0CAQIGkFldmDvfiOOxgAEYLHs6ONsXqORlXUkJY2e3Kc19niy0TPDa7cdhKSRJvSyNkZorEHEYRfTSKQOcRiABC57GKPrkAEZBdunC3SQAz72ruzBteiKFSgI/HfCE1phIKAz0xZJPU6Detesa74OKFTQST2KtOwSTqIbRJiK3xV0mUbIYoeSGq4oHAf5gUSpp6m6KMz0uwN7+clxJD7x9+hBRNgESpkamKFPS2O4BHn4C+YRtUPMmlavFe53Kp1sLG1sRTx4B3XgPe/KPRPiBvIJmTBV3ZGjoVmPLCpTIHF861zwyCBXjMIJCX4EuZwY8lEG7YAuvuR2Hvug/I5UxcFuloL+fyFJAbcvoE9Au/giI5cfgc0KQjZogw24va+puQv/V+jG27B/X+JSzxw/bYotE6pu3kaIt3GYBA0iBVFNs9N53epggkWRb8IBRxpDOjHsrVENmkhXV9Ntb1Okiw9bTlvc37mUMHZafDiD4XRWBOEYgAwpzCFX14sSIQhgHGyyGOjnoCFBxXYUnOQU/OQSLGxdwWg6NLAQR28jGLwBe67UwK0bCTouKHGGv4KPgaTSGGsWVtGkXB1tobxOOyIGaPvoeBP/wcuXdfhV3Jt0h7QLhiLYJbHwB23Q9n801QrruIEGEyE6BLeeDN56FeeBr6+IfiuyACQU4MgpRc8hCYL5+Ne3DhBp2dDAq6ASh2NJAHwkxCswq/pw/Wzvth3fsY1LrrgXRayHhXJPA0hwdNQAJR3tBpKHYsvPQ09NGDAmIUOzn8OhqrNhnuwa0PoLZ0DbTrCNBR5FKchwinyaSI9TVkh592beEhsMBFINrJMZmUUtJFM1rwMSQKikBXSmFDn4s1vS7iIidhzUiU7ORa0WeiCMxnBCKAMJ/RjM41hwhcuMM2GghTtnPidndspImP84GQEvuzDvq7bGl75OIzE0Bon5nv9ThCSQubbgZzdh0G0vI4Umc3QyjEMGYc+M8XbiKJGUKqN8Zikj6PD59D74HX0PPOS0geexcojUjrWxjPIFi6EmrHvVD3PAJ7xZo5uzzOIXgXLGpyV9DlPNTh/cDLv4He+wpUqQykctCxGBRvxA2h4/QioFHV3Hb51ISgwiTIRaDDI3URpNRQIXMPWLVRjKv0trtMR0d8EbsawhDh+BDUwbeBfS9DHdoHjA/Lok6JZO1YKG/ZhaGHyT3YhdCNw6JOAo8LdQ+myyIoDepk0pyJWSnX6cxZtD1JposmhOcr0T9giSFfDRAGCj0ZC+t6Xazsci8ho7yI2ajLfgijL34WIxABhM/irF7j99SqJosE7fHRJk6MBUJq7E4p4SF05xwRV6LAzHQZhIn9NDsjQPtnC+kYOQ7tboYQQagw7JmWR7o7tksCFxLBxBtC5PMsU8MPAsRHzqDvwCvo2/M0YicOiTlE2FbpW70R6rYHYG27HeBCKWS2hSXuCWWzOAz97j4ocg4+eBt6fJSiwEAiI+ZEsD0RR9KJwICDqdrSnTwvbTanR4DQ0kWgZDVLDWEDsGPQK1dDsdRC+WmqSyZTnZz5yj5DwurgIPDhPqi9LwFHDwCFcdDmWmkfOp5CfcVG5Hc8iNHdD6OyYjWsIIRDZ0fyCC6cmlZ763mDYsusshF3KEBp2mYnkwezL96me0Gj3tAYL/niwVDzQiQcG0u7HKzMOeglSbHFF13gx+XK4h19+3MVgQggfK6m+9q6WS/QIqh0csxDvsZMgMKSHhd9WUcclo0SIpUXL81FSNtsd4S0prUPlurzTPfWA5QDMiAmBW/aqXHRErhgo+0n4lBBiNzx9zHw2m+Q3f8KnJEzVF2CbAFTOWD5OoAA4da7geVrAOoltJHHlQgITWgaTdHtr7EVZBD6o4NQb7wAfeANqGIRiNPOuSX/zG4FOzSlBdE9mEk5cZbno5Vql06GZiuTwNA3m9D1MhRbTFZvNk6XN90BrNkE5DLQ1pX5VEyM6sK1mGTM0RHoQ28DB/ZAHX5b/mxSByz6A81la1HYcT/Gtz+A0uqNCJJJWD6FkagAdb7/wUV3T/MmMQADkrbhHvAZmoGqMEPwjIyyVqFwDkYKPkaLnriL9qRJTnQwkHWRjl01YpTX1ksiGu2CRiACCAsa3ujkVxIBlpVHqiFOj1MzwUMYanR32ejvcpBiH1jrmKkUHLR0DhLQyDhaUsR00mvv0CpeiHwjRNHXIprEz7dJkjz1VICgiCi49MTj0BRzqpSQPbIffXufQ/adl6DGhqHYEunEYfEzJMFtvgW46TaoG28FuvrNjrU15gkS4+wbUPnGFJbBZINnowYcOwwc2gt8sBc4/hEwPgooB0ilzcJssawQQrmk4VPtZx6yGQy4r6EbNhRLDR7lARvQQU10FtSSFdDX3QR1027ghm1A/7ILrmsoqbOO5FKxYffB0UPQh/ZDvb8H+pNjBhj5dYP0LAthbglKN96G4bseR3nTLQioAREEpnmjrXtwiQfUNLhouFJasAWgsnthGueKS51FWhTJ68wXfQzmfYyVfQEazB6sob5H1hbVz+iIInC1RSACCFfbjETjOW/hr3oaQwUPn4x7KDZCpBI2+rspHOPCbQnHEDhMd7TXFxfhBFmRQkvtg7pB5UaI8SAQkNAMA1m2ziPXXVCjNvoL7Km3EKsUkTm8D72vPYPskQOwaIwUBpLVYFpfdy+B2nILcMtuYO1mINcLncoCSdbnZ9ZxuPheTIZECiGeD4vCP5UicOYT4MO3Eb7/JqyPj0DXfemoULy2OBNrIMamepITJx0s5+MRY9ZGsdxQJ0Cg/rUFHfhQXs0AsJ4BYMNW4JZd0BtvgMr1GfJiMtUqcXRSebkAIXDXXysDpQLCMydgffA2cOgA9JljULUytGlHkZZVP9eP2sZtyG+7D/mtu9DoGxA+gtVodEyebGMIihalpb3Rls6C2bmJk+M23QusxIQYLQQYGg9QqASIxxVW5Wys63fRnbInxbzmY3Kic0QRmKcIRABhngIZnWZ+I2Asfkk0DzFWJlnRx2ApgGvb6MlZ6OtykRbpWZIVuTBMt900gko2NFxLI2VbSIngjJHU5b82A2C0GWDEC0SPgcd5e1vq70/BH+1ShI7HRGExVhhH9+F96N77PNIHX4MzNghtx40UM+sguW5gyVJgxTpg9XXA6g3Qq9ZC9SyRnX7HFQdeuFkHzp4GPj4MnDgCnD4CDJ4Bxs4CNZIPbWg3AcWit6VFMVHRjMlp9czNvrLNbRK5wybXr25DBSTuGU8DBHXATgCZNHTfANSKDYbEuHYD9Iq1UL19HYkqTc5oCNBbgZoGbOE8fgj4+Cgw+AlQyBtjJipHsmOB2gxd/ahs3Ibx7fegdP2tqPctRWhxjB5sn3wRw0adVRlbnD21dC8wgyDeCx1VZ1rPEb0fyJGgEKV0LwQYLnog/YHP7ro+F2t7YkhStOq8zM6FhN25TUv06SgC8xWBCCDMVySj8yxQBEKUagGODXvSzUBxpb6sLd4MXRm6O9qihyBkwhmS1kbGmbtAINcGCK3R8t/Gm1paHqmPYISTTLr3Iivo1neEt2g7oitAdn+iOIbcob3o2fMMEsfeQ7xUAQJK+wLKb5qFu6vfOECu3QisXg30LgeYTXDj0NRNYJeE7ZpbYEaE98Q2ToICvw7FejsXw3OfGAOmkx8Bo2ekz19KCU5SSJTa0uJqrEVKuQUOFip7zZD7LPTTPZFZBI6dv5rxy8LNNsJ0Fli5XlQn9cpVQN9SKJpGUbzJjRnzJ9tplSEsIPSNpgHvnT/VIpAfBoaGgNMngROHpaURlLuWhdWw+3QsAa9vKaprb0Rxy+0CDmr9y6AtC07TQ4iws+wB51faNPncGO4BVT4d6fzosCY04S/C7EGAUkVjtNhEsaYRBlr4B2v6HKzscuBG5YUFendEp73SCEQA4UojGH1/gSNgZJk/HvdwctRHqaGRiWss7Y2JBTTTv63M8oyp37ZwEn0ZKJw09X1MYMHNd6FBh8cQ1TYXgSUALhIzdAMKW4E7xJgjC6NbHEX62CFkD72BrkP7ER88AVQLIHdB0z3RiQOplOyqkUpKGyAZ9irTZfgJ3f3QyYzp9GR/vteErlWgiuPQpVEo6hswvV6tGbXAcgXwm4Yn4bjQ1DmwuCtmw36rtAAmDVIAACAASURBVCBSytP0bs7njHG9DJThJPgayqO+gILmPQRN0WGQOKUzUCytJBPCU0C2GzrbC3T1AuluEZcSbQKCjKBh7q80DhT5MwLUSgDNpmo16GrF/J5lDrYxUkY6lUJj1WaUr78Vxet3obp6PRq5PmjLhhVyLL5xmZyFgzEBNFsq1AQHbJGlmuFcxa9senVojUrNeC+QnEgfEqqBLs25WNHtoDc5aSY2n9MSnSuKwHxEIAII8xHF6BwLGgE/1DhX9PHJmI+Rsi+dg/1dMSzpdhCPmRc3N60zZdBNuUKJhj6Fk+jCN9X3hu2S9H5gqSHvmywCdRHo3McywqUOzQwGMwTsj6/WkTz1EbrffxOZowfgDp6EWyoKa95YWXtQoSf6ATr0oewYkM4A3X0GJAhA4GIbmN03swalAlAcFc6BDjxjq0yNASeOkDVxAhWqIxIccKwOd9Kh8BQNOFjQqWmpKjNjQOIiMwnkJDALwGuTl8BfAyBsQrHbgYs/J4ogIZ0DsuQmdAGJBOC65nt+A6iWAfpJ8IcZBMaNO3gnAe0mJ7M7bHdNpNFYvgql63ejtHknyquvg5dOim6D3WyY50O4I8YxcbZDnqOWtDJbEck/4PNAh9FOW1aJQ9rgtVD2MDhOkBDAUiEGcg5W98bFf4FGTfPBG53tnqJ/jyJwORGIAMLlRC36zqJFoF3zL9RCnCv4OF3wRB8hk7Ix0G2JaBLdi9k2Nj1X8XzCWFyZ/nO2Pk5I8IdUUwRGGwFGmyGa3HG22h4vVaee2G1aBAlcjS3YXgOxsSGkTn2E3JEDSH10AImzx2Gx8NyytBaBIabRJTtuS2pcSgzMAsh1Q0nRK7r2iBJgA5p2xLxBtlLyc8xIMBXC1cXV0A5BAVMelIWep26FTme5FSyxROYAPAvaaysuGq4H6/9yD4HXyt+TL0Hp5zh0zDbAR1pWqWoZGhDFz5OYyO9IOodeEsyWsDuD3zdE0OKmrRjfvB3VVTeg0bcMIbsV2CfBdkaCLZno1mx3ABDMp2k7zvZGB3F5VnjGKee5RGwIRgnWhEMTACMlH0MjHsbLARIxjTV9cWzojyObaNk8dxrn6HNRBBY5AhFAWOSAR5ebewS4ozMW0QFOjDbFKtq2bfTn+BNDKsm2OVtqu5c6uP+j9XPG1shyVzjlw1x7i16AfIMdDSE8IZcp2TmadYF/nj5FLb3y3ETbFgI3LgTBWLmM7EcH0ffmb5F9/wXYhSJ0IgOl4q3ddet8rI/wZ8JuuLXI81YozMRdM0mHMg5tSI0CLIyXgua6ymwBfwgMPs2jjbh4O57hJShyFNrchAkBAUPcoy2zdH1MrRHJAm5uUiuKB9nyq0wBOYMW5ZF9uhkhoL/Cupsxvv1e5Dffhlp3l/grWH4Ii6Cig/W8PacynpZ8Mm+DvABmnCirbMoLnR8cJ0ECgR7llFlaGCr4qNcDZBI21vc5WLckjkRk39x5UKNPfioRiADCpxL26KJzjQBf4OV6iBNjPk6NN1HzgO6UhaV9LnqyTLVb8MO2rv70r/MgpDMeeQgA+QjsaZ88QniBMXAabWr51RdyIxfnFvCQ1Xl6EMJ0NuWgtUP3R9MpkTr3Cfpe/xH69v4czvgQEO8FkJKMu2LVIeRuuUVIlHq6ISiS+GgWRJOVoIqjlBC4h+UiaZN30O5OaIGGNtrpjGY/1/B3/nmDYwzRU8iKLJkA2regyFXg0eoOIG/BACOSTBlaE1sDglr33rZVllWX9xpAoQ6diaM5sAGlzXdh5JYvoLxyA/yYgt0IYfk+rBbZtB3LmW6gXZZqm1ZyTviMJCjPbVstYmLnt89PUmmR52s0A4yXzE+pznsL0Zu2xXdhRc6VzFd0RBG4miMQAYSreXaisZ0XgYavcbYQ4ORoE6PVUKRvB3pdMXGKcRFtJYFn4iJwvWKWP0HBQ9tC3KLK3SRI4I6PrY6UX2ZnQ0MWGZM9mIncNpFVaHMghFCvECZiiI2OYMneH2DJnh/BGTsDJCiWlDS1ei6abVFDYeFPMUmWRAAXQ2MeJUOUhb+VKefCwnICf67yQ+ITWOCmXxEstIcsIKH150u0X5oYtACToCYGrwKdSaO68mbkt9yP8evvRm3JSplc0TmQWkfr/LOVFKiWKM2wphRCoOmSr+JYiAv3gH/fkfjBxEwQ0/A2K7UQg+MeRouB/Dkb11je5QhBsTsZaR9c5Y9uNDx57ZhCanREEbjqI8AMwHg1xJl8gLOFJpq+Ri7jSDdDLm2LYl2773zmmzGLbtwiSDCW0FNLDbxGydNi4lT1fdFJMHK7baH8889s6u7tXa/5DTMJYSyG2Pg5LNnzYwy88d9w8oPQyV4oO9nyt57hfztp0m8BAgEGF9xJOwXPboVWKr4D5Z5FnduLSjHyimn5P0zVKZbsSdtBawb+nwCEtssmsxJNIKhCJ7KorrkZ4zd8Afnr70a1b5ks5hY9GJiFaS35ndQG2jiQlA4qHFIQyahutsY0xzcky1LU72DmYDDvya8Es8u6bKzvddCTseGyrTM6oghc5RGIAMJVPkHR8CYjIIY3nsZIWeNkvomxooeY66Anq9DXFUMqYZjqXOQvdUjbo6WQUgppi1K6tHo2K7FYC1CXxwsw0gxQaUr3PGwKDxEMzGaCKAugBR134BRG0ff6f2Pp6z+Amx8E0r0iZNTmLMyoujPFSOkSVY3PxKMhYGKGO5GEiZQW2vIDLFc0Ab8GHUuhsnoH8lsfQuG621HpWynAjyRRKVW0Nv0ddQhIFoGcTy2aBySxMovAc3TSt9BO7EzYbYQatYbGaInCSE35fSYOrO2NCf/AyITPhdXwmZjq6CauwQhEAOEanLTP85D5MqY88vERD6fH2VcOZNOWtDx2ZRwh9hMAtLbh04aq/UJ3oZBQWjT2qZZnDkOga4QKI00P+WYIljYEGHS6WmsLQTIGpzSO/td+iOWv/Qccqh0mWwqCUdJubo/w1FWeAKFRRphIo7buNozd9CgK1+1EvXu5KcfMESCYMo8BA2x/JTFRHBtbAKGzqTLPG7NM7F5oNIB82cdogbodvoh59aYVVvW44tw4+azNLQzRp6MILHYEIoCw2BGPrneZEZhsV2Rp4UwxwMdjHsaoa28rLOm20ZszugjCgBe5w+kvNbHjCzT48Yxr+tGnHgQZJV+j4IXS3dCgnHMH8rxmR0yAEIdbKqD/9f/Cslf/E87oaeh0H5Sb6kTM/zJj9Nn62oWlCpZuRJmyURKAUNmwC/mbH8f4pp2ody2RUtFcAQKzTexRkNICeQfStTCRsug4oG3PBSKNcjUw3IOSL46jXQmFFT02BnIxdCeMVXl0RBG4FiIQAYRrYZaiMU5EQAjyITBWDXCm4ONs3kfTD5HL2IaLkLLhOAQILZBwidhRopnyuRmXMswURjr/YNdkNQgxWAtQaAbk2s9qqmP4cQpeKo5YqYj+136AZa/9O9yRs0CKGQRyED7ldsRr+Xli+2KjiDCZQ3nTncjf9EXkN96KJs2gLgMgsDWWzwDBQUK6Fi4j9U/uQ4tMStmFfMnD0JiPsYoP4s7lPTY29NnoSbtw2LIaHVEErpEIRADhGpmoaJiTEZASALkIlQDHx5oYLWm4jkZfzsWSLguphOkKCIKWtfMMeeJ2jTtukawI8GvntaYbV2OcqXkYrrcAwoUkhAtY8pQnCJSFIOXCKVfQ//qPsOKV/4Qz8gl0shsqAgiX/yhzm0556XoBSPcgf909yN/yJZTX3oRmulvULK2mZ3QTJYs0s7t1m5tNtUzXYseCQlyUKecuPtnOHjBbUK6Re+BjvBig5mmkHI21fQ429LtIxtiREgGEy38Aom8udgQigLDYEY+uNy8R4OJeqgc4Mebh1JiHuq/RlXQw0OOiO8uOBqM/xONSdWTTocBFQiMtO8nJTAKvwfOeq3vS9hjoEPYsAIHXI0AIM+Qg1LHkjZ9g+Uv/AXf4JJDIiTlRdFxmBLi5Z4mhXkSY6UXhhgcwvu1LKK26EUEiJaZMVE7sBCC0/TliME6NtA6fEMWa4/CkwUUp1BohRvKUVG6i1tRgo0JvysZK4R7Y0oobHVEErqUIRADhWpqtaKznRYDOjkNlH6dGPQyXuTBo9GQd9Hc5yKZogmMhZMvbjE0Nho3QasITxz62PiYsY+hE2kHeDzBcZ8tj2DFACJlBIEAoN7DkjZ+ZDMLgcSCeNhLJl5HFjqa+RfwnQKjlEWT7kb/5UYxt+yoqyzdBx1zT2igtjpfOIExkDxTFkMg9sKW0cClH0Jni326yYDmqWPExPB5glM+ipmOjhdU91OmwkXMVaN4UHVEErqUIRADhWpqtaKwXRaDaCHG24OHjMR/5Woh4TGFJl4O+LgfJOLX96fbYWSM7X/YkqdHQiaWGptbSxVDwAtTFcMkoJJ53XCjEQ4lmZQtAsCsN9O/9JVa88gO4Q8cAx20BhOkEDqLJ7SQCml0KtTEEuSUY2/EVjN/6NVQHNiIUaeaWnhSJoiK7MLPAlRATOd/kHji2MWPq8Dlpj3OytADwORwrUfMgRLkWiETzSnIPBmIiinQ51IZO4hF9JorAQkYgAggLGd3o3AscAePiOFoOcXy0ibMFX1ocezKOaXtMO2JlIA0Ns2CE9j8zc8BMggMFL9Sosq7shfBoA00DpfMAwsXSy2K0pBx46RjcWgP9bz+NFa//EO6Zw8ZbwXYnBY4WIjqtFg3zS5uNvxAXmuacU/UbZD8/36kSBe3VoWrj8Lv6ML7jaxjd+XXUl6wHszYCEOjv0PJt4AjbWQFjZWFICeQdUEGTYkhsazRdC7OTWi+8YyWZJo1Gk+AgxEjBQ6VOuW8L3UkLq3sdySBEbY2L9PxFl5n3CEQAYd5DGp1wsSNQbmicLjRxatwXzXu+kPuylrQ9JuO2gAQuAJ3uEGW5aLVKBhRnCo0EM22nufxM6PdPax9MNGKjSYBQb6L/wHNY/sbPEDv9gXFwFNfCtuPSPEdKzI9aIMYUxiflmef5UhedWMytWjCrZVY0/7UUC/BqQG0cQXc/xrYTIPwJakvWmI5W0UW+uEOESZ723xIcUHGTmSKSU9sCWSZWnWWa2qHkd+ndUKqGGMp7ItxFA86ulIPlOQfLuh30JNk2Oe/Bj04YRWBRIhABhEUJc3SRhYwAX8qFmofTYx7OFALUfIV0HOjvcgUkJFxaQfOnswWg/TnJFmiSE7VkE2gDTZVFAg2j8DeT0IIlACFW99Fz8CUs3fsLJE6/B8urmjCIAdT87a4n9JsCH5r20Gy5s2nwxDzI/F3nUnOog8C4LMr2nZmS+b1Hc21aSdcBlhi6l2Bk5zcxctsTqPevgqKvsrQgnD8nE38kbqOUMsWxqHvRklKmSNJU9edOnlNj52wEuer07Sj6oppYrvlwHBvLcg7W9rroTVmICR5cnDnoZOzRZ6IIzCUCEUCYS7Siz161EfADH8MlLUZOQyUjj9ydsdDf7SCXbJHQZL2fFFya/mZaxMUL6tdcDBoBBZMggIGktDYZ7qLzaAteKga74aPv0KtY8tZvkPx4P+xG0Yg5W+78AYTWzl0xYxBPmgyFMP2r0NqHshzD7p93oMDajVhSTtRwBKiwhDIpSjnPz8skQPC7lmJ41xMY2f0kGr3LYXm0d744ezA1ocCdPDMH5BzEWr4dl5PlaLs1slMhX/YwXgjEaZT0SJYWVnTbWN4VQ5aGH9ERReAajkAEEK7hyYuGPjUCIeoNLeJJp/OBmDpZlkZPjmZOLrJJC5bNrgZjLdzJId0NsvM0oIH2z16g0QxCeAISLuQkmKQC6+F+0gCEJUdex8Dbv0Py+D5JjcsWW8oMV7B40Pa4JcgkN+PVoeNJqDU3AktWA4UR6JPvQ5WGW3bRMUjPHcsmF/EoOonExZ/RyoIKA2i/Lue04ikg0wMdj0Exk1ErQzWa5nqmxjMPxxSA0L0Uw7ufxPDtT8DrWwHVbBrAdgH+Y6uruGPQxdOxWxbOxqBL7Lk7fRimjJ4Agc9RsRpgrGCyB1T37CI46DJtjbkESwvzdd/zELroFFEELiMCEUC4jKBFX7k6IyBOjHWI0+Op8UB08OMxG/1ZC33dMaTi3EmTbHj5KV9fLKFp6BROcBLa0WgvNlx+mskYYp6PvqN7MfDO00geexsoj5gdtx2bxwxCCFRL0OkssP0hhDfcCVUvwfpgD/QnB6GKo4BP7gPT/gQKbR2Gy1FzbMkISdbAB5p1IAyAVBew4jpgyRrjY01r69FBoFIwvaLO/DkXtrsYvO6lGNn9HQzvehLNnqUikKQscjCME6aR2jbzzAVdxLBowtTSLJgbLmhRPqmYaBl9jRoFkcpNEUSq1AHXBpaKW6OFPnqCRIqJV+dLIhrVnCIQAYQ5hSv68NUeAa5HQyUPx0d9DBd9KTXkUmx9dMUSOu5yD28yCZeTXub987v1EJJN8DTLGVMIenJWG37ClbR37/H9GHj390ge2ws7f06IitqJQV1JBuG8xAkBwjjCZAaNWx5B4/avwu1ZiuTQUVgfvgQc2gMMfWwWajdpfrhgy+J5GSCB3wub0I0KFLMHyRzUmq3ALQ8By9YhGD4FvPc61JkPoRplsV6ed4BQHYXXuwyDd34Xo7u/C6+7D1bNAxQ7CIyplvQy8NIEB9Q6sC1RTGx7bl0OQBBaBcWzmlp4B8MFD+W6cYHsawkirchZiBODCe8gyiBc7e+LaHyXjkAEEKIn5DMVAb74S80QZ/LUR2ig1CChEJLy7ctZyGVcUc3jDjO8gkwC8UVDuhsCkWMmL0G66GQFsgxAaAbIffIe+t99Dtmjb8AZPwVFLwHqIcyX5C4HUi8gcBMYX7sLpZ1fQfqmu9BHoagTe4H9f4Q69o6UHVCrinZ0aDGhEDeljna3w0xPAW+K1yAoCH0ozS8rCDU/lQaWboC+7k7oHQ9JJqF24BX4L/0C8XNHELd9Oati9mKeDskgECD0rca5e/5UsgjNbAZulUJZdE40WQPOrwNLHBqTbjtzYHVMVD1/uPRrsKFVCM9XyFeaGC0EKJRMFqknbWNVt41l5B0kjC9DdEQR+CxEIAIIn4VZjO7hvAjwpV1pagwWfJzK+yhQuMZW6M5Z6Mu6yJCP0FJZnHvomH+wZIfKkoZ0NkgmwfxZiuDKRpiIQXkBcqcOoe/gH5A9/Drc0eNQQQNwE/MHELhNbpTgWTGc6dqEoevvQ/fux7B2/VrEGnng3HHg4w+AE+9BH9sPNfgJdFA1nhBuEtqOz8gRMGn6ECpoAvwhEZBrX3YAWLYBesNWkz1YcR38gVVolMoovfAT+C//HF2FM8hk0iZTMp8LJsdRHUezbw3O3ft9jO7+FpqZBNyKbzgRyhIVTGIY6hwQINCpcRI4zH3GOXzXseD57FhoYqQQolANQe2seExjac7F2h4X/SlbKjmz0WDnPoLoG1EEPp0IRADh04l7dNVFiMB4NcDJcR+DeR/VhkYsrkT2lsTFdILa+5Zk3i+HqNYevuluMKRFPwjNZlsp+IkYLD9E9vSH6Hn/JXQdfgUu0/4ECA67DeYr/cwdvi+ZjPcaCZxasgXL7vsabrnnQcQTcbP7L44AJw9Bf/gqcPIgVGHYdDo0fYAZDWnJ4G6/1cEhHZz8D5MhFpQdg445ULEEkO4ClqyDXrcNauMOYPk6hLEEqlqhePIwvD/8EM6+p5BrlJDJ9UKRHDm3fP6lnwwChFoJXv9anL33f2B497eMKFXZk64KemVIWUFKC9Zl7+bbKoztaeItlGv0WmhiOG8yR8m4g/6MJQBhWdZGKhZlDhbhf+voEosYgQggLGKwo0stbgSYSRgq+jhNkFDkIgpkkwp9XTEpN8TjtqyfXAyuZA2jLgKr3wQIXhCizsaCeBx2oJE+cwQ9h15G14cvITF4ROr28woQyMS3gGa1jjc+OYfDsV6s/eL3cMe3/gLprh7jNCGrWxEYO41w8CSsM8eA4Y+BoZMASYy1EuB70LopGIGtkYIOuLgz05AbAAZWASs2mC6J/tVA9zKgewCIxQUcnRrNY+y9vcju/SWWHd+DuF9DPN19Zd0a0z0uBDaNKryB9Thzz3cxtOubCFIGINg6bDkz2uBaLV0EE62tc3/2mDlgJYUgkuBgrOAhXw5RaQSgiiLJiGt6bAEIyRgZBxFAmHuUo29czRGIAMLVPDvR2K4oAlwX614oIOFUPsBoKQQr1bm0hSVdNroydPGzjOhNq53/Si5IoMAWyBppAXEX2g+RPncSPYdeRc+hPyBx9n2oZg2IpU1XwTwcmulzy0GzWsHejz7CwaaDnvu/hZ1P/E+s3HA9Ytz5t2WGCYS8GtTgaeizR6EGjwJj7DYYBxo1IGiIMqDs+rm4unEgmUHYvRLW8g3AquuBJSuARFpaBNtp+5oXYs++t3H0ld9j06k3cUdwFnHLA+zkZRNBpw0NJ5QdGX4T3vKNOHPntzG488sI2TFS8xAHywrUOCBx0IzvcoGf0Trg90ORTx4vBcI74O+ZecqmlLQ0ruqOIZeMoME8PMrRKa7CCEQA4SqclGhI8xMBkTvQkB3fuWKIM+MexmrUEAgFHPTnbHRlXcTY2UBFPdlsdyiSMMMQw0CjoTVqjiO98fGRT9BzeA963nsOqVP7oRpVIJ69YoBwnhGRayOoN3Dkk1N4txJgbO1t6LvvW7hx973YvG6NSAsbowIxO4TFbEE5D1UrQNcqZkxew6gUik6EBQlKzIWKZwD+pLugsz1iV32+1gAZ/WX84L9/iHd+9SPcGZ7Cd9Z3IZFxoNpVi/mYTpkXskED4Xl4yzfjzO4nMbT9UehUDMmaj4TSIoREkqBgosvc0BsTJmodAPWGj/Gyj3xJo1jT8P1ANDVWd9tY0eOgK2lHegfzMb/ROa7KCEQA4aqclmhQ8xkBkgfLDWCw2MTpfCjqd4qkxaSN3h4H3WkHsRjRATkJV1Zu4Lh9rdC0FZpeCHv8HDJH3kT3u88gfeItWM0qEMsATmz+avOUVfYDjJXLOFys4w/lNM4t34ZbH34cX3rwASzt7505nKKGaEATjY7ELplYghkE/jCbcInUeblSwXvvvY//+P/+ESde+BUe69X4850bkckmob3AtDnOx9F23KKfhe3CW3k9RnZ9E2O3PCwlhkQjRFyFwkGY+zFJK2TpoJ1wqTUCFCoh8sUminXT9ZJySUp0sKrbQm/GhiN6B5eJROY+0OgbUQQWNQIRQFjUcEcX+3QiYF7u7GY4VwxESKlQ08J0pzYCNRK6sraYPLUBgkkkXC4f3ULoaIS+hh4bRuyjN5E98Awyx9+AVWcGYZ4BAoeqAF9pnB6r4h/fHcIzlRS23PsI/vw7T+L2W7cjl8vNe+gbTQ/73tmP5595Gm/87mdIn/sAX1+dw9du3oBkJgPdbEJdYUZmYtBtEEMlJCeGYPUNKOz+Bso3PQg/FYPTIAfgMnQdjM2T8b6cEELSqNeBfCVAvuKjUvXRCBQyMWB5jkqJDnpSLXAQYYN5f66iE149EYgAwtUzF9FIFjACXAZo6lSqhzhX8HGu6CNfDaTOzJ0gPRuyKQuOY3aQBBRi3TzH3aGxGlay8WZjQDA2DOvIXqQP/A45AQiVhQEIoiXsYmysiv97z1H8v4cLiK+9AV/74mP44mMPY/st29Df3z8R4dkMhC4FjVjeqFar+PDwEfzyN7/Dy8/+FuGp93BHV4ivru/HbWuWwKVakNcSLpqPeRU9hlbNwk0hXLsV5V1fRXXrfQhSceg68dzlAIQWPBAHSnPXtG/Ol8g78FGsGkntmGNjeZYWzjb6RSnRWERHRxSBz3IEIoDwWZ7d6N4uigAzBPm6xlDBx9miJwsA3/NdNHbKuS3ioiEtSg7hcjLkAhAUtBciGB+ZAhD2wGK9f75LDByoNP47KJXq+I+DZ/D/vHMWH1YtrF63Fg899BAe/9Jj2HX7LvT19YkGxGwAYbrkiRGXCtFoNHDgwAE8/eyzeOq3z+L04YPYlvLxxA1L8PDqXqztTkI5tqH/z9chAIGtjApIdyNcfwvKO7+E6vV3I0jZ0LXLVIZsiR62nbGbTY1i1cd4iV4LPhqeRtJRUlZY0e1gScZCjLrK5umIQMJ8zW90nqsyAhFAuCqnJRrUQkWAr/QgCFGoQ7obzhZ9FCrMJLDcQM8G13ASXI6ARLW2jHLnu0VhvzMT4Yfwx8ZgHX0b2QO/QfbYHti1IhDPAVQyvKyU+PSRIa+QFs/1eoAXTxXxbwfP4XfHhjEWWNi0+Trce/c9uOOO3bjxxhuxYsUKLFu2DLEYJZ87uy8Cg5GREXz88cc4cuQI9u3bh5deeQ379x+A1Szjm+t78H/dtgY7lmWRsZmFMVbZ83Uwm6PY4sgWzFw/go07Udn2MCqbb4NHY6z6+XLXM13XkDvN3HKBF86C+CsY6+ZyLUC+bLgHFMAiOOjPmLICMwdxd/59MecrRtF5ogjMdwQigDDfEY3Odw1EIIQXWijVQtFHoOJivkayHjMJNvq6HPk15rLMYGSZ58JJmAoQvEIR1vH9yL7za+SOvDwFIFCwf/4WUHFqZM++DxwrNvDs8RH81weDeO1sCbbroq+3D+vXr8fNN9+M22+/Hdu3b8fGjRuRyWRkvjjmqWCh3c1BYFAqlTA8PIxDhw7hxRdfxKuvvorTp09jdGwUtWoNPXEb/2v7cvzPHWuwojcBRYlBii/N58HygQAEG+hdgWDj7ahsfxiV9bfAS7odA4QLh0SOYagVqnUfxbJGoUJ/hQAND4g7FpZmjTsjDb8SDgmQzIpcDhFyPoMRnSuKwOJEIAIIixPn6CpXYQQ8DUkjDxXDiUwCh9mVbZcbLMRdk473g84yCaZ3XksXAH/163XYH3+AzL5foOvgc7CoOZDoEib+fB+tTkaUA+CdwTL+cf85/PjDQdS4YAPiMLhq1SoBCVu2bMHq1auRzWaRSCSQTqflx3VdeJ6HguvbEgAAIABJREFUcrksP7VaTQBCPp/HRx99hLfeeguHDx9umV0BacfCdb1Z/K8dS/G9LUuRzsSgG5Q9nm+AEJhWTLpRDqyF3rwb5ZsfQHnNVvhxB1ajswyCAUFaBJBMNkmLymaBWYNygFItEH+FhKuwJO1gRY+NgYyDRMyAgqioMN9PbXS+qzkCEUC4mmcnGtuCR0A4CTWjuHi24KNA4qIFdKVs9PW48uukTkJLiriT1Hkrdc8FyDrzIbJv/Ay5d34DqzQOJFliaNsuz/Mtsn/fVTg7VsM/vDuMf3jnFEYqzYmLcIEkKGDmIB6Pw3Ec+TMJjAMDA0gmk0JAHBwclB/+PggCAQ0EC8ViUf4sIAgKG7vjeGhNL769pR/3rOpGLG7TC9u0TXZYvrhUBExJgNt8D/ApUx2DXnEdws13obL1HlRWXQ/PtWBTBLKDeeGQOC5j26xQEr6Bh0JVo1bXaPq+gIMBlhV6Y1hCcOB2VoaZ55mMThdF4FOPQAQQPvUpiAbwaUeAEskFEhdLPs7mA4xXQ2nPI3GxN+cil6KFr5IdOGvh7Zb8S+0n2xkEkh3V4DHk9vwY2beegkVfhGS3USnsYEGbc2yMSxEq5SZ+dSyPf/7gHPafLmOw7rf8FibK7+eBBvIRent7hZdAEuLY2BiazUlgwZI9Sf7tLIU4VyqFe1fk8GdbB/DIum6szCbFB2HesweydWcGoQ4dSyBYej0aW+5GfevdaCzfiNB1oDxmEC7dddJuY+Ryz6RKuRFgvMjMgYdSjaLUGkkXkjEgIbE/ayPBDNKcJyH6QhSBz0YEIoDw2ZjH6C6uKAJ0YlTCQxgqUivB7Cgpy0xTp56MLcTFVIIukGZhnAQJM1y4tXsmQLAGjyKz5yfITQUIFEpagEMkkG0F3wtxNN/AMyfH8ZMjQ3j1dAFewNKHYeDr8OIWxDYPwXAuppQIRIRRtcBBi8GvA3TFLDyxuQ//503LsGNpBnHaWC8E6OGAOV6vitBNorFsC2o33IP61ruAlRs6AgjtzAFP5XvakBGrAUqVALWGlrJCKgb0Z12s6CIh0UbCMeqT0RFF4PMagQggfF5nPrrviyLABbTU0Bgt09yJ3g0es+WycPRQTCllIZ1oMdmVEtniGY2epqTXnaGTSO/5MdJ7n4JVGAESWaOkuFAHGwgAVIMQHw7X8K8fDOJHh0dwrlxn9R1wLMmG8FA6lJJB2OIpTKYVjJoiWyL5o20Hmm6Vvi+/DqRt3DqQxXc29+FL67sxkEvQxtLIMC/EQStnrwLtJFBbthXlLffB33o39Ip1kjExGYSLL94GBtQ4II+k3gxRq2kRQSLfoO5RMEshG4O0MC7JuehNW0JQFCAYNTIuxGxG57xGIhABhGtkoqJhLk4EaN9cawLDFR9nRj0MVUIEYSDOj10JC7mMM1FymJpJmFybWjwFLixcXG0gNvQJUq//HMk3fwE1PgQk0wvHQWiFSUycbAtj5SaeOjGGH384gj2n8xhi+YQbY6blWyCGCoT0kJBOiBZ3QCtDtDQKg5aQEvlvNEtKuQ7uXpnBN65bgi+s7sbGrgRc2if6rQW6XYuYzyljBqFZQujEUV15Myo3Pohgy50CELRrAWScTgEIbXxmKIlUyAxRbYQoVgIUW46M5J84loVMnN0KCityFjIpB66IIEWdCvM5fdG5rs0IRADh2py3aNQLGAEuc3QoHC81cbYQYqQSoOpbcC2NTMJGNq2QS9lIJWxR1BOJnlY2gb/KvlOZHSjb9mNDp5B84xdI7vkVMH4WKkGA0OpiWIAtquEJKGjbqEcezdfw8scF/OjwKF76ZBx1P4Am8c82mQRbhSazMKk6LPfAv1Xakt+xZMGbTMc0tvVn8NVNvfjKhj5c15tG3G51bkws0AtwUyQpNioIY3FUV21D+aaHEWzZDQysAdiO6k2qWgnXQPwkCHg0Gk0tLozFqvmp1jSaIfkGFrrTFpZlbfSlbXSnFOzzXDYX4D4W8LmNTh1FYL4jEAGE+Y5odL7PRATEWZjkxaqHM8UQQ+UQVe5SQ4hYTjZNkyeCBMBhOnpKbr7lOyipa8kgjJxF8o2fC0BQY2eAeApgvX6hD9kIW2hC4Uy+ip8eGcVPj4zg3aEKKr6PQDPDYUETzJDgJ6WJ9p2YvbclAIFlBY2UC2xfksFj63rx6Loe3LwkjRS9lUncNF9fuGMCICRQXnMrKjc/guD6XbD6V0DHLeimiboIILdkk0NtiWxyueqjUA5RrIVoeKHkBlxXIZewsLzLwbKcg5TLUkqkcbBwExid+VqMQAQQrsVZi8a8CBEw22mS1wq1EMPlECMlH+O1AJ7PBcZCNqGQSZKXYCEZpwQvrYa1CO/wR9QNHYXY2ChSe36G9Gs/A0ZPQcWTRklxQVfUVoi4WrqW2BS/P9LAy5+M4YVPitg3VMLxQkPKJ5MDmZJCmEgn8CaA7oSD3UuzeHBtDg+s7sX1fQnk4o65BeE7LhT5oHUfAhDKCOMplNbdbgDC5tth9y6FjlnQHsGB0TfggAnuKnWNMomI1UBIiXWPoVDiudGbstGTNr9mElGnwiL8DxVd4hqMQAQQrsFJi4a8iBGg/wCV9nwtqotshSxVNars9YfJJrANkj/ZtFFftJjfFoCgEDqAXSoi8/ovkHr1p7AHTwAxSTtIGWJRDsm5A6wSjJUbeOFsCc+dGMdrZ0o4V6nL34ckK3LMstYbp0uOLm4B8UQc25dm8eU13bh3VRYbu5KTksNtzwpyFljbWKhDAEIJYTyN4vo7UNn2KIJNt8HtWwJNR2oKYbZkscm3rNZDjFd84Rw0aeGgldxLLmmhP8sWRgI8C7RVaBk8T/ZwLtQ9ROeNInCNRSACCNfYhEXDXYwITNae2wsm+QTlRiitkPkKMwrGw4FdDomYkoWH1tGZJNshlWQYuHYSIFjlKjJv/Bqp138K++wxShpCW/YECXBB7shUCFrZgRCaBk0O1R1DDBaaODBSwsHhCk4V68g3fBQ9hZofSm2eX4yrAF2uhaUpF0uyaVzXn8W2/iTWp2OwYyxJtK0kFjhz0A4OAUK9hCCRRWHjnahs/yL0plsR6+0F6RSBBzQ907JYqTFjEIpkct0jyVIjG6f4kSVcg2zKQTZut7IN5gIR22BBnsLopNd4BCKAcI1PYDT8xYuA8BJCjUqDokoBRqjAR/W9IJRUO0sM5CUQKKTiClaMDEUgVi0j89azSO/5BdSZI8aWmKuaEVVYvBtocRLYjOB5PsaqDQzXmhjkbruhUfQCNIIQllZIWSF64hprMzGs7EkjnUwiTk7FFVgqX9GNEgHUiwhTXShuuR+lHV8WR0c7lUGgAK8WiJ9CoaJRpJdCM4SlLHZAikwydQ1W5IDupANbOCOLGPcruvHoy1EEPr0IRADh04t9dOVrNAJ0/iuT/MaFtaYxUvaFHc8uP9emuJIrACGZcpDM2UjXq8jufwaZN36F/5+983Cu67qu/joPvZEAwd57p0hRJNV7t9Vc4sQliUscpzdnJsk/kEn74mRS7CR2qhN3W+7qlSoUxSJSJMUi9k4CIHp/55vfOfeCDyBAvIf6QJw7gyElvnLvOhd3r7P23mubUxCEDiYjjDxBcIJCZHhEsr6z09UmNLZbNeER0GHV4SyUsUpIqiRHqsjPVW5hgSxBlVZI2iKGywzpKveD7WyTmmtlyyapft2Dqlv/uFpnLFVbMk9NrZ1qaaFbodP9vbndKtckVF6cUEVxwtllTyySJhbmuLbGwA3G6C9eOO0RRyAQhBGHPHzhtYGAF6UhCmfrOnSxvlOXUBNaO9Qp4yyHS0pzVTKxQBXtDap891mVb/+xcs4ciLT5USIIMfhuWJE3NsJiuLvBEaZDSPPO+8gdrozP+StHfssjvYidbbLNl5Qsm+zUg+r1H1LdpAWuHqS2sUPtbTSY+CLFghxSCjmu1qCyNOEKLHNzmOngGlKDx8FIr134vjGLQCAIY3bpwolnAwIEpYZWo0bk7ZZOVTUwy8F6hz4yDCXFmth2SXMOPK8Z7/5UBRcPOl8Bwz+6AQejIHX7QQpd3+1MkbqchSL3wDiWulqDuBIxKqo00X+P5AIkvYLQXjJJVas/qHOrn1BN+ULVt/i6A2Y15Od5L4PKYqNJRbmujZHuklxnfOSP+NJH8tTDdwUExioCgSCM1ZUL550lCHglgdq+xjar6kaMlaJOB9z7TKHy66o17+iLWnTgaZXUHJIhn+7qASihHwWCkCXIpX8aRrajVaatXu3FFTq56CGdWv6oaioWqzPhJzMW5yRVUoThEWOac1SWb5SbG82NSP+LwisDAgGBFAQCQQi3Q0BgiBBgd4py0NTubX2rW6SzrXlqvXBRM4+9psWHn1H5xQNSa7OX6glggSD0jz55DtemUK/20kodX/igTiz9oBomL1J+oVF5YUKTirwvRQm1H4x/TkDcRqiNtP8rCK8ICIxJBAJBGJPLFk46exDo0SDncvq+lq+u1epsk1F9da3K339TMw48p7JTe2Wa6mRMJxWNkRdCJPlnz0WN6pkwdMnrKt5PwgPaLrU3qGPCVF1Y9ZDOr35M7ZPnq7CAzoQcVRTJjWZ20yOCKDOq6xe+/NpBIBCEa2ctw5VkAwIpfIFhQI3tRq1NjUrs3aKC7U+p8Pi7SjQ1yJgONzAJu0VfA0AsTKkFyIZrGa1ziBol4mFYzoCpo80Pa5o0XS0bHlXLxieUnDxHeTlJFeYYZ1AVZi+O1oKF771WEQgE4Vpd2XBdo4qA4wkRWUi2Nctuf0kdm3+inBP7lNPZ5ne5buSyl8GtoXCx27SkUT3/Ef/yuJsCLNzY6B7pAdocWxuk8qnSDQ/J3vRBaeZCNzbbkStfCRLSCiO+cOELr2UEAkG4llc3XFt2IFBfLb3xUyVf+7F07pgS2CznRFbLXWX18ahk9sEoCXb8pNCdYoACEOUGnM9CnCeIWVa7bFurTHGZNH+9tO5u2RXXy0yZ2bXGwQ0xO273cBbXDgKBIFw7axmuJBsRaGuVTh2Rff2nMtuflmqrpKJCKSffKwcpoTD19J2i0DVY8RqsUYAERLMbvL1CXwWFMUKdsp0dMiZPKqyUFq6TbnlYum5jNq56OKeAwDWBQCAI18QyhovIJgQupxeSsmdOy+zZKrv7ZenoTqm1UYZhTYlcn1YgMMbOhKnVdc5rIM6qoyZcQySB601ybbFmAFnohSDE6oq1solIVWntkBrbpakLpPt+Ubr7UUZr9kGzsumuCOcSEBh7CASCMPbWLJxxNiPQJY978x77zhaZzU9Jh3dKbZekRKeUkycbkYGuCYhRMGRT3d3VkNgXGROhKPCPY7FMPyZBcVeCk0+u3obYDQsIEoZHLS3S+UtSyTTpzsel+z8sTZnhahHcEToYsvm3I5zbGEMgEIQxtmDhdLMcgaiUwAW3ukvSiz+QnvuBdPG4NKFQtjg/mvIcVda54YmRinC1wB+RBKdOOBfEFDfDbCcMLp3AJMm4fbF/cuDzL7HjY9LVYwCTQUGobpASZdLSG6Rb75NWrpemzgrkIMt/NcLpjT0EAkEYe2sWzjirEfBzDEgl6MC7Mi/8WHrrOa8eVE6QLSmUSaQU48U76nRIQnTdpCbcZrlbSoJgmiXARGpBV31FfG39KAbdzj6VADlzg4gstGFZ2SG15ciWVsgsXyvder+0apNUWNj1EY6MZDtxypLlCqcREOgLgUAQwr0REBhKBFx+vUM6fEB68wVpx2bXuSDbJlteKFOYK8UEId4l8ydugW6LTEl/Pw6AqTvrmDSkKgujFRhTlQLn7+DHYPd7PT3w797ymep8ZKX2HKlVUgMkoVV26nTplvtlbrpHmr1EwlvCBAfFobylw2eNXwQCQRi/ax+uvDcErjRG7PIz6PnyyztkqyRBub1VieoadV48KbN7m8w7r8ucPk5jv5STlC1IyLDJzYlaGLuq+L30Tv+/UwZS1ARfyJhSxNdb8E8lDC794PIWfa/vQAnEVcc8x66H0bmmMRXJDa1yuRh/3V3KSIJGzx4KiXuBpPaEbFuOTFObkk2NMoX5MvNXSms2yi5dJ82cLVM+RbagILXEMyIqoUYh/NIHBDJBIBCETNAKrx33CKSSAgK/H5WclJoalTx3WvbwfnUc3KOcI/uUOH9GhiFDuXmyuQmZXCMVYrGMn49v8+tVCqdqvzezoHTQdwqEq2bs/urUIkgn12c4kdHVEPjx0L2PRIxHQfe9e/dkp5dz41zS6dJwlssJqZViRQhZh6ztkMlNSJUzpMUrpSWrpLmLZadMlyktdx0OFIS6fgnHwlBpYmiCsVI6t1R4zfhFIBCE8bv24cozQMAF8vZ2qaVJamyQbayTqb8k8dNcLzXWSzVV6jx7Sjp9XMnaKuV1dsjm5MjgeZCTkM2xMgWdUgEEIQ7kvZxEN6meIBbvyon7BLirFBs4IhDbOKZ+drTD7+qIyLBgoasLge/vRaGIayn6OzcvkfhrcnWaxtcKdLlI9r4o4O/e2g45SMiSauC9HR1+TXLzpClTpWlzpWnTpfJyqbhcKiqRSidKEyfJlpVLJaUy+QU+FZEDU4u0FldAaWJrhqwp58jgFg0vDQgMOQKBIAw5pOEDxzQCzG1OdkY/SSmZlG1vkZrqZWrqpLoLUtUF6eJZ6cJZ2aqTMpcuSK2tsryXuNfe4XfxuUZJk1DC7VqZ3iip2EoFBMRoJ94fWO4jU4YWDaYWsTe/hf6+P/XfB/v+2BbK4GsAz7lKGqS384pSDGpOehUBBcY1dERrRmoiN0eG+c85CSmRL5VOkCbNkGbMluWnYrISZWVSUamEK2NhmVQAgcsRc6NtIiHD4vAZ4QgIjHMEAkEY5zdAuPzLCNhkp0xzk1RzUbamWmq8JNPYKFt7UaauSqqrleprZC/VePWg7pJsfbV/D2kGdqb5RbIF+U41sIkcmc6kbDJyRczPk8oSUlGOVxMIbH0dBGMCVm6BjEn4nXZnp59qCGmJ3tflo3C1z3G7+p7FFT38FHrWF6QqAVfUE6RvaswAKsUzEqL0h8Fmmh08B0OYkh0+0F8xnjn1e6Kg3y7GZMrWtchQs5HPRMw8WQs2bTJtLbJtLRFOnRL4oRxUVMpWTJHKJsiUlEhFZV5RKKt06oIp8yqDyid5xQEzK4jMZQPo8KsSEBh3CASCMO6WPFxwn7G0o0OmtkY6fcylCZxKgDpQc15inkJTvdTGVMEWiWBNCsHl5dnmW1nD7hN1ICq8i6rpbU6uTEGxmE1s81pkbJPEuOcrAmJ0ZnwWAjqpiYIiKY+cBAV6rVJrsw+qcT49Kmzsdk1pFAiO2F3gagu8K2RX4STBlx0859lc7wK6S3gkSBukHF1OitQo5EpFxXJVnvVtsrVNMm3tUQ1IlC6BOPFdEL0kKZxO/x18bi4/+RJzMPILZcEVgjChUqZimmwl6YnZ0sw5MlNnyBaVhDbJEbtJwhdlKwKBIGTryoTzGnEEnNd/U6NszQWZqvMSZKGxXraROoMGqbXJ5bxte2ska1upk58Ol2KgUNG2NfsUAwQC2bq4RCqvlKbOlM21UtX7Mmf3S23NUh671N4shqMCQgJaUZmUXywq/iEHhnqH9rZIAje+PfJqR9QpcfXX9KFkZNTtAEGKjZBSzolai/hzSN1wFE+QLa30pKD+otRU51/TkyDw7wR4JjlCksqnSZNmS/kTpeZ2qRo1p0qmudF/bh6EqlA2v8AVhjpSAL4QNlIOubm+JoTPyi9yKQZbVOoVhtJyWdZp0mQZVASnIIz4LRi+MCCQVQgEgpBVyxFOZnQRIJedlCABkULgdqJI4O3I120+OLc3eyWhucXv6pubpYbaiFA0+P58SAOjiCmWmz5XmjVP6miUdj0nvfOsVF8nWzxBhp1xz8OlEKwPZCXlsvnFMuyGCYTNdV4+dypFyhyHKz4k1akxjUjXkyOk8ZZuX+mmT/ZCNFJJBv4QvKS0QqqY6VWXS2dk6qt97v8KggAB6pSoASkolKYtlBbeIM1dKuUUSRcuyJ46KnOpxp2KxSipuEymuNSbJrmUT4FsAf4TBVJhkQ/8uf7/O0Unh3QQ9Qd5EYngT4hFpgCM7p0bvj0gMBwIBIIwHKiGz7w2EYinMBG0Ojoj0tDqCIGrpG9qlFpapSR1Ap2yTB6kap6daUWF7KVzMq99R3rjB7K1NTKllX7sc88DckIkLSyRJkyVSE90tLiaCJfmSCUIBOa+VAKf+eh1I3wFH+ihRDAcKfXoN1w6PtKPe6EjCEmpbLLs5Ln+vKpOSLUXfLoF+T/1cJ0RGCI1+1TL7BXSqjuk5RuliqmyDfVS1UWZpgZPECBkBQVRWiZPNi/fKwmQhPw8R7hcEaNJSWWkX05xbd7T4aoCAldBIBCEcHsEBAaKgIuhUSB1nQ/kvaMWPu/0436crJ3IkT1/QuaVb0hbfuTHPpdURGOfe4RrWvf4XIrlnKRe7K2b6y94Ob693Rf19SbJZ3ItVzU+SvmgodpNd7b7uoCJ07waAEU4d0i6dN6nF6K2w26XAFlqb/JBf84aae3d0sqbZKfOdmkea5OuENQdEd6X/4w8D9z590txMkEuvDYgMC4QCARhXCxzuMjhQyA2HOqrLS6yTmYzfPGU9PI3ZRxBuChbXC5X0X+FguB32rZ0kszUeb4Vr6lWunTW/zlUBGH4QOn9kymuREGYNFOaudS/5tR+2epTPtUST2RMfTekq6VOKiyWFl4vrb1PWn6TNGWmf9VVFYBghDTSSxy+79pCIBCEa2s9w9VkIwJxEKs6I20mxfCkdOmiVDTB57t7HqQQ2GmTXpix2Ff802ZZfdLXIOAgeDUFYdB+BQMF8ep6vavjoNhy6lzZuWtl1Ckd3SVdOC4ZWh+jkc2pX4+C0FInW1QoLdogc/3D0rKNspOmXE4V9Pa1XX2gA72W8L6AQEAgEIRwDwQEhgGB2ELZzRvwrkhS9Tlp8/ekN5+Uas5JhX0QBAohyb1TyEfeHYKADH/hqNRY6zok+icIKVFzqFIEV8UpKnhwlsa9y/m2rdUXW6IeLN3o1YSDb0mnD/mCSzoLUg8+h3RL6yXZgmKZxRtl1z8ss3SDVDEtSin0OKmrcJTLazEMCx4+MiBwDSIQCMI1uKjhkrIUAUjB5u97glB11rcwXqEgJHzVvm2XJs+R5l3nX1d1Sjr3vtRwScJ86SoKgk3gzUCHQ2TTPAJw+BELiS5PiN6+khZQ51Ewd7ns8ts9j9i3Wfb4Phm6COgsSDncDAU6SlpqZUgxLNkobfiA7JIbZCZO7T4VcwSuMXxFQGC8IRAIwnhb8XC9o4dA3Xnple9Lb/xQoh6hsFQ2N7eHIU/CV+2jIEybLy1a72sQzh+VTh/0BMEZAvUoUqRlkII9txOnlS/fdzu0NzsLaDfvYKiVhNjQiQJDWjKpp+hodT+203rL49SjtcEPV5qzynUjOAKw5zXZ43t8wWWvCkK7T6vgJ7HiFmnjY9LidbIlE4OR0ejdyeGbxwkCgSCMk4UOl5kFCDRUy27+vszrP5QunPRGSbT2dQukDCJq9E6AMxbJLtkkA0GAHJx6z6cY+iAIzq8B90WCJ8EW2+HGal/lH/smDCUMccdGTp5ssf9O21wv00wahBHXPeor6MTA9GjeSmn1XX5Wwp7N0vFdPsWQ10uKgc6H5kvOXMmRihsfk1mwzhOGcAQEAgLDikAgCMMKb/jw8Y5At5R4Y63smz+ReeNHsuePuh22m9fQrV2RFEOjb5mctURacatsYZnMiX3S8T1eQXC2zlcqCM7RkV7/iVNkmDXQVCfDcCm6B/iO3lwbB7hArsaC93KeKBYTp3jHx6Zamdrz3l3S+RrE9QgJnypItkkL1krr7vdtjbtelo68470ceqQYnOIREwQKOtfcKd34hOyCNTJMaQxHQCAgMKwIBIIwrPCGDx/vCHQjCE11slt/LvPmT6Qz70djmen/j6Y1xmCRYuhsl527XFp5t1QyQTr+rgwV/wyJIij3VASoN2DXnp8vVczyboUNVVLNaW/kRDAeyhSDS2kwZqHTGzoxMbFogmzdBZnq07Kd7d6kKIUgqAX1o11afL10wwe8o+GO56WD27x/BF0MKefoZlt0tsk2XfLuiGvulr35CRlXl1E83m+tcP0BgWFHIBCEYYc4fEFAIEIAk6Ntz0iOIByKTJUYC01BYUrlf2uD3znPWyWtecAH+5O7pMPbvQMjLo7k71NTEzFBwJJ4ylzZkkqZejofjvvhUgTrIVQQnIrhCEKHJwj4NRSVS7WMwT7uVYse32lb62W4rqU3SJsek80plNn2tLT/LT/xEgWhF4KgxmrnSKm190u3fFiat+ZKtSHcZAGBgMCQIxAIwpBDGj4wINAHAgx82v689NbPpFMHfEEfAdHl6lMIQku9hBQ/Z7V0/QekiZNlT+6Uef9tqbpKau+lzdERhA7ZwhKZ6Yuksik+WJ856IoebU7BlUWDg1moaIKls5Rm4NH0xZ7I4NVw9rCfUUHhYgopuUwQNrhUgStq3PqUJwiQjR4EwblQMsIZglA6QVr/kOxtH5OZszyyqA4+yYNZwvDegEB/CASC0B9C4d8DAkOFQEuD7K7NMm//XDq+V2phCqH1wS51d9/SICVbpflrpPWPSBMrpeM7pINbPUFo65BrZYxrF+IOBvL+5OpnL/OTD6tPSyf2+DkRFET27CoYzHUR0aNBVhRFavZKqWySdPGEdGqvT2u4aZWQH+9a1I0g3PSEL1IEi/e2KGk7lcBSukcaxKUqGi/JTpgos/ER6bZfkmYuiPAKBGEwSxjeGxDoD4FAEPpDKPx7QGCoEGAa4543JWT1Y7ukJgoOSTFAECjoi2ybURDIvS9YK7PpUV8AeGS7tP9N2eoLMu2dKcpDPP6h04+gLimX5q6UJkz2Uv/JPbItjTJ9jZYe4LW5IkW+jxRDabmT/e3EqTLnjzgF2sCgAAAgAElEQVR3RNvWJJNfEgV82h2xTOa6WqXlm6SbPuy7Ft5+Wtr3ulcKKHbkSCVLpCSwl55QKW16xCsIM+YP8KzD2wICAYFMEAgEIRO0wmsDAoNBAIKwF4LwlHR0dz8EoVVavF668XGpfIZ0eIe093Xp4kk/cprZBXEboZv+KP/fE6ZIs5Z5onDhiO98QKkgGA+hguAJAmmNdh+8mZNQMUM6e1A6tENqjQYspaYYmutkOpulFTd7JQAnSQjCnldkW5uiosZeCAI+CBCeTSgIvyBNnzeYVQjvDQgEBNJEIBCENIEKLwsIDBoBpH4UhO3PSEd3+vHNqOSumC9FQaBWIdkmu3SDzC0fkS2fIXNguwukunjc5/eR7t1wo6QsnQTEVXbglTOclbEtLJU5/b50bLffubObH0KC4IoGIAiYMU2cLC3ZJFVOl07tk/Zv9WkNLKK7CILxhKizRVp1i+ydvyxTPFF6+xnZXS/KoBJAenp2Z0B+IAgVU5xJkr31QzLT5g56KcIHBAQCAv0jEAhC/xiFVwQEhgaB1hbZ97bK7HxOen+HVHfeV++7Yr4eBEGdskwtvPUjMhNnyL63RWb3i5cJQup45I5O3ypZXOQGIWnmck8ITrwnHdkpNQ8zQSifIrviVmnyDEdIzL7XvWpRNLE7QWiscbUVdvWtMnd/Wiou9wrCrhekhlqfjuhJEJjFQE3GpOmyNz0mc+uHZCfNCC6KQ3NHhk8JCFwVgUAQwg0SEBgpBCjce3+n7Dsvyezf4jwKPEGIi/kYDW397hur5ZU3y97xSZ822Pe6zM7npaqjPsWArwE7bg6CKOpAaak0fYE0a4VsXrEM6YX3t0UEgRRDL6OlB3rtFEZSf8CExvLp0tq7XKujPfy2zO6XZJubZCAAKAgEfmotmmpkO1tkVt8m3fcZqWSyV1N2PCfVXvCdHF1dHZyYlSA/MUHAA+GOj0jMYQhHQCAgMOwIBIIw7BCHLwgIRAhAEI7tlXa9Ir33uuyFYy6H74v5qPZPIQj8ffWt0p2f8ARh92YJ5aGLICDHY0Qkn3JAUSirkJ25VIYUQ16ezLF3pfe3Dx9BoP6go12mcqZ0/QOy1AYcektm23P+O0squhOExmrZZKvMmoggTJwl7XjBkQRbfVKGLozU2gqblOX/tTTJTJ4te8vjMrd/yLdwhiMgEBAYdgQCQRh2iMMXBAQiBNj5H9/n7YX3venHN+OF0FXtz6Y5UhDwAFh9i3TXJ2QcQXhF2v6cdPGYfw+tkV0EocUTBLodZi6XnbnY/bdhxgGpDJdiGEIFIZ7BQH0A45snz/UEYdos6cBbMm8/5esGSiqvIAiufXP1bbL3f1Zm0mxHfOy2p2TOgUVL9+ty3g6dsh2tMlPmSjc/Id3yuO+aCEdAICAw7AgEgjDsEIcvCAikEoT3vIJAa9+FozKOIND/H00+7CIICdnrbpe5+xPeX4D3bHu2F4JgvVMiHQwVs2TnrJKZsdBPdqT+oKsGYWgJgvt8zpXUBmmN6+6RKqdJ+9/wbZxNjVcqCE3Vvs2RFMP9n5Umz3NFm3bb0zKnD0htjb5gMyY+EAQKMPmeaQukmx6TbvyAH9wUjoBAQGDYEQgEYdghDl8w7hGwPgVvsB8+cVB69xU/xRCXQ+oHCugwYJgSAdFKzU0u4Ns1t8vc+ylPEHa86G2aq074zoFEjpK5uUokrWx7s5STL0MNwNw1MtPny7a1yBzZIR3e6XP4Q6wgeIIg2ZwcmRmLZdfeK0OnwXuvyW77uUxTvVRUKeVGEx3p1miqiQjCrdIDn5OmLZL2bZV9++cyJ/dKdG9gnuSGPJFx6fR4YDI5Y5EnCBseCARh3P9CBQBGCoFAEEYK6fA94xeB2PCPnP3pI9Ke16R3X5BO7PVFeAVlkXVwFBAhCATW6+6S7vmkIwh2x0sy25+WqFuAIJgc2dxct4u3bY0ytDzOWOL9CKbMk22ulXkfBWHHsBAE1+IoK5vIlSGlsf5B2cnTZWjF3PpTP5a6G0Gwvq0z2Sytvl164PPSjGXSwe3S1p95c6XGKpmcgqh9Uy694AoVIU8zF0mYRm24z7tFhiMgEBAYdgQCQRh2iMMXjHsEYoLAjvjcCZde0DvPSUffkdrbpcKJviuBSYccrc1+hPLau2Xv/CUZZhxQt4B0f+5Iig9Crh/93NYg5RbKzFnlzZUqZ0n1Vb6D4ciuyAeheOi6GGIPBAopKa6cvVTa+EFpymzZ3S/IvPmkb1ssnpyiIHQnCPbBX5eZvUo6/I701k+lQ9skRlPn5PsZDnwHBYocYDF7ubTxA9K6u7y/QjgCAgGBYUcgEIRhhzh8QUAABGgLtNLFMzLvbZF2POXdEelswC8gJgi8BoWAXfK6O6XbPuqL8uhigCBEw5ecbwJSPIG0rUEWgrBgjbTkRqlytnTpnHTwLenIO8NMEBI+eN/4mHc43PWc9Np3pXoIQmqKwXqjJAoRV98qRxDmrZWO7vEE4cDr0qXzEgqCIwiYMHW4tkc3DGruGmnDg9KaW930yDCFIfxWBQSGH4FAEIYf4/ANAQEvldPFWHNBZv/b0rafSO9vlVpb/JhkZHQ6AuKxzQxAIsVw64fEMCS753UZTIVcMV+TN1aioI/X06VQUCAtWi+tuE22co5MzRnXSulqEBgzXYCCENUDDHY94uFQfDfFlXNWSLd8SJo+X9r1vPTKt6TaGqlkkpQT+yBQg1DtOzDoznjwC9KC631Nxls/kva8LNWcdUqIs4VWp1dX8EXAcXHedZ4grLpZKiwe7BWE9wcEAgJpIBAIQhoghZcEBIYEAXb7l2okbJPf/rF08HU3s8AWTfKjmOn7T1oZiEJpuezae2RuftypCXbPazJ0MZx+z41vdgQhj7REUrapVgaCsGSjtOYe2cnzZKpPSXtfkQ6+LVEw6Aoho06JPi/GT13sNnq6t9d2Iwg50twVzvHRTVl85wVPEGouSMUVniC4IyExtrmzRXbVzTIP/Ya0eIN08rDslidldj8ve/GUDOQgv1QWNtXRIsP7iifKzl8rcwME4aYughBUhCG5K8OHBAT6RCAQhHBzBARGCgEIQl2t9yZ464fS/teklmbZogoZuhY6O/wAJHbluAWuu1u68YO+A+Hd13yb45n9VxAE1x0AQVh2i7T2Qe9LwMwGCiEPvCnb1CBTUBoVQvZxsVHQd/Qgdj/sC5duBCFXmrdSug2CsFB210vSSxCEczKkSXoShGSbm8WgBz8vu+RGmdPHPEHY+ZTsxZOeIFC0CUlyMycSsqXlMgvWSzfc5ydBBgVhpO7Y8D3jHIFAEMb5DRAuf2QRsI11MtQevIms/orU0iJbXO4Igsu5Y19M6qByjrTuXtkb7vf/vftVme0QhIO9KAhVMqQQVtwREYTZ0rn3pXefdwRBTdHgpNhfoE9VwCsIBlmfn6sQBNeC6DoM8qT5q3ytBJ0Gu16UXvimbM2ZKwkCRMYRhJulB39dWrxJOntaeutJaftPpfPHpfwCqWCCa3F0Bkl0a5RPlVl0g3T9PdKS9VIBKYhwBAQCAsONQCAIw41w+PyAQCoCzFmgcv+N73s/hOZG2WKvILicOzMY8gpkpy2QWXe/tO4eWYL1u6/I4KQYEwQsiSEOKA5NVT6FsPpOad2DEg6F5w5JO5+VDm7xpkWYC/U3i6HLrCkpxjl3kYWeK+i6GDxBsIl8GQjCHb/gFATtfEF68RtS1RmpqOyypwFmBhQp0qlBmuDBz0tLbpIunpPe/IFPuZw75tUSrgWCgJcD7Z6T5kjLbpSuu1NaeJ0nEeEICAQEhh2BQBCGHeLwBQGBFATa22SP7pKh0p98vXMcpJgvR+psk6WDoaBUZuYS6fp7pTV3+pKAd1+T3f60zKkDUmuj73rA+4BAzZREZHeKGm/4oB8PffqA7M5nZSAIkBJ25XHXQ8rpMCraaQXYPRczntlIDXWy7U2eIPRW2Jja5pjIk52/SgaCMGuJ9M5Lsi9+Q+biSam4RBbLZ+oIOBjpbNul5bdID/+a7NJNUk2VzJvfl7b8SDpzRDa/QKYQBYHujEbZnFyZqQukFTd7/wTSGYEghF+pgMCIIBAIwojAHL4kIBAhgPkPY5hf+Ya0/amIIEz2ufrONt/7z8577mrZ6++TWXkL+3SZvVv8sKZju/2cA6T9vIggNNTIFhfLXH+/9wqYONMPhdr5lHRw69UJQmebDCQDm2a6EEzCz0WoOS0lE7K5eTJYJqYeKQTBch7zVsrc/jFpzjJp72bp5W9FakC+90mIlAnbXOcLMAn2D37OEQSDodLr35de/6506n1vO03tQtIq2VYvg0PktIWeVFx3u++YyM8Pt1NAICAwAggEgjACIIevCAh0IUBwPXVQevkb0tYfyjY1ypRO9QpCR6tTEAxTEBeul113r8zyDT7X/97bPmWA8VFDjS84REGg86HhokzJBGn9Q9Kmx6QJ05wzoXb83HcxYGGMGVNvCgLzD1ARZi2Tlt7klYlD22VPH5DpaJfNy/cKQ2pNQhdB6JTF2GgeCgIEYbkbQmVf+bbM2cOO9FglulQI21QvYzp9sH/wc9LSDS7Foi1PSi9/Uzq1X8orkS0pl+lMOgMok5MnO22hzMpbpTV3eBICMQpHQCAgMOwIBIIw7BCHLwgI9EDg7BHpxa9LW34gFzQhCIl82Y5mP69h4hTZxZtkrr9PWrLOTzTcv1Vm5/Pe16C+2tcfRARB9Rel0gnSpkekGz8slVb6Mc8QhANve6OkwvJeCYJa632aYv5aacNDfge/9zXp4A6fyuB7eiUIHd6DobDQpxhu+5jEmOn33pLZ/F2XLug6ID/QHK6V9sWVN0sPfFZautHXGbz1Y+mlr0vHIQhFvj2Sc2qr9UrJrOWyq+6QWXWbNHuxTztcrYgy3HABgYDAkCAQCMKQwBg+JCBwFQTihv34z+qzss//uwzSOpbEZdO9lN/aJHW0+ar9ZTfLrn9AZtFqqa1N2r9VcgRhhy/2I3DGBKHholRSLt34qOzNH5YpnSwd2iq9/dPLKYY+FARMlmyyXWb5Runmj0ilk7xr455XZeurZRggpZzuHgpdLodJqbjY2zszinn6UunAVmnz96STB/3wKZvw6ogS3q8BguBSDJ4giBHYjIeGMKF65JdGKYYOqaXWqwW4KK69V1p5mzRtzuVzCUYI4dcuIDCsCASCMKzwhg8PCLgKAifT+7/JeQTY5yAI35Ma6qXSabKYHrU0ynQ2SxUz3Y6ZlIGZv8LXELz3lu8QOLpDtuGSk94vE4Rq2bJJMpsgCE/IlEySPfiWzDZSDG/59/dJEBqc54BdfZsfLV0+Q3bXKzI7npO9eFwGa2STFwX5aDWd2yNzI4xsyQQZRxAel2Ys9h4Pm38gndwntbd40yXONSYIALD8xssEoaNDdsezMs9/3Y+mxkmRWQt4LbTWSbkFMvNWe4Kw6lZp6mxZ6iQ8kuEICAQEhhGBQBCGEdzw0QGBVARc6yDB+uR+mc3flmVuQXOTTEmlm4pIKsAweGnKbGn9w74jYdZCqbFeZt9bvuvh2A7Z+hSCQLU/ikJZpXTTo9JNj0vF5Z4gvP2zvgmCa2MkCDe79kdDC+E9n5AmzZLd+7rM1qekU+/5SZDUGURpAp8rgCC0eXfEkgrZxTdINz8qM2OR7LE9Mm/8RDrKmOl6Vz7hiEycYnAEgTbHz3gFgVTCOy9Lz/+3LNMnSR8UlkQzJpq8sjJlvkTHw6pbZeetkCnGSKl/w8dw9wUEAgKDQyAQhMHhF94dEEgPASyR66pkqNSnPoCJjmcO+Z04LodU+tOd0FYvzVgoe/OHZDY+JlsxTaqv8V0Mu19ww5dsQ41XEAjc7LSb6mQmTnYyv73pEdcmaA9skWHsMqmG3hQECAIFjh0dzmTJrr3TtyriwnhopwS5OLRNtv5ipFakeA90EQTjWzSXbJC98RGZWUtkIT9bfia9/7avlSCl4GYryBckxgrCAxCEDc5vwQ2vev7/3LnazqSMK0LEepppjtZPc5wyzxOKFbe4OoQw0TG92y68KiAwGAQCQRgMeuG94xiBy61/cQrBg3F5a2tbW2VaGmRbGkUhoTl3RPb4AenEAZmaE85FscuNkFZC6gFQEOgKuOsTsjc8JFNUJlt7QWbfFmnXK06Gtw3Vl1MMtE2yUy+fKnvLEzLUAuBpQDfB2z+WOUSRYrNvnUw1SuJ9bnqUkSAX+C3c/IgnCLRhbv2Za1l0joiQkTjI91AQ6DhgpoK56RHZ2ctk6NB488d+1HRDtVcIcos8MaCbAiJEiuGBT/suBvA6uk96/Qeye9+U6s/IUPMA+UkkZG1Spr1FFm+I6fNlF62TmbvKO02WlDmvBYyVKFzks/pLPQThYRz/yoZLzxiBQBAyhiy8ISBwmQrwN5cNd5EHh0F25p2yzQ0yF05LF05IF05KFw57K+G6Kldr4F7nLI15r5W1nTJO7s+TXXq9dNcnnAcC+Xtbc97vsnd7guCMkShSdCOimeZYJ6E03PZhXywIQdj7uuzWXggCRYMUD9ItAUEgEE+dL3vdXTLr75OmzJE9f0xm68+lbT+TPX9cJrfAdzfER7cUQ7lTECiQ1Oylvjhxy49kD22TobuCg7oCDtIViRzZFTfL3P8r/n2kOS6ckXn3VVkUkuO7ZSASucVSXmE09pl6h6RPVUyocGkQiIydOl+GEdOTZkqlE/1YaJcKSbWKTvVwCHUL4Xc3IJAJAoEgZIJWeG1AIELA70QJtEk3kZGRyq6Nj7ZB/k4HwMXTUtVZ6eIJ2aoTMkwzTBpfmZ9TEHkL0O/f5slBPi19S6Xr7pbd8JDMjAU+2NVclPa/Kbt7s8zh7VJjlWTyu6yWUSjM5Bl+ouJNj8rmlcjsfUP2rR/KHKJIMVVBwNUw6QchMRehaKI0f43sdffIMESpYqpUW+XIgTZ/y3k22PwS724Y2S+n1iDECoJIMcxdLp0+JLvlpzK0V9ad8wE+VhBcPUOetOIm6f5f9d0PMCvcJE+/L+1+TnbbUzJnj8nm5PlaBGYx4MboZjO0yGDVDHYTJnu1Y+psqWK6bFm5TNlk181hSypkiifIFpbI5BfIJihq7K7uOELXxe7CbR0QCAj0hkAgCOG+CAhcFYEokhDoiCrWuDhpbIc3OWq4JNWclS4clyIHQpe3x0OgrVVqbZdtb3EEwNsaJ6S8XLeTjlobvKLQ2SJVzpauf0CW7oW5y6KhREb2EimGN6Vdr7ouBjc2ORG5FHLu1DFMmSPd8oTspg/I0Cq4B4LwpMyBN1zqwnUxuG6C6GijpbJFKp8urbrTE4RFa6TiMlkIz45npBf+U+boHimv1I1c7o0guIAcpRg0d6V3UKR7Yu+bsjWnvEtjXvHlFAOpAEcQfkWiuJGD11AnQV0GHgrv73RWz84kKZHn3BQdqenscDUTsfLhRlwzuAk8USlQOcqnSdOXyE5fKDN5puyEShnSIHSJuHHXkXLDOngHqHD/BwQCAn0gEAhCuDUCAldDgNkJpAvY/bofgn6jz/vX1/jCw0vnXeuiUAzqTgtLYYYSOWmenT6yN/I4tsNuLkGnz60ncpTML3a7XOYgmDnLZNfdJ7NovWxRmTMDckV8tRelHc9LjFLGbZDvN5CMXL9DRwmYslC65VFvlkSKYf/bbiCUfe8VGQgCSoErakR+t7KcP9MSp8x1tQ5ae780a6FMXoGfKPnOi7LPfFWGYJ1XJFNc7t/r6hZ8FwNDpEwppk43yGx8RJq/TLp4Rtr2lLTnNenCET+2Ob/MIwwuhOiVN0kPfEZmycau5k8smO25EzK7X5M9sk2m6pQsHhGtLTIQA0ZhdzEqUjntnhh1tssmsYsm8OdIxZWRsjDHFXiaCZXOeMrNmaAYtKDQD4MqisZKF+TL5hTIJAJRCA+CgEBPBAJBCPdEQKAvBKgNaKyXqkkTnJSqz8jUVbuCQzG6mACGfE+/vwuaBGuCVocjADYnx5EARhY7xcDtYI2vGyA0MpiIAsGp8yWsjmctch0M7OJ9IGaXa2VPHpLZ8mM3sEm1533QhWgQ1Pg7wXH6ItdqqA0PS4Wl3rCIwr89L7nAbIrKuxEEpyp0NPmUxs0fltbeJ02e4T0G6LjY97rMM//hrZo5f7wJ4t22635odf/foEDQXbDxIdnZSz2ZYSw1cyPOHIALOXKS5FIwSoJ8MLL5nl+VXXWrTF5eVNaZcIRFdTWyF47KUMtw+ohUddp3Q6B2gC8YIuqgOnDtdDqQfnBdGcY7Qjvfhlw/1Ik0RclEqbDM/YlfhCZNlyGVwrlPrPR4MQsjHAGBgEA3BAJBCDdEQKAPBGyyQ6apQao+L3vprAx/Nl3yA4bYxZM2YDohO2l27VTTu+FGPtg4lSCyBO4an0wco9oedSCvUGZipZJTFyoBOSgrj86EccvRjpaAiy8BNQHI/Ux7zC3wQRUyQqCkDXDWCtdqqHV3yyC7H9wmi1Pj7pd6VRB8S2WD7JwVMvf8srTuPh9IIQGQnQPbpJe+Je3f4oMzlsuoFlxPF0HIlamYIS3bJN3woDRvudRU7yY6asv3pSM7ZJUnw64+J1e2tVaGeRNTF8hcd68snRMzF8sWlygRZ3IQOCA8Vadlzx6TqT4tW1/lSJhLVxjmO1w+LlsueysqN+yqpcl1g9hkUgmIGR0YjNCmiLGoXMnyyUqUVUgTpkgTKzwh628UdvgtCQiMQwQCQRiHix4uOR0E6CxIujoCQzsiu1s3bZHdf6cLPoZWQWoScoyvnneteSm1BZcF9O5fGKvZBDvSEAWkGQp90HfWxhxGtuaszIEd0p6XpUM7vHLhpjgW+SCO0yBH5Sxp2W2y6++TWXidPwc8DN54Utr9Yu8EgUJKPBcWrZW5/3PSdff64knnn2RlT+yTefNn0r5ItUi2u8FMbvxzTBAIquUzZZipcMN9MgtWO/KjfVul174hs/tVqaPT2Tfb3HzXrug+G3fEypkSKYZVN8tS3EidQGpFACoLhZvtzRJ1B04tiF7gSIpjWtER7f5NUraz06UkHFGI60bcREnjSUAeSo6vAXHXA3HIL5Rx6k44AgIBgVQEAkEI90NAoE8EfMuiD0x+4NAVhW09Guu7uhtcrUH3o/tIhpQ3EgzZeTc3yzbXeoWCQsSqk7LH3vPTH+vOe8UgUehrGtrblWy4oATFd4sxKvqQtHyTTOV0WYLy4e0yb/xQdveLrqvC1RBALjico2OjhPqx5Abp/k9LTEuMd9H8+/lj0s5XfC3B6fdkWxtlKAREuqdeAMKEA2P5TD906fp7lVxynXIIvGeOyrz2HYlWyUvn/ERICghdYaXxpCEnRxapf/5KadZiWdeqWOEGVyVLi5UoYFdPYO+l3aDHbAtXp5Hp8CaISpTqcYpPqEEIz4GAwBUIBIIQboqAwFURGCJrnehjnCoB40CBaGtzLoiquyhDa2FdlWzVOan6mHTxuFRf5YsjaaV01fdRjz87eIogeT+78/X3y9z+URnqF5yU3yTDWOg3fyS9C0GgSBGCQHD3yohpx8Gx0FsY3/UxafH13QiCvXRRhjTF7pdlmOdQX+Nz+igeBFbSDk5BmO4JCurF0vX+/zXXyb7zspvn4NIMTdUyynOpEEuagoBOnUZO0n8mBZQVs2RwS5y+UILklE72I6wZBkX6xnV+UMiAgtG9+WCIVij8HgQEAgI9EAgEIdwSAYHhQIAg2tbquwVohyTQ0z6I3bCrX4j8Ehrr/L811nofBdcZcUGm7rxvk6R4jpQCO27XXmlkKQ4kb05LH66Ca+7w7oS4CkIlmN1weJf0FgSBIsUGF4SdzM95UShIAeTESdLym31x47yV3uUwPpoaZI/tld55XgYDIwo184t8sKYWwA1xyvF+BEuu974Nyzb6AkFUl9PHpGPvyO59TebYuxKdHnGqIJHrmynwYuBzSNkUV8gwKGrSdGnCJBmKCqmtKCyWpdMDR8lCaggmuJSMLSx2XgeuOyG/WDaPEdCRyjMc6xk+MyAwDhEIBGEcLnq45GFAwLUbUjRoZTvY3bc6ad8FxksXvYMingkU3FGV33DetUMacuwEXPcTdUKQP3eOjNQ3IH/TDRG5NFLnUDhRduo8mUXrvBvh3MWyRRO9zM52mpZLnBe3P6Xk4W1KNPtpji6ItpOfb/WkY9p8P8WRAsUZ87sTBMYwnz0qbX9GevtH0rkTvpMhv9TXX3CtfFlRoScXmx51fgqQCLejZ2x1Q5V0YKcMkyiP75UlTeJaNHkF3QhRUSGEhboMrpV20FyKISO1gL/nFMji41BGUeFkGUZS075YMcWTpNIKX0eAIpKb60yWeH/GaYdhuC3CRwYExjICgSCM5dUL554dCBDoMB5Cysfwh6LGtkapsc6TAtoh+btTE2q9cVELRYJNXuqHXBDbCWrk3d0gpvgnktbJ7RMEo+BoJ8+Rmb1UdsZC37UQ6+6cy7G9stuedQWGpuqE9wrAXZHPpnaAc8X4aME659oofAkmTeuh2yd9umP7z2UwL8LpkFQAnRqCIERKhNplsTve9JjMhkd84I47EujWoPPj9CGZs4e9oVRjlU+B0B5KRwY/kCNXWNgWtW1GXgvMYqDOgdoFCA2qCcWMqAgoB6UVUmm5m9OgggKPQ2GZbNlET2aofUhVRbLjbglnERAYMwgEgjBmliqcaNYiEBUZ2toqGeYktLTItjXKtNH9gC8CAQ+FoMMXxlED4IJiuys2tB1tMgR2l2Nn90wuIeHthvPyfesk8j7BkJkLEyud5O4k+NgdkdqCzlYZyMjul6Vtz8qePuh28o59UFyIwkBrJt0LFdNl1twju+5+mXmrpBJ8DlIPKzXUSzuflV7+lhvglMzLV4Jiw7ggELMkihcnlEsrbpc2fMB1JLg0AG2RLt/hUy0YHqn5kkTbJvUMdTU+9dHW4msiwIXPjdUU/k47J6oHKQnn+5CQcQu8SWoAACAASURBVIpK5ETpvCViAkUqpsBbLZdPde2jpCe890Q4AgIBgYEgEAjCQFAL7wkIdIulNprHUO//bPNB35n4YN5DUHOSOYn36O9uUiHFeuTz2319QZQhcGQBkkBwI9DmQBLyZdgVU7jnBhJdPlyAJY3BHIRT+31x4Yn3vIcDBIIKfRfUE7ItdTIE6hmLpVs/6o2VMA1C2u/BD+hUMHvekF79tixtllwP50FQdsGc4N8s5RhnPqT5a6WF66Q5q6Rp8yKr6GiIlftsOhgozKyXQW1xbYzgZJ0rY6rtsesEdSpKRABcNwlpl2iwlWhphGxFnSbIFrw+v0impMIRHptXEBSE8JsaEBgEAoEgDAK88NaAQBcCBCoUAoI+9QNubkP0r5Hnv03Ew4hTpg0S8OLXRv4Ibl5Dlx8CrX6eXLjCvshbIa5ZcLUOdD8c2yd7YIvM0Xdlak57N0c3x4CCQCNnZYxdMSkQPh+/hLs/IV13p09d9LaUEIDj+6VtT8vu3SzD0KnOdhmmLKbOdYAMoSZgRDRzmZJLN8ksXifDZMjiMk8oKLKM6wIcNJFqEI2c9gTpMmbOJ8pdb+Q+6VCyXmlxQ6NiLwTeGLlOcg2QoS7XynjeQrhPAwIBgYEgEAjCQFAL7wkIpIWAD2TxJOieUbi39rykE9N7Cdfxi7EVbm6Uqa2Was5INaf8OOmzR3ydQM1ZOQdI5x7ITh+1IUe2o1mGGggC8tRF0pp7pE0P+RHNTtm48jsdcWEqJQ6O257x46brz7nZCq6zwJkNUdfQLtNc67oRVDJJmrJAmjZXmjxTqpgpTZohVc7wzoX5kRdCNwUkcx8Dz72SjkBc5mGh4TGt2zK8KCCQJgKBIKQJVHhZQGD4EYhdFKOpg66uoMM7A1LLQPqCWQW0QV48LXvumMzpQ1LNcdcmKdIVcb2ByNuz46YjglIABhp1uNoDrb5DWnO3NH+Vq2u4wljAXWi8S++U6upcu6Td8jPpxB4Z0gIuY+GLCJ3CkbQRrSGtwnCqhJJFE5SYjLfBAj9ngomTzJ5w3RBFzkDJmS3xORFBcSO0ezGZGn7swzcEBAICPREIBCHcEwGBUUKg537X7YRdqiIp09ggYZ5Uf1G2oVqi+LGhWqb2gm+fpICQdsk6/rve20Ln5rqiRqcGdGIH3eZnGFAsiaJAt8HSm/xoZwoTSyd6Ob6Po+t8IBrnT0rvvaXk3s1KHN3t1AtrO9xIZjdqmQJBAjskxBVm4vqYI8t8BzobGLvM9xVPdJ4HtCeaskmyTFosm+T+rkI/8TIVl6AJjNLNGb42IODKh+IpMgGOgEBAYNgR8B4CjC/2rX2uy4A2RDoZMBKisp9JkbQE1pyXrT7nCxDrLnrvhKYa9zpnluRcBcm5s53Pk00kZdi9u0r/aHiROvw1YWW85CZp9Z1Kzl8tUzoh2vGzY+9eINgNBG/H4A5DrcO+LTIMYzr1rtRySWqnePDylEr3OEFNwMYZTwiXBvDdG8aRmEJPEkg90ElBgWTFFGeQBFlIMHERkpNT6MZluw6O3DxZihWZjunSIcEQadhv1PAFAYFAEMI9EBAYQQTilj/SAQ20+lXJ1qEKXPTTIhvOyDZd9Pl8vBJa8SxgaFGnbEuDa09M4D7I4QYPFfhiQeyPsTJ2ZkNMLSySKZ7kp0MyrbBimuz0+TKzlstOW+h28tZ2RgSju/1B72j4IkBXJFl9VvbMIZlzR2SrTrmpi47A1F+KzrnJGzGhXtBlEBEg53FA/YSbxlzovQwK8qUC4+2W8WXoGs88RbZ8vlQ+Swb1oXyKVFop4W/g3BwLeq2ZGMGVDF8VEBgXCAQFYVwsc7jIbEDAtSM2Nwi/BFWf846Hl87LVJ+Rqo5LtSekliqps8mnGgj+eeVSbklKO1+UhoANuGFG/NCp4BUF15FQUqHkpGlKMCeBQsGZi3yRYEFJpCz02rPQD0S+fNLNUUABaW6QqTotnTkinTumZM1ZJTCFYg5DW7NMR7P3QHDtiX7glY0GL3lLZFoem6SOS1Ky1Y23Nkm8H4xMyVRp8gqpcqE0ebonOBXTZCZOlUrLZAsKg61yNtzQ4RyueQQCQbjmlzhcYNYg4EY0t8o21npDI2oJnG9Ck9R4SbatTqaDKYudLpDbRIFMXrGT211BoJcO3L/5WBtl6J1/AqZBCT9xkfkFxRO9bwI78wkV0RTGyF9hUEWAvpDS9VqgZtThFFnj6yA6cIbERZIZC/gbJH3bZ9SiGa+DO3dqFVAa2ht9i2RnlILgRcxWKJkqU1wpFZXIMg6b2Qw4KbrhTYXdbaGzZoHDiQQEri0EAkG4ttYzXE2WI+B8BCjicxbL3gzJ2Qm7Tb2nAC6odkVTiEFkgBD9PxdwnRcAR1xrEKnusSFTXHzogjONk1HLpQvY8fsGCFa3r458CdyUysg50dlAxP4OPVoYYw8DWELsF8H5uNkTUb1DbJrEZfNZruAyKUNLZQFpFRSI4JA4wNULbwsIpI1AIAhpQxVeGBAYPAIuzcDHuG6+3v0Hun9L5nX8V3YBuIZH/72Zf1wvp9PNAWpwoKRzPpANZ1FtPUnoxbNhcCcR3h0QCAj0hkAgCOG+CAgEBAICAYGAQEDgCgQCQQg3RUAgIBAQCAgEBAICgSCEeyAgEBAICAQEAgIBgf4RCApC/xiFVwQEAgIBgYBAQGDcIRAIwrhb8nDBAYGAQEAgIBAQ6B+BQBD6xyi8IiAQEAgIBAQCAuMOgUAQxt2ShwsOCAQEAgIBgYBA/wgEgtA/RuEVAYGAQEAgIBAQGHcIBIIw7pY8Oy44tuDNjrMJZxEQGD4E+rvX+/v34Tuz8MkBgasjEAhCuEMCAgGBgEBAICAQELgCgUAQwk0REAgIBARGAIG+lIKgIIwA+OErBoRAIAgDgi28aagRSCaT4qeTwTx473cNI+r7mxhalEgklJPDqGP/92vtiHGJ/wQX/t7e3q6Ojg53ubm5ucrLy3N/8gMew3nE5xCvV3xunE9LS4v74fxYk4KCApWUlCg/P7/rvOI1489rbc1ibLiPU+/ptrY28QMu/H+wYZ3Ahx/WLfV+vhaxGc57Mnz28CAQCMLw4Bo+NU0EWltbVVNTo/r6evfn6bNndOH8BbW3tfX7CSWlJZo+Y4amTZmqiRMndv0Md4Ds98QG+QKCDAEmxqSqqkpnz551+DQ2NjpiEP/wWoJLYWGhJk+erEWLFmnJkiWaMGHCIM+i97dzTtXV1e5cLl68qPPnz6uurq4r+BEAWVPOj4AHceHc4iDIn6zV1KlTNX36dFVWVrr/5hrG8sE6NDU1OVwuXLjgfsAnxgZMwCYmDjEZgDjxE+NUXl7usJkyZYomTZrk1hH8whEQGA0EAkEYDdTH2XemSqg8IAkePDAJNOfOndOpU6dcADxx4oTe3btHhw4dUnNj09VRMkaVkyu1csVKLV2yRLNnz3YBZ9asWe7hWlZW1m1n1vPDslHWjXeZkADw4OfkyZN6//33tX//fh07dswFoFhlYSfKQbAhwC5YsEC33Xab7r33Xl1//fUqLi4etJrAd3BeqAKQgTNnzrjz4Ofw4cNurfh/rCmvjXfQsQIU75TjgIiaMGPGDC1btsz9LFy4UHPmzHFrFysNBMuxcMRKDvdyjA33MOt14MABHTlyxN3f4Bdjk6qMgUmMC3+WlpZq5syZWrp0qSN54ML9zJ8QhZhI8NpwBARGAoFAEEYC5fAdDgGCzOnTp11wOXr0qI4fP+52WuyQIQv8nYfqpUuX0kPMGM2eNcuRA3bP7Lj4c9q0aZo/f77mzZvnfiAM2awqEDS45oMHD2r/gf06fuy4wwNcwIQADFa8BnLQ11FUVKTVq1frrrvuciRh1apVLuAMVMYn8EHeWCvWBULA+RD0+OG8IDEEwEwOiACBb+7cuY4YsD4oCXPnzdOyKDhWVFRk8pEj/loIEdhABsCHexpMIArc4xA7/o5qkMkBNtzP4IOSAC6sISQBMoVCxP8f6Jpmci7htQGBQBDCPTCsCMQ70NraWvcgfffdd7Vt2zbt2rXL/Xdzc3M3yTzTYBPnueP8O38iWbM7XbdundavX6+VK1e6hy4BNJuk7DhnT9BFIXjttdf0yuZXdXD/ga4aAwJM/HO1ugxw4N+RowkkkITHH3/cKQooCekefAZrgDRO8GO9tm/frnfeeadrveL6h3hnHH93ut/B61iHeEeMYsDPkmVLdcdtt+vWW29160cg5Hqyidxx7Sg83Lvcw2+88YZ2797tCEKc/uE1MTaZYBK/Nq4piXFBWYBMbdiwQbfccovWrFnjSAPYjBW1ZSA4hPeMPgKBIIz+GlzTZ8AuaufOnS7QIEfzYOVPdsTsUIfi6C1AkctFco9z8jxUr7vuOi1fvjwrAg7XTgAm+O7Zs8elV/bt26c9+/aqtbllULAQNFasWKFPf/rT+tjHPuZ2o+kckAOUi71797r14rw4R34IgJmSt3S+M/U1hUVFWrlihTt3dsys1w033ODWMRsCIQoYpACyxFqRRuBnKO/lvjCDDHAvc/+ijq1YuUKbNm5y/50N2GS61uH1YwOBQBDGxjqNqbMk0BAA2Rlv3bpVP//5z91OC+mVhyyB5mpS+VBcbFwgxy4VuXrt2rW65557dPfdd7sH7VDk59M9z541GBT6QZI2b96sn/3sZ9qxY4fDK67+T/dzr/Y60i2f+tSn9JnPfMalHfpTTlgT0gUEv5deesmtFykPCu84t+Fer/haUosaN27cqEcffdQpCpCEkVyzVGxRBBoaGhxheuaZZ/TCCy84YoBiwJrFtSBDsW5X+wzWkCJPyMKyFcv1+GOP675773X3MypDNiktw41F+PyRQSAQhJHBedx8C8EQYsAOdMuWLY4gEHTYgcZBZiCS9EAAjIu5OCcCJqkGlARk9xtvvNHtxEbyoUogIZcPJmCDeoC6gpw/1Ae57CeeeMKpCJs2bbpqVwPfT/B79dVX3bmhIFBvQPAbjSO+P1CBUBAgClwD6SKUhZHMv0OOIErgAj6sF+rBaGETr0dBYYE23LDB3cekHSDApJbAJhsLcEfjPgrfOXgEAkEYPIbhEyIEyKnT2vX222+7ndazzz7riAEP03R8DYYDyFQywu6UHdgdd9yhD33oQ+5Pihj5f8N9sENHQQEXFBUCDukXMIsf6Kl/DvZ8IAiPPPKIUxEIIBCkngeEBXKAbP7000/rJz/5idsZx+14I0Xk4vPq7ftYG+pHIAgPPfSQU4AobBxuWR1sUE+oDXn55Zf105/+1JE67uWRUlP6uwfAACxuvvlm3X///U4hAytUs3AEBIYCgUAQhgLF8BlOZiVX/dZbbzligESNjD5S8mtvS9BXgCNYUvDFQ5ViPgriaIscroOAQhrh+eefdz/sQlFZhvNAcn7sscf0K7/yKy6A9OaLQEqBc4GwEATZGUMOsoHMpWLDOtIayZrdd999jiTQoTGc7X50JIDNK6+84pQDVDDIVHxPjTR56ute4TwgCXEK7c4773RKS38ppeG898JnXzsIBIJw7azlqF0JQYXdMblZcupU4/OAHU1y0B8Y5HGRrh988EE98MADLk9Pl0PqMVipNq7FYBf6ox/9SD/84Q+dlD9c8nRq0KLu4uMf/7g++9nPurRK6q6S86KF8s0333TkAEIHuUvXwbI/bIfy31MDMiSOzhSID7UJpIiGercMBtSIvP766+5ejusNMm1XHEoMrvZZMUlCMeIe/uAHP+hSS9Ql9LyfR+qcwvdcOwgEgnDtrOWoXAkSOflqHqg//vGPXdChP360dqGZgEDAIXjyQP3ABz6gxYsXD0m6IdUkiFTC9773PReE2aHT1hkfw7UL5XPJR0MOfvmXf9l1MaTm7SEHtJr+4Ac/0IsvvujWL1sDYM/1jEkCgZA1Y/3iY7CEjs+hHZeUC/cyBIH6g+Hu3sjknr3aayEJEChwwQeDv5OiGQpchuocw+eMLQQCQRhb65VVZ4t0jkz93HPPufx13KkwFshBDCQPVYoW2ZGScmDnNRSFi6gEGOl861vf0te//nUXaOLZCcNJEMhLI8fffvvt+oVf+AUnyXON8UE1PqSF9XrqqadczUHP88qqm6zHyUB+UH9wivzkJz+pD3/4w85MaChqElgzUgmoKtRkkGIYLrVnODAGm1hJwAMDbIZDZRmOcw+fmZ0IBIKQneuS9WdF+gByQLD5/ve/70gC/51q/ztWiAJOfuy2PvGJT7hCOHK6gzm4blIJBBl26WA0ErtQ8s6oIBRfch10AKAexISHYEeHAqQFgkBaYai8KAaD10DeS00Fu+SPfOQjrg2SYtPB1CSADXigGnA/o/agJozFg/oTSC/Y8CekdygI1FjEIpzz4BAIBGFw+I3bd9MDTlqB3DrkgJ3oQGoOesrsSOE84MifxhMKUx/8fEc8y4Eqc34Ge/D5uC8iW//iL/6iCzi9Vf2n8z2cHzlsJOr/+I//cEWb7NqH4kAuxguAHTRkIJ74x59ghfMgO2tUAzoXaBOMUwuoPZADAiApD4omh0I5iNeLnWvs/BefVzyXge+BIEFGwGYoyBLfQcU+ZAhiR+HiQIcacZ6QAzpMWDdqaFizwRJczhFcWDNqJeJJm/H9nDoFE2z4zoHezz1/jyCG3MekzyCL2W5dPRS/H+Ezhh6BQBCGHtNr/hN5sNGh8H//93/6zne+M3Q981Srz5yhlcu9kx4BLjbH4WEb2zZDTminxJVxz949qq+rHzTmPGCxs6Vgkbw9AXYgqQaGKaEefPvb33Y/FGsO9ogJDOfHThmFgx10HJAhU+TmUUKQlKk/YCZFKrHCIZH1+u///m+3Ox4K0pLISbh0xorlK9x5IfVD7mICQ4BlZ07QY44EhazUO7BudAQMNgCzPuyOaeX86Ec/6syUBkISOBeI03/913+52gzurcGeG2SAdaJDhnUjQLNGnF/sVQBpgxhwP3Of8DvFD2s1ELKdep/x/dgxQxDAh1qNgWAz2Hs3vH9sIxAIwthevxE/ex6cFCHSrkewwXVvMDtRHvLxUJryinItXbZM161e4x72PFTZgfGwI9jFBIFdKG2C5PV37npHRxnwVHOpa7zuQB/uPLh5oH/hC19wSkKmQ3E4PwyinnzySZdeINgMRsLn2gn0BBoCMIGfFAIPfshTTBAgUSggBGdUhlg1iHeV7Ng5ry996UsuvTCQ9Yo/i/ViGBYKS/mkCi1bukzXrVnjAnU8RZNAxI6ZdaAoEzICccJOGqWJdcOemPuIdUwt3Mz0hgYjWvuoIWGnnGmqIU67/M///I+rFYEcZHqkdlpAkrhvIE7cw7RjxoSN9YkJL9jEszjAB/IENpA3SBTYQBoGqihwDawV/hFxES5GYSNpMpUpjuH12YdAIAjZtyZZfUY8sCAHBBoq8zH7GejBg5UHOl4E5Mvjkc0EGgIewY4gyEMtfgiz6yLgcR4EnfMXL+jUiZPO0IYiSST9wTgT8r3kbmkRRK7ngZ/uwfdiqPMv//Ivrtgt7amUPb6AayWYEFzwMKDHHZwgTPykEgGwIRj3lX8nCOHeSLvef/7nf7ouk8Ec8SAoajbmzJuraVOnaeqUKV1qD+tFYEqV0emQIBCDD2vGDhmCgJMkdtPvvfee20UP5OB7uF8IhL/5m7/pCk0zybezY4fMoYRx/6SmPzLtMoE0QVZQn5iREE+phMz1ljKDJMT3MyQhnuAJkSIFhP8CHRWDIQl8N7MtfvVXf1W/9Eu/5H6vwhEQSBeBQBDSRSq8zu3geXgRaP73f//X5W0HIoUS1Hh4EvSwiqXYDE8Cdl4DMXiJHe8INigaPFw5z3innMmDnt0vAZlUA7I1A4PSOWJLXmT8r33tawMmTjzAyR8vXbrUGQPRjYA8zIN+IEV4FNpB6Kg7ILeOs+VADs6L9AU5f4IwZjwoCQNZLwIj5AkShUETpA6SwI55oEQBzH7nd37HGUOlcx/Fng/Uz5BawBCJXXy693PqPQU2pMS4b8CGNSOtMFBswADFB1IHaYH8UgAc10Vkcj+z1qgspBn+8A//0KkZsSI3kPsgvGd8IRAIwvha70FdLcEG2ZwAiOnPQB7mPNyQyHmIYlLkdqJz5mS0U+/tItih8hDlYfrU00/pB08+qeNHj2WcS+b8yO9zXr/7u7/rLJn7k2UJNidPnnQP9NjzYCDtcewyIUzsQtkRx+kEFIOBHJwXO2QCIMQFfAZie815sSvGoCjuGEBZGQhh4TrivnwUBVpBkdUhLxA8RidnmnLgPJDuaetjlwyxgiT0d7Bj/+Y3v6mvfOUrjqBk4gURB2nqCiC3eA+g9kB6IU6pKkp/59Hbv0N6uafioV4QGLAZiDoGIeB37fOf/7xuuummLmwGun4DuZ7wnrGJQCAIY3PdRvys48JE5FiK79j1ZVqNzkOTnR7kgDkBVNuTY+9p5JKJsUvP17KTZ9f1jW99U88/+5zbMaMkZLrrIt3x+7//+06aRTrm3Ps6L2RiWhmpyYAkIOlngg3nhkKALB37MZBeGIwTHudKkGF+wL/+67+61r1MAmB8g8UBkDw2a4aKMNSBhZoS0g34D/BDUMxUVgcrMGMHD0lAdbnaeUKUKCZFCeMn01RZvGakxiAHrBuEbqgP7mcUMTos+EFZAK90lQ7Oh5QL2MQOlJDfgagbQ31t4fOyH4FAELJ/jbLiDHmgIgdTe4BkjYSfSTFgrBzQjvaxj33M7ZDZaWVCBvoCoudn8AB9Z9c7+u53vutyywNxdiTXT/scP1jY9jbLID4fdry0e/793/991+jmTLBh9wsepDX4oZhsMOSA84IU0S1Ancg3vvENtzvP5Jz4jNy8XG3ctEmf/fRn3Hmh9Aw1OYgxZM0Y8gWOkCx29JmQrLilkN38F7/4RXe+fQVBcKAGAmxQfNidZ0pIuB9QKkhD8V0oB8MVdDk3VBY6LSAJKAmZeDTEZAaFgw4diAL3XDgCAv0hEAhCfwiFf3cIYM8LOaDam11Mpm1y5GlRDOIH6kB9BtJdDoILhAYvAoIj+eVMpvBxvuTbka05bxSF3g4+k9w5Qfgf//EfXVDO5KDAkGp3cCGdMRTkgO+HtHDdECTslFE1Mrl+0hpLly9z5/SpT3zSKQfDfXCPQRK++93vumJPiF3qkY4KxC7+T//0Tx0J7W0AV0ySUJmopQEbyEImZAQ1CeWAewN8qBcZ7gOCjpJAag81iE6QTA4IFJ0mn/vc5/SZz3wmrRRMJp8fXnttIhAIwrW5rkN+Vci+//Zv/+YeqrSmpbMbTX2gk1unffDhhx92ysFw7URT1QRa1iAJPFSRrjNpYSNwI/lzvnQ0UKzY2zmz82VHRyCGJGTie0CgYVeO2x1KBd0cg1UO4oWnCJD8OvUiELpMaiK4TiR6rJofe/wxrVq5akCeEJnehKwdO2NcHqmbID0CvpkcEDnuMwgCxKu3jgbUFYLs3/7t3zo7ZchBOvdzfB60nbITZ82Q7jPpmsjkWnq+lpof1A66ZFA/MlU9IL2kzMCHzobh+h0czDWG92YXAoEgZNd6ZN3Z8OAkD0pxIgSBQJjJg4kKanrCkTXZvfBg4hjOh1NMEmLPBggCgRInQXbW6exEeQ2FeARv2ufotOjNOIkiO1IueB/QQUEbX7oHbZykXPBc4PMhC4M5UskRBW4Ekq9+9auuODHdg50mgYRcPtdNUeJIBcD4/Ck0RUUAUwJ4Jr4N8b3Gzp60TU8HQb6DNaJo8//9v/+XkeLD+nNP0MFBwR++CyMt1aN2QETBB9+ETIoWIZ/gwhAvihVTZ3Ske3+E140vBAJBGF/rPaCrReol+PFgIgeaiflP7E7I8Bgk+6vl8gd0cv28icI8KuQxwYnl5HQDDjll6g9oD2M33dvunt05qRfywxCQTHbq7EQhTZ/+9KedhD9UOWyuj/OiOJECvEyCCEGDNAfrxQ6ZXfhIH9xfEAPWDBUkE+UHckOunaJBigd7pka4H2jPjdUViFS6B+sP6aBYkx9SC/11uKT72em+DoJLGgbyBPHlWtIhvHw+hJQOGdQVCGmmplLpnmN43bWDQCAI185aDsuVxO6A5ITxqefhlEk1PFL1b//2b7sH6kD75gdzYewYqQvg/HmoknvORAEhwNDuSLDs6azIZ2Nm88///M+OfBDI0qkuJ6jEo6bZpVN/QEpjKA7OCVme60SmZ80yqRdBomdnzE4T9WSkCV2MASkSumVoQaRAD9KQThoAHFGpmKsRdzOk4hp3TJBiYBdObUq6B50mfCb3Ap4Ho4ENGFCrASH9u7/7O1eXkO4BAeX3Me66oKBzpAlOuucaXpcdCASCkB3rkLVnARkg78nDGimdYJtusRsPH/Lqf/Znf+ak9IHMNhgKYAiQEBt2jVxHJmkAZH+Kuth1sWNMldvZqfOg/qu/+iuXL09XmeAzlixZ4nZxBBw8BobqgKCQ9kDxQdmAuGRCiGiBQ4JmB861xy6WQ3V+6X4O9xgmRnGRKSpWOuSL3TSttJAc1BlqX+J0FsGVdkbuZ3bftOxmok6QvoAsovhAdkcruIID6/vnf/7n7k/+Ox3yxPmCDSoCJIfi25FKH6W77uF12YVAIAjZtR5ZdzYUcNF6Ro8/VfHs7NJ5GLGTQ0Jnt/Jbv/VbbucyWgfBhp0iBZZ0GmTS886OGnKA/TLBMzXnjNzLOOe//Mu/dJa46R58Brl9dum0yFFdPlQH10qFO6kgzg1r5XTTHhA4CN3v/d7vuRqEoSqYHOi14Y3ATh8ShmdBup0GqDMEQXws7rnnnq5Azn1LNwcFq9zTYJNu+gWSwZyOP/qjP3IFiqM9+Ij77ctf/rK7FmpM0kn7cQ1gAyGF5HD/DZVyNdA1Du/LbgQCQcju9Rn1syO4UHtAPpsHdroPaYrD2L2xE6VAsa82wZG6QII5BIFgnondMCSHfDwtbUiyqUVvKBEEMPwP6GRI9yBPhLSwGwAAIABJREFUTsolVg+GsuUTFYNzIajSDZDJmtHaiDSPZTHphaHwqEgXk95eRzCnWh+MIafpOncSCLn3aHeEoMa7ZHbapCtQkUg5QTrSJU8QAj4TbDCNGqp6kXTx6bkW+JCQPoLoYFqWrioGFhRZ/vqv/7pTEUab6KR7/eF1o4NAIAijg/uY+VZytv/+7/+uf/7yl3Xo4MG0ZF4uDimTIEhwpWJ6tOfREzhJMfzN3/yNCwzppgOYGYFNLUGBoIm0HB+0NGK0Qw0Cn5nuQSU8nQvsRBkIRfFYfAw2KMfOewQOdpecVzo1IwQ8JHTW69d+7ddcjn00D3BA/n/99dddqoSAnu5un/NG7YEgsG4xvqgr5OypzQCbdNNlKCtgQ0qINkGKbUcrXRavCXUI1JmQKoEMpltLQZphydIlrkPls5/5bK9eEaO57uG7swuBQBCyaz2y7mx4SH/lX/9F//xP/6Qzp7sb11ztZBkKQxDkAU0nwEi3g/U8NwgBO2pkWYJOuoV7EBvkagInAQIlJK4ap+UMGR91hZ1pugf20ki81DYMdT86O2LqITgvdt+0wqVDhthJIqHH3Qv8fbQPFANqR+jEoKAw3V1yTBD++I//2Mno8b2HggA2tOs+9dRTVxgx9XW9yPD4YMSEl7+PVv1BfI4Q99g4CZKakSo2c4ZL+/3Wb/zmoGegjPY9Er5/eBEIBGF48R3zn46USSU5Pwy3SfcgwLBDJuDw99EuhmL3iIUvtRQUW5K3TaeWgkp1FJC4bY62PwgCn0eLGYGYQjp699M96IZA4qWIbqgdCiEIFOERULnedHfJtDcS+FgvuiqGsi4iXVx6vg41hImPrBlprkzuPxSQP/iDP3CpobjbgDVj1w1JpECRXXg6RzysCmxQk3BrHG2CQMoMdQgFAWy4F9M9ULBQEOguIoUWjoBAXwgEghDujT4RIIDy4IkNdyhQTPfAhZBdMgoCwWakc7Y9zzMODqQZ2FkfPnw4rZ01eXlsddk9UktB9wEEgV05u3MIApJ1Jta3EAR2cJjtMNlyKA8CB50LscUyBC+d6n+uk3QH18iuOxsIAqkR6inAFxUh3YAOnpAdii0hCHF6K74HSAlBENIlHCgQpBXAhcp/SN1oEwSIIPMqIAj4ReB0mu4BHjFBGOr7L91zCK8bGwgEgjA21mlUzhKCQBD8t3/9N331a1/NaEAM0jkSOgSBdMNo52wJDhRzETip8GfHn470zs6aoq5YXqbVEYJAsSbY4K3ADjdTgsDuDYJAbnsoDwgCygFECJtpWh7TIQhUt3OdMUEYDYOkGIe4DoM1iwkCQTCTlkQIAi2JEIS4CJTPo3MhVhDS/bxUgkCaCWzGOkH4jd/4DacgUCsUjoBAUBDCPTAgBGIFgbxtJgoCBAEFAVk2WxQEag+QY1EQkN7TIQjsrFMJQqwgsLuNFYSBEIThVBDojYcIQRTSVRCyMcUAxqQYGBCGNXK6Af1qCgIkkZoRahDStaCOOxi4l/FXIGU22gQBb4s4xQAZzCTFQA0MBIF7cKgJ6oAeMuFNWYtAUBCydmmy48Swov3yV76sr3w5sxoEdtrUIKAg8PfR7reGDMTGO0jwyNXp7KxjghC3a2Y7QUB6hghRuMb1pptKoUaEdWK9WLexXqTYW4qB9abokXZXuhggT+mYfsWW27RMkmYgFTPaihhFisxHoVuFNFcmU0SxP4cgUAdDPUI4AgJBQQj3wIAQIJDSxfBPdDGcSt+WFhkWgyF2XTysR3swDASBdMA//MM/uEr2dIxlAGysEQRSH3HgIAgyHyKdNkeulYI1iBDBA9VktA8MrfA/oM2RHX8mbY59EQQMhlAj6Ghh152OrwdqAbn622+/3blMjqYraLwmTFSNJ5WiiKU7RZRrgfxRg0DL5mjYRY/2fRW+P30EgoKQPlbj5pWpvfi0A1KlT2EXkno6u+442KT6ByBrjuZBkCQwYJREcVc6HQxjkSBAhJCeY7dAjJLSJUNI6TgoUtxHa+dod55wv1FMCLGjdiATy+jeCAJrztpjvARBgCyk+5l0MtCu+8UvftG5ao520S3KECoRRYoMtkrXRAolDwWE+heMkkbbLXM0nwnhu/tHIBCE/jEa169AsibHSQ0C8mw6Oy4Ao+gNsxqK3piEyOS40Ty4DojOX/zFXwj/gnSPsaYgIJkTPEgvEECYZJmuWyCYYMMLQXj44YfdGsaeD8M5nruvteDcqRmhloIq/XSVED6vL4KAXwCkA2mez6+trU33VnCzKf7kT/7EFd+Otq8HpIDuItwUMUlKl/AycIppl3GH0Win/tIGP7xwVBAIBGFUYB87X8pDmYdQPIuB1rB0HkbssMhvEmjwxIcsjNZB0KSWgnY5lJB05dixqCCwNhTf4YUAsaNjI91dMtfLzAxkdIgduWpy7aNBDrjv8HIgtcXoatIL6dx38T3WG0Hg35DmIQaoEjgQ8t/pHtzPpF+Q5iG8oxVcUYkoRP3Sl77kPD3SVYhYS9aU+RSYmJEqGW0lJF3sw+tGB4FAEEYH9zHzrQRXgg1V8TyMyNumU9jFBRJYsCdm10V7GJa3oxFscODDIIdcNpJsJrvGsaYggDsFbFu3bnUW2RSwZUIQCHz0+kMQGNw0Gjlq0liQHM6flkQmOWZCDvpSEPj/YEFqAfKBOpGuRTHvZYYGaTNqa/BFwIZ7pI94IiWkHfMy6k3SPUgZYSBFnQk//H20uzHSPffwutFBIBCE0cF9zHwrD2sK3chpE1wJPOmmGbhICqKQZPERwIEude7ASIDA+bMDjf38sUTO5PzHIkGAwJFrRy2hRRDCkO7B9cZzNL7whS84Y6iRPiiMjS2WqRdIN7+eep59KQhgQ/cC6goSfSbV/ygGeHrQzfCpT31qVAJsTP4gfvw+ci3pHvzuQfpQD1ARUBNGg7Cne77hdaOPQCAIo78GWX8GSPKoCLjZUU2erqTJhTHciJwnO1IerKnDjkbiwimyhNxQQ0GhWybBkvMbiwSB82ZnTL//1772NbcDT1f14b1I0Sg/WBWj/FCLMJIHMwaon6BWAHKXSQ1FfJ59EQT+HT8PFASmcFLQmYk6QVHfpk2bnE029zMmTCMRZONzxJALbBhehYlUJp0dFKHSxkoKiWtAEQlHQOBqCASCEO6PfhFgx001PAGHnXgmkjW7Fh6iDzzwgJsSyINppHK3uArGVeuQG8YHZ3qMVYJAGoXdNwoCBW2ZDDoCI1INSOkQO6ymR6raHfWAnTHpBYI3ATDdzpl0FAReQw4f8kHLayZjpOPPR2Eh0OLSSEfASEwqhSBQLwFRj+uBwCYT4kerMcWJjKxGzQv1B5k+Dcbf6wNBGH9rnvEV83AiuLILx2SG/vRMH9orV650Q4BINVAINxxz6FPbM3lwxm1yKAjUIGSqHoxlBYFdN4oJxXhcP1hkcrC7pK0P50BIAqmi4UwPxeOdX331VXfOtCFmSmrSJQh8F7l7Ai2KGGmGTDokIEvcw6grYEMB7nDcz6nXg+pBcSW4QG4yJbusHcQGks7PaNRPZHL/hddmBwKBIGTHOmT9WfCA+va3v+0eqplKm1wcD1XMkyAIH//4x10bGtLscMizkBckdir48T7Arpfui0xJzVgmCFwr7Zy0CIIBpjrpWEvHNyJphrhVld0yOWvss4dj10nAhrzF0zapc2GGRCbSf89foKulGPhculriVlBISSZSPfcsyhJ4oCLQqYML5XCRBMheXJMBOQCbTOpoKERkTPmNN97ofvcotBztNs2sf+CFE3QIBIIQboS0EOCBhAMh+U/aw+hmGEjA5cGNkoAhDzMahnonQ1qBHSG7Z86Tzgt2onE/f1oXm/KisZpi4BIo7iO98NWvftXl3KnHyPSgtY+0EAQB8ySk6aGU1CEtBDx29OyOKb7LZOZHX9dzNYLAe8ACVQXCS/trpt8ZkwRGgaMk4LLIBNN4MFSmOPf2+rhjgToM3BLxbqDINp0j9X6H7G3cuNGRA37vKDwdrfbVdM49vCZ7EAgEIXvWIqvPJH5YsRPlgZpJ/3V8YTy0aLWiEpwHKkVeFDD2VriYmi5IFxjIAQ9Tzg31gL8z4GcwO9GxTBC4bgoUWS+mITLBMpOcdazuYK5DUKG1jxZI1mwo2h8hBxgg0dNP2x7FiZzvQMlc6n3SH0GA3HK/UOvw13/91xl1A6R+D9hAdMEGEgVhGKxraHzv06FAaoyCROZroAhlohy4HaAxTtlA6WA4EzUTI1VPku7vbXhd9iIQCEL2rk3WnFnq+F1aHtmR0iZG0VSmwTcOOkie7LwINuS3mQMAUSD3nUnagYBHTQR98+RlkafJ1bIjzaSYsi+wxzJB4JoIggynorgU0pTuBMOeeEDs2CHjtIiiwN9xFkQB6k1a74vgsV4UInIeBDxIHIV3yPwDUTgGqiDE72NnjtcCihPdOgNRxSi6JcWAhA9BIPXAlETu6XSl/Pj3iFQHigpEid81zgtS/v/bO7dXOaosDtfbRIeZgA8qivGuSBSiZkaCL4aMF1QUUTEqBi8vQhAVRPRP8ElmBi8I4ly8YFBhFMk8eEFMRkdFcEYxT4KgYF70xT9g+DauUOk5Oaequrr36u6voOlzTrpr7/pWpfZvr732Wn2yJbaZIAYIOKUAFwGK1JTwkEBXAgqErqT8XCHAjDySzDDjGxL4x3lwcTLTQiggEEjaQrAXLmz+TsT1ehXzeJDjQmeWxSDD8gfvzEgRDDHYTDsbXXSBACcGG9bbcaczWx8yCGIzAt1YckAUUMwJLxA2I/iNZYf1ajfgLUCs0Bd2J7CmTsIilqr4W18X/0b/HTfyIPB9BmUGY9iwcwLPU9f7efK+it063M9bt25ttm/fXhhxP+NlWI8N/SDOgP9bLCEgclkaYksjbPj7EJvRR7x15D7Ag8ASUe2iaRvZzX/PRUCBkMse6XvDg4yHF+vFZFfsGx0/eYEEULFuy4yUnQ7MdhAI/A03NjMgAuN42PGQJNoczwAPcmILmFnRBwIR8SCQo6GvV2M96IsuELg2Bme2e7LUgOenb16EST7Yghky69oxW0Y4YC8GIGyGuMNbgL0QBsyMsRezdAY+xAFiDluOaa/oaxeBEGyIWUH0IqD61nxY637GE8YuB3aBxP2MZwxvAt4G7mfu5RBNCF3YIAQQTLBBKHCPDxEG0SdsgCggNTRiDo8PbQ9Zvkv/YLKDMyGgQJgJ1uU9KQ8XHmiffPLJkWIxDADTHAw4PDyJmmdw4YVAOPHEE8vMFBc2DzsGG9pmRwJeAgYd2sZbwM99tqp17e8yCASulRk6SwwEmeLOx8U/zcCMsGPQgw/24r1tM2bMrJcj2GJJgT4gMLEh9uqTcKurvfoKBD5PP1iGYbcHyx14paYZmGEDjxC4cEJAhYjC24B4QhzBhKU6BAL3crAZY3mMJQ6yJlK5kRiSeeUf6WsrP5+XgAIhr21S94zZDoMNM1I8CmO7iJnpIBh48UDloRszLpIAzWrmOQl9WQQC7KjyiDjA80PwW5+tfRvdjBGAijudARFBR5uIBOw17Wx4o/Yn/72rByG+hxeBpEl4EhALY7PhHoYLHhbEEwIBNnDh1WcLahcWLAMR4xNplccIKu3Srp9ZLgIKhOWy59yuhgccrmKCvHioEkwVEdbTrvu3LwJhEAVlmPEys5tm5tsX0LIIBK4b+xAYiL3YMkc+izEDA2kD28cWurDXNLPxvvYa4kHgO3if8KqQpImsm4jesT0cwSb6CJex2dAGYoTdJgQlssSAZ8eiTEPvpNX+ngJhte0/1dUz4LD+T4AXAw7BZ0MK60zViRl/eZkEQgyEpM0mRwSDIZHyY89eZ2ySTqfv60HgpIheRNObb71ZvGP/+c9/iWTs1F6WD7EkR2zIzTffXCo2EiviIYGhBBQIQ8n5vUIgcg+Q4Y3ARXY29N2rnRllCAQyQN54441lLZdZGjNOxBGJfQhuw5vS9SC2gj3prA3X2HaGzbATy0NDUg13vc6anxsiEOgvXoOvD33d/P3FF5t9r77aHP7h8JHYlth+O08P1noMJz11xOpQZGv37t3Fg0BQop6Dmnfh4retQFh8G1a/ArwGURIaocAMdezdBLUukjVjtquFQGC/ewgEEg8hECiINEQgkBOfLYI1DtbY2RqKQCB4kWuZRZBnjWujzaECge8SSPnRvz9u3vrHmyUuAa/CkIqS87r2dlZH0mKT+pndE4qDeVlgedtRICyvbed6ZVE5kT3lDJps1eKh2idz31w73LGxWXgQCCDbu3dvNQ9CXDrCDjsRk4BIYJsodmSGnGWW3NFM//exaQRCeMYQTXjFyPKIAIZNtvuZYF52kbCscMcddxTPAbkY1sshMpSp31s9AgqE1bP5qFfc3lON1wC3O5HyzLzwJLCvm4dqhgGHmVYUG6JPXQLE2EVB5kDWc/EikHiG8/B99sxTUpkKl33yQZDn4YEHHmjuv//+spWz5oFIIOskqXzxKJBP4ttvv+3EZtb9DnuFx6bPPTStQODa8KjgPYANLwIXsXMWkYB3K5KMkeqZhEh4DvpkIp21DT3/YhNQICy2/dL1nkGXfe9kyiMQDqHAFjK2JdaITYjIcWZZzNx5qLLnvGuyILaHsV3spptuKrn2iRmItV/2yxPM9uyzz5aBo8vujUgy9OCDDxYPwpiFj4beDNiFhFPsRMEDhMDj98kZc5frG9qH9vdwjZMXA3vhwWE5BHv1uX/GEAj0iQBO7heyG+JlgQ3LSbCZZ3Bnmz35DNgyScZGhAEFmEjMhJh1WWGMO9BzBAEFgvfCTAiQF4HZKC9mXqRBxk07z10OMQMlSyNxBMQP4OVgNkjK4WM94NsPY7aI3XrrrWU/+aWXXnpUkSKukZwCTzzxRMkx0GWGyxY0Hux4D6iuxwBY+4h+MwgzY8ajwDs2YzAce7vfRte7ZcuWYi8yEWILAipJYNQnN8FQgRAescl3RAI86AueMe5pslPOmw0iADFAanLSOXOdcJpVqemNbOW/LzcBBcJy27fq1eGiZRBlsGHmRRElBpzIoseMcOzAuEjYg8eAWShLAkR24wUgLTBZ61gWILBwo4x5zMZw4d57771l2xgDV3ttl74zq3zyySeL6OiSUZJzsE5MpDmzPwRDhiNEAjYhHwDCjkGZmXOkRGYwJK6kixDqc03MiOHAIIfXgKJHzIoZBBmYiZGgGiXJuboeQwXCeudHUNIH7uf33nuveFxYQiOXRLDpsmzV9Rr4HEtisOGFNwuxS24DUidzP0dSqj7n9LMS6EpAgdCVlJ8bTABBwIMUccBMm4GZF0sPBMaNmawHlz0FcvAWnHnmmWVbIoM8D1YesAyAeA+obsg7fVhrwENosE2MZYU777yzVDFcqzIf10Q+AQLZSD+93owSwbFz586SG5+HPMFkGV3C8GCZiGvjxfIJRY2wFV4gRNZYB/bCTtjsjDPOOPIzgx81DbhvKMlMnAfptbsesxAI0TaZIfEe0DeYxL1MUCOJqMYSCYgCYgrabGDFvY3wnSy8ZI2FrneHn+tKQIHQlZSfG0yAB1cU7mFGyEOVgYfBBrctvzMzZYbGrJwHbAQRtiPqI/iKdwZWZvO8mGXxjgA4++yzi9uV5QBEATEDUcshvo8rnRk/MRJ4NvByIBxoi/OQCpelBYITr7rqqjLTZzBfK/gLQcDAwHZBdm8ggLgWrqN9PjwaBCTiiWC5gn5mjjQPmxE7Ai+EFDNnPAokxELUYSNsxnv757bgClthL+wULxiHvVhywVuAvRgQsVcUNOL+QBzg8UG0dD1mKRC4Pq6bF2IJNtzLUaGSv8X9HmzivS0eYBMxMnEvwyW8BghUCpjBhneEAh6DuN+7svBzEhhKQIEwlJzfG0yAQYfZIJX9GHwovkQ++sjZz+BDrAKf4yEcIoFBJpYQmF0xg+LFQMODk3dmnWSP4+FKcZy1Zuick/ZjTRmBQl8QCazx4ubm+6z1MpNFZByr0A19i90biA6q8LELgEGCdugnfYpZMuvGPOwZBBdlxseghm0IXGS2jM34Hc8QdsNe/I7NeMGR78CeAY9rxU7EW2AnvAZhL0QTRYVgzM9t0cSgylIHVShJf9xXILBThDLHiL0xj7bdongZyzKwgRGCEzYwiXuaexk23CtcV8THcF9Fsas2G+5D7l/YkCuDe2gtD9aY1+W5JDBJQIHgPVGFQOShD28BgwpCAQ8DD1cesjxQYyZOJ2M2utZDlUGAwZjZVXgX2jP+ycGY35npIwxi2YOHN8WGGKzwGDBgMbhttAwQM0r6z7nwKDCI0ne+z7kQBYgEBsrYalkF/BSNtmfDsMJWvBgE4x3BEIMgg33YigEPtgx6Uc4be/GZqLcxyRmBRZ6GoQKBnSIIBNqd9RH3cXhSuH+5HxA1/BxCKnY/hNAN8YQ44B6GDS/EQPte3ugenPX1ef7VJKBAWE27p73qCPbiHdEQe85jgI/BP9ywPGCnCfTjvDy8eYgzIHE+HtY8oIfsJ2emSCAbIoe+M0AyOCI2Frnc7lreDv4WJZ0Z+BBc2C28PjFLbtsKrjDuwpbzsVuA5QXSQjPgdj22bdvWPPTQQ0UgwL/GgUAMLlxLBOUiJkLswob7AiawwZuQeempBkfbrEdAgVCPvS1vQGC9aPkuA0wfwJPr5n2+O/nZdtxEeD7G7u/Q/jE4IYgQMggYBBcDFO7/abfKTV539LEdO7JRv8MOfId+krzplVdeKTtP+pQURyA88sgjJX9FBtd8XNfkPd2HzUbs/HcJjE1AgTA2Uc8ngaQEmN2z9EGAKNH2LOEgDnD7EzTJiziOEDW1L4O+fvDBByXXBGXFEQxdj4svvrh5/PHHS4GtRfbcdL1ePyeBWRBQIMyCqueUQCICeA2YfRMbQdAfuxBieynLMwRlsnWOXQQEZRIrkSGBE/1k+yilxElQ1LVgEi76HTt2NI8++mhz7bXX6rJPdC/alcUioEBYLHvZWwn0IoA4ICaCAZatmOy0YIcFMRKskTOYsu7NzgI8CWztZCsm20RZH6+1NIIrnmREBCjyzi6BrjUQCEokfwW7GMg3UesaehnKD0sgIQEFQkKj2CUJjEUg1vGZiVOKm6RH68V2sNvivvvuaygbTNbHWjsuCO5jaeGZZ54p4qZrSmMEDwmXKHl89913F6HjIQEJDCOgQBjGzW9JID0BhABpkskhQKAfywqxw+BYnWdpgVTQ1J/gneWHec/A6SPbRV9++eWSRZH8Al0PtpESoEj1TUQOWTQ9JCCBYQQUCMO4+S0JpCaAOGCnAumfmYWT5bFL9UESG+E5uO6664ongYyE8z7IHYC3Y9++fc27777bKxU3uQRYXkAc8E7SLA8JSGAYAQXCMG5+SwKpCRB7QLZI6k288MILZRfAeksL7YshcJECV5SjpsgViXvmeXz00UfN888/X0QCmQn71DYgKRXeD+IoSFGcIdhynuxsSwJjElAgjEnTc0kgCQEC+nDNE+BHkiG2C5Kop+vBTgaWGK6//voS6EfyqFkfBE2Spvr1118vyyLUN+gamEjfWApBIOzdu7dUy+Rnkw7N2mqef5kJKBCW2bpe28oSYNbN7BsPAoMtrvo+pbXxIpD9kWJVVJ9kd0M7n8DYcQl4N8jPgNeAbY0kSOqT9yAMTZDlY489VjwIGRIkrewN6IUvBQEFwlKY0YuQwNEEGHDJfYC7/rnnniuDbjtLYZflBkQAyZOIR7jhhhvKjoBZeBKIjaB0MmKG0tmff/552ZrZZ2mB3RYIGspy40GgAqf1C/xfIYHpCCgQpuPntyWQlgADLyWan3766bIjgK2DXYRB+4IYeAn0u/rqq5vbb7+9oRolOwXGcN1HLQfEwTvvvFO8BwRVUnOhjzigv9RbuPzyy8vuBbY4stVxbC9HWkPbMQnMiIACYUZgPa0EMhBgmYEYBJYZGIipvDjkICbhmmuuKfEIW7duPVKZcsi5+A7xEKR7Ji8DouDAgQOlciNJnPoeCAGSI91zzz3NXXfd1Zx77rlFxHhIQALTEVAgTMfPb0sgNQG8BqznkyiJTIoE/g058Biwm4EaB4gEZuvkGGCXAP8WZZsZrCdn7ngD8BZEKWTEAcGIZHV8//33S8VG6i6wLbOv54Broe3zzj+/efjhh5vdt91W+qT3YIiV/Y4EjiagQPCOkMASE4jtjh9//HHz1FNPFVf+NAfFnMiNcNFFFxU3/imnnFKSKbH+zyyewECCGVmaQBREyeOff/65OXz4cNlZwfZLPBtffvllyZLI70MP4gzOOeecZtcfdjV37dnT/H7770ZZ/hjaH78ngWUioEBYJmt6LRJYgwAigSyKf/zzn5q//eWvZXfAkJk6s3IGfWo34MJHDCAQcOkzSLOtkJoO/J1dEHyWipEsa5D86NChQ0UQfP/99yV1Mh4D/r1vXASXGB4CvBpUbLzllluayy67rIgUDwlIYBwCCoRxOHoWCaQmwGC8/5/7mxdfeqn514GDU83a2xeKp+Dkk08uQoHBmmBBxAEZGRn4EQIhEhAGCJU+2y2PBRWBQHGpSy65pNmzZ08JouR3lxZS34Z2bsEIKBAWzGB2VwJDCDBYR2ZFKiSypZDyyUNm75Pt4+ZHKCAK+Lm9vZDz460g/gBh0CXdc5frw0tBbga2YFLSmVLVa8U/dDmXn5GABNYmoEDwzpDAihBgsGYWT06EN954o/nss89K2ecxRMI8ESJG2FURKZURByZFmqcFbGtVCCgQVsXSXqcEmqbM5KnwSLDia6+9VnY4jOVJmAfgKCZFIiQEAgWZWNLgQOi4xDAPK9jGqhBQIKyKpb1OCfxCAFc/IoHERG+//XbJQ4AnYZZHBDhO0wbigIDInTt3lpwMZHaMao2Kg2nI+l0JuMTgPSABCfxCgFgAah9QoyGWG9iKmHG5AXHBEgJpn/EcUECKlMrmO/B2lsDMZ+JrAAAG00lEQVRsCehBmC1fzy6BtATwJJBdEZGwf//+5sMPP5y5J2EIDLZObtu2rYgDkjSRg2HeJaiH9NvvSGDRCSgQFt2C9l8CUxDAk0BWQzIa4kn44osvGjwJbE3sU2p5ii4c86skXEIcsJVx165dzRVXXNFccMEFJQ+DsQazIO45JXA0AQWCd4QEVpwAQgCRQBVFEhmR4ZD0x2Q95Kix7MBOBcQASwmkdUYksHPB3QorfrN6+XMloECYK24bk0BOAuQqIJkSQoG0zAcPHixigeJJZF7EqzAk+2Kfq920aVOJK+B16qmnNjt27GiuvPLKsrxwwgknlFwLHhKQwPwIKBDmx9qWJJCeAHEJ5Er45ptvSmpkYhQo8ETZaOonzMKjwHIBNR7OOuus5sILL2zOO++8krqZoER2LWzevNklhfR3jh1cRgIKhGW0qtckgQEE2lsFEQo//fRTEQp4Ej799NPmq6++KnUVqBBJ7gTeSaXMZ7ssQyAEyLJIbAFxBCwX4DVAAJx++ullSWH79u2lGBSpm9nWSKVGDwlIoA4BBUId7rYqgbQE2kIBEUApZrwKxCRQkRFPAn/jxRLEjz/+WJYhEA3EM0wGNzLIIwoo8IQYoGYChZ1YRkAInHTSSeVn3slrQHVIDgMR094idmxFCCgQVsTQXqYEpiVAjAJi4LvvvitiAaHwww8/lEqNeBaIU0Ao8Lk4EAe/Om5TqbK4+Te/Le+Uht6yZUvxGpx22mlHijy1azhM21e/LwEJTE9AgTA9Q88ggZUhgHcBr0IELrIdEs9BvBAH4UlgwGeZgFTIx/36+Ob4TceVn1laoOojcQcEJCoMVub28UIXjIACYcEMZnclUINA11TG7HSImISo7OjugxoWs00JTE9AgTA9Q88gAQlMEOgqKAQnAQnkJaBAyGsbeyYBCUhAAhKoRkCBUA29DUtAAhKQgATyElAg5LWNPZOABCQgAQlUI6BAqIbehiUgAQlIQAJ5CSgQ8trGnklAAhKQgASqEVAgVENvwxKQgAQkIIG8BBQIeW1jzyQgAQlIQALVCCgQqqG3YQlIQAISkEBeAgqEvLaxZxKQgAQkIIFqBBQI1dDbsAQkIAEJSCAvAQVCXtvYMwlIQAISkEA1AgqEauhtWAISkIAEJJCXgAIhr23smQQkIAEJSKAaAQVCNfQ2LAEJSEACEshLQIGQ1zb2TAISkIAEJFCNgAKhGnobloAEJCABCeQloEDIaxt7JgEJSEACEqhGQIFQDb0NS0ACEpCABPISUCDktY09k4AEJCABCVQjoECoht6GJSABCUhAAnkJKBDy2saeSUACEpCABKoRUCBUQ2/DEpCABCQggbwEFAh5bWPPJCABCUhAAtUIKBCqobdhCUhAAhKQQF4CCoS8trFnEpCABCQggWoEFAjV0NuwBCQgAQlIIC8BBUJe29gzCUhAAhKQQDUCCoRq6G1YAhKQgAQkkJeAAiGvbeyZBCQgAQlIoBoBBUI19DYsAQlIQAISyEtAgZDXNvZMAhKQgAQkUI2AAqEaehuWgAQkIAEJ5CWgQMhrG3smAQlIQAISqEZAgVANvQ1LQAISkIAE8hJQIOS1jT2TgAQkIAEJVCOgQKiG3oYlIAEJSEACeQkoEPLaxp5JQAISkIAEqhFQIFRDb8MSkIAEJCCBvAQUCHltY88kIAEJSEAC1QgoEKqht2EJSEACEpBAXgIKhLy2sWcSkIAEJCCBagQUCNXQ27AEJCABCUggLwEFQl7b2DMJSEACEpBANQIKhGrobVgCEpCABCSQl4ACIa9t7JkEJCABCUigGgEFQjX0NiwBCUhAAhLIS0CBkNc29kwCEpCABCRQjYACoRp6G5aABCQgAQnkJaBAyGsbeyYBCUhAAhKoRkCBUA29DUtAAhKQgATyElAg5LWNPZOABCQgAQlUI6BAqIbehiUgAQlIQAJ5CSgQ8trGnklAAhKQgASqEVAgVENvwxKQgAQkIIG8BBQIeW1jzyQgAQlIQALVCCgQqqG3YQlIQAISkEBeAgqEvLaxZxKQgAQkIIFqBBQI1dDbsAQkIAEJSCAvAQVCXtvYMwlIQAISkEA1AgqEauhtWAISkIAEJJCXgAIhr23smQQkIAEJSKAaAQVCNfQ2LAEJSEACEshLQIGQ1zb2TAISkIAEJFCNgAKhGnobloAEJCABCeQloEDIaxt7JgEJSEACEqhGQIFQDb0NS0ACEpCABPISUCDktY09k4AEJCABCVQjoECoht6GJSABCUhAAnkJKBDy2saeSUACEpCABKoRUCBUQ2/DEpCABCQggbwEFAh5bWPPJCABCUhAAtUI/A9nksOGMjFP0wAAAABJRU5ErkJggg==;" vertex="1" parent="1">
          <mxGeometry x="640" y="420" width="70" height="70" as="geometry" />
        </mxCell>
        <mxCell id="-vzZBH9pDmQiQkNsos74-23" value="Openshift" style="aspect=fixed;html=1;points=[];align=center;image;fontSize=12;image=img/lib/mscae/OpenShift.svg;" vertex="1" parent="1">
          <mxGeometry x="653.26" y="560" width="43.48" height="40" as="geometry" />
        </mxCell>
        <mxCell id="-vzZBH9pDmQiQkNsos74-24" value="Slack" style="shape=image;verticalLabelPosition=bottom;labelBackgroundColor=#ffffff;verticalAlign=top;aspect=fixed;imageAspect=0;image=data:image/png,iVBORw0KGgoAAAANSUhEUgAAACsAAAArCAYAAADhXXHAAAAIFklEQVRYCe2YeVDU5xnHX0VAsYexY9uoY9VJbMaOf6SCXPVIGxMVkUM0Oo5p6kwbM7bTaK2NpvHiEFSqkIlBrRcoGlttRjkVNVU55FhAVOSQc2F3AREWkGORT+f9IQuY35JVSWcy4868s7/3et7Pfp/n977Pu4Lv0Ed8h1h5AftteeuFslLZTmMxbRWxmOpvDZrQ34qyDwsOYjjxErojAn2UA805/oMCPOiwnU3lGKJHoz86BH2kHfpjNuiP2WKq0zw38KDDdui+6gWVsJF26A4LmjRb/n+w5a2NfFz4X1blxRKtu0MXXaqLdxpLMES/hP7YsG5lI+0wHBUYYxwBE0ZTJ+kPGjlUXsWJSh3Vre2qdtQarVJW22bktWsHETH+iNhARGwA24qT1ewpbfUX5mM4IqiPGkZdlC3FRxxIODCePZor/C6nAI/UbN5O0TA3WcNvs25T+bDNoq2+HVbB7i69gYgJQCTs7C7xwfzocjiG9pa+tszPHXcjKDhox/mIsQTsmcp7wTPw2uaIx3F/PNPv4JWWYy5zk7PYX6o1zx3owSrYvxde7Va0B1Z+xwVxWpffz3ZdewdJtQ8I0lzn3RA3vALcWBTgjm+gK37+TiwOfwevtGwzqISel6IhpLCsnx1LFatgE2pLEPE7epVN3ImID2JZ7jkMbe0kGu6zvaCEFZl5zEvJZl5qDj6frcTP3xE/CaoUF/yC3PBOisErPU8BXijDIVnDldp6S3z92q2CbTK1M+lqBCIhBCFBz+1AnNyKw7EAfFIzWJCSzfwUDZ6pj92bkY/P6d34bf9lH1hXpb7oVAjzbtxmQWo272bd4gutnkf9kCxXrIKV01dqYhDHP0Ec3IT4dANi73rEnrW8HncO38dKmWPxRh7eSXH4BbnjF+iCb2B3OHhvn8GqiOWE3asgrb6RRpPJMplKz4Cw8i39d7WBTfkluCfGIfasQ4StR4T/tbvsXcu46H1fh03LQbp4YfhyvP1n8PsQR0LDfs7F/WMojRoNjQUqKN/cZBE2Rl+L741cZYtRtprr6dhHbO4PG7Ye+4gtzE/OwCstV9mS5AvjmZrNB3ml7Lu4k0v7fkjZUQdlG7sfNQz9YUHLnfBvJlMZoQqra2tnSfpNRZ0e1/qk5zE2eh9i79peZaXCe9cxPS4G2b8m9y7/LKviZmMTbY+6oOEm948PxxDZe0DIfKE+8U3oUj9UVBjNTaqwWQ1G5aXpAZXfMi6nx51T4JRQkDErYfetZ1bSSe42P6RdAvb9POrkfqwrup48QckVhiknnDzpnvajCqtva2dp+k3FrRJ0UVoOHqk5vHE1FZvPP0Hs34g4sRXxZRAiLphXrh2g9VGH6trNOYFKbqAkNX1yhZbi/ebxpgItbXHpmPIrzW1qD6qwcmC8oQ6/9FxlS5Kxu+F2EWera/C8cQYRG4S4sAuRuMt8ol2oK1WzT0edBn3kcPSRthii7TB8YYfu6FBqDs2lKfRLauZsQjtyKRXCA+3IxTSFnFG1IxstwsrOqtY2UusbKGtpNRs4rc9XTi/z0StPs9hA1ty5aB7z5EN9khu6I0OoDLSnaOkI8l4dgcZmJKXi11QITyqFN5XCh0rhhdbGh45s9RAZEPbJRWW9pr2FH1/+FBEf0nuixQfzytWDtHQ+EQodJjoyiqj6YAm5k4aSZeNApugp9hQKJ7TC7zGohPWhQsznYeRXaksPrKzqDMA3+z/dodCTK8hTLWkXV1qqoa2D9ut3MG6MxPD6h2htFlMsZpIpRpAlHMwlUwwnT0xAKxb3gfWicqg3HVnFqks/tbLSSlTVLSU3EJdCEZdDsTm/g++H/YUtqzfSMO3PVA7xVhTqdnG3e3PEGLL6AY9AI35AmZhHhVikjK+098G49ZQqqGx8Jthq2hkT9w9Gha7j1ZXLmeH0G9wnOrNs9AxKhCdaJf663SpdK12dL6aSKez7KOtAhrCnyN6dWue/YfQ/RUf2PYugTw3b9aCZ1rgMmt7fxx+neeI6wYk3xjkye4Izsya5MHOSC5fsPdAL3z6ulbCLuSdmI10vY1Zj60Deaw4ULhlC7VFvrM1krFa2OfwcuomrlLfXIDyIHDEXl8ndkBJUFufJzuwc9SY1ZlgZDgupEAvQfu8d8qeNpXiFPdoQe/RRdhhO2VB7ZhyPWmsGVLSn0yrYttgMZR+UsSXdWi18yLFZxFs/c1XU7IF1m+zCipd/RZnwoFIsoGrUcure2kzzZzF0FulpSv8Q/QmB4UT3RVK5TB4RtJZYjtMeUKvD4MHqz7tfgD6xKIHX/GQ2rpOdmT3RmTnjnZgzzgnXKe5cW/gRrQcS6CzV912LduXm25sn9Nx8G5Pf7zfOUsUqZY1bT1Ih3u4XhzXCm8PD5uA63hG3qTP5hacPP928Btuoj9lSnqq6XpepmdqzU/pd1XWHBE0ZG1THP9loFWxneQ26KasVYLlpyzg0vPwet5YFMSlgHfantiGSdivbmEgMZnrKMUxd6vn/w7v7ldNM/pcgQWtOj8fUYF1+axWs/IWdFTUYt0bT8KcIWs8k86imQfnnYFbOvxAJwb2nWcJObBN3oWnsHwJ9VWqrOE9j8h8wZnxEZ2Nh364Bn62GtWQlrCzj6zff2ECiqm9bmvLM7c8NW9RSz/ALoYj4x+rGB2OTuItso+GZoSxNfG5YaTi8PJORF3Yr+YJD4m6CS9Isrfdc7YMCKwnym+s4ayjgdlPtcwENNHnQYAdaZLD6XsAOlpJP2nmh7JOKDFb9fyKmhLT+SMyvAAAAAElFTkSuQmCC;" vertex="1" parent="1">
          <mxGeometry x="730" y="223.5" width="43" height="43" as="geometry" />
        </mxCell>
        <mxCell id="-vzZBH9pDmQiQkNsos74-25" value="GitLab(Source Code)" style="shape=image;verticalLabelPosition=bottom;labelBackgroundColor=#ffffff;verticalAlign=top;aspect=fixed;imageAspect=0;image=data:image/png,iVBORw0KGgoAAAANSUhEUgAAAOEAAADhCAMAAAAJbSJIAAAA5FBMVEX////iQyn8bSb8oybrUijhNRP1u7L8pib8bCb8aib8nQDhQCn8mwDiQCX8oib8oR38nibhOhzhPB/8dyb8cybmSij8oBPgLQD8kCb8mCbzYCf8fibwWyf8hyb2ZCbukoToaVT98e775N/rfm3xp5z/+fb8sFn8iib9t2z+3L/+5M7+7N352tTvmo3pcV797en4zsfztaz90Kb8rE3+17T9vHj9w4n9yJX8pjjkTTDnYUvlUjr1w7vrf2/siHn40cvvcEvrTRvxf2PqQQD9hhH9wIL9uG/+6Nb9kQD9fgD6jD/yXABCckptAAAJS0lEQVR4nO2ca1/aWBCHiwGBAAaoht4VK9ZLa6v0Zmvrdndru7vf//tsQkhycs6cS2AmgL953pfJkIfzz5kT++ABwzAMwzAMwzAMwzAMwzAMwzAMwzAMwzAMsxbcXt5QlzikL2Fgf9QYHdCWOIpKXE9oa+h5ParVaqNtyhLjuERjn7KEif1BVL73hbLEZSMu0aMsYeK6V4u/4beEJQ5mJUavCUsYmEkadXhJV2KclBi8oSth4s1gVr53QFdiu5GUuKYrYeLrzKDoJo7JSlwMkxKr0fQwMSjqkGw1naQlVqPpXNJabXhBVWIuaaTpV6oSJlJJCTV9OUxLjA6JShjIJI06JHqumuQlBkc0JUwcDbLyw5c0JW4aWYlVaJpLGt1EmgfHXNJVaPo2N4hMU7FE9ZoeNYTyw28UJW7EErSPvxCipNFNpCjxbSiWGFE+/gIUJI06fEdQQypRsaaXjUL54Xf8Eu+KJarW9EtBUhJNvw+LJarVVJKURNOGXIJwl6ZyKZcfoGt6K5eg3KWpHEiSEmi6P5BLjOh2aQpj+fuNyt8i1+ipX2KFmm6rHQ6Q52Gv5V96tZpeKN9vdBNxS6iSRiUqm5sCkqIPGq6BL5FumCBzA3WIO2gAJKUcJshcDIHyvSFmiTeApNVpOgGr42r6FZCUbpggA0qKq+khJCndMEHmJSQp7tgWlpRsmCChkRR10ABLWpWm72BJMQcNGkmphgky32BJMedhRzpNasMqNNVWx9NU3n3mkAwTJLSS4mmqlZRmmCAjb70FsAYNR/ovsdej13SgNQhNU72kBLs0hVu9QVjzMGVEIoI/TJCBdjW5QyiaKiOSQokaRgkTJkmR5mHqiKRQglhTcFeTgzFoGJtLYA8TZHQPjHMwBg1GSenfWjBXR5mHmSWlfmvBIimGphNbCdq3FiySRg4tPWgA5nhSCVJN9ywGIQwaoDmeVIJQU8MDY8qy8zCrpLSa6nc1GcvOwzQjEhFKTXVbb5ElNQXneHIJsrcWHCRddtAwsd9CyrcWHCRddh7mICmlpi6SLnmAoZnjySWINHWSdDlNJ04Nkmlq2HqLLDMPM4xIRKjeAfuj7saPm+1F+fOHW4m/SN5aOP+95ciPxqK03Aq0/76i6PAqfNR2u4AXHSfXVOqODT5tTik6nAbN544tLthg54nTp7e2PM8neGth3PW85q6bRvUFW3T79Hbf80ICTa9Cz/N23K7hyWKauknaftT0vIBA0+Mg6tB77ObpQg26Sdp+3owvBF/TSTf+XK/5yqnFxTR1EaT9cNagF77H7vB96CUtPnVpcSFNXSRtbfWT6wiOsTtMJI1xWW1aCzToJGn7cXN+GSHyAcZc0pi+i0wLaNpx+Nz2q7RBdE1TSWNPXYJ/AU33HBp8mjWIrulJJmnUokPwl9fUQdLWrifg42raFT+7+dDe4l7pDu2StvuFDk8xGzz1xc/2drasl1NaU7uks6jPCU4wOxQldQv+spp2nlkbfN4sXgSqpt3iZ7sEf0lNrZKmUU+jqSSp5xL8z8ppapO0tbUjX0Nwh9fhh0D+dHvwt0t1aJW0/Vi9BB+vQ+UWeg7BX0pTm6RC1FNoegZ1aA3+UppaJBWjXtD0A1aHkKT24C+jqUXSYtTndLE6BBu0B38JTTuWL6sPX4F/htMgKGmMJfhLaGqWVIp6fE1/hvDn24LfXVOzpErUo2uqBFHuqTn4nTU1SqpGfQ6Opr90knq24HfW1CQpEPU54U+MDj9qJY0xBb+rpkZJoajPCTA6/KxZShP6ppvoqGnnhaFB3SqT4J8v3+DE2KDXNK02rpoaGgSjXugQ44dorGAOfrcDjI5+yKaL+rzDXwgdHptvojH4nTQ1SNrSRH1GF2OPeCpvDmUMwV93uonaBvPZoQakff6JcTH1TMHvoqleUkPUzxvEGpreGRIxxrDNWEZSU9TPCD8jrKQJ733LgqoNfhdNNf/UGPUxXbTNU8T51GKqLvjtmmolNUd9ZCjy0Pujeb3pL6ypTlJL1IdT9JcVzkKTqdrgtx9gaBo0R333I3Z/EZNj04Kj22ZYNYUlbe2aGgwCpK2vzJXJVF3wLyapMer9Y7I/DTrfMS04cPBbNO3AjhqiPuiSvEyTYopGeJthOcAAJQVnh3MQQxDGEI2a4DffQuhMzbTK+JghCPNWH43wNsOoKSRpa1cb9UGIeqSmwxCND4GfolFTSFJ91IfTiv4Dl7NAZ2ofWm1KSqqP+u6navp7YIhGMPgNmgKSan+EZCEIo4tGKPgNmqqSaqPeP6n4/7zWRSO0zdB2CEjaglcZ4hCE0UWjus3QzjLUMzVN1JOHIIwmGtXg12qqTII1UY+6EywDHI1A8Gs6VCbBmmPCakIQBoxGNfg1msqSwrNDv6oQhAGjUdlmaCbDsqTghqLCEIQBo1EO/hbYoSwpFPXBTqUhCHPVVW6jEvygptKZGjQ7rDwEYYBolIMf1LQoaUudHa4kBGHulAVHCn7onE2WVIn6FYUgDBCNxeAHNC1Kqm4oVhaCMGMlGovBD2hakFSJ+gD35UoMPkmmFoNf1bQgqRL1/nQtlpgicjQWg1/RVJRUifqVhyCMHI2F4Fc0FSWVoj5chxCEuSouOOLBoqypKKkU9WsSgjDnnwsLjhj8kqbCJLgY9WsUgjAfxAVHDH5J01zS4jHhWoUgzKn4ECcEf/EAI5e0eEzYRXkFiJhJIRrz4NdIKkb9SneCZRB3jfmrxEVNswaFqF/LEIQ5y5/F8+AXNc0OfsWoX9MQhJmcZNGYBz8gqTA7DHcwXv6pkHzXmAW/+NaCEvVrHYIweTSmwZ9rmkqaRX3go/9JaBVk0ZgGvyxpFvUbEIIwp/OHuHS1yTUtRv1GhCBMumucB3+maV2M+jXcCZZhvmuc/1cFBUnnUb9BIQgzj8Yk+OuCpPNVZqNCECaJxmS+ONe0nkX9xoUgzGzXmAR/J5U0iXof9c9AV8gsGmerTT2VNI76DQ1BmJ/RgrMTrTazc7Z6ckwYTjc0BGFOw2AW/J3ZwW8c9STv3q2S8dSPgz/WtBVF/cbsBMvwqRv9FCNNI0k3PwRhfgXBbqvTedLu34MQ1HDSjZ5N24+8exGCMFe/n+39c3cvDU05//e/exSCIJN7FYIMwzAMwzAMwzAMwzAMwzAMwzAMwzAMwzAMs3H8Dz/s24AqYRBpAAAAAElFTkSuQmCC;" vertex="1" parent="1">
          <mxGeometry x="397.5" y="337" width="60" height="60" as="geometry" />
        </mxCell>
      </root>
    </mxGraphModel>
  </diagram>
</mxfile>
